<svg width="57" height="22" viewBox="0 0 57 22" fill="none" xmlns="http://www.w3.org/2000/svg">
<path d="M9.78649 1.28882C11.5309 1.25165 14.1149 1.21364 15.8599 1.21364C17.0635 1.21364 18.2691 1.14771 19.4686 1.07517C20.825 0.993139 22.2173 1.07121 23.5752 1.07121C24.9432 1.07121 26.3061 1 27.6777 1C31.1466 1 34.6146 1.04944 38.0815 1.13847C41.0161 1.21384 43.9925 1.22832 46.7801 2.19483C48.7538 2.87909 50.7545 3.4626 52.5117 4.56074C53.5216 5.19183 54.6198 5.96939 55.2889 6.92665C56.0308 7.98816 56.1106 9.40667 55.8967 10.61C55.752 11.4236 55.3463 12.2454 55.0525 13.0195C54.9132 13.3867 54.7452 13.7088 54.5461 14.0481C54.2569 14.5411 53.9947 15.0406 53.6977 15.5278C53.317 16.1523 52.7894 16.9026 52.1403 17.3082C51.6518 17.6135 51.0834 17.776 50.5787 18.052C49.9897 18.3741 49.2085 18.6175 48.5528 18.7879C47.0352 19.1823 45.4874 19.4201 43.927 19.6227C42.0181 19.8704 40.0835 19.8007 38.1617 19.8007C36.4569 19.8007 34.7509 19.7817 33.0463 19.8007C31.1853 19.8215 29.3205 19.9312 27.4582 19.9431C26.3753 19.9501 25.3065 20.1713 24.2294 20.2597C23.2932 20.3364 22.3449 20.2992 21.4058 20.2992C17.781 20.2992 14.2705 19.8997 10.7277 19.1756C8.02159 18.6225 5.29311 17.7754 2.94488 16.3666C1.81386 15.688 1.10139 14.5929 1.04982 13.336C0.927971 10.3662 0.93714 7.41858 2.18517 4.64778C2.89764 3.06599 4.99889 2.34542 6.5535 1.75171C6.89354 1.62185 7.27743 1.60379 7.6382 1.55389C8.35951 1.45413 9.05178 1.30447 9.78649 1.28882Z" fill="#66BE8B" stroke="#489B6D" stroke-width="2" stroke-linecap="round"/>
<path d="M7 9.47679C7 9.66223 7.24836 9.73749 7.38344 9.79475C8.03823 10.0723 8.71278 10.2938 9.41285 10.3985C10.171 10.512 10.9611 10.5906 11.7124 10.3871C12.0221 10.3031 12.2627 10.0752 12.4793 9.83837C13.1063 9.1527 12.6861 8.0245 12.0545 7.51848C11.6868 7.22391 11.2636 7.0339 10.8017 7.00193C10.6416 6.99084 10.4705 7.02885 10.3203 7.08343C10.0752 7.17249 9.82197 7.24594 9.5817 7.34859C9.07233 7.56619 8.59092 7.9708 8.35621 8.50452C8.22977 8.79202 8.19504 9.12223 8.15686 9.43317C8.11596 9.7663 8.07843 10.0956 8.07843 10.4318C8.07843 10.9582 8.11526 11.5029 8.32571 11.9884C8.57539 12.5644 8.92689 13.0369 9.42593 13.3934C9.95441 13.771 10.6192 13.8871 11.2418 13.9559C11.5109 13.9856 11.887 14.0608 12.1329 13.9031C12.3559 13.76 12.5708 13.63 12.8148 13.5266C12.8911 13.4942 12.9362 13.468 13 13.4232" stroke="#489B6D" stroke-width="2" stroke-linecap="round"/>
<path d="M16 8C16.2772 9.22245 16.6598 10.4372 17.1806 11.557C17.2548 11.7168 17.3794 11.8052 17.4734 11.9534C17.6591 12.2459 17.8507 12.4851 18.0758 12.7376C18.1364 12.8056 18.2456 13.0202 18.3521 12.9985C18.5214 12.9639 18.7025 12.6367 18.8019 12.5089C19.3063 11.8608 19.8053 11.2269 20.2467 10.5204C20.524 10.0766 20.7225 9.57011 20.837 9.04339C20.8725 8.87969 20.9533 8.73649 21 8.57929" stroke="#489B6D" stroke-width="2" stroke-linecap="round"/>
<path d="M24 11.7338C24.8771 11.7338 25.7572 11.5611 26.621 11.4121C27.2342 11.3063 27.8689 11.2011 28.462 10.9893C28.7355 10.8916 29.0956 10.7295 29.1618 10.3707C29.3109 9.56363 28.6949 8.81859 28.1245 8.46358C27.6906 8.19355 27.223 8.02704 26.7275 8.00195C26.3347 7.98207 26.0528 8.11401 25.7483 8.39208C25.1905 8.90135 24.7785 9.74371 24.8188 10.5619C24.8706 11.6141 25.5064 12.5665 26.1798 13.2539C26.6353 13.7189 27.3302 13.7087 27.9087 13.7762C28.6048 13.8574 29.2992 14 30 14" stroke="#489B6D" stroke-width="2" stroke-linecap="round"/>
<path d="M33 9.14119C33 10.5413 33.2471 11.9294 33.2471 13.3261C33.2471 13.3808 33.2185 13.7472 33.2686 13.634C33.3963 13.3457 33.5255 13.0656 33.6216 12.7663C33.7844 12.2593 33.9117 11.7351 34.1158 11.2409C34.3085 10.7741 34.5278 10.221 34.8942 9.84411C35.2641 9.46361 35.7704 9.09694 36.3375 9.018C37.0203 8.92294 37.8342 9.21232 38.2748 9.69737C38.5319 9.98039 38.7758 10.3075 38.8729 10.6702C39.0082 11.1758 38.9896 11.7361 38.9984 12.2536C39.0062 12.712 38.9849 13.1715 38.9474 13.6286C38.9416 13.6999 38.9698 13.9652 38.8945 14" stroke="#489B6D" stroke-width="2" stroke-linecap="round"/>
<path d="M42 8.7959C42.3084 8.7959 42.6221 8.7959 42.9289 8.7959C43.6857 8.7959 44.4108 8.7959 45.1625 8.7959C45.8988 8.7959 46.6479 8.7959 47.3878 8.7959" stroke="#489B6D" stroke-width="2" stroke-linecap="round"/>
<path d="M44.8694 7C44.8428 8.68717 44.8255 10.376 44.7723 12.063C44.7543 12.6319 44.7295 13.1997 44.7295 13.7689C44.7295 13.8095 44.6729 14.0084 44.7023 14.035C44.7813 14.1066 45.0738 14.078 45.1687 14.078C45.4961 14.078 45.8247 14.0703 46.1519 14.0859C46.5616 14.1054 46.9836 14.1837 47.3877 14.1837" stroke="#489B6D" stroke-width="2" stroke-linecap="round"/>
</svg>
