<svg width="57" height="22" viewBox="0 0 57 22" fill="none" xmlns="http://www.w3.org/2000/svg">
<path d="M9.78649 1.63452C11.5309 1.59736 14.1149 1.55935 15.8599 1.55935C17.0635 1.55935 18.2691 1.49342 19.4686 1.42087C20.825 1.33884 22.2173 1.41692 23.5752 1.41692C24.9432 1.41692 26.3061 1.3457 27.6777 1.3457C31.1466 1.3457 34.6146 1.39514 38.0815 1.48418C41.0161 1.55954 43.9925 1.57403 46.7801 2.54053C48.7538 3.22479 50.7545 3.8083 52.5117 4.90644C53.5216 5.53753 54.6198 6.31509 55.2889 7.27236C56.0308 8.33386 56.1106 9.75238 55.8967 10.9557C55.752 11.7693 55.3463 12.5911 55.0525 13.3652C54.9132 13.7324 54.7452 14.0545 54.5461 14.3938C54.2569 14.8868 53.9947 15.3863 53.6977 15.8735C53.317 16.498 52.7894 17.2483 52.1403 17.6539C51.6518 17.9592 51.0834 18.1217 50.5787 18.3977C49.9897 18.7198 49.2085 18.9632 48.5528 19.1336C47.0352 19.528 45.4874 19.7659 43.927 19.9684C42.0181 20.2161 40.0835 20.1464 38.1617 20.1464C36.4569 20.1464 34.7509 20.1274 33.0463 20.1464C31.1853 20.1672 29.3205 20.2769 27.4582 20.2888C26.3753 20.2958 25.3065 20.517 24.2294 20.6054C23.2932 20.6821 22.3449 20.6449 21.4058 20.6449C17.781 20.6449 14.2705 20.2454 10.7277 19.5213C8.02159 18.9682 5.29311 18.1211 2.94488 16.7123C1.81386 16.0337 1.10139 14.9386 1.04982 13.6817C0.927971 10.7119 0.93714 7.76429 2.18517 4.99348C2.89764 3.41169 4.99889 2.69112 6.5535 2.09742C6.89354 1.96755 7.27743 1.94949 7.6382 1.8996C8.35951 1.79984 9.05178 1.65017 9.78649 1.63452Z" fill="#66BE8B" stroke="white" stroke-width="2" stroke-linecap="round"/>
<path d="M7 9.82249C7 10.0079 7.24836 10.0832 7.38344 10.1405C8.03823 10.418 8.71278 10.6395 9.41285 10.7442C10.171 10.8577 10.9611 10.9363 11.7124 10.7328C12.0221 10.6488 12.2627 10.421 12.4793 10.1841C13.1063 9.49841 12.6861 8.3702 12.0545 7.86418C11.6868 7.56961 11.2636 7.3796 10.8017 7.34763C10.6416 7.33655 10.4705 7.37455 10.3203 7.42913C10.0752 7.51819 9.82197 7.59165 9.5817 7.69429C9.07233 7.9119 8.59092 8.3165 8.35621 8.85022C8.22977 9.13773 8.19504 9.46793 8.15686 9.77887C8.11596 10.112 8.07843 10.4413 8.07843 10.7775C8.07843 11.3039 8.11526 11.8486 8.32571 12.3341C8.57539 12.9101 8.92689 13.3826 9.42593 13.7391C9.95441 14.1167 10.6192 14.2328 11.2418 14.3016C11.5109 14.3313 11.887 14.4065 12.1329 14.2488C12.3559 14.1058 12.5708 13.9757 12.8148 13.8723C12.8911 13.8399 12.9362 13.8137 13 13.7689" stroke="white" stroke-width="2" stroke-linecap="round"/>
<path d="M16 8.3457C16.2772 9.56815 16.6598 10.7829 17.1806 11.9027C17.2548 12.0625 17.3794 12.1509 17.4734 12.2991C17.6591 12.5916 17.8507 12.8308 18.0758 13.0833C18.1364 13.1513 18.2456 13.3659 18.3521 13.3442C18.5214 13.3096 18.7025 12.9824 18.8019 12.8547C19.3063 12.2065 19.8053 11.5726 20.2467 10.8661C20.524 10.4223 20.7225 9.91581 20.837 9.3891C20.8725 9.22539 20.9533 9.08219 21 8.92499" stroke="white" stroke-width="2" stroke-linecap="round"/>
<path d="M24 12.0795C24.8771 12.0795 25.7572 11.9068 26.621 11.7578C27.2342 11.652 27.8689 11.5468 28.462 11.335C28.7355 11.2373 29.0956 11.0752 29.1618 10.7164C29.3109 9.90934 28.6949 9.1643 28.1245 8.80928C27.6906 8.53925 27.223 8.37274 26.7275 8.34766C26.3347 8.32778 26.0528 8.45971 25.7483 8.73779C25.1905 9.24705 24.7785 10.0894 24.8188 10.9076C24.8706 11.9598 25.5064 12.9122 26.1798 13.5996C26.6353 14.0646 27.3302 14.0544 27.9087 14.1219C28.6048 14.2031 29.2992 14.3457 30 14.3457" stroke="white" stroke-width="2" stroke-linecap="round"/>
<path d="M33 9.4869C33 10.887 33.2471 12.2751 33.2471 13.6718C33.2471 13.7265 33.2185 14.0929 33.2686 13.9798C33.3963 13.6914 33.5255 13.4113 33.6216 13.112C33.7844 12.605 33.9117 12.0809 34.1158 11.5866C34.3085 11.1198 34.5278 10.5667 34.8942 10.1898C35.2641 9.80931 35.7704 9.44264 36.3375 9.36371C37.0203 9.26865 37.8342 9.55802 38.2748 10.0431C38.5319 10.3261 38.7758 10.6532 38.8729 11.0159C39.0082 11.5215 38.9896 12.0818 38.9984 12.5993C39.0062 13.0577 38.9849 13.5172 38.9474 13.9743C38.9416 14.0456 38.9698 14.3109 38.8945 14.3457" stroke="white" stroke-width="2" stroke-linecap="round"/>
<path d="M42 9.1416C42.3084 9.1416 42.6221 9.1416 42.9289 9.1416C43.6857 9.1416 44.4108 9.1416 45.1625 9.1416C45.8988 9.1416 46.6479 9.1416 47.3878 9.1416" stroke="white" stroke-width="2" stroke-linecap="round"/>
<path d="M44.8694 7.3457C44.8428 9.03287 44.8255 10.7217 44.7723 12.4087C44.7543 12.9776 44.7295 13.5454 44.7295 14.1146C44.7295 14.1552 44.6729 14.3541 44.7023 14.3807C44.7813 14.4523 45.0738 14.4237 45.1687 14.4237C45.4961 14.4237 45.8247 14.416 46.1519 14.4316C46.5616 14.4511 46.9836 14.5294 47.3877 14.5294" stroke="white" stroke-width="2" stroke-linecap="round"/>
</svg>
