<svg width="291" height="449" viewBox="0 0 291 449" fill="none" xmlns="http://www.w3.org/2000/svg">
<path d="M271.537 338.599C269.709 340.639 267.99 342.775 266.228 344.869" stroke="#489B6D" stroke-width="4" stroke-linecap="round"/>
<path d="M276.467 341.435C276.042 342.158 275.755 342.967 275.464 343.749C275.295 344.203 275.134 344.858 274.874 345.242" stroke="#489B6D" stroke-width="4" stroke-linecap="round"/>
<path d="M280.941 342.256C280.888 342.888 280.562 343.475 280.562 344.122" stroke="#489B6D" stroke-width="4" stroke-linecap="round"/>
<path d="M288.981 341.361C288.897 341.454 288.829 341.535 288.829 341.659" stroke="#489B6D" stroke-width="4" stroke-linecap="round"/>
<path d="M266.406 102.98C264.578 105.019 262.859 107.155 261.097 109.249" stroke="#489B6D" stroke-width="4" stroke-linecap="round"/>
<path d="M271.336 105.816C270.911 106.539 270.624 107.347 270.333 108.129C270.164 108.583 270.003 109.238 269.743 109.622" stroke="#489B6D" stroke-width="4" stroke-linecap="round"/>
<path d="M275.811 106.637C275.757 107.268 275.432 107.855 275.432 108.503" stroke="#489B6D" stroke-width="4" stroke-linecap="round"/>
<path d="M283.85 105.741C283.766 105.834 283.698 105.916 283.698 106.04" stroke="#489B6D" stroke-width="4" stroke-linecap="round"/>
<path d="M7.309 96.2479C5.48067 98.287 3.76219 100.423 2 102.517" stroke="#489B6D" stroke-width="4" stroke-linecap="round"/>
<path d="M12.2387 99.0838C11.8143 99.8066 11.5266 100.615 11.2359 101.398C11.0672 101.851 10.9063 102.506 10.646 102.89" stroke="#489B6D" stroke-width="4" stroke-linecap="round"/>
<path d="M16.7134 99.9047C16.66 100.536 16.3342 101.123 16.3342 101.771" stroke="#489B6D" stroke-width="4" stroke-linecap="round"/>
<path d="M24.7528 99.009C24.6687 99.102 24.6011 99.1836 24.6011 99.3075" stroke="#489B6D" stroke-width="4" stroke-linecap="round"/>
<path d="M144.981 187.13C143.153 189.169 141.434 191.305 139.672 193.399" stroke="#489B6D" stroke-width="4" stroke-linecap="round"/>
<path d="M149.911 189.966C149.487 190.688 149.199 191.497 148.908 192.279C148.74 192.733 148.579 193.388 148.318 193.772" stroke="#489B6D" stroke-width="4" stroke-linecap="round"/>
<path d="M154.386 190.787C154.332 191.418 154.007 192.005 154.007 192.652" stroke="#489B6D" stroke-width="4" stroke-linecap="round"/>
<path d="M162.425 189.891C162.341 189.984 162.273 190.066 162.273 190.189" stroke="#489B6D" stroke-width="4" stroke-linecap="round"/>
<path d="M5.73364 261.182C4.74572 261.668 4.07334 262.371 3.27349 263.109C2.8672 263.484 2.47764 264.279 2 264.514" stroke="#489B6D" stroke-width="4" stroke-linecap="round"/>
<path d="M10.596 262.72C10.1417 263.098 9.68394 263.339 9.28876 263.793C8.95214 264.179 8.65523 264.574 8.42529 265.027" stroke="#489B6D" stroke-width="4" stroke-linecap="round"/>
<path d="M18.6711 263.147C18.1222 263.349 17.6845 263.711 17.195 264.021C16.9309 264.188 16.721 264.439 16.4136 264.514" stroke="#489B6D" stroke-width="4" stroke-linecap="round"/>
<path d="M23.0126 263.916C22.9786 264.183 22.6653 264.385 22.6653 264.685" stroke="#489B6D" stroke-width="4" stroke-linecap="round"/>
<path d="M169.779 250.242C167.951 252.281 166.232 254.418 164.47 256.512" stroke="#489B6D" stroke-width="4" stroke-linecap="round"/>
<path d="M174.709 253.078C174.285 253.801 173.997 254.61 173.706 255.392C173.538 255.845 173.377 256.5 173.116 256.884" stroke="#489B6D" stroke-width="4" stroke-linecap="round"/>
<path d="M179.184 253.899C179.13 254.531 178.805 255.117 178.805 255.765" stroke="#489B6D" stroke-width="4" stroke-linecap="round"/>
<path d="M187.223 253.003C187.139 253.096 187.071 253.178 187.071 253.302" stroke="#489B6D" stroke-width="4" stroke-linecap="round"/>
<path d="M238.044 234.254C237.311 234.942 236.048 236.12 235.29 236.865C234.895 237.254 234.466 237.652 234.189 238.138C234.028 238.422 233.908 238.706 233.824 239.019C233.775 239.2 233.734 239.306 233.734 239.496" stroke="#489B6D" stroke-width="4" stroke-linecap="round"/>
<path d="M243.671 236.315C242.912 236.506 242.282 237.27 241.742 237.801C241.466 238.073 241.076 238.4 240.977 238.79" stroke="#489B6D" stroke-width="4" stroke-linecap="round"/>
<path d="M253.428 237.022C252.691 237.232 252.034 237.823 251.692 238.495" stroke="#489B6D" stroke-width="4" stroke-linecap="round"/>
<path d="M18.4198 384.04C17.6331 384.69 16.7858 385.267 16.0121 385.932C15.5652 386.317 14.9311 386.805 14.8267 387.421" stroke="#489B6D" stroke-width="4" stroke-linecap="round"/>
<path d="M23.6834 386.336C23.3674 386.558 23.0845 386.822 22.8149 387.095C22.5635 387.35 22.2451 387.559 22.0444 387.855" stroke="#489B6D" stroke-width="4" stroke-linecap="round"/>
<path d="M28.222 387.297C28.222 387.607 28.1589 387.916 28.1589 388.228" stroke="#489B6D" stroke-width="4" stroke-linecap="round"/>
<path d="M33.7376 387.36C33.7376 387.477 33.7061 387.586 33.7061 387.701" stroke="#489B6D" stroke-width="4" stroke-linecap="round"/>
<path d="M5.73364 261.182C4.74572 261.668 4.07334 262.371 3.27349 263.109C2.8672 263.484 2.47764 264.279 2 264.514" stroke="#489B6D" stroke-width="4" stroke-linecap="round"/>
<path d="M10.596 262.72C10.1417 263.098 9.68394 263.339 9.28876 263.793C8.95214 264.179 8.65523 264.574 8.42529 265.027" stroke="#489B6D" stroke-width="4" stroke-linecap="round"/>
<path d="M18.6711 263.147C18.1222 263.349 17.6845 263.711 17.195 264.021C16.9309 264.188 16.721 264.439 16.4136 264.514" stroke="#489B6D" stroke-width="4" stroke-linecap="round"/>
<path d="M23.0126 263.916C22.9786 264.183 22.6653 264.385 22.6653 264.685" stroke="#489B6D" stroke-width="4" stroke-linecap="round"/>
<path d="M82.6934 2C81.7054 2.4861 81.0331 3.18938 80.2332 3.92731C79.8269 4.30214 79.4374 5.09742 78.9597 5.33244" stroke="#489B6D" stroke-width="4" stroke-linecap="round"/>
<path d="M87.5557 3.53839C87.1014 3.91672 86.6437 4.15752 86.2485 4.61123C85.9119 4.9977 85.6149 5.39291 85.385 5.84546" stroke="#489B6D" stroke-width="4" stroke-linecap="round"/>
<path d="M95.6308 3.9657C95.0819 4.16694 94.6442 4.52951 94.1548 4.83916C93.8907 5.00623 93.6807 5.25722 93.3733 5.33285" stroke="#489B6D" stroke-width="4" stroke-linecap="round"/>
<path d="M99.9723 4.73407C99.9383 5.00152 99.625 5.20396 99.625 5.50309" stroke="#489B6D" stroke-width="4" stroke-linecap="round"/>
<path d="M161.363 335.233C160.375 335.72 159.703 336.423 158.903 337.161C158.497 337.536 158.107 338.331 157.629 338.566" stroke="#489B6D" stroke-width="4" stroke-linecap="round"/>
<path d="M166.226 336.772C165.771 337.15 165.314 337.391 164.918 337.845C164.582 338.231 164.285 338.626 164.055 339.079" stroke="#489B6D" stroke-width="4" stroke-linecap="round"/>
<path d="M174.301 337.199C173.752 337.4 173.314 337.763 172.824 338.073C172.56 338.24 172.35 338.491 172.043 338.566" stroke="#489B6D" stroke-width="4" stroke-linecap="round"/>
<path d="M178.642 337.967C178.608 338.235 178.295 338.437 178.295 338.736" stroke="#489B6D" stroke-width="4" stroke-linecap="round"/>
<path d="M169.779 250.242C167.951 252.281 166.232 254.418 164.47 256.512" stroke="#489B6D" stroke-width="4" stroke-linecap="round"/>
<path d="M174.709 253.078C174.285 253.801 173.997 254.61 173.706 255.392C173.538 255.845 173.377 256.5 173.116 256.884" stroke="#489B6D" stroke-width="4" stroke-linecap="round"/>
<path d="M179.184 253.899C179.13 254.531 178.805 255.117 178.805 255.765" stroke="#489B6D" stroke-width="4" stroke-linecap="round"/>
<path d="M187.223 253.003C187.139 253.096 187.071 253.178 187.071 253.302" stroke="#489B6D" stroke-width="4" stroke-linecap="round"/>
<path d="M238.044 234.254C237.311 234.942 236.048 236.12 235.29 236.865C234.895 237.254 234.466 237.652 234.189 238.138C234.028 238.422 233.908 238.706 233.824 239.019C233.775 239.2 233.734 239.306 233.734 239.496" stroke="#489B6D" stroke-width="4" stroke-linecap="round"/>
<path d="M78.9941 323.452C78.2616 324.141 76.9982 325.318 76.2405 326.064C75.8455 326.453 75.4165 326.851 75.1397 327.337C74.9782 327.621 74.858 327.905 74.7739 328.218C74.7251 328.399 74.6841 328.505 74.6841 328.695" stroke="#489B6D" stroke-width="4" stroke-linecap="round"/>
<path d="M124.315 69.3199C123.582 70.0084 122.319 71.1859 121.561 71.9315C121.166 72.3202 120.737 72.7187 120.46 73.2046C120.299 73.488 120.179 73.7721 120.094 74.0849C120.046 74.2663 120.005 74.3725 120.005 74.5628" stroke="#489B6D" stroke-width="4" stroke-linecap="round"/>
<path d="M18.4198 384.04C17.6331 384.69 16.7858 385.267 16.0121 385.932C15.5652 386.317 14.9311 386.805 14.8267 387.421" stroke="#489B6D" stroke-width="4" stroke-linecap="round"/>
<path d="M23.6834 386.336C23.3674 386.558 23.0845 386.822 22.8149 387.095C22.5635 387.35 22.2451 387.559 22.0444 387.855" stroke="#489B6D" stroke-width="4" stroke-linecap="round"/>
<path d="M28.222 387.297C28.222 387.607 28.1589 387.916 28.1589 388.228" stroke="#489B6D" stroke-width="4" stroke-linecap="round"/>
<path d="M33.7376 387.36C33.7376 387.477 33.7061 387.586 33.7061 387.701" stroke="#489B6D" stroke-width="4" stroke-linecap="round"/>
<path d="M272.022 425.274C271.741 425.316 271.436 425.359 271.183 425.497C269.442 426.447 267.844 427.78 266.228 428.907" stroke="#489B6D" stroke-width="4" stroke-linecap="round"/>
<path d="M274.408 427.119C273.89 427.643 273.427 428.215 272.985 428.802C272.657 429.237 272.115 429.81 272.022 430.361" stroke="#489B6D" stroke-width="4" stroke-linecap="round"/>
<path d="M279.974 428.18C279.947 428.453 279.648 428.732 279.523 428.966C279.385 429.224 279.322 429.661 279.122 429.857" stroke="#489B6D" stroke-width="4" stroke-linecap="round"/>
<path d="M288.324 426.168C288.313 426.268 288.268 426.34 288.268 426.447" stroke="#489B6D" stroke-width="4" stroke-linecap="round"/>
<path d="M270.817 442.945C269.829 443.431 269.156 444.135 268.356 444.873C267.95 445.247 267.561 446.043 267.083 446.278" stroke="#489B6D" stroke-width="4" stroke-linecap="round"/>
<path d="M275.679 444.484C275.225 444.862 274.767 445.103 274.372 445.556C274.035 445.943 273.738 446.338 273.509 446.791" stroke="#489B6D" stroke-width="4" stroke-linecap="round"/>
<path d="M283.754 444.911C283.205 445.112 282.768 445.475 282.278 445.784C282.014 445.951 281.804 446.202 281.497 446.278" stroke="#489B6D" stroke-width="4" stroke-linecap="round"/>
<path d="M288.096 445.679C288.062 445.947 287.749 446.149 287.749 446.448" stroke="#489B6D" stroke-width="4" stroke-linecap="round"/>
</svg>
