<svg width="334" height="162" viewBox="0 0 334 162" fill="none" xmlns="http://www.w3.org/2000/svg">
<path d="M106.813 69.8438C109.611 79.3438 115.185 86.7374 117.075 87.9974C117.075 90.9294 116.888 95.5302 115.599 98.1092C114.908 99.4896 114.412 101.816 113.134 102.838C112.366 103.453 111.604 104.733 110.544 104.865C109.518 104.994 108.727 107.822 109.318 108.581C110.477 110.072 113.171 109.595 114.935 109.595C116.805 109.595 118.509 109.699 120.203 108.869C121.807 108.082 123.6 107.958 125.182 107.167C126.237 106.64 127.267 105.652 128.197 104.903C130.687 102.897 133.352 100.319 135.992 98.5596C138.186 100.997 140.989 103.175 142.86 105.879C144.158 107.753 146.138 110 148.265 110.946C150.974 112.149 153.466 114.005 156.66 113.023C157.878 112.648 159.1 112.329 160.088 111.396C160.943 110.588 162.409 108.967 163.406 108.468H193.593C194.604 108.468 196.426 108.202 197.021 109.244C197.469 110.028 198.268 110.935 198.961 111.521C200.565 112.879 203.167 113.079 205.141 113.21C205.959 113.265 206.49 113.358 207.268 113.185C207.747 113.079 208.14 112.641 208.619 112.535C209.526 112.333 209.926 111.412 210.759 110.996C211.572 110.589 212.342 109.984 213.049 109.429L213.061 109.419C214.517 108.275 217.518 108.137 218.416 106.567C218.861 105.786 219.295 104.88 219.767 104.115C220.223 103.372 219.992 102.09 219.992 101.212C219.992 99.9177 218.311 100.361 217.34 100.361C216.777 100.361 215.736 99.9876 214.736 99.6744C215.395 98.9425 215.612 97.4361 216.051 96.6454C217.331 94.3417 216.839 90.7209 216.839 88.1503C216.839 85.2957 215.766 82.2367 214.012 79.9805C213.266 79.0218 212.266 78.126 211.66 77.0654C211.216 76.2889 209.359 75.5564 209.236 74.5798C210.581 71.8214 210.468 67.8581 210.468 65.1028C210.468 60.2819 206.692 46.3189 202.736 40.1744C201.765 39.0084 191.736 24.591 174.236 19.1744C153.236 12.6744 135.476 19.2211 132.491 20.5477C130.611 21.383 128.487 22.3986 126.828 23.5971C112.236 32.1744 107.251 43.1129 106.813 45.7415C104.111 55.8438 104.698 59.8438 106.813 69.8438Z" fill="white"/>
<path d="M121.165 90.1514C119.247 90.1514 118.487 88.9393 117.075 87.9974M117.075 87.9974C115.185 86.7374 109.611 79.3438 106.813 69.8438C104.698 59.8438 104.111 55.8438 106.813 45.7415C107.251 43.1129 112.236 32.1744 126.828 23.5971C128.487 22.3986 130.611 21.383 132.491 20.5477C135.476 19.2211 153.236 12.6744 174.236 19.1744C191.736 24.591 201.765 39.0084 202.736 40.1744C206.692 46.3189 210.468 60.2819 210.468 65.1028C210.468 68.3869 210.629 73.3871 208.29 76.0177C206.291 78.2664 205.026 81.764 202.191 83.1813M117.075 87.9974C117.075 90.9294 116.888 95.5302 115.599 98.1092C114.908 99.4896 114.412 101.816 113.134 102.838C112.366 103.453 111.604 104.733 110.544 104.865C109.518 104.994 108.727 107.822 109.318 108.581C110.477 110.072 113.171 109.595 114.935 109.595C116.805 109.595 118.509 109.699 120.203 108.869C121.807 108.082 123.6 107.958 125.182 107.167C126.237 106.64 127.267 105.652 128.197 104.903C130.687 102.897 133.352 100.319 135.992 98.5596C138.186 100.997 140.989 103.175 142.86 105.879C144.158 107.753 146.138 110 148.265 110.946C150.974 112.149 153.466 114.005 156.66 113.023C157.878 112.648 159.1 112.329 160.088 111.396C160.943 110.588 162.409 108.967 163.406 108.468H193.593C194.604 108.468 196.426 108.202 197.021 109.244C197.469 110.028 198.268 110.935 198.961 111.521C200.565 112.879 203.167 113.079 205.141 113.21C205.959 113.265 206.49 113.358 207.268 113.185C207.747 113.079 208.14 112.641 208.619 112.535C209.526 112.333 209.926 111.412 210.759 110.996C211.572 110.589 212.342 109.984 213.049 109.429L213.061 109.419C214.517 108.275 217.518 108.137 218.416 106.567C218.861 105.786 219.295 104.88 219.767 104.115C220.223 103.372 219.992 102.09 219.992 101.212C219.992 99.9177 218.311 100.361 217.34 100.361C216.777 100.361 215.736 99.9876 214.736 99.6744M209.236 74.5798C209.359 75.5564 211.216 76.2889 211.66 77.0654C212.266 78.126 213.266 79.0218 214.012 79.9805C215.766 82.2367 216.839 85.2957 216.839 88.1503C216.839 90.7209 217.331 94.3417 216.051 96.6454C215.612 97.4361 215.395 98.9425 214.736 99.6744M214.736 99.6744C214.06 100.426 213.094 101.011 212.786 101.938" stroke="black" stroke-width="3" stroke-linecap="round"/>
<path d="M167.43 77.5039C167.248 81.5119 167.736 87.6585 167.736 91.6746C167.414 90.2382 162.527 92.7573 162.22 93.9277C162.226 94.0117 162.231 94.094 162.236 94.1746C162.2 94.1022 162.196 94.019 162.22 93.9277C161.974 90.1167 161.666 82.794 161.796 79.1391C161.831 78.1512 162.874 78.0249 163.636 77.8233C164.278 77.6534 165.131 77.3889 165.769 77.3889C166.244 77.3889 167.034 77.2403 167.43 77.5039Z" fill="#81685A" stroke="black" stroke-width="3" stroke-linecap="round"/>
<path d="M177.669 71.3289C177.975 69.645 177.681 68.1636 177.681 66.4325C177.38 66.2818 176.758 62.4143 176.495 61.8894C175.96 60.8197 175.243 59.6402 174.451 58.7598C172.583 56.6839 170.196 54.8087 167.236 54.1745C160.236 52.6747 153.736 55.1745 151.105 61.5613C149.736 69.6745 152.675 72.2883 152.909 73.5752C153.334 75.9105 154.042 76.826 156.216 77.6766C157.873 78.3253 159.985 80.0617 161.781 80.0617C165.449 80.0617 169.63 80.3134 172.596 77.9921C174.806 76.2621 177.139 74.2433 177.669 71.3289Z" fill="#9EDCDD" stroke="black" stroke-width="3" stroke-linecap="round"/>
<path d="M158.915 65.3902C158.967 65.1071 159.175 64.7909 159.281 64.5283C159.325 64.4028 159.371 64.3021 159.423 64.1853C159.505 63.9987 159.706 63.7987 159.854 63.6686C160.017 63.5245 160.106 63.3627 160.295 63.2454C161.391 62.5655 162.802 62.6819 164.048 62.6819C164.504 62.6819 165.041 62.6609 165.475 62.8512C165.841 63.012 166.187 63.2427 166.544 63.4258C167.276 63.8022 168.045 64.5283 168.527 65.1987C168.985 66.3284 168.631 67.6624 168.045 68.6821C167.702 69.279 167.388 69.8498 166.915 70.3615C166.384 70.9353 165.716 71.3398 164.951 71.5197C164.315 71.6695 163.774 71.7124 163.118 71.64C162.171 71.5355 161.196 71.3864 160.302 71.0408C159.688 70.8037 159.233 70.5249 158.946 69.916C158.667 69.3252 158.747 68.544 158.747 67.9115C158.747 67.0578 158.76 66.2319 158.915 65.3902Z" fill="black" stroke="black" stroke-width="3" stroke-linecap="round"/>
<path d="M125.063 69.124C124.837 69.124 124.123 69.6724 124.37 69.8966C124.521 70.034 124.985 70.1533 125.186 70.2126C125.372 70.2672 125.496 70.3203 125.696 70.3092C125.839 70.3012 126.462 70.1401 126.547 70.0546C126.945 69.657 125.404 69.203 125.142 69.203" stroke="black" stroke-width="3" stroke-linecap="round"/>
<path d="M142.781 78.676C143.615 77.904 144.652 76.6656 145.883 76.62C147.025 76.3346 148.947 76.7939 150.09 76.8155C151.106 76.8347 152.189 77.4448 153.094 77.858C154.17 78.3495 154.923 78.9833 155.689 79.9104C156.047 80.3434 156.173 80.8338 156.294 81.3764C156.458 82.1177 156.299 83.1835 156.08 83.8885C155.835 84.6797 155.657 85.5156 155.15 86.1978C154.691 86.8157 154.186 87.4743 153.546 87.9172C152.889 88.3723 151.787 88.5296 151.002 88.5434C149.328 88.5728 147.621 88.6267 145.956 88.4457C145.084 88.3509 144.374 88.0482 143.683 87.5009C142.967 86.9347 142.137 86.0306 141.844 85.1517C141.472 84.036 141.388 82.9133 141.388 81.7383C141.388 81.1424 141.396 80.5209 141.677 79.9791C141.952 79.4513 142.355 79.071 142.781 78.676Z" fill="#FEBE31" stroke="black" stroke-width="3" stroke-linecap="round"/>
<path d="M135.915 84.1128C137.413 84.1128 138.904 83.7542 140.396 83.6422C141.604 83.5515 142.83 83.4364 144.041 83.3997C144.641 83.3815 145.234 83.4052 145.833 83.3454C146.686 83.2601 147.563 83.0703 148.424 83.0703" stroke="black" stroke-width="3" stroke-linecap="round"/>
<path d="M178.812 89.8062C178.189 89.8628 177.558 90.463 177.043 90.777C176.31 91.2241 175.659 91.7441 174.909 92.1631C174.193 92.5637 173.396 92.9105 172.578 92.9105C171.47 92.9105 170.503 92.6928 169.442 92.457C168.468 92.2405 167.535 91.7586 166.561 91.5563C165.69 91.3756 164.943 90.9541 164.21 91.6457C163.75 92.0806 163.526 92.5506 163.24 93.0829C163.058 93.4193 163.028 93.8625 162.888 94.2199C162.754 94.5627 162.527 94.8659 162.428 95.2227C161.914 97.0735 162.473 98.375 163.757 99.8728C164.42 100.647 165.62 101.371 166.484 101.878C167.31 102.363 168.272 103.109 169.225 103.316C170.64 103.623 172.003 103.736 173.447 103.718C174.636 103.703 175.79 103.294 176.922 102.977C178.27 102.6 181.259 102.241 181.802 100.614" stroke="black" stroke-width="3" stroke-linecap="round"/>
<path d="M171.886 62.2476C172.096 62.5626 172.37 62.8234 172.566 63.1477C172.72 63.4028 172.86 63.6499 172.973 63.9257C173.427 65.0282 173.481 66.1658 173.554 67.3409C173.614 68.3077 173.554 69.2688 173.389 70.2206C173.305 70.7028 173.135 71.2002 172.839 71.5953" stroke="white" stroke-width="3" stroke-linecap="round"/>
<path d="M170.53 74.4912C170.451 74.4912 170.441 74.5354 170.383 74.5645" stroke="white" stroke-width="3" stroke-linecap="round"/>
<path d="M164.284 65.278C164.252 65.1829 164.24 64.8303 164.371 64.8157C164.615 64.6014 164.919 64.5712 165.076 64.6039C165.221 64.6344 165.505 64.7257 165.617 64.832C166.093 65.2829 166.195 66.0759 166.123 66.6894C166.11 66.7925 165.936 67.3451 165.764 67.2637C165.642 67.2057 165.54 67.0077 165.467 66.9012C165.357 66.7415 165.215 66.6064 165.104 66.4491C164.939 66.2156 164.783 65.9909 164.599 65.7688C164.481 65.6256 164.343 65.4558 164.284 65.278Z" fill="white" stroke="white" stroke-width="3" stroke-linecap="round"/>
<path d="M160.962 67.8193C160.944 67.9632 160.82 68.1164 160.815 68.2796C160.81 68.4841 160.828 68.6512 160.88 68.8458C160.958 69.132 161.068 69.249 161.365 69.249C161.766 69.249 161.395 68.6989 161.329 68.5688C161.227 68.3715 161.097 68.2001 160.999 68.0026" stroke="white" stroke-width="3" stroke-linecap="round"/>
<path d="M219.342 95.3352C219.017 95.1725 217.893 95.0504 217.559 94.8994C217.028 95.0764 216.434 95.0843 216.089 95.6026C215.437 96.5794 215.465 97.9557 215.465 99.0812V100.223C215.465 101.136 215.46 102.163 215.697 103.055C215.97 104.078 216.558 104.894 217.193 105.719C217.591 106.236 218.192 106.59 218.651 107.049C219.207 107.604 219.957 108.001 220.711 108.245C221.146 108.385 221.545 108.284 221.967 108.126C222.901 107.775 223.437 107.127 223.91 106.264C224.716 104.792 224.279 102.853 223.833 101.362C223.352 99.7515 222.372 98.1941 221.211 96.9891C220.632 96.3871 220.092 95.71 219.342 95.3352Z" fill="#FEBE31" stroke="black" stroke-width="3" stroke-linecap="round"/>
<path d="M105.275 107.907C105.571 107.907 105.783 107.997 106.041 108.147C106.975 108.689 107.871 109.397 108.673 110.117C109.272 110.655 109.854 111.339 110.519 111.783" stroke="#489B6D" stroke-width="3" stroke-linecap="round"/>
<path d="M111.83 107.85C111.972 107.888 112.116 108.032 112.235 108.112C112.715 108.436 113.129 108.873 113.489 109.322C113.871 109.798 114.091 110.356 114.281 110.928" stroke="#489B6D" stroke-width="3" stroke-linecap="round"/>
<path d="M117.188 107.622C117.243 108.284 117.67 108.9 117.783 109.563C117.879 110.123 117.986 110.7 117.986 111.27" stroke="#489B6D" stroke-width="3" stroke-linecap="round"/>
<path d="M143.876 111.034C143.933 111.241 144.277 111.417 144.432 111.53C144.911 111.881 145.38 112.242 145.834 112.625C146.362 113.069 147.01 113.575 147.275 114.238" stroke="#489B6D" stroke-width="3" stroke-linecap="round"/>
<path d="M150.916 110.743C150.76 111.99 151.013 113.232 151.013 114.481" stroke="#489B6D" stroke-width="3" stroke-linecap="round"/>
<path d="M155.236 111.083C154.919 112.112 154.993 113.224 154.993 114.287" stroke="#489B6D" stroke-width="3" stroke-linecap="round"/>
<path d="M160.091 111.713C159.799 111.805 159.521 112.05 159.282 112.231C158.833 112.571 158.421 112.934 158.068 113.375C157.877 113.614 157.706 113.891 157.599 114.178C157.554 114.299 157.54 114.423 157.469 114.529" stroke="#489B6D" stroke-width="3" stroke-linecap="round"/>
<path d="M197.636 114.68C197.859 114.287 198.181 113.961 198.473 113.619C198.924 113.087 199.357 112.542 199.833 112.032C200.233 111.605 200.599 111.291 201.097 111" stroke="#489B6D" stroke-width="3" stroke-linecap="round"/>
<path d="M202.14 114.735C202.167 114.6 202.328 114.455 202.409 114.357C202.749 113.945 203.132 113.57 203.525 113.21C204.765 112.074 206.097 111.117 207.523 110.231" stroke="#489B6D" stroke-width="3" stroke-linecap="round"/>
<path d="M207.798 114.735C207.879 114.717 207.919 114.62 207.975 114.564C208.189 114.351 208.457 114.186 208.719 114.04C209.821 113.427 210.943 112.991 212.137 112.593" stroke="#489B6D" stroke-width="3" stroke-linecap="round"/>
<path d="M212.137 115.944C212.363 115.923 212.583 115.786 212.802 115.727C213.111 115.645 213.412 115.614 213.73 115.614" stroke="#489B6D" stroke-width="3" stroke-linecap="round"/>
<path d="M2.01404 68.3711C3.42766 69.0779 5.56178 70.1135 5.56178 71.9188" stroke="#489B6D" stroke-width="3" stroke-linecap="round"/>
<path d="M7.33569 67.9277C8.27141 68.9804 8.95094 70.7148 9.55303 71.9189" stroke="#489B6D" stroke-width="3" stroke-linecap="round"/>
<path d="M16.6485 68.3711C16.5107 69.7496 15.3181 70.61 15.3181 71.9188" stroke="#489B6D" stroke-width="3" stroke-linecap="round"/>
<path d="M21.5266 70.5884C20.985 70.6561 21.1134 71.2384 20.6396 71.4753" stroke="#489B6D" stroke-width="3" stroke-linecap="round"/>
<path d="M279.316 130.926C280.591 131.21 281.134 133.406 281.778 134.373" stroke="#489B6D" stroke-width="3" stroke-linecap="round"/>
<path d="M286.209 129.449V132.896" stroke="#489B6D" stroke-width="3" stroke-linecap="round"/>
<path d="M294.24 131.696C293.627 131.773 292.978 133.631 292.856 134.118" stroke="#489B6D" stroke-width="3" stroke-linecap="round"/>
<path d="M301.853 133.772C301.833 133.932 301.797 133.887 301.68 133.945" stroke="#489B6D" stroke-width="3" stroke-linecap="round"/>
<path d="M251.503 2C252.342 3.07538 253.119 4.18725 253.87 5.31432" stroke="#489B6D" stroke-width="3" stroke-linecap="round"/>
<path d="M256.764 2.94678C256.764 3.78821 256.896 4.15678 257.238 4.84068" stroke="#489B6D" stroke-width="3" stroke-linecap="round"/>
<path d="M260.972 2.94678C260.972 3.60427 260.856 3.83196 260.499 4.3672" stroke="#489B6D" stroke-width="3" stroke-linecap="round"/>
<path d="M321.437 57.0103C321.359 57.792 320.398 60.6755 319.864 60.9424" stroke="#489B6D" stroke-width="3" stroke-linecap="round"/>
<path d="M326.19 57.4033C326.19 58.2118 325.796 58.6274 325.796 59.3694" stroke="#489B6D" stroke-width="3" stroke-linecap="round"/>
<path d="M314 58.583C314.48 58.643 314.366 59.1594 314.786 59.3694" stroke="#489B6D" stroke-width="3" stroke-linecap="round"/>
<path d="M332.481 59.3696C332.202 59.4045 331.939 59.6408 331.695 59.7628" stroke="#489B6D" stroke-width="3" stroke-linecap="round"/>
<circle cx="85" cy="144.344" r="13.75" fill="#FFC8B7" stroke="#1E1E1E" stroke-width="2.5"/>
<path d="M78.0973 143.752C78.15 143.07 78.4275 142.636 78.8221 142.098C79.2527 141.715 79.8376 141.82 80.1182 141.852C80.4931 141.895 81.0807 142.287 80.9816 142.724C80.8489 143.309 80.4676 143.788 80.0085 144.178C79.6692 144.466 79.0657 144.849 78.582 144.711C78.232 144.612 78.0736 144.058 78.0973 143.752Z" fill="#FEBE31" stroke="#1E1E1E" stroke-width="2.5" stroke-linecap="round"/>
<path d="M77.7538 146.001C78.3125 145.078 78.8907 144.17 79.4804 143.266" stroke="#1E1E1E" stroke-width="2.5" stroke-linecap="round"/>
<path d="M82.3376 136.271C82.4718 136.359 82.91 136.119 82.7649 136.052C82.7013 136.022 82.4999 136.143 82.4554 136.178" stroke="#1E1E1E" stroke-width="2.5" stroke-linecap="round"/>
<path d="M75.008 143.136C74.9789 143.181 74.6572 143.593 74.77 143.666C74.8155 143.696 75.0415 143.269 75.0488 143.206" stroke="#1E1E1E" stroke-width="2.5" stroke-linecap="round"/>
<path d="M84.4829 135.883C84.5452 135.915 84.696 135.893 84.7641 135.881C85.1101 135.819 85.4411 135.706 85.7837 135.623C86.0147 135.568 86.2477 135.463 86.4844 135.433C86.678 135.409 86.8569 135.338 87.0489 135.309C87.3828 135.258 87.7384 135.243 88.08 135.241C88.5052 135.238 88.9493 135.231 89.3741 135.288C89.8181 135.347 90.2758 135.349 90.7102 135.479C90.9866 135.562 91.2647 135.637 91.5271 135.761C91.6412 135.814 91.7733 135.859 91.8801 135.925C91.9165 135.948 92.041 136.029 92.0766 136.009" stroke="#61C5FD" stroke-width="2.5" stroke-linecap="round"/>
<circle cx="52" cy="132.344" r="11.75" fill="#FFB7E7" stroke="#1E1E1E" stroke-width="2.5"/>
<path d="M56.7047 126.561C56.9223 126.667 57.0855 126.746 57.2945 126.847" stroke="black" stroke-width="2.5" stroke-linecap="round"/>
<path d="M51.2384 124.909C50.9975 124.888 50.8169 124.872 50.5854 124.851" stroke="black" stroke-width="2.5" stroke-linecap="round"/>
<path d="M53.1761 127.244C53.2767 127.225 53.3997 127.189 53.4998 127.212C53.6321 127.243 53.7583 127.319 53.8809 127.381C53.9514 127.416 54.0022 127.459 54.0583 127.515C54.0976 127.553 54.1075 127.627 54.1324 127.675C54.1636 127.735 54.1656 127.83 54.1731 127.897C54.1841 127.998 54.1678 128.092 54.1671 128.192C54.1665 128.287 54.1168 128.381 54.068 128.454C54.0192 128.527 53.9642 128.553 53.8897 128.586C53.6399 128.697 53.4042 128.582 53.1614 128.491C53.0785 128.46 52.9944 128.415 52.9217 128.362C52.8354 128.299 52.7344 128.264 52.6481 128.199C52.5611 128.133 52.488 128.113 52.4876 127.986C52.4867 127.697 52.6812 127.521 52.8717 127.359C52.9458 127.297 53.0861 127.262 53.1761 127.244Z" fill="#FEBE31" stroke="#1E1E1E" stroke-width="2.5" stroke-linecap="round"/>
<path d="M51.9299 127.546C52.0185 127.567 52.1236 127.591 52.2148 127.612C52.3418 127.642 52.4689 127.671 52.5959 127.701C52.7865 127.745 52.9832 127.79 53.1722 127.834C53.3132 127.867 53.4562 127.9 53.5916 127.931" stroke="#1E1E1E" stroke-width="2.5" stroke-linecap="round"/>
<path d="M41 140.344C42.2365 142.817 44.0745 145.072 45.2613 147.446" stroke="#489B6D" stroke-width="3" stroke-linecap="round"/>
<path d="M44.7878 141.291C44.9358 142.622 46.4465 143.542 47.1552 144.605" stroke="#489B6D" stroke-width="3" stroke-linecap="round"/>
<path d="M49.9961 143.185C50.3701 143.605 50.6321 144.139 50.943 144.605" stroke="#489B6D" stroke-width="3" stroke-linecap="round"/>
<path d="M57.5717 143.185C57.6603 143.982 58.2656 144.793 58.5186 145.552" stroke="#489B6D" stroke-width="3" stroke-linecap="round"/>
<path d="M78.8282 159.58C78.8282 157.628 77.2565 156.256 75.7034 155.368" stroke="#489B6D" stroke-width="3" stroke-linecap="round"/>
<path d="M84.3987 160.395C84.3987 158.535 85.0355 157.112 85.8932 155.504" stroke="#489B6D" stroke-width="3" stroke-linecap="round"/>
<path d="M87.6594 159.444C87.7347 158.954 88.0568 158.524 88.3538 158.146C89.1732 157.103 90.067 156.112 90.9202 155.096" stroke="#489B6D" stroke-width="3" stroke-linecap="round"/>
</svg>
