<svg width="54" height="65" viewBox="0 0 54 65" fill="none" xmlns="http://www.w3.org/2000/svg">
<path d="M13.4826 59.9784C13.6868 59.3658 14.697 59.0618 15.3053 59.0618C15.4805 59.0618 15.6428 58.9664 15.806 58.9664C16.0022 58.9664 16.212 58.9187 16.4285 58.9187C16.7272 58.9187 17.0117 59.0141 17.3081 59.0141C17.445 59.0141 17.5962 59.0554 17.7267 59.0988C18.1683 59.2461 18.6541 59.311 19.0009 59.6578C19.4463 60.1032 20.1823 60.4665 20.1692 61.1599C20.1613 61.5775 19.8429 61.7585 19.6208 62.066C19.2273 62.6109 18.2291 62.6527 17.6445 62.6355C16.4933 62.6017 15.1917 62.5976 14.2085 61.9229C13.8423 61.6716 13.3025 61.2277 13.3025 60.7308C13.3025 60.423 13.3862 60.2677 13.4826 59.9784Z" fill="#FEBE31" stroke="black" stroke-width="2" stroke-linecap="round"/>
<path d="M40.3916 61.3746C41.0113 60.9142 41.653 60.4649 42.44 60.4649C42.9641 60.4649 44.2363 59.9083 44.7262 60.1077C44.9823 60.212 45.4118 60.6144 45.5684 60.8618C45.688 61.0506 45.8651 61.1965 45.9675 61.3991C46.2198 61.8976 45.8501 62.3705 45.6594 62.8003C45.4681 63.2315 44.7825 63.448 44.3916 63.5666C43.8498 63.731 43.1165 63.5971 42.5574 63.5971C42.1061 63.5971 41.6535 63.6088 41.2133 63.4872C40.7778 63.3669 39.9573 62.983 39.9573 62.4156C39.9573 61.9869 40.0415 61.6348 40.3916 61.3746Z" fill="#FEBE31" stroke="black" stroke-width="2" stroke-linecap="round"/>
<path d="M7.68134 16.0577C8.33245 13.6298 9.65901 11.1672 11.9182 8.78915C23.4996 -3.40179 39.7101 2.75097 44.2242 7.26528C45.748 8.7892 61.9011 24.6374 44.8337 34.9997C45.2147 35.6005 46.2016 36.3222 46.6399 36.8153C47.3727 37.6397 47.228 38.6669 47.4493 39.6627C47.5627 40.1731 47.6719 40.6772 47.7656 41.193C48.0032 42.4996 47.9583 43.7727 47.8466 45.0999C47.7729 45.975 47.6162 46.8464 47.5633 47.7191C47.5187 48.4557 47.3021 49.1916 47.3021 49.9264C47.3021 50.6576 46.9651 51.6516 46.5075 52.2072C46.2761 52.4883 46.046 52.5751 45.6761 52.5751C45.3561 52.5751 45.1596 52.5297 45.0153 52.4189C45.0153 52.8029 44.9077 53.7124 45.0153 54.089C45.049 54.207 45.0643 54.6524 45.1355 54.7414C45.4311 55.1109 45.1358 55.8924 45.1126 56.3095C45.0384 57.6453 45.0319 59.4806 44.0252 60.4873C43.536 60.9766 42.6123 61.5551 42.1023 60.7391C41.8699 60.3672 41.5071 60.1211 41.2782 59.709C40.8852 59.0016 40.3113 58.2165 39.7101 57.6487C39.12 57.0914 38.3679 56.8496 37.7471 56.3667C37.517 56.1878 37.1086 56.1546 36.8486 56.0005C36.205 55.6191 35.2453 55.6063 34.525 55.4053C34.3731 55.3629 34.1938 55.3014 34.0386 55.2851C33.3488 55.2125 32.6257 54.9248 31.9726 54.7071C31.0651 54.4046 30.0621 54.2977 29.1912 54.0489C28.6725 53.9007 27.4846 53.9104 26.9592 54.0661C26.3103 54.2584 25.6045 54.169 24.979 54.4324C24.4064 54.6735 23.791 54.8439 23.2507 55.1763C23.0221 55.317 22.7457 55.4796 22.501 55.5884C21.9554 55.8309 21.4026 56.6508 20.8012 56.7216C20.3979 56.769 19.6379 57.3459 19.3075 57.6029C18.3329 58.361 17.6738 59.6027 16.2228 59.1882C15.3489 58.9385 15.0913 57.4041 14.8264 56.6758C14.3904 55.4768 14.09 54.2558 13.7448 53.013C13.5181 52.1972 13.0752 51.2286 13.0752 50.3862C13.0752 49.8155 12.7099 49.1913 12.6631 48.5834C12.6137 47.9404 12.4007 47.2104 12.2511 46.5747C12.0272 45.6231 11.8755 44.6357 11.7017 43.6731C11.485 42.473 11.3412 41.2588 11.0378 40.079C10.8526 39.3589 10.6839 38.59 10.3968 37.9043C9.94145 36.8165 9.21686 35.9281 8.64557 34.9283C7.74771 33.3571 7.15084 31.7247 6.42504 30.0752C5.81069 28.679 5.31904 27.2054 4.57651 25.8688C4.09185 24.9964 3.42917 23.9652 2.80393 23.1745C2.32809 23.0476 1.79362 22.8503 1.41336 22.5123C1.29258 22.405 1.12669 22.3977 1.08595 22.2143C1.04361 22.0238 1.01605 21.7898 1.01605 21.5963C1.01605 20.9072 0.979933 20.2188 1.01605 19.5325C1.0496 18.8952 1.87993 18.6501 2.33673 18.3075C2.61378 18.0997 2.35239 17.4599 2.22268 17.2149C2.10876 16.9997 1.90824 16.798 1.81066 16.5785C1.49409 15.8662 1.41336 15.2046 1.41336 14.4043C1.41336 14.042 1.58636 13.6216 1.81066 13.3412C1.94704 13.1707 2.41929 13.002 2.59056 13.1903C3.38643 14.0658 3.94069 15.1481 4.54766 16.1554C4.71289 16.4296 4.68378 16.1296 4.72056 15.9273C4.78095 15.5952 4.67059 15.0677 4.80517 14.7649C4.97266 14.388 4.96077 14.0648 5.28709 13.7385C5.57196 13.4536 5.91733 13.4412 6.24724 13.6244C6.96902 14.0254 7.59663 15.2954 7.68134 16.0577Z" fill="white"/>
<path d="M13.442 34.0854C9.07362 29.7169 2.65306 18.5419 11.9182 8.78915C23.4996 -3.40179 39.7101 2.75097 44.2242 7.26528C45.748 8.7892 61.901 24.6374 44.8337 34.9997C45.2147 35.6005 46.2016 36.3222 46.6399 36.8153C47.3727 37.6397 47.228 38.6669 47.4493 39.6627C47.5627 40.1731 47.6719 40.6772 47.7656 41.193C48.0032 42.4996 47.9583 43.7727 47.8466 45.0999C47.7729 45.975 47.6162 46.8464 47.5633 47.7191C47.5187 48.4556 47.3021 49.1916 47.3021 49.9264C47.3021 50.6576 46.9651 51.6516 46.5075 52.2072C46.2761 52.4883 46.046 52.5751 45.6761 52.5751C44.9881 52.5751 44.871 52.3651 44.6166 51.7474C44.2985 50.9748 44.0208 50.2104 43.8735 49.3819C43.7734 48.8188 43.8588 48.1765 43.8588 47.6051V44.1655M7.68134 16.0577C7.59663 15.2954 6.96902 14.0254 6.24724 13.6244C5.91733 13.4412 5.57196 13.4536 5.28709 13.7385C4.96077 14.0648 4.97266 14.388 4.80517 14.7649C4.67059 15.0677 4.78095 15.5952 4.72056 15.9273C4.68378 16.1296 4.71289 16.4296 4.54766 16.1554C3.94069 15.1481 3.38643 14.0658 2.59056 13.1903C2.41929 13.002 1.94704 13.1707 1.81066 13.3412C1.58636 13.6216 1.41336 14.042 1.41336 14.4043C1.41336 15.2046 1.49409 15.8662 1.81066 16.5785C1.90824 16.798 2.10876 16.9997 2.22268 17.2149C2.35239 17.4599 2.61378 18.0997 2.33673 18.3075C1.87993 18.6501 1.0496 18.8952 1.01605 19.5325C0.979933 20.2188 1.01605 20.9072 1.01605 21.5963C1.01605 21.7898 1.04361 22.0238 1.08595 22.2143C1.12669 22.3977 1.29258 22.405 1.41336 22.5123C1.79362 22.8503 2.32809 23.0476 2.80393 23.1745C3.42917 23.9652 4.09185 24.9964 4.57651 25.8688C5.31904 27.2054 5.81069 28.679 6.42504 30.0752C7.15084 31.7247 7.74771 33.3571 8.64557 34.9283C9.21686 35.9281 9.94145 36.8165 10.3968 37.9043C10.6839 38.59 10.8526 39.3589 11.0378 40.079C11.3412 41.2588 11.485 42.473 11.7017 43.6731C11.8755 44.6357 12.0272 45.6231 12.2511 46.5747C12.4007 47.2104 12.6137 47.9404 12.6631 48.5834C12.7099 49.1913 13.0752 49.8155 13.0752 50.3862C13.0752 51.2286 13.5181 52.1972 13.7448 53.013C14.09 54.2558 14.3904 55.4768 14.8264 56.6758C15.0913 57.4041 15.3489 58.9385 16.2228 59.1882C17.6738 59.6027 18.3329 58.361 19.3075 57.6029C19.6379 57.3459 20.3979 56.769 20.8012 56.7216C21.4026 56.6508 21.9554 55.8309 22.501 55.5884C22.7457 55.4796 23.0221 55.317 23.2507 55.1763C23.791 54.8439 24.4064 54.6735 24.979 54.4324C25.6045 54.169 26.3103 54.2584 26.9592 54.0661C27.4846 53.9104 28.6725 53.9007 29.1912 54.0489C30.0621 54.2977 31.0651 54.4046 31.9726 54.7071C32.6257 54.9248 33.3488 55.2125 34.0386 55.2851C34.1938 55.3014 34.3731 55.3629 34.525 55.4053C35.2454 55.6063 36.205 55.6191 36.8486 56.0005C37.1086 56.1546 37.517 56.1878 37.7471 56.3667C38.3679 56.8496 39.12 57.0914 39.7101 57.6487C40.3113 58.2165 40.8852 59.0016 41.2782 59.709C41.5071 60.1211 41.8699 60.3672 42.1023 60.7391C42.6123 61.5551 43.536 60.9766 44.0252 60.4873C45.0319 59.4806 45.0384 57.6453 45.1126 56.3095C45.1358 55.8924 45.4311 55.1109 45.1355 54.7414C45.0643 54.6524 45.049 54.207 45.0153 54.089C44.9077 53.7124 45.0153 52.8029 45.0153 52.4189M6.53143 19.3588C6.43059 19.3221 6.32328 19.3242 6.21854 19.3446C5.87451 19.4115 5.50752 19.574 5.18742 19.7126C5.03147 19.7801 4.87538 19.9946 4.84253 20.1588C4.77579 20.4925 4.62118 21.0053 4.74653 21.3357C4.87965 21.6867 5.35738 21.7693 5.67098 21.8797C5.86803 21.9491 6.39613 21.9937 6.55632 21.8157C6.74979 21.6008 7.02734 21.4 7.14655 21.1295C7.24317 20.9102 7.18353 20.8569 7.19264 20.62C7.20307 20.3487 7.08723 20.0384 7.04175 19.761C7.01951 19.6254 6.66626 19.4262 6.53143 19.3588Z" stroke="black" stroke-width="2" stroke-linejoin="round"/>
<path d="M18.2114 15.2948C18.083 15.2948 18.0766 15.2554 17.9554 15.3766C17.9029 15.429 17.9009 15.5924 17.9554 15.6468C18.154 15.8455 18.2754 15.4726 18.2754 15.3268" stroke="black" stroke-width="2" stroke-linecap="round"/>
<path d="M39.9969 16.3503C39.8893 16.3503 39.7795 16.3136 39.7795 16.4592C39.7795 16.6318 40.0123 16.9557 40.175 16.9557C40.4538 16.9557 40.4533 16.581 40.2143 16.581" stroke="black" stroke-width="2" stroke-linecap="round"/>
<path d="M27.4205 20.8949C27.84 20.6152 27.7203 20.7122 28.1929 20.6031C28.9495 20.3509 29.548 20.3626 30.3396 20.3829C30.8859 20.3969 31.4422 20.5222 31.9556 20.7047C32.3947 20.8608 32.8381 21.0299 33.2196 21.3038C33.8697 21.7705 34.2822 22.5683 34.4356 23.3447C34.603 24.1914 34.4985 24.9074 33.8454 25.5154C33.5393 25.8004 33.031 25.9792 32.6365 26.0861C32.3486 26.164 32.0858 26.2545 31.7867 26.2781C31.0682 26.3348 30.3411 26.2575 29.6249 26.1927C29.0764 26.1432 28.4901 26.0452 27.9716 25.8532C27.7172 25.759 27.4125 25.6495 27.2071 25.4674C26.8798 25.1772 26.5962 24.7583 26.4569 24.3403C26.3265 23.9491 26.3329 23.4336 26.3787 23.0318C26.4252 22.6233 26.5441 22.2107 26.6774 21.8229C26.8057 21.4497 27.0961 21.1112 27.4205 20.8949Z" fill="#FEBE31" stroke="black" stroke-width="2" stroke-linecap="round"/>
<path d="M24.1316 23.0709C24.8688 23.0709 25.6255 23.1302 26.3609 23.1811C27.3201 23.2476 28.2784 23.237 29.2374 23.2878C29.7301 23.3139 30.23 23.2949 30.7236 23.2949" stroke="black" stroke-width="2" stroke-linecap="round"/>
<path d="M24.3057 38.2363C25.0895 37.3381 26.0677 36.8306 27.2473 36.7912C27.7509 36.7912 28.2391 36.5731 28.7196 36.5731C29.0112 36.5731 29.3858 36.6778 29.6466 36.8034C30.7084 37.3146 31.7572 37.8106 32.67 38.5574C32.8698 38.7209 33.0689 38.8987 33.2728 39.0573C33.503 39.2363 33.6244 39.4429 33.8181 39.6571C34.5007 40.4115 34.9407 41.5091 35.1662 42.4866C35.2836 42.9954 35.2742 43.5111 35.2632 44.0316C35.2536 44.4795 35.0636 44.948 34.939 45.3736C34.83 45.746 34.7485 46.0982 34.5664 46.443C34.1618 47.2088 33.4289 47.6109 32.5791 47.7093C31.5884 47.824 30.6266 47.9153 29.6224 47.9153C28.7414 47.9153 28.1244 47.9058 27.2958 47.5639C26.2934 47.1503 25.3512 46.8192 24.545 46.1098C24.1545 45.7661 23.9144 45.2831 23.7029 44.8192C23.3614 44.0707 23.0947 43.2857 23.0273 42.4623C22.8962 40.8597 23.2394 39.4581 24.3057 38.2363Z" fill="#FEBE31" stroke="black" stroke-width="2" stroke-linecap="round"/>
<path d="M27.7664 40.3998C28.0602 40.3486 28.8265 39.5326 28.911 40.0437C29.1704 41.6145 29.2642 43.1951 29.595 44.7525" stroke="black" stroke-width="2" stroke-linecap="round"/>
<path d="M27.7664 44.7524C28.8047 44.7524 29.7883 44.7524 30.8141 44.7524" stroke="black" stroke-width="2" stroke-linecap="round"/>
<path d="M39.4943 36.0502C40.9979 35.8582 43.0811 35.3313 44.5947 35.2367C44.6854 35.4181 44.9903 35.6772 45.122 35.8235C45.2428 35.9577 45.3543 36.1822 45.4927 36.2929C45.669 36.4339 45.9162 36.9094 45.7461 37.0984C45.5241 37.3451 45.16 37.6433 44.8686 37.8052C44.6426 37.9307 44.4483 38.0832 44.2205 38.2026C43.5118 38.5738 42.7522 38.7468 41.9907 38.9601C41.6949 39.0429 41.4242 39.179 41.1186 39.2454C40.7128 39.3336 40.2906 39.3578 39.889 39.4615C39.1272 39.6581 38.2829 39.6535 37.5019 39.6535H35.8963C35.3285 39.6535 34.7686 39.5012 34.216 39.4161C33.9497 39.3752 33.753 39.2187 33.6212 38.9814C33.4787 38.725 33.2745 38.5595 33.2745 38.2399C33.2745 38.0093 33.2679 37.827 33.4291 37.6478C33.6074 37.4497 34.0022 37.3134 34.2586 37.2531C34.6798 37.154 35.0824 37.0081 35.4935 36.8797C36.1662 36.6695 36.9094 36.531 37.6006 36.3996C38.2279 36.2803 38.8618 36.1309 39.4943 36.0502Z" fill="#FF6C6C" stroke="black" stroke-width="2" stroke-linecap="round"/>
<path d="M22.3657 38.6826C22.6912 38.9115 23.0259 39.1093 23.2885 39.4134C23.052 39.5824 22.6977 39.9769 22.4724 40.0962C22.3868 40.1415 22.1454 40.3262 22.0883 40.3976C21.9756 40.5385 21.5556 40.5541 21.3922 40.5896C21.0316 40.668 20.6696 40.7724 20.312 40.8643C20.0291 40.9371 19.8736 40.93 19.5812 40.891C18.8466 40.7931 18.0293 40.5763 17.3648 40.2535C16.1101 39.6442 15.0507 38.8776 13.9615 37.9865C13.5143 37.6206 13.1178 37.0388 12.8332 36.5435C12.4378 35.8552 12.5833 34.9703 13.0413 34.3458C13.4589 33.7763 14.0988 34.1656 14.6469 34.3138C15.1365 34.4461 15.613 34.6881 16.0765 34.8899C16.7698 35.1918 17.4617 35.5437 18.1089 35.9354C19.0841 36.5257 20.0437 37.1451 21.0054 37.7571C21.4664 38.0504 21.9188 38.3683 22.3657 38.6826Z" fill="#FF6C6C"/>
<path d="M23.2885 39.4134L23.8698 40.2271C24.0986 40.0637 24.248 39.8114 24.2814 39.5322C24.3148 39.253 24.2291 38.9726 24.0453 38.7598L23.2885 39.4134ZM22.3657 38.6826L21.7905 39.5006L21.7905 39.5006L22.3657 38.6826ZM21.0054 37.7571L21.5423 36.9134L21.0054 37.7571ZM18.1089 35.9354L18.6267 35.0799L18.1089 35.9354ZM16.0765 34.8899L16.4758 33.9731L16.4758 33.9731L16.0765 34.8899ZM14.6469 34.3138L14.9078 33.3484L14.6469 34.3138ZM13.0413 34.3458L13.8477 34.9372V34.9372L13.0413 34.3458ZM12.8332 36.5435L11.9661 37.0417L11.9661 37.0417L12.8332 36.5435ZM13.9615 37.9865L13.3282 38.7604H13.3282L13.9615 37.9865ZM17.3648 40.2535L17.8017 39.354L17.3648 40.2535ZM19.5812 40.891L19.449 41.8822L19.449 41.8822L19.5812 40.891ZM20.312 40.8643L20.0629 39.8958H20.0629L20.312 40.8643ZM21.3922 40.5896L21.6046 41.5668L21.6046 41.5668L21.3922 40.5896ZM22.0883 40.3976L22.8692 41.0223V41.0223L22.0883 40.3976ZM22.4724 40.0962L22.9403 40.98L22.4724 40.0962ZM24.0453 38.7598C23.6771 38.3334 23.1801 38.0328 22.9409 37.8646L21.7905 39.5006C22.2023 39.7901 22.3747 39.8853 22.5317 40.067L24.0453 38.7598ZM22.9409 37.8646C22.497 37.5525 22.0259 37.2212 21.5423 36.9134L20.4685 38.6007C20.9068 38.8797 21.3405 39.1842 21.7905 39.5006L22.9409 37.8646ZM21.5423 36.9134C20.5881 36.3062 19.6145 35.6778 18.6267 35.0799L17.5911 36.7909C18.5538 37.3736 19.4992 37.9839 20.4685 38.6007L21.5423 36.9134ZM18.6267 35.0799C17.9375 34.6628 17.2055 34.2908 16.4758 33.9731L15.6772 35.8067C16.3342 36.0928 16.986 36.4247 17.5911 36.7909L18.6267 35.0799ZM16.4758 33.9731C16.0894 33.8048 15.4918 33.5063 14.9078 33.3484L14.386 35.2791C14.7813 35.386 15.1367 35.5713 15.6772 35.8067L16.4758 33.9731ZM14.9078 33.3484C14.8102 33.322 14.7205 33.2885 14.5431 33.2287C14.3937 33.1782 14.1815 33.1096 13.9523 33.0731C13.7187 33.0359 13.4108 33.0221 13.0828 33.1284C12.7376 33.2404 12.4515 33.459 12.2349 33.7544L13.8477 34.9372C13.8477 34.9371 13.8444 34.9416 13.8372 34.949C13.8298 34.9565 13.8191 34.9663 13.8048 34.977C13.7743 34.9997 13.7379 35.0185 13.6997 35.0309C13.6263 35.0547 13.5909 35.0407 13.638 35.0482C13.6895 35.0564 13.7662 35.0773 13.9039 35.1237C14.0137 35.1608 14.2095 35.2315 14.386 35.2791L14.9078 33.3484ZM12.2349 33.7544C11.6003 34.6197 11.3293 35.9331 11.9661 37.0417L13.7003 36.0454C13.5464 35.7773 13.5662 35.3209 13.8477 34.9372L12.2349 33.7544ZM11.9661 37.0417C12.2661 37.5637 12.7359 38.2758 13.3282 38.7604L14.5947 37.2125C14.2927 36.9654 13.9695 36.5139 13.7003 36.0454L11.9661 37.0417ZM13.3282 38.7604C14.4451 39.6742 15.5733 40.4951 16.9278 41.1531L17.8017 39.354C16.647 38.7932 15.6562 38.081 14.5947 37.2125L13.3282 38.7604ZM16.9278 41.1531C17.7089 41.5324 18.6339 41.7735 19.449 41.8822L19.7133 39.8998C19.0593 39.8126 18.3496 39.6202 17.8017 39.354L16.9278 41.1531ZM19.449 41.8822C19.8135 41.9308 20.1092 41.949 20.561 41.8328L20.0629 39.8958C19.9765 39.9181 19.9447 39.9194 19.928 39.9198C19.8994 39.9204 19.8521 39.9183 19.7133 39.8998L19.449 41.8822ZM20.561 41.8328C20.9577 41.7308 21.2676 41.6401 21.6046 41.5668L21.1797 39.6124C20.7956 39.6959 20.3814 39.8139 20.0629 39.8958L20.561 41.8328ZM21.6046 41.5668C21.5969 41.5685 21.6061 41.5665 21.6879 41.5554C21.7489 41.5472 21.8442 41.5345 21.9421 41.5163C22.0363 41.4987 22.1705 41.4696 22.3084 41.4175C22.4247 41.3736 22.6734 41.2669 22.8692 41.0223L21.3074 39.7729C21.3833 39.678 21.461 39.6226 21.5064 39.5945C21.553 39.5657 21.5884 39.5515 21.6015 39.5466C21.6158 39.5412 21.6213 39.5402 21.6143 39.542C21.6079 39.5436 21.5957 39.5464 21.5764 39.55C21.5347 39.5577 21.4874 39.5644 21.4202 39.5734C21.3904 39.5775 21.3521 39.5826 21.316 39.588C21.2813 39.5932 21.2318 39.6011 21.1797 39.6124L21.6046 41.5668ZM22.8692 41.0223C22.8529 41.0425 22.8397 41.0571 22.8326 41.0647C22.825 41.0729 22.8195 41.0784 22.8171 41.0807C22.8127 41.085 22.813 41.0844 22.8197 41.0785C22.8332 41.0668 22.8554 41.0484 22.8833 41.0267C22.9107 41.0053 22.9368 40.9862 22.9564 40.9725C22.9661 40.9658 22.9713 40.9624 22.9722 40.9618C22.9725 40.9616 22.9703 40.963 22.966 40.9656C22.9621 40.9679 22.9532 40.9731 22.9403 40.98L22.0045 39.2124C21.8772 39.2798 21.7351 39.386 21.656 39.4475C21.5929 39.4965 21.4219 39.6298 21.3074 39.7729L22.8692 41.0223ZM22.9403 40.98C23.0864 40.9026 23.2123 40.8048 23.2968 40.7353C23.3885 40.66 23.4786 40.5781 23.5535 40.5092C23.7342 40.3428 23.8169 40.2649 23.8698 40.2271L22.7073 38.5997C22.6023 38.6746 22.503 38.7606 22.4262 38.8293C22.3492 38.8981 22.2627 38.979 22.199 39.0377C22.1275 39.1034 22.0721 39.1531 22.0266 39.1905C21.9739 39.2339 21.971 39.2301 22.0045 39.2124L22.9403 40.98Z" fill="black"/>
</svg>
