<svg width="32" height="21" viewBox="0 0 32 21" fill="none" xmlns="http://www.w3.org/2000/svg">
<path d="M7.64891 9.42093C8.95083 8.56414 10.7251 7.32197 12.0013 6.38386C12.7467 6.38386 13.5247 6.13932 14.2828 6.1293C15.0133 6.11964 15.744 6.14387 16.4744 6.11515C17.7126 6.06648 18.9519 5.92443 20.1902 6.05151C20.4855 6.08182 20.7811 6.25488 21.0422 6.46164C21.2546 6.6299 21.5768 6.72998 21.7569 6.95662C21.9506 7.20022 22.2504 7.39904 22.4669 7.6001C23.1447 8.22926 23.8712 8.76035 24.5781 9.31133C25.9 10.3417 27.3278 11.0558 28.6725 12.0196C28.8082 12.1169 31.1304 13.9044 30.9942 14.1303C30.9041 14.28 30.2251 14.148 30.1162 14.148H27.5601C27.1783 14.148 26.7964 14.1445 26.4146 14.148C26.3562 14.1485 26.2918 14.1231 26.2395 14.1622C26.2115 14.1831 26.23 14.4365 26.23 14.4662C26.23 14.8762 26.2261 15.2867 26.23 15.6966C26.2351 16.2231 26.2847 16.7321 26.3626 17.2452C26.4263 17.6648 26.5958 18.1935 26.5614 18.6311C26.5558 18.7016 26.2303 18.4385 26.1685 18.3978C25.6023 18.025 24.9219 17.9544 24.3225 17.7366C23.365 17.3887 22.4556 16.87 21.5534 16.2835C20.6236 15.6791 19.7625 14.8603 18.8269 14.2753C18.2506 13.9149 17.6605 13.6032 17.0803 13.257C16.8623 13.127 16.4837 12.755 16.2354 12.755C15.92 12.755 15.5524 12.9698 15.2579 13.1298C14.3425 13.627 13.473 14.3726 12.5788 14.9506C11.3874 15.7207 10.1455 16.2674 8.97428 17.1144C7.78598 17.9736 6.61673 18.9318 5.3603 19.5575C4.97443 19.7496 4.57227 19.9415 4.1651 19.9994C4.11806 20.0061 4.16844 19.9543 4.19114 19.911C4.72117 18.9008 5.23909 17.923 5.6585 16.7926C5.86272 16.2422 6.05781 15.6694 6.15551 15.0531C6.16899 14.9681 6.27175 14.368 6.19811 14.2894C6.14752 14.2354 5.81944 14.2788 5.81944 14.2788C5.46337 14.2872 5.3007 14.2966 4.92009 14.3036C4.02672 14.3199 3.13233 14.3024 2.24096 14.2046C2.23195 14.2036 0.604278 14.0038 1.09073 13.6955C1.85225 13.2128 2.63589 12.8283 3.38408 12.2918C3.98633 11.86 4.57102 11.3759 5.18042 10.966C5.99401 10.4187 6.83238 9.95829 7.64891 9.42093Z" fill="#FF6C6C" stroke="black" stroke-width="2" stroke-linecap="round"/>
<path d="M15.8855 5.12706C16.2859 4.53655 16.5498 4.34378 17.1482 4.02848C18.8393 3.13728 20.7698 2.75301 22.6024 2.39158C23.9173 2.13226 25.255 2.02324 26.5902 2.00488C26.9521 1.99991 27.3151 1.997 27.677 2.00488C27.8422 2.00848 28.0499 1.99898 28.2044 2.08178C28.2764 2.12035 28.3002 2.23323 28.3243 2.30589C28.4527 2.69276 28.5529 3.09113 28.652 3.48797C28.8868 4.4289 28.9433 5.36515 28.9916 6.33551C29.0184 6.87369 28.997 7.51267 28.6879 7.96581C28.378 8.42024 27.6119 8.68135 27.1695 8.81392C25.3046 9.37284 23.3796 9.72814 21.4796 10.1081C21.4221 10.1195 21.3579 10.1086 21.2998 10.1103C20.6613 10.1287 20.0225 10.1893 19.3818 10.1893C19.2773 10.1893 19.06 10.2526 19.0941 10.0839C19.1066 10.0221 19.1335 9.89696 19.1562 9.8094C19.0124 9.93534 18.5025 9.97569 18.4028 9.9916C17.5016 10.1355 16.5773 10.1424 15.6717 10.2531C14.9024 10.3471 14.1344 10.3772 13.3602 10.3849C13.284 10.3857 11.713 10.3728 11.7299 10.475C11.7507 10.6009 11.3896 10.5336 11.3183 10.5321C10.1275 10.5076 8.94286 10.492 7.75412 10.598C6.64868 10.6966 5.56233 11.1112 4.44763 10.9715C3.75274 10.8845 3.11354 10.6172 2.44775 10.4047C2.23958 10.3382 2.09153 10.3625 2.05616 10.1124C1.94578 9.33209 2.02715 8.52349 2.05616 7.7395C2.08918 6.84738 2.13468 6.01647 2.35584 5.15343C2.48455 4.65118 2.64867 4.22933 2.98318 3.8527C3.04452 3.78364 3.12592 3.71727 3.21693 3.70549C3.87869 3.61987 4.5707 3.66375 5.23479 3.66375C6.83363 3.66375 8.40196 3.79019 9.98775 4.0109C11.9562 4.28487 13.9728 4.52607 15.8855 5.12706Z" fill="#FF6C6C"/>
<path d="M15.8855 5.12706C16.2859 4.53655 16.5498 4.34378 17.1482 4.02848C18.8393 3.13728 20.7698 2.75301 22.6024 2.39158C23.9173 2.13226 25.255 2.02324 26.5902 2.00488C26.9521 1.99991 27.3151 1.997 27.677 2.00488C27.8422 2.00848 28.0499 1.99898 28.2044 2.08178C28.2764 2.12035 28.3002 2.23323 28.3243 2.30589C28.4527 2.69276 28.5529 3.09113 28.652 3.48797C28.8868 4.4289 28.9434 5.36515 28.9916 6.33551C29.0184 6.87369 28.997 7.51267 28.6879 7.96581C28.378 8.42024 27.6119 8.68135 27.1695 8.81392C25.3046 9.37284 23.3796 9.72814 21.4796 10.1081C21.4222 10.1195 21.3579 10.1086 21.2998 10.1103C20.6613 10.1287 20.0225 10.1893 19.3818 10.1893C19.2773 10.1893 19.06 10.2526 19.0941 10.0839C19.1179 9.96608 19.194 9.61825 19.194 9.73893C19.194 9.9212 18.5191 9.97304 18.4028 9.9916C17.5016 10.1355 16.5773 10.1424 15.6717 10.2531C14.9024 10.3471 14.1344 10.3772 13.3602 10.3849C13.284 10.3857 11.713 10.3728 11.7299 10.475C11.7507 10.6009 11.3896 10.5336 11.3183 10.5321C10.1275 10.5076 8.94286 10.492 7.75412 10.598C6.64868 10.6966 5.56233 11.1112 4.44763 10.9715C3.75274 10.8845 3.11354 10.6172 2.44775 10.4047C2.23958 10.3382 2.09153 10.3625 2.05616 10.1124C1.94578 9.33209 2.02715 8.52349 2.05616 7.7395C2.08918 6.84738 2.13468 6.01647 2.35584 5.15343C2.48455 4.65118 2.64867 4.22933 2.98318 3.8527C3.04452 3.78364 3.12592 3.71727 3.21693 3.70549C3.87869 3.61987 4.5707 3.66375 5.23479 3.66375C6.83363 3.66375 8.40196 3.79019 9.98775 4.0109C11.9562 4.28487 13.9728 4.52607 15.8855 5.12706Z" stroke="black" stroke-width="2" stroke-linecap="round"/>
<path d="M8.13985 1.26025C7.80173 1.36232 7.58416 1.4678 7.35707 1.72487C7.29896 1.8418 7.1573 2.37817 7.14304 2.51451C7.13173 2.62265 7.03602 2.71621 7.03602 2.83755C7.03602 2.95778 7.00035 3.06319 7.00035 3.18851C7.00035 3.87296 6.99412 4.55558 7.03404 5.2384C7.0691 5.83816 7.13187 6.45136 7.24212 7.04302C7.35354 7.64094 7.53254 8.23072 7.63451 8.8277C7.67764 9.08021 7.79757 9.32301 7.81881 9.57946C7.85534 10.0205 7.96573 10.5065 8.08833 10.9314C8.24572 11.4769 8.33625 12.0491 8.52629 12.5845C8.69402 13.057 8.85836 13.5911 9.17234 13.9883C9.31554 14.1695 9.47536 14.3279 9.62021 14.5028C9.76928 14.6828 9.97094 14.7444 10.1553 14.8697C10.4689 15.0829 10.9193 15.2722 11.2888 15.3363C11.6226 15.3942 11.9487 15.5716 12.2817 15.6135C12.523 15.6438 12.7405 15.7503 12.9733 15.7929C13.1302 15.8216 13.3855 15.9849 13.3855 16.1539C13.3855 16.2919 13.4439 16.4344 13.3776 16.5846C13.3125 16.7319 13.2749 16.8799 13.2072 17.0332C13.1482 17.1666 12.9428 17.2726 12.8267 17.3583C12.5331 17.5749 12.1759 17.7311 11.8675 17.9286C11.497 18.1658 11.0089 18.279 10.5873 18.4151C10.3008 18.5076 9.95222 18.5532 9.79064 18.8458C9.67919 19.0477 9.60405 19.5265 9.86991 19.6335C10.1044 19.7279 10.4225 19.7432 10.6745 19.7432C10.874 19.7432 11.0724 19.8047 11.273 19.8169C11.7782 19.8478 12.2563 19.9226 12.7672 19.9226C14.6058 19.9226 16.4488 19.9944 18.2884 19.9944C18.7831 19.9944 19.2802 20.0082 19.7747 19.9924C20.2091 19.9785 20.7115 20.0182 21.1341 19.8947L21.135 19.8945C21.4685 19.797 21.8546 19.6843 21.9466 19.2905C22.085 18.6988 21.7792 18.3327 21.368 17.9565C21.1655 17.7712 20.8037 17.683 20.5317 17.6175C20.0106 17.4921 19.5 17.3058 18.976 17.1968L18.9758 17.1967C18.5886 17.1161 18.0515 17.0043 17.7572 16.7082C17.6403 16.5905 17.5737 16.4471 17.4719 16.3154C17.3108 16.107 17.2873 15.6935 17.4798 15.4998C17.5294 15.4499 17.7148 15.4358 17.789 15.4181C17.931 15.384 18.0807 15.3832 18.2249 15.3562C18.3768 15.3278 18.5317 15.3536 18.6807 15.3263C18.7784 15.3085 18.8742 15.2604 18.978 15.2565C19.5836 15.234 20.2214 14.9397 20.7774 14.7461C20.9951 14.6702 21.1411 14.5152 21.3402 14.415C21.7257 14.2211 22.0436 13.8497 22.3034 13.5157C22.6303 13.0953 22.9727 12.6839 23.2387 12.2216C23.3418 12.0425 23.4585 11.8606 23.5439 11.6672C23.6297 11.4731 23.641 11.2395 23.7144 11.0391C24.021 10.2017 23.8586 9.29459 23.972 8.4249C24.03 7.9798 23.9799 7.49427 23.9799 7.04501V5.50161C23.9799 4.96278 23.9442 4.42794 23.9442 3.89041C23.9442 3.46558 23.8729 3.04266 23.8729 2.62219C23.8729 2.2728 23.8487 1.79221 23.5955 1.53743C23.3929 1.33364 23.1706 1.07879 22.8563 1.07879C22.8169 1.07879 22.7002 1.05192 22.6601 1.03492C22.5281 0.979016 22.3593 1.00701 22.2181 1.00701H19.8064H15.8389H13.77H12.2619C11.8758 1.00701 11.5015 1.07879 11.1164 1.07879C10.7923 1.07879 10.471 1.11469 10.1474 1.11469C9.64156 1.11469 9.13403 1.15401 8.62934 1.18448C8.46436 1.19444 8.29867 1.21231 8.13985 1.26025Z" fill="#FEBE31" stroke="black" stroke-width="2" stroke-linecap="round"/>
<path d="M12 5.72512C12.0171 5.57588 12.8191 4.78791 12.9348 4.6914C13.1686 4.49633 13.4555 4.34551 13.7213 4.18718C13.7958 4.14283 13.9495 4 14.0429 4C14.1052 4 14.2409 4.33683 14.2832 4.3946C14.3886 4.53875 14.4448 4.73253 14.4943 4.89545C14.6346 5.35679 14.7474 5.8325 14.783 6.31029C14.8535 7.25524 14.8954 8.19566 14.8954 9.14334C14.8954 9.78139 14.9303 10.4135 14.9303 11.0438C14.9303 11.3593 15 11.6898 15 12" stroke="black" stroke-width="2" stroke-linecap="round"/>
<path d="M12 12C12.2779 12 12.5503 12 12.8262 12C13.6669 12 14.515 12 15.3583 12C15.6727 12 15.9943 12 16.3109 12C16.5406 12 16.7703 12 17 12" stroke="black" stroke-width="2" stroke-linecap="round"/>
<path d="M21.1167 3.6543C21.1167 3.99077 21.3016 4.33026 21.3171 4.67128C21.3529 5.45886 21.3839 6.24217 21.3839 7.03187C21.3839 7.79795 21.1835 8.58592 21.1835 9.33308" stroke="white" stroke-width="2" stroke-linecap="round"/>
<path d="M20.1812 11.6714C20.0706 11.6852 19.8948 11.9769 19.8472 12.0722" stroke="white" stroke-width="2" stroke-linecap="round"/>
</svg>
