<svg width="345" height="170" viewBox="0 0 345 170" fill="none" xmlns="http://www.w3.org/2000/svg">
<path d="M127.151 90.1511C125.233 90.1511 124.473 88.9391 123.061 87.9972M123.061 87.9972C121.171 86.7372 115.597 79.3435 112.799 69.8435C110.684 59.8435 110.097 55.8435 112.799 45.7413C113.237 43.1127 118.222 32.1741 132.814 23.5969C134.473 22.3984 136.597 21.3828 138.477 20.5475C141.462 19.2208 159.222 12.6742 180.222 19.1741C197.722 24.5908 207.751 39.0082 208.722 40.1742C212.678 46.3187 216.454 60.2816 216.454 65.1025C216.454 68.3867 216.614 73.3868 214.276 76.0174C212.277 78.2662 211.012 81.7638 208.177 83.1811M123.061 87.9972C123.061 90.9292 122.874 95.5299 121.585 98.109C120.894 99.4893 120.398 101.816 119.12 102.838C118.352 103.452 117.59 104.733 116.53 104.865C115.504 104.993 114.713 107.821 115.304 108.581C116.463 110.071 119.157 109.594 120.921 109.594C122.79 109.594 124.495 109.699 126.189 108.869C127.793 108.082 129.586 107.958 131.168 107.167C132.223 106.64 133.253 105.652 134.183 104.903C136.673 102.897 139.338 100.319 141.978 98.5594C144.172 100.997 146.975 103.175 148.846 105.878C150.144 107.752 152.124 110 154.251 110.945C156.96 112.149 159.452 114.005 162.646 113.022C163.864 112.648 165.086 112.329 166.074 111.396C166.929 110.588 168.395 108.967 169.392 108.468H199.579C200.59 108.468 202.412 108.202 203.007 109.244C203.455 110.028 204.254 110.935 204.947 111.521C206.551 112.879 209.153 113.078 211.127 113.21C211.945 113.264 212.476 113.358 213.254 113.185C213.733 113.078 214.126 112.641 214.605 112.534C215.512 112.333 215.912 111.412 216.745 110.995C217.558 110.589 218.328 109.984 219.035 109.429L219.047 109.419C220.503 108.274 223.504 108.137 224.401 106.566C224.847 105.786 225.281 104.88 225.753 104.114C226.209 103.372 225.978 102.09 225.978 101.212C225.978 99.9175 224.297 100.361 223.326 100.361C222.763 100.361 221.722 99.9873 220.722 99.6741M215.222 74.5796C215.345 75.5562 217.202 76.2886 217.645 77.0652C218.252 78.1257 219.252 79.0215 219.998 79.9803C221.752 82.2365 222.825 85.2955 222.825 88.1501C222.825 90.7206 223.317 94.3414 222.037 96.6452C221.598 97.4358 221.381 98.9422 220.722 99.6741M220.722 99.6741C220.046 100.426 219.08 101.011 218.771 101.937" stroke="#66BE8B" stroke-width="3" stroke-linecap="round"/>
<path d="M173.692 80.1304C173.509 83.465 174 88.5788 174 91.9201C173.651 90.6317 167.971 93.168 168.474 94C168.224 90.894 167.897 84.5987 168.031 81.4908C168.067 80.669 169.114 80.5638 169.88 80.3961C170.525 80.2548 171.382 80.0347 172.023 80.0347C172.5 80.0347 173.295 79.9111 173.692 80.1304Z" stroke="#66BE8B" stroke-width="3" stroke-linecap="round"/>
<path d="M183.655 71.3284C183.961 69.6445 183.667 68.1631 183.667 66.432C183.366 66.2813 182.744 62.4138 182.481 61.889C181.946 60.8192 181.229 59.6397 180.437 58.7593C178.569 56.6834 176.182 54.8082 173.222 54.1741C166.222 52.6742 159.722 55.174 157.091 61.5608C155.722 69.674 158.661 72.2878 158.895 73.5747C159.32 75.91 160.028 76.8255 162.202 77.6761C163.859 78.3248 165.971 80.0612 167.767 80.0612C171.435 80.0612 175.616 80.313 178.582 77.9916C180.792 76.2616 183.125 74.2428 183.655 71.3284Z" stroke="#66BE8B" stroke-width="3" stroke-linecap="round"/>
<path d="M164.901 65.3901C164.953 65.1069 165.161 64.7908 165.267 64.5282C165.311 64.4026 165.357 64.302 165.409 64.1852C165.491 63.9986 165.692 63.7986 165.839 63.6684C166.003 63.5243 166.092 63.3626 166.281 63.2453C167.377 62.5654 168.787 62.6818 170.034 62.6818C170.49 62.6818 171.027 62.6608 171.461 62.851C171.827 63.0118 172.173 63.2426 172.53 63.4257C173.262 63.8021 174.031 64.5282 174.513 65.1986C174.971 66.3283 174.617 67.6623 174.031 68.682C173.688 69.2789 173.374 69.8497 172.901 70.3614C172.37 70.9352 171.702 71.3397 170.937 71.5196C170.301 71.6693 169.76 71.7122 169.104 71.6398C168.157 71.5354 167.182 71.3863 166.288 71.0407C165.674 70.8036 165.218 70.5247 164.932 69.9159C164.653 69.3251 164.733 68.5439 164.733 67.9114C164.733 67.0577 164.746 66.2317 164.901 65.3901Z" fill="#66BE8B" stroke="#66BE8B" stroke-width="3" stroke-linecap="round"/>
<path d="M131.049 69.1238C130.823 69.1238 130.109 69.6722 130.356 69.8963C130.507 70.0338 130.971 70.153 131.172 70.2123C131.358 70.267 131.482 70.32 131.681 70.3089C131.825 70.301 132.447 70.1399 132.533 70.0543C132.931 69.6568 131.39 69.2028 131.128 69.2028" stroke="#66BE8B" stroke-width="3" stroke-linecap="round"/>
<path d="M148.767 78.6757C149.601 77.9036 150.638 76.6653 151.869 76.6197C153.011 76.3342 154.933 76.7936 156.075 76.8151C157.092 76.8343 158.175 77.4445 159.08 77.8576C160.156 78.3491 160.909 78.983 161.675 79.91C162.033 80.3431 162.159 80.8335 162.28 81.376C162.444 82.1173 162.285 83.1831 162.066 83.8881C161.821 84.6794 161.643 85.5153 161.136 86.1975C160.677 86.8153 160.172 87.4739 159.532 87.9168C158.875 88.3719 157.773 88.5293 156.988 88.5431C155.313 88.5724 153.607 88.6263 151.942 88.4453C151.07 88.3505 150.36 88.0479 149.669 87.5006C148.953 86.9343 148.123 86.0303 147.83 85.1514C147.458 84.0356 147.374 82.913 147.374 81.738C147.374 81.1421 147.382 80.5205 147.663 79.9788C147.938 79.4509 148.341 79.0706 148.767 78.6757Z" stroke="#66BE8B" stroke-width="3" stroke-linecap="round"/>
<path d="M141.901 84.1125C143.399 84.1125 144.89 83.754 146.382 83.642C147.59 83.5513 148.816 83.4362 150.027 83.3995C150.627 83.3813 151.22 83.405 151.819 83.3452C152.672 83.2599 153.549 83.0701 154.41 83.0701" stroke="#66BE8B" stroke-width="3" stroke-linecap="round"/>
<path d="M184.798 89.8058C184.175 89.8624 183.544 90.4626 183.029 90.7767C182.296 91.2238 181.645 91.7437 180.895 92.1628C180.179 92.5633 179.381 92.9101 178.564 92.9101C177.455 92.9101 176.489 92.6925 175.428 92.4566C174.454 92.2401 173.521 91.7582 172.547 91.556C171.676 91.3752 170.929 90.9537 170.196 91.6454C169.736 92.0803 169.512 92.5502 169.226 93.0826C169.044 93.419 169.014 93.8622 168.874 94.2195C168.74 94.5624 168.513 94.8655 168.414 95.2224C167.9 97.0731 168.459 98.3747 169.743 99.8724C170.406 100.646 171.606 101.371 172.47 101.878C173.296 102.363 174.258 103.108 175.211 103.315C176.626 103.623 177.989 103.736 179.433 103.718C180.622 103.703 181.776 103.294 182.907 102.977C184.256 102.599 187.245 102.241 187.788 100.613" stroke="#66BE8B" stroke-width="3" stroke-linecap="round"/>
<path d="M177.872 62.2471C178.082 62.5621 178.356 62.8229 178.552 63.1472C178.706 63.4023 178.846 63.6494 178.959 63.9252C179.413 65.0277 179.467 66.1653 179.54 67.3405C179.6 68.3072 179.54 69.2683 179.375 70.2201C179.291 70.7023 179.121 71.1997 178.825 71.5948" stroke="#66BE8B" stroke-width="3" stroke-linecap="round"/>
<path d="M176.516 74.4908C176.437 74.4908 176.427 74.535 176.369 74.5642" stroke="#66BE8B" stroke-width="3" stroke-linecap="round"/>
<path d="M170.27 65.2777C170.238 65.1826 170.226 64.8299 170.357 64.8154C170.601 64.6011 170.905 64.5709 171.062 64.6036C171.207 64.6341 171.491 64.7253 171.603 64.8317C172.079 65.2826 172.181 66.0755 172.108 66.689C172.096 66.7922 171.922 67.3448 171.75 67.2633C171.628 67.2053 171.526 67.0073 171.453 66.9008C171.343 66.7411 171.201 66.6061 171.09 66.4487C170.925 66.2153 170.769 65.9905 170.585 65.7685C170.467 65.6252 170.329 65.4554 170.27 65.2777Z" stroke="#8ACFA7" stroke-width="3" stroke-linecap="round"/>
<path d="M166.948 67.8191C166.93 67.9629 166.806 68.1162 166.801 68.2794C166.796 68.4838 166.814 68.651 166.866 68.8455C166.944 69.1318 167.054 69.2487 167.351 69.2487C167.751 69.2487 167.381 68.6987 167.314 68.5685C167.213 68.3713 167.083 68.1999 166.985 68.0024" stroke="#8ACFA7" stroke-width="3" stroke-linecap="round"/>
<path d="M225.328 95.3349C225.003 95.1722 223.879 95.0502 223.545 94.8992C223.014 95.0762 222.42 95.0841 222.075 95.6023C221.423 96.5792 221.451 97.9555 221.451 99.081V100.222C221.451 101.136 221.446 102.163 221.683 103.055C221.956 104.078 222.544 104.894 223.179 105.719C223.577 106.236 224.178 106.589 224.637 107.048C225.193 107.604 225.943 108 226.697 108.244C227.132 108.385 227.531 108.284 227.952 108.126C228.887 107.775 229.423 107.127 229.896 106.264C230.702 104.792 230.265 102.853 229.819 101.361C229.338 99.7512 228.358 98.1938 227.197 96.9888C226.618 96.3869 226.078 95.7097 225.328 95.3349Z" stroke="#66BE8B" stroke-width="3" stroke-linecap="round"/>
<path d="M111.261 107.907C111.557 107.907 111.769 107.997 112.027 108.147C112.961 108.689 113.857 109.397 114.659 110.117C115.257 110.654 115.84 111.339 116.505 111.783" stroke="#66BE8B" stroke-width="3" stroke-linecap="round"/>
<path d="M117.816 107.85C117.957 107.888 118.102 108.032 118.221 108.112C118.701 108.436 119.115 108.873 119.475 109.322C119.857 109.798 120.077 110.356 120.267 110.928" stroke="#66BE8B" stroke-width="3" stroke-linecap="round"/>
<path d="M123.174 107.622C123.229 108.284 123.656 108.899 123.769 109.563C123.865 110.123 123.972 110.699 123.972 111.27" stroke="#66BE8B" stroke-width="3" stroke-linecap="round"/>
<path d="M149.862 111.034C149.919 111.241 150.263 111.416 150.418 111.53C150.897 111.881 151.366 112.242 151.82 112.625C152.347 113.068 152.996 113.575 153.261 114.238" stroke="#66BE8B" stroke-width="3" stroke-linecap="round"/>
<path d="M156.901 110.742C156.746 111.99 156.999 113.232 156.999 114.48" stroke="#66BE8B" stroke-width="3" stroke-linecap="round"/>
<path d="M161.222 111.082C160.905 112.112 160.979 113.223 160.979 114.286" stroke="#66BE8B" stroke-width="3" stroke-linecap="round"/>
<path d="M166.077 111.713C165.785 111.804 165.507 112.05 165.268 112.231C164.819 112.571 164.407 112.933 164.054 113.374C163.863 113.614 163.692 113.891 163.585 114.178C163.539 114.299 163.526 114.423 163.455 114.529" stroke="#66BE8B" stroke-width="3" stroke-linecap="round"/>
<path d="M203.622 114.68C203.845 114.286 204.167 113.961 204.459 113.618C204.91 113.087 205.343 112.542 205.819 112.032C206.218 111.605 206.585 111.291 207.083 111" stroke="#66BE8B" stroke-width="3" stroke-linecap="round"/>
<path d="M208.126 114.735C208.153 114.6 208.314 114.455 208.395 114.357C208.735 113.945 209.118 113.57 209.511 113.21C210.751 112.074 212.083 111.117 213.509 110.231" stroke="#66BE8B" stroke-width="3" stroke-linecap="round"/>
<path d="M213.784 114.735C213.865 114.717 213.905 114.62 213.961 114.564C214.174 114.35 214.443 114.185 214.705 114.039C215.807 113.426 216.929 112.991 218.123 112.593" stroke="#66BE8B" stroke-width="3" stroke-linecap="round"/>
<path d="M218.123 115.944C218.349 115.923 218.569 115.785 218.788 115.727C219.097 115.645 219.398 115.614 219.716 115.614" stroke="#66BE8B" stroke-width="3" stroke-linecap="round"/>
<path d="M8 68.371C9.41362 69.0778 11.5477 70.1134 11.5477 71.9187" stroke="#66BE8B" stroke-width="3" stroke-linecap="round"/>
<path d="M13.3217 67.9275C14.2574 68.9802 14.9369 70.7145 15.539 71.9187" stroke="#66BE8B" stroke-width="3" stroke-linecap="round"/>
<path d="M22.6345 68.371C22.4966 69.7495 21.3041 70.6099 21.3041 71.9187" stroke="#66BE8B" stroke-width="3" stroke-linecap="round"/>
<path d="M27.5125 70.5883C26.971 70.656 27.0994 71.2383 26.6256 71.4752" stroke="#66BE8B" stroke-width="3" stroke-linecap="round"/>
<path d="M285.302 130.926C286.577 131.21 287.12 133.406 287.764 134.373" stroke="#66BE8B" stroke-width="3" stroke-linecap="round"/>
<path d="M292.195 129.449V132.896" stroke="#66BE8B" stroke-width="3" stroke-linecap="round"/>
<path d="M300.226 131.696C299.613 131.773 298.964 133.631 298.842 134.119" stroke="#66BE8B" stroke-width="3" stroke-linecap="round"/>
<path d="M307.839 133.773C307.819 133.932 307.783 133.887 307.666 133.946" stroke="#66BE8B" stroke-width="3" stroke-linecap="round"/>
<path d="M257.489 2C258.328 3.07538 259.105 4.18725 259.856 5.31432" stroke="#66BE8B" stroke-width="3" stroke-linecap="round"/>
<path d="M262.75 2.9469C262.75 3.78833 262.882 4.1569 263.224 4.8408" stroke="#66BE8B" stroke-width="3" stroke-linecap="round"/>
<path d="M266.958 2.9469C266.958 3.60439 266.842 3.83208 266.485 4.36732" stroke="#66BE8B" stroke-width="3" stroke-linecap="round"/>
<path d="M327.423 57.0101C327.345 57.7919 326.384 60.6754 325.85 60.9423" stroke="#66BE8B" stroke-width="3" stroke-linecap="round"/>
<path d="M332.176 57.4034C332.176 58.2119 331.782 58.6275 331.782 59.3695" stroke="#66BE8B" stroke-width="3" stroke-linecap="round"/>
<path d="M319.986 58.583C320.466 58.643 320.352 59.1594 320.772 59.3694" stroke="#66BE8B" stroke-width="3" stroke-linecap="round"/>
<path d="M338.467 59.3695C338.188 59.4044 337.925 59.6406 337.681 59.7627" stroke="#66BE8B" stroke-width="3" stroke-linecap="round"/>
<path d="M46.986 140.344C48.2224 142.816 50.0605 145.072 51.2472 147.446" stroke="#66BE8B" stroke-width="3" stroke-linecap="round"/>
<path d="M50.7738 141.291C50.9217 142.622 52.4324 143.542 53.1412 144.605" stroke="#66BE8B" stroke-width="3" stroke-linecap="round"/>
<path d="M55.9821 143.184C56.3561 143.605 56.618 144.138 56.929 144.605" stroke="#66BE8B" stroke-width="3" stroke-linecap="round"/>
<path d="M63.5576 143.184C63.6463 143.982 64.2516 144.793 64.5046 145.552" stroke="#66BE8B" stroke-width="3" stroke-linecap="round"/>
<path d="M84.8142 159.58C84.8142 157.628 83.2424 156.256 81.6893 155.368" stroke="#66BE8B" stroke-width="3" stroke-linecap="round"/>
<path d="M90.3846 160.395C90.3846 158.535 91.0215 157.112 91.8792 155.504" stroke="#66BE8B" stroke-width="3" stroke-linecap="round"/>
<path d="M93.6454 159.444C93.7207 158.955 94.0428 158.524 94.3398 158.146C95.1592 157.103 96.0529 156.112 96.9061 155.096" stroke="#66BE8B" stroke-width="3" stroke-linecap="round"/>
</svg>
