<svg width="203" height="41" viewBox="0 0 203 41" fill="none" xmlns="http://www.w3.org/2000/svg">
<path d="M113 7C113.822 7 114.65 7.16643 115.457 7.29218C116.694 7.48473 117.945 7.64563 119.172 7.88889C120.362 8.12493 121.477 8.55313 122.613 8.95062C122.816 9.02161 123.078 9.125 123.298 9.14815C123.633 9.18353 124 9.58276 124 9.87243C124 10.2606 123.884 10.5396 123.723 10.9012C123.305 11.8342 122.83 12.7365 122.24 13.5844C120.802 15.654 119.363 17.6806 118.08 19.8477C117.427 20.9487 116.804 22.0672 116.168 23.177C115.929 23.5952 115.759 24.0222 115.635 24.4815C115.579 24.6887 115.409 24.8058 115.34 25" stroke="white" stroke-width="8" stroke-linecap="round"/>
<path d="M118 22C118.337 22.0345 118.688 22.6282 118.911 22.8252C120.183 23.9477 121.669 24.8183 122.902 25.9869C123.121 26.1946 123.403 26.5726 123.68 26.7222C123.79 26.7815 123.948 26.9048 124 27" stroke="white" stroke-width="8" stroke-linecap="round"/>
<path d="M125.503 11C123.006 11 130.492 11.2557 132.989 11.3162C133.92 11.3388 134.993 11.2082 135.91 11.4119C136.006 11.4333 136.021 11.4271 135.975 11.4826C135.854 11.6291 135.817 11.8618 135.739 12.0318C135.417 12.7357 134.976 13.3954 134.588 14.0622C133.725 15.5438 132.707 16.8983 131.768 18.3267C130.315 20.5386 128.99 22.8963 127.765 25.2457C127.414 25.9189 127.107 26.6029 126.784 27.2885C126.7 27.4677 126.55 27.914 126.382 28" stroke="white" stroke-width="8" stroke-linecap="round"/>
<path d="M131 22C131.364 22.5382 131.949 22.9538 132.413 23.3818C132.9 23.8298 133.418 24.234 133.885 24.7071C134.226 25.0523 134.6 25.778 135 26" stroke="white" stroke-width="8" stroke-linecap="round"/>
<path d="M140 11C140 12.6526 140.074 14.2728 140.309 15.9194C140.86 19.7892 140.889 23.6307 140.889 27.514C140.889 28.6835 141 29.8337 141 31" stroke="white" stroke-width="8" stroke-linecap="round"/>
<path d="M152.487 7C150.89 8.08806 149.446 9.38531 148.546 11.1631C147.926 12.3879 147.304 13.5691 147.122 14.9619C146.837 17.1406 146.964 19.5762 148.463 21.2672C149.953 22.9479 152.109 23.5697 154.226 23.7997C156.138 24.0075 158.071 24.0749 159.988 23.8994C160.883 23.8175 161.868 23.6002 162.625 23.0712C164.298 21.9032 165.477 20.1235 166.496 18.353C167.091 17.3205 167.225 16.5242 166.538 15.5516C165.178 13.6295 163.359 12.2152 161.686 10.6253C161.158 10.1238 160.513 9.68603 159.922 9.26366C159.473 8.9428 158.999 8.49842 158.523 8.24892" stroke="white" stroke-width="8" stroke-linecap="round"/>
<path d="M159 25C159 26.8752 159 28.7473 159 30.6186C159 31.7522 159 32.8853 159 34" stroke="white" stroke-width="8" stroke-linecap="round"/>
<path d="M154 36C154.433 35.7906 154.935 35.7774 155.393 35.7068C157.062 35.4493 158.736 35.2235 160.419 35.1457C162.422 35.0529 164.431 35.0497 166.436 35.0041C166.961 34.9922 167.48 35.0022 168 35.09" stroke="white" stroke-width="8" stroke-linecap="round"/>
<path d="M4.21457 4C4.21457 8.11705 3.97762 12.3018 4.27451 16.4088C4.40891 18.2681 3.87583 19.3166 6.04256 19.5318C8.19317 19.7454 10.3675 19.9187 12.5304 19.9187C13.2294 19.9187 18.1981 20.3128 18.2391 19.3659C18.3702 16.3436 18.9848 13.3156 19.0482 10.2735C19.0564 9.88335 19.3136 7.64366 18.8385 7.46839C16.366 6.55632 13.3131 6.18138 10.6874 5.7411C8.79081 5.42308 6.9562 4.99492 5.02368 4.99492" stroke="white" stroke-width="8" stroke-linecap="round"/>
<path d="M22.6592 14.3145C24.2186 14.3145 25.7159 14.7324 27.2568 14.7324" stroke="white" stroke-width="8" stroke-linecap="round"/>
<path d="M23.2861 19.748C24.322 19.7082 25.4442 19.3301 26.4209 19.3301" stroke="white" stroke-width="8" stroke-linecap="round"/>
<path d="M28.3018 11.1797C28.3018 15.1313 28.7197 19.1991 28.7197 23.0918" stroke="white" stroke-width="8" stroke-linecap="round"/>
<path d="M20.1514 26.0176C19.9231 26.6453 19.0791 27.3069 18.6885 27.8984C18.0029 28.9366 17.6436 29.758 17.6436 31.0216C17.6436 33.2639 20.31 33.332 21.9858 33.332C23.1886 33.332 24.6156 33.2041 24.958 31.8343C25.3815 30.1405 24.807 29.8372 23.7041 28.7344" stroke="white" stroke-width="8" stroke-linecap="round"/>
<path d="M42.7267 10C39.8275 11.4497 35.425 13.6805 36.2193 18.1486C36.5289 19.89 37.7187 21.5081 38.9081 22.6233C39.5647 23.2389 40.3784 23.6926 41.1616 24.0597C43.0168 24.9294 46.254 25.6235 48.0573 24.1127C50.1575 22.3531 52.5957 20.0883 52.0465 16.8445C51.9384 16.2064 51.5835 15.6622 51.3581 15.0705C51.2577 14.8069 51.113 14.5218 50.9639 14.2894C50.7679 13.9842 50.6731 13.5377 50.4579 13.27C49.9081 12.5864 48.7557 11.7381 48.0573 11.2142" stroke="white" stroke-width="8" stroke-linecap="round"/>
<path d="M57.125 18L60.125 17" stroke="white" stroke-width="8" stroke-linecap="round"/>
<path d="M56.125 21C57.7929 21 59.4553 21 61.125 21" stroke="white" stroke-width="8" stroke-linecap="round"/>
<path d="M61.125 14C61.125 15.7557 61.2573 17.4997 61.5536 19.2444C61.737 20.3246 61.798 21.3648 61.8472 22.45C61.8688 22.9257 61.8172 23.5691 62.125 24" stroke="white" stroke-width="8" stroke-linecap="round"/>
<path d="M65.125 13C65.1664 13.6266 65.2848 14.249 65.3448 14.874C65.4241 15.6995 65.4958 16.5228 65.5694 17.3496C65.7083 18.908 65.9083 20.468 66.125 22" stroke="white" stroke-width="8" stroke-linecap="round"/>
<path d="M78.3708 8C77.1422 8.38305 74.5776 10.2043 73.9662 11.1922C73.4614 12.0077 73.1656 13.0106 73.1496 13.9564C73.1377 14.6545 73.0456 15.4562 73.3165 16.1213C73.86 17.4557 74.9173 18.1532 76.2716 18.7251C78.2134 19.545 80.0413 20.0167 82.1817 19.9996C83.5409 19.9887 85.0029 19.7687 86.0391 18.8686C86.4334 18.5261 86.7426 17.838 86.8918 17.3662C87.1058 16.6898 87.1562 16.024 87.1084 15.3195C87.0024 13.7584 86.239 12.1702 85.4301 10.8251C84.8457 9.85325 83.8538 9.43136 82.8946 8.83322" stroke="white" stroke-width="8" stroke-linecap="round"/>
<path d="M80.125 27C84.1239 27 88.1238 27 92.125 27" stroke="white" stroke-width="8" stroke-linecap="round"/>
<path d="M94.125 17C93.7217 18.4296 93.7431 19.9784 93.6067 21.4253C93.4281 23.3199 93.2319 25.2225 93.2053 27.1203C93.199 27.569 92.9606 29.8815 93.3366 30" stroke="white" stroke-width="8" stroke-linecap="round"/>
<path d="M188.75 6.01279C186.52 6.01279 184.291 6.01279 182.062 6.01279C181.203 6.01279 180.338 5.97969 179.48 6.01998C179.237 6.03137 178.496 5.98763 178.297 6.16381C178.117 6.32267 178.227 6.99563 178.227 7.20655C178.227 8.15101 178.227 9.09547 178.227 10.0399C178.227 13.3305 178.312 16.6317 178.22 19.9208C178.205 20.4501 177.623 22.4338 178.004 22.9124C178.244 23.2134 180.501 22.6448 180.816 22.6104C182.129 22.4667 183.423 22.4599 184.741 22.4522C186.113 22.4441 187.489 22.3227 188.875 22.3227" stroke="white" stroke-width="8" stroke-linecap="round"/>
<path d="M194.875 10C194.875 12.8926 194.875 15.7884 194.875 18.6942C194.875 19.8203 194.875 20.9459 194.875 22.0594C194.875 22.6428 194.875 23.4276 194.875 24" stroke="white" stroke-width="8" stroke-linecap="round"/>
<path d="M194.875 19H198.875" stroke="white" stroke-width="8" stroke-linecap="round"/>
<path d="M188.586 28C187.216 29.1201 186.627 32.0645 186.971 33.911C187.503 36.7744 190.982 37.151 192.991 36.9575C195.052 36.7589 195.016 34.8557 194.741 32.9377C194.584 31.8464 193.934 31.003 193.655 29.9624C193.496 29.3709 193.341 28.9403 193.051 28.4273" stroke="white" stroke-width="8" stroke-linecap="round"/>
<path d="M4.21457 4C4.21457 8.11705 3.97762 12.3018 4.27451 16.4088C4.40891 18.2681 3.87583 19.3166 6.04256 19.5318C8.19317 19.7454 10.3675 19.9187 12.5304 19.9187C13.2294 19.9187 18.1981 20.3128 18.2391 19.3659C18.3702 16.3436 18.9848 13.3156 19.0482 10.2735C19.0564 9.88335 19.3136 7.64366 18.8385 7.46839C16.366 6.55632 13.3131 6.18138 10.6874 5.7411C8.79081 5.42308 6.9562 4.99492 5.02368 4.99492" stroke="black" stroke-width="3.5" stroke-linecap="round"/>
<path d="M22.6592 14.3145C24.2186 14.3145 25.7159 14.7324 27.2568 14.7324" stroke="black" stroke-width="3.5" stroke-linecap="round"/>
<path d="M23.2861 19.748C24.322 19.7082 25.4442 19.3301 26.4209 19.3301" stroke="black" stroke-width="3.5" stroke-linecap="round"/>
<path d="M28.3018 11.1797C28.3018 15.1313 28.7197 19.1991 28.7197 23.0918" stroke="black" stroke-width="3.5" stroke-linecap="round"/>
<path d="M20.1514 26.0176C19.9231 26.6453 19.0791 27.3069 18.6885 27.8984C18.0029 28.9366 17.6436 29.758 17.6436 31.0216C17.6436 33.2639 20.31 33.332 21.9858 33.332C23.1886 33.332 24.6156 33.2041 24.958 31.8343C25.3815 30.1405 24.807 29.8372 23.7041 28.7344" stroke="black" stroke-width="3.5" stroke-linecap="round"/>
<path d="M42.7267 10C39.8275 11.4497 35.425 13.6805 36.2193 18.1486C36.5289 19.89 37.7187 21.5081 38.9081 22.6233C39.5647 23.2389 40.3784 23.6926 41.1616 24.0597C43.0168 24.9294 46.254 25.6235 48.0573 24.1127C50.1575 22.3531 52.5957 20.0883 52.0465 16.8445C51.9384 16.2064 51.5835 15.6622 51.3581 15.0705C51.2577 14.8069 51.113 14.5218 50.9639 14.2894C50.7679 13.9842 50.6731 13.5377 50.4579 13.27C49.9081 12.5864 48.7557 11.7381 48.0573 11.2142" stroke="black" stroke-width="3.5" stroke-linecap="round"/>
<path d="M57.125 18L60.125 17" stroke="black" stroke-width="3.5" stroke-linecap="round"/>
<path d="M56.125 21C57.7929 21 59.4553 21 61.125 21" stroke="black" stroke-width="3.5" stroke-linecap="round"/>
<path d="M61.125 14C61.125 15.7557 61.2573 17.4997 61.5536 19.2444C61.737 20.3246 61.798 21.3648 61.8472 22.45C61.8688 22.9257 61.8172 23.5691 62.125 24" stroke="black" stroke-width="3.5" stroke-linecap="round"/>
<path d="M65.125 13C65.1664 13.6266 65.2848 14.249 65.3448 14.874C65.4241 15.6995 65.4958 16.5228 65.5694 17.3496C65.7083 18.908 65.9083 20.468 66.125 22" stroke="black" stroke-width="3.5" stroke-linecap="round"/>
<path d="M78.3708 8C77.1422 8.38305 74.5776 10.2043 73.9662 11.1922C73.4614 12.0077 73.1656 13.0106 73.1496 13.9564C73.1377 14.6545 73.0456 15.4562 73.3165 16.1213C73.86 17.4557 74.9173 18.1532 76.2716 18.7251C78.2134 19.545 80.0413 20.0167 82.1817 19.9996C83.5409 19.9887 85.0029 19.7687 86.0391 18.8686C86.4334 18.5261 86.7426 17.838 86.8918 17.3662C87.1058 16.6898 87.1562 16.024 87.1084 15.3195C87.0024 13.7584 86.239 12.1702 85.4301 10.8251C84.8457 9.85325 83.8538 9.43136 82.8946 8.83322" stroke="black" stroke-width="3.5" stroke-linecap="round"/>
<path d="M80.125 27C84.1239 27 88.1238 27 92.125 27" stroke="black" stroke-width="3.5" stroke-linecap="round"/>
<path d="M94.125 17C93.7217 18.4296 93.7431 19.9784 93.6067 21.4253C93.4281 23.3199 93.2319 25.2225 93.2053 27.1203C93.199 27.569 92.9606 29.8815 93.3366 30" stroke="black" stroke-width="3.5" stroke-linecap="round"/>
<path d="M188.5 6.01279C186.27 6.01279 184.041 6.01279 181.812 6.01279C180.953 6.01279 180.088 5.97969 179.23 6.01998C178.987 6.03137 178.246 5.98763 178.047 6.16381C177.867 6.32267 177.977 6.99563 177.977 7.20655C177.977 8.15101 177.977 9.09547 177.977 10.0399C177.977 13.3305 178.062 16.6317 177.97 19.9208C177.955 20.4501 177.373 22.4338 177.754 22.9124C177.994 23.2134 180.251 22.6448 180.566 22.6104C181.879 22.4667 183.173 22.4599 184.491 22.4522C185.863 22.4441 187.239 22.3227 188.625 22.3227" stroke="black" stroke-width="3.5" stroke-linecap="round"/>
<path d="M194.625 10C194.625 12.8926 194.625 15.7884 194.625 18.6942C194.625 19.8203 194.625 20.9459 194.625 22.0594C194.625 22.6428 194.625 23.4276 194.625 24" stroke="black" stroke-width="3.5" stroke-linecap="round"/>
<path d="M194.625 19H198.625" stroke="black" stroke-width="3.5" stroke-linecap="round"/>
<path d="M188.336 28C186.966 29.1201 186.377 32.0645 186.721 33.911C187.253 36.7744 190.732 37.151 192.741 36.9575C194.802 36.7589 194.766 34.8557 194.491 32.9377C194.334 31.8464 193.684 31.003 193.405 29.9624C193.246 29.3709 193.091 28.9403 192.801 28.4273" stroke="black" stroke-width="3.5" stroke-linecap="round"/>
<path d="M113 7C113.822 7 114.65 7.16643 115.457 7.29218C116.694 7.48473 117.945 7.64563 119.172 7.88889C120.362 8.12493 121.477 8.55313 122.613 8.95062C122.816 9.02161 123.078 9.125 123.298 9.14815C123.633 9.18353 124 9.58276 124 9.87243C124 10.2606 123.884 10.5396 123.723 10.9012C123.305 11.8342 122.83 12.7365 122.24 13.5844C120.802 15.654 119.363 17.6806 118.08 19.8477C117.427 20.9487 116.804 22.0672 116.168 23.177C115.929 23.5952 115.759 24.0222 115.635 24.4815C115.579 24.6887 115.409 24.8058 115.34 25" stroke="#FEBE31" stroke-width="3.5" stroke-linecap="round"/>
<path d="M118 22C118.337 22.0345 118.688 22.6282 118.911 22.8252C120.183 23.9477 121.669 24.8183 122.902 25.9869C123.121 26.1946 123.403 26.5726 123.68 26.7222C123.79 26.7815 123.948 26.9048 124 27" stroke="#FEBE31" stroke-width="3.5" stroke-linecap="round"/>
<path d="M125.503 11C123.006 11 130.492 11.2557 132.989 11.3162C133.92 11.3388 134.993 11.2082 135.91 11.4119C136.006 11.4333 136.021 11.4271 135.975 11.4826C135.854 11.6291 135.817 11.8618 135.739 12.0318C135.417 12.7357 134.976 13.3954 134.588 14.0622C133.725 15.5438 132.707 16.8983 131.768 18.3267C130.315 20.5386 128.99 22.8963 127.765 25.2457C127.414 25.9189 127.107 26.6029 126.784 27.2885C126.7 27.4677 126.55 27.914 126.382 28" stroke="#FEBE31" stroke-width="3.5" stroke-linecap="round"/>
<path d="M131 22C131.364 22.5382 131.949 22.9538 132.413 23.3818C132.9 23.8298 133.418 24.234 133.885 24.7071C134.226 25.0523 134.6 25.778 135 26" stroke="#FEBE31" stroke-width="3.5" stroke-linecap="round"/>
<path d="M140 11C140 12.6526 140.074 14.2728 140.309 15.9194C140.86 19.7892 140.889 23.6307 140.889 27.514C140.889 28.6835 141 29.8337 141 31" stroke="#FEBE31" stroke-width="3.5" stroke-linecap="round"/>
<path d="M152.487 7C150.89 8.08806 149.446 9.38531 148.546 11.1631C147.926 12.3879 147.304 13.5691 147.122 14.9619C146.837 17.1406 146.964 19.5762 148.463 21.2672C149.953 22.9479 152.109 23.5697 154.226 23.7997C156.138 24.0075 158.071 24.0749 159.988 23.8994C160.883 23.8175 161.868 23.6002 162.625 23.0712C164.298 21.9032 165.477 20.1235 166.496 18.353C167.091 17.3205 167.225 16.5242 166.538 15.5516C165.178 13.6295 163.359 12.2152 161.686 10.6253C161.158 10.1238 160.513 9.68603 159.922 9.26366C159.473 8.9428 158.999 8.49842 158.523 8.24892" stroke="#FEBE31" stroke-width="3.5" stroke-linecap="round"/>
<path d="M159 25C159 26.8752 159 28.7473 159 30.6186C159 31.7522 159 32.8853 159 34" stroke="#FEBE31" stroke-width="3.5" stroke-linecap="round"/>
<path d="M154 36C154.433 35.7906 154.935 35.7774 155.393 35.7068C157.062 35.4493 158.736 35.2235 160.419 35.1457C162.422 35.0529 164.431 35.0497 166.436 35.0041C166.961 34.9922 167.48 35.0022 168 35.09" stroke="#FEBE31" stroke-width="3.5" stroke-linecap="round"/>
</svg>
