<svg width="287" height="73" viewBox="0 0 287 73" fill="none" xmlns="http://www.w3.org/2000/svg">
<path d="M239.236 1.28882C240.872 1.25165 243.294 1.21364 244.93 1.21364C246.058 1.21364 247.188 1.14771 248.312 1.07517C249.584 0.993139 250.889 1.07121 252.162 1.07121C253.444 1.07121 254.722 1 256.007 1C259.259 1 262.51 1.04944 265.76 1.13847C268.511 1.21384 271.301 1.22832 273.914 2.19483C275.764 2.87909 277.64 3.4626 279.287 4.56074C280.233 5.19183 281.263 5.96939 281.89 6.92665C282.586 7.98816 282.66 9.40667 282.46 10.61C282.324 11.4236 281.944 12.2454 281.669 13.0195C281.538 13.3867 281.38 13.7088 281.194 14.0481C280.923 14.5411 280.677 15.0406 280.399 15.5278C280.042 16.1523 279.547 16.9026 278.939 17.3082C278.481 17.6135 277.948 17.776 277.475 18.052C276.923 18.3741 276.19 18.6175 275.576 18.7879C274.153 19.1823 272.702 19.4201 271.24 19.6227C269.45 19.8704 267.637 19.8007 265.835 19.8007C264.237 19.8007 262.638 19.7817 261.04 19.8007C259.295 19.8215 257.548 19.9312 255.802 19.9431C254.787 19.9501 253.785 20.1713 252.775 20.2597C251.898 20.3364 251.009 20.2992 250.128 20.2992C246.73 20.2992 243.44 19.8997 240.119 19.1756C237.582 18.6225 235.024 17.7754 232.823 16.3666C231.763 15.688 231.095 14.5929 231.047 13.336C230.932 10.3662 230.941 7.41858 232.111 4.64778C232.779 3.06599 234.749 2.34542 236.206 1.75171C236.525 1.62185 236.884 1.60379 237.223 1.55389C237.899 1.45413 238.548 1.30447 239.236 1.28882Z" fill="#66BE8B" stroke="#489B6D" stroke-width="2" stroke-linecap="round"/>
<path d="M251.187 12.7005C252.574 12.7005 253.972 12.7059 255.077 11.7229C255.33 11.4981 255.981 10.4203 255.767 10.0566C255.48 9.57092 254.179 9.61126 253.75 9.60118C253.216 9.58864 252.494 9.67179 252.016 9.96221C251.417 10.3259 251.078 10.7276 251.007 11.4952C250.935 12.2727 251.41 13.1604 251.908 13.678C252.505 14.2999 253.515 15 254.383 15C255.375 15 256.32 14.6001 257.3 14.6001" stroke="#489B6D" stroke-width="2" stroke-linecap="round"/>
<path d="M259.1 10.5H263.6" stroke="#489B6D" stroke-width="2" stroke-linecap="round"/>
<path d="M261.8 7.80005C261.781 8.13915 261.682 8.49613 261.62 8.83005C261.446 9.76043 261.385 10.7034 261.26 11.64C261.115 12.7296 260.9 13.9021 260.9 15" stroke="#489B6D" stroke-width="2" stroke-linecap="round"/>
<path d="M267.724 10.5C267.095 10.5615 266.515 11.7302 266.411 12.2355C266.281 12.8707 266.161 13.879 266.693 14.3985C267.155 14.8505 267.914 15.063 268.563 14.9837C268.997 14.9307 269.852 14.1818 270.027 13.7928C270.317 13.1439 270.701 12.2732 270.235 11.5993C270.075 11.3684 269.853 11.1161 269.599 10.9784C269.459 10.9024 269.232 10.8534 269.131 10.729C268.962 10.5229 269.15 10.7884 269.323 10.9122C269.806 11.2567 270.271 11.6106 270.745 11.9657C271.23 12.328 271.703 12.6978 272.214 13.0192C272.368 13.1157 272.498 13.1898 272.6 13.3399" stroke="#489B6D" stroke-width="2" stroke-linecap="round"/>
<path d="M242.252 6C242.214 6.68293 242.013 7.34074 242.006 8.04054C241.993 9.30603 242.006 10.5723 242.006 11.8378C242.006 12.7252 242.3 15.3874 242.3 14.5C242.3 13.4033 242.159 12.2146 242.806 11.2905C243.434 10.3954 244.82 10.5 245.797 10.5C246.822 10.5 248.243 10.878 248.287 12.1081C248.308 12.6746 248.348 13.1429 247.986 13.6014C247.385 14.3647 246.216 14.3758 245.331 14.5743C244.536 14.7528 243.684 15 242.868 15" stroke="#489B6D" stroke-width="2" stroke-linecap="round"/>
<path d="M43 33C46.347 33 49.6794 33.3504 53.0362 33.3504C53.8193 33.3504 55.3216 33.1756 56.0247 33.623C56.3466 33.8279 56.1415 35.1793 56.1415 35.4434C56.1415 39.4767 56.1415 43.51 56.1415 47.5433" stroke="white" stroke-width="8" stroke-linecap="round"/>
<path d="M43.2168 53.9812C47.9448 53.6435 52.9215 52.7546 57.5849 52.7546" stroke="white" stroke-width="8" stroke-linecap="round"/>
<path d="M50.576 59.4131C50.576 60.3691 50.4952 61.3624 50.6734 62.3043C50.834 63.1535 51.2586 63.9302 51.4424 64.7574C51.5934 65.4367 54.8763 65.0202 55.4627 65.0202C56.5183 65.0202 57.9353 65.5101 57.9353 64.1149C57.9353 63.0149 57.9353 61.9149 57.9353 60.8149C57.9353 60.2911 58.2 60.0466 57.9742 59.5105C57.9129 59.3648 58.0248 58.9409 57.8282 58.8972C57.2542 58.7697 56.5311 58.8875 55.9495 58.8875C54.2167 58.8875 52.484 58.8875 50.7513 58.8875" stroke="white" stroke-width="8" stroke-linecap="round"/>
<path d="M8.01465 20.4591C10.6437 20.4591 13.2678 20.2295 15.9001 20.2295C16.563 20.2295 17.1527 20 17.8087 20" stroke="white" stroke-width="8" stroke-linecap="round"/>
<path d="M6.86694 26.4274C9.56446 26.0903 12.3075 25.9524 15.0202 25.7813C16.6827 25.6765 18.3293 25.4468 19.9895 25.352C20.6911 25.3119 21.392 25.2445 22.0937 25.2032C22.4235 25.1838 23.0207 25.1222 23.3179 24.9736" stroke="white" stroke-width="8" stroke-linecap="round"/>
<path d="M14.9777 30.6357C14.5316 30.9073 14.0092 31.0553 13.5282 31.2521C12.7485 31.5711 11.9888 31.9594 11.2539 32.3701C9.73576 33.2185 8.35269 34.3251 6.99452 35.4053C6.01999 36.1803 4.9233 37.1058 4.47799 38.3044C3.94375 39.7423 3.87237 41.1734 4.18893 42.6658C4.66697 44.9194 6.16457 47.0841 8.39732 47.8179C11.6364 48.8824 15.3246 48.7277 18.5145 47.5713C20.3967 46.889 22.3265 45.9699 23.6198 44.4044C24.2123 43.6871 24.4233 42.8589 24.623 41.9729C24.8348 41.033 24.9214 40.1204 24.538 39.2098C24.2533 38.5336 23.7656 37.9928 23.2882 37.4499C22.6776 36.7555 22.0866 36.041 21.4816 35.3415C20.9162 34.6878 20.2677 33.6743 19.4156 33.3903" stroke="white" stroke-width="8" stroke-linecap="round"/>
<path d="M15.8914 53.2419C16.0402 54.3731 16.2579 55.4908 16.4357 56.6169" stroke="white" stroke-width="8" stroke-linecap="round"/>
<path d="M8.70605 58.6855C11.1974 58.3924 13.6705 57.8798 16.1696 57.5968C18.1492 57.3726 20.2912 57.2728 22.2058 56.7258" stroke="white" stroke-width="8" stroke-linecap="round"/>
<path d="M31.0242 37.0205C31.3437 41.1746 31.1236 45.3432 31.5685 49.5041C31.6964 50.7004 31.7863 51.9701 31.7863 53.1754C31.7863 53.4702 31.8951 53.7233 31.8951 54.004" stroke="white" stroke-width="8" stroke-linecap="round"/>
<path d="M31.7863 45.4035C34.1916 45.4035 36.5646 44.7502 38.9716 44.7502" stroke="white" stroke-width="8" stroke-linecap="round"/>
<path d="M27.825 59.7821C25.6424 60.7327 23.0488 62.3329 23.4266 65.1151C23.8495 68.2292 28.4059 69.2018 30.6909 67.5697C32.2698 66.4419 32.6755 63.9427 31.725 62.2742C31.0482 61.086 29.2241 59.9868 27.9372 59.5579" stroke="white" stroke-width="8" stroke-linecap="round"/>
<path d="M80 34C80.8219 34 81.6496 34.1664 82.4574 34.2922C83.6944 34.4847 84.9447 34.6456 86.1718 34.8889C87.3624 35.1249 88.4768 35.5531 89.6131 35.9506C89.816 36.0216 90.0784 36.125 90.2979 36.1481C90.6332 36.1835 91 36.5828 91 36.8724C91 37.2606 90.8844 37.5396 90.7226 37.9012C90.3054 38.8342 89.8296 39.7365 89.2403 40.5844C87.8021 42.654 86.3635 44.6806 85.0796 46.8477C84.4274 47.9487 83.8039 49.0672 83.1682 50.177C82.9287 50.5952 82.7592 51.0222 82.6351 51.4815C82.5792 51.6887 82.4086 51.8058 82.3404 52" stroke="white" stroke-width="8" stroke-linecap="round"/>
<path d="M85 49C85.3375 49.0345 85.6879 49.6282 85.9111 49.8252C87.1833 50.9477 88.6688 51.8183 89.9022 52.9869C90.1214 53.1946 90.4032 53.5726 90.68 53.7222C90.7897 53.7815 90.9482 53.9048 91 54" stroke="white" stroke-width="8" stroke-linecap="round"/>
<path d="M92.5029 38C90.0055 38 97.4921 38.2557 99.9888 38.3162C100.92 38.3388 101.993 38.2082 102.91 38.4119C103.006 38.4333 103.021 38.4271 102.975 38.4826C102.854 38.6291 102.817 38.8618 102.739 39.0318C102.417 39.7357 101.976 40.3954 101.588 41.0622C100.725 42.5438 99.7068 43.8983 98.7683 45.3267C97.3151 47.5386 95.9903 49.8963 94.765 52.2457C94.4139 52.9189 94.1073 53.6029 93.7845 54.2885C93.7001 54.4677 93.5499 54.914 93.3817 55" stroke="white" stroke-width="8" stroke-linecap="round"/>
<path d="M98 49C98.3639 49.5382 98.9489 49.9538 99.4135 50.3818C99.8997 50.8298 100.418 51.234 100.885 51.7071C101.226 52.0523 101.6 52.778 102 53" stroke="white" stroke-width="8" stroke-linecap="round"/>
<path d="M107 38C107 39.6526 107.074 41.2728 107.309 42.9194C107.86 46.7892 107.889 50.6307 107.889 54.514C107.889 55.6835 108 56.8337 108 58" stroke="white" stroke-width="8" stroke-linecap="round"/>
<path d="M119.487 34C117.89 35.0881 116.446 36.3853 115.546 38.1631C114.926 39.3879 114.304 40.5691 114.122 41.9619C113.837 44.1406 113.964 46.5762 115.463 48.2672C116.953 49.9479 119.109 50.5697 121.226 50.7997C123.138 51.0075 125.071 51.0749 126.988 50.8994C127.883 50.8175 128.868 50.6002 129.625 50.0712C131.298 48.9032 132.477 47.1235 133.496 45.353C134.091 44.3205 134.225 43.5242 133.538 42.5516C132.178 40.6295 130.359 39.2152 128.686 37.6253C128.158 37.1238 127.513 36.686 126.922 36.2637C126.473 35.9428 125.999 35.4984 125.523 35.2489" stroke="white" stroke-width="8" stroke-linecap="round"/>
<path d="M126 52C126 53.8752 126 55.7473 126 57.6186C126 58.7522 126 59.8853 126 61" stroke="white" stroke-width="8" stroke-linecap="round"/>
<path d="M121 63C121.433 62.7906 121.935 62.7774 122.393 62.7068C124.062 62.4493 125.736 62.2235 127.419 62.1457C129.422 62.0529 131.431 62.0497 133.436 62.0041C133.961 61.9922 134.48 62.0022 135 62.09" stroke="white" stroke-width="8" stroke-linecap="round"/>
<path d="M143 50C146.143 50 149.273 50 152.421 50C153.2 50 153.968 50 154.747 50C155.831 50 156.916 50 158 50" stroke="white" stroke-width="8" stroke-linecap="round"/>
<path d="M149 55C150.3 55 151.6 55 152.9 55C153.537 55 154.133 55.0586 154.731 55.3136C155.192 55.5099 155.771 55.6043 155.871 56.2283C155.984 56.9226 155.764 57.8463 155.122 58.136C154.294 58.5092 153.364 58.1126 152.509 58.3102C152.02 58.4233 151.286 58.5605 151.052 59.116C150.823 59.6614 150.936 60.4537 150.948 61.0542C150.957 61.5083 151.065 61.9606 151.087 62.4132C151.097 62.6075 151.168 62.8858 151.369 62.914C152.166 63.0264 153.019 62.9128 153.823 62.9576C154.881 63.0166 155.941 62.9968 157 62.9968" stroke="white" stroke-width="8" stroke-linecap="round"/>
<path d="M144 31.642C144.212 31.4765 144.721 31.5523 144.978 31.5154C145.681 31.4147 146.373 31.3708 147.072 31.2341C147.701 31.1111 148.372 31.0152 149.014 31.0091C149.233 31.007 149.515 30.9514 149.669 31.1427C149.992 31.5439 150.263 31.8776 150.525 32.3242C150.777 32.7534 150.962 33.2238 151.201 33.6533C151.624 34.4104 151.64 35.2623 151.64 36.1077C151.64 36.5625 151.631 36.968 151.147 37.029C150.069 37.165 148.98 37.1863 147.896 37.3068C147.523 37.3481 147.168 37.4084 146.799 37.4791C146.286 37.577 145.963 37.504 145.799 38.0276C145.237 39.8177 145.103 42.036 145.716 43.833C145.937 44.4802 146.264 44.9969 147.058 44.9969C148.139 44.9969 149.221 45.0039 150.302 44.9969C151.203 44.9911 152.099 44.8703 153 44.8703" stroke="white" stroke-width="8" stroke-linecap="round"/>
<path d="M191 53.6667C192.885 53.4592 194.837 53.4117 196.709 53.0952C197.02 53.0426 197.318 53 197.632 53C198.29 53 197.9 53.4016 197.723 53.9735C196.966 56.4143 195.924 58.7719 194.977 61.1376C194.73 61.7566 194.38 62.3694 194.18 63" stroke="white" stroke-width="8" stroke-linecap="round"/>
<path d="M197 58C197.272 58.0825 197.573 58.4084 197.821 58.5667C198.511 59.0087 199.191 59.4719 199.876 59.9238C200.28 60.1904 200.784 60.5185 201 61" stroke="white" stroke-width="8" stroke-linecap="round"/>
<path d="M198 33C198.101 35.1357 198.259 37.2389 198.56 39.3483C198.75 40.6808 198.918 42.0131 199.074 43.3511C199.181 44.2666 199.316 45.1398 199.593 46.015C199.792 46.6439 199.744 47.418 200 48" stroke="white" stroke-width="8" stroke-linecap="round"/>
<path d="M199 42C200.668 42 202.332 41 204 41" stroke="white" stroke-width="8" stroke-linecap="round"/>
<path d="M175 27C176.294 27 177.569 27 178.877 27C179.583 27 180.293 27 181 27" stroke="white" stroke-width="8" stroke-linecap="round"/>
<path d="M172 34.7062C172.225 34.5979 172.478 34.5555 172.717 34.4914C173.47 34.2896 174.208 34.0376 174.957 33.8213C176.589 33.3497 178.246 32.9974 179.918 32.7002C181.808 32.3643 183.82 32 185.746 32C186.338 32 186.921 32.0773 187.508 32.0773C187.569 32.0773 188.059 32.0289 187.994 32.1375C187.744 32.558 187.58 32.9972 187.388 33.4476C187.07 34.1952 186.691 34.9155 186.386 35.6684C185.674 37.4264 185.092 39.2326 184.346 40.9777C183.864 42.1055 183.709 43.3313 183.327 44.4871C183.052 45.3159 182.898 46.24 182.521 47" stroke="white" stroke-width="8" stroke-linecap="round"/>
<path d="M185 41C185.778 41 186.611 41.5048 187.295 41.8889C188.07 42.3237 188.778 42.8877 189.439 43.5284C189.939 44.0131 190.418 44.6593 191 45" stroke="white" stroke-width="8" stroke-linecap="round"/>
<path d="M218.015 31C216.283 31.2097 214.579 31.288 213.199 32.4056C212.473 32.9938 212.004 33.6773 211.421 34.3769C210.815 35.1053 210.173 35.918 210.068 36.8843C209.701 40.2829 210.847 43.6182 212.75 46.4255C214.358 48.7974 217.205 49.5754 219.965 49.9156C220.814 50.0202 221.727 50.0221 222.579 49.9514C223.627 49.8644 224.776 49.814 225.803 49.6059C226.91 49.3816 228.095 48.8893 228.976 48.1884C231.237 46.3907 232.51 43.6034 231.806 40.7556C231.308 38.7436 230.88 36.9726 229.419 35.4013C228.562 34.4787 227.593 33.3931 226.473 32.7689C225.734 32.3571 224.627 31.8576 223.773 31.8576" stroke="white" stroke-width="8" stroke-linecap="round"/>
<path d="M238 31C238 33.1037 238.505 35.2349 238.778 37.322C239.057 39.4602 239.017 41.6272 239.284 43.757C239.583 46.1456 240 48.5924 240 51" stroke="white" stroke-width="8" stroke-linecap="round"/>
<path d="M240 43H245" stroke="white" stroke-width="8" stroke-linecap="round"/>
<path d="M252 33C254.312 33.0936 256.627 33 258.943 33C259.189 33 259.341 33.012 259.525 33.163C260.065 33.6044 260.595 34.3023 260.954 34.9004C261.229 35.3584 261.432 35.8693 261.613 36.3707C261.957 37.3271 262.404 38.2487 262.577 39.2594C262.622 39.5236 262.659 39.8371 262.549 40.0848C262.467 40.2699 262.171 40.2819 262.001 40.3067C261.35 40.402 260.72 40.5273 260.059 40.5529C259.079 40.591 258.102 40.5927 257.122 40.6188C256.705 40.6299 256.282 40.7169 255.894 40.872C255.407 41.0667 255.019 41.2981 254.719 41.7389C254.172 42.5408 254.066 43.4799 254.06 44.423C254.05 45.8828 254.152 47.2429 254.545 48.6537C254.897 49.9131 255.503 51.0992 255.995 52.3019C256.148 52.6771 256.407 52.9572 256.786 53.1134C257.36 53.3503 258.105 53.317 258.714 53.3977C259.602 53.5156 260.501 53.5989 261.398 53.5989C261.535 53.5989 262.17 53.6488 262.286 53.5226C262.359 53.4427 262.526 53.086 262.549 52.9746C262.591 52.7753 262.791 52.5601 262.861 52.3504" stroke="white" stroke-width="8" stroke-linecap="round"/>
<path d="M269.103 37.0574C268.763 41.8188 268.604 46.6378 268.604 51.4141" stroke="white" stroke-width="8" stroke-linecap="round"/>
<path d="M269.915 45.8586C270.675 45.8586 271.463 46.1083 272.224 46.1083" stroke="white" stroke-width="8" stroke-linecap="round"/>
<path d="M276.906 33.8738C276.669 36.2434 276.843 38.6946 276.843 41.0834C276.843 41.7308 276.74 42.3756 276.705 43.0219C276.673 43.6033 276.718 44.2998 276.531 44.8598" stroke="white" stroke-width="8" stroke-linecap="round"/>
<path d="M276.781 50.353C276.635 50.3712 276.609 50.7197 276.469 50.79" stroke="white" stroke-width="8" stroke-linecap="round"/>
<path d="M282.898 37.3071C282.638 38.1441 282.716 39.1544 282.649 40.019C282.576 40.9505 282.562 41.8889 282.461 42.8175C282.41 43.2882 282.337 43.7685 282.271 44.2358C282.177 44.8885 281.962 45.5887 281.962 46.2333" stroke="white" stroke-width="8" stroke-linecap="round"/>
<path d="M282.087 51.4141C282.005 51.4141 281.995 51.4105 281.962 51.4765" stroke="white" stroke-width="8" stroke-linecap="round"/>
<path d="M43 33C46.347 33 49.6794 33.3504 53.0362 33.3504C53.8193 33.3504 55.3216 33.1756 56.0247 33.623C56.3466 33.8279 56.1415 35.1793 56.1415 35.4434C56.1415 39.4767 56.1415 43.51 56.1415 47.5433" stroke="#FEBE31" stroke-width="3.5" stroke-linecap="round"/>
<path d="M43.2168 53.9812C47.9448 53.6435 52.9215 52.7546 57.5849 52.7546" stroke="#FEBE31" stroke-width="3.5" stroke-linecap="round"/>
<path d="M50.576 59.4131C50.576 60.3691 50.4952 61.3624 50.6734 62.3043C50.834 63.1535 51.2586 63.9302 51.4424 64.7574C51.5934 65.4367 54.8763 65.0202 55.4627 65.0202C56.5183 65.0202 57.9353 65.5101 57.9353 64.1149C57.9353 63.0149 57.9353 61.9149 57.9353 60.8149C57.9353 60.2911 58.2 60.0466 57.9742 59.5105C57.9129 59.3648 58.0248 58.9409 57.8282 58.8972C57.2542 58.7697 56.5311 58.8875 55.9495 58.8875C54.2167 58.8875 52.484 58.8875 50.7513 58.8875" stroke="#FEBE31" stroke-width="3.5" stroke-linecap="round"/>
<path d="M8.01465 20.4591C10.6437 20.4591 13.2678 20.2295 15.9001 20.2295C16.563 20.2295 17.1527 20 17.8087 20" stroke="#FEBE31" stroke-width="3.5" stroke-linecap="round"/>
<path d="M6.86694 26.4274C9.56446 26.0903 12.3075 25.9524 15.0202 25.7813C16.6827 25.6765 18.3293 25.4468 19.9895 25.352C20.6911 25.3119 21.392 25.2445 22.0937 25.2032C22.4235 25.1838 23.0207 25.1222 23.3179 24.9736" stroke="#FEBE31" stroke-width="3.5" stroke-linecap="round"/>
<path d="M14.9777 30.6357C14.5316 30.9073 14.0092 31.0553 13.5282 31.2521C12.7485 31.5711 11.9888 31.9594 11.2539 32.3701C9.73576 33.2185 8.35269 34.3251 6.99452 35.4053C6.01999 36.1803 4.9233 37.1058 4.47799 38.3044C3.94375 39.7423 3.87237 41.1734 4.18893 42.6658C4.66697 44.9194 6.16457 47.0841 8.39732 47.8179C11.6364 48.8824 15.3246 48.7277 18.5145 47.5713C20.3967 46.889 22.3265 45.9699 23.6198 44.4044C24.2123 43.6871 24.4233 42.8589 24.623 41.9729C24.8348 41.033 24.9214 40.1204 24.538 39.2098C24.2533 38.5336 23.7656 37.9928 23.2882 37.4499C22.6776 36.7555 22.0866 36.041 21.4816 35.3415C20.9162 34.6878 20.2677 33.6743 19.4156 33.3903" stroke="#FEBE31" stroke-width="3.5" stroke-linecap="round"/>
<path d="M15.8914 53.2419C16.0402 54.3731 16.2579 55.4908 16.4357 56.6169" stroke="#FEBE31" stroke-width="3.5" stroke-linecap="round"/>
<path d="M8.70605 58.6855C11.1974 58.3924 13.6705 57.8798 16.1696 57.5968C18.1492 57.3726 20.2912 57.2728 22.2058 56.7258" stroke="#FEBE31" stroke-width="3.5" stroke-linecap="round"/>
<path d="M31.0242 37.0205C31.3437 41.1746 31.1236 45.3432 31.5685 49.5041C31.6964 50.7004 31.7863 51.9701 31.7863 53.1754C31.7863 53.4702 31.8951 53.7233 31.8951 54.004" stroke="#FEBE31" stroke-width="3.5" stroke-linecap="round"/>
<path d="M31.7863 45.4035C34.1916 45.4035 36.5646 44.7502 38.9716 44.7502" stroke="#FEBE31" stroke-width="3.5" stroke-linecap="round"/>
<path d="M27.825 59.7821C25.6424 60.7327 23.0488 62.3329 23.4266 65.1151C23.8495 68.2292 28.4059 69.2018 30.6909 67.5697C32.2698 66.4419 32.6755 63.9427 31.725 62.2742C31.0482 61.086 29.2241 59.9868 27.9372 59.5579" stroke="#FEBE31" stroke-width="3.5" stroke-linecap="round"/>
<path d="M80 34C80.8219 34 81.6496 34.1664 82.4574 34.2922C83.6944 34.4847 84.9447 34.6456 86.1718 34.8889C87.3624 35.1249 88.4768 35.5531 89.6131 35.9506C89.816 36.0216 90.0784 36.125 90.2979 36.1481C90.6332 36.1835 91 36.5828 91 36.8724C91 37.2606 90.8844 37.5396 90.7226 37.9012C90.3054 38.8342 89.8296 39.7365 89.2403 40.5844C87.8021 42.654 86.3635 44.6806 85.0796 46.8477C84.4274 47.9487 83.8039 49.0672 83.1682 50.177C82.9287 50.5952 82.7592 51.0222 82.6351 51.4815C82.5792 51.6887 82.4086 51.8058 82.3404 52" stroke="black" stroke-width="3.5" stroke-linecap="round"/>
<path d="M85 49C85.3375 49.0345 85.6879 49.6282 85.9111 49.8252C87.1833 50.9477 88.6688 51.8183 89.9022 52.9869C90.1214 53.1946 90.4032 53.5726 90.68 53.7222C90.7897 53.7815 90.9482 53.9048 91 54" stroke="black" stroke-width="3.5" stroke-linecap="round"/>
<path d="M92.5029 38C90.0055 38 97.4921 38.2557 99.9888 38.3162C100.92 38.3388 101.993 38.2082 102.91 38.4119C103.006 38.4333 103.021 38.4271 102.975 38.4826C102.854 38.6291 102.817 38.8618 102.739 39.0318C102.417 39.7357 101.976 40.3954 101.588 41.0622C100.725 42.5438 99.7068 43.8983 98.7683 45.3267C97.3151 47.5386 95.9903 49.8963 94.765 52.2457C94.4139 52.9189 94.1073 53.6029 93.7845 54.2885C93.7001 54.4677 93.5499 54.914 93.3817 55" stroke="black" stroke-width="3.5" stroke-linecap="round"/>
<path d="M98 49C98.3639 49.5382 98.9489 49.9538 99.4135 50.3818C99.8997 50.8298 100.418 51.234 100.885 51.7071C101.226 52.0523 101.6 52.778 102 53" stroke="black" stroke-width="3.5" stroke-linecap="round"/>
<path d="M107 38C107 39.6526 107.074 41.2728 107.309 42.9194C107.86 46.7892 107.889 50.6307 107.889 54.514C107.889 55.6835 108 56.8337 108 58" stroke="black" stroke-width="3.5" stroke-linecap="round"/>
<path d="M119.487 34C117.89 35.0881 116.446 36.3853 115.546 38.1631C114.926 39.3879 114.304 40.5691 114.122 41.9619C113.837 44.1406 113.964 46.5762 115.463 48.2672C116.953 49.9479 119.109 50.5697 121.226 50.7997C123.138 51.0075 125.071 51.0749 126.988 50.8994C127.883 50.8175 128.868 50.6002 129.625 50.0712C131.298 48.9032 132.477 47.1235 133.496 45.353C134.091 44.3205 134.225 43.5242 133.538 42.5516C132.178 40.6295 130.359 39.2152 128.686 37.6253C128.158 37.1238 127.513 36.686 126.922 36.2637C126.473 35.9428 125.999 35.4984 125.523 35.2489" stroke="black" stroke-width="3.5" stroke-linecap="round"/>
<path d="M126 52C126 53.8752 126 55.7473 126 57.6186C126 58.7522 126 59.8853 126 61" stroke="black" stroke-width="3.5" stroke-linecap="round"/>
<path d="M121 63C121.433 62.7906 121.935 62.7774 122.393 62.7068C124.062 62.4493 125.736 62.2235 127.419 62.1457C129.422 62.0529 131.431 62.0497 133.436 62.0041C133.961 61.9922 134.48 62.0022 135 62.09" stroke="black" stroke-width="3.5" stroke-linecap="round"/>
<path d="M143 50C146.143 50 149.273 50 152.421 50C153.2 50 153.968 50 154.747 50C155.831 50 156.916 50 158 50" stroke="black" stroke-width="3.5" stroke-linecap="round"/>
<path d="M149 55C150.3 55 151.6 55 152.9 55C153.537 55 154.133 55.0586 154.731 55.3136C155.192 55.5099 155.771 55.6043 155.871 56.2283C155.984 56.9226 155.764 57.8463 155.122 58.136C154.294 58.5092 153.364 58.1126 152.509 58.3102C152.02 58.4233 151.286 58.5605 151.052 59.116C150.823 59.6614 150.936 60.4537 150.948 61.0542C150.957 61.5083 151.065 61.9606 151.087 62.4132C151.097 62.6075 151.168 62.8858 151.369 62.914C152.166 63.0264 153.019 62.9128 153.823 62.9576C154.881 63.0166 155.941 62.9968 157 62.9968" stroke="black" stroke-width="3.5" stroke-linecap="round"/>
<path d="M144 31.642C144.212 31.4765 144.721 31.5523 144.978 31.5154C145.681 31.4147 146.373 31.3708 147.072 31.2341C147.701 31.1111 148.372 31.0152 149.014 31.0091C149.233 31.007 149.515 30.9514 149.669 31.1427C149.992 31.5439 150.263 31.8776 150.525 32.3242C150.777 32.7534 150.962 33.2238 151.201 33.6533C151.624 34.4104 151.64 35.2623 151.64 36.1077C151.64 36.5625 151.631 36.968 151.147 37.029C150.069 37.165 148.98 37.1863 147.896 37.3068C147.523 37.3481 147.168 37.4084 146.799 37.4791C146.286 37.577 145.963 37.504 145.799 38.0276C145.237 39.8177 145.103 42.036 145.716 43.833C145.937 44.4802 146.264 44.9969 147.058 44.9969C148.139 44.9969 149.221 45.0039 150.302 44.9969C151.203 44.9911 152.099 44.8703 153 44.8703" stroke="black" stroke-width="3.5" stroke-linecap="round"/>
<path d="M191 53.6667C192.885 53.4592 194.837 53.4117 196.709 53.0952C197.02 53.0426 197.318 53 197.632 53C198.29 53 197.9 53.4016 197.723 53.9735C196.966 56.4143 195.924 58.7719 194.977 61.1376C194.73 61.7566 194.38 62.3694 194.18 63" stroke="black" stroke-width="3.5" stroke-linecap="round"/>
<path d="M197 58C197.272 58.0825 197.573 58.4084 197.821 58.5667C198.511 59.0087 199.191 59.4719 199.876 59.9238C200.28 60.1904 200.784 60.5185 201 61" stroke="black" stroke-width="3.5" stroke-linecap="round"/>
<path d="M198 33C198.101 35.1357 198.259 37.2389 198.56 39.3483C198.75 40.6808 198.918 42.0131 199.074 43.3511C199.181 44.2666 199.316 45.1398 199.593 46.015C199.792 46.6439 199.744 47.418 200 48" stroke="black" stroke-width="3.5" stroke-linecap="round"/>
<path d="M199 42C200.668 42 202.332 41 204 41" stroke="black" stroke-width="3.5" stroke-linecap="round"/>
<path d="M175 27C176.294 27 177.569 27 178.877 27C179.583 27 180.293 27 181 27" stroke="black" stroke-width="3.5" stroke-linecap="round"/>
<path d="M172 34.7062C172.225 34.5979 172.478 34.5555 172.717 34.4914C173.47 34.2896 174.208 34.0376 174.957 33.8213C176.589 33.3497 178.246 32.9974 179.918 32.7002C181.808 32.3643 183.82 32 185.746 32C186.338 32 186.921 32.0773 187.508 32.0773C187.569 32.0773 188.059 32.0289 187.994 32.1375C187.744 32.558 187.58 32.9972 187.388 33.4476C187.07 34.1952 186.691 34.9155 186.386 35.6684C185.674 37.4264 185.092 39.2326 184.346 40.9777C183.864 42.1055 183.709 43.3313 183.327 44.4871C183.052 45.3159 182.898 46.24 182.521 47" stroke="black" stroke-width="3.5" stroke-linecap="round"/>
<path d="M185 41C185.778 41 186.611 41.5048 187.295 41.8889C188.07 42.3237 188.778 42.8877 189.439 43.5284C189.939 44.0131 190.418 44.6593 191 45" stroke="black" stroke-width="3.5" stroke-linecap="round"/>
<path d="M218.015 31C216.283 31.2097 214.579 31.288 213.199 32.4056C212.473 32.9938 212.004 33.6773 211.421 34.3769C210.815 35.1053 210.173 35.918 210.068 36.8843C209.701 40.2829 210.847 43.6182 212.75 46.4255C214.358 48.7974 217.205 49.5754 219.965 49.9156C220.814 50.0202 221.727 50.0221 222.579 49.9514C223.627 49.8644 224.776 49.814 225.803 49.6059C226.91 49.3816 228.095 48.8893 228.976 48.1884C231.237 46.3907 232.51 43.6034 231.806 40.7556C231.308 38.7436 230.88 36.9726 229.419 35.4013C228.562 34.4787 227.593 33.3931 226.473 32.7689C225.734 32.3571 224.627 31.8576 223.773 31.8576" stroke="black" stroke-width="3.5" stroke-linecap="round"/>
<path d="M238 31C238 33.1037 238.505 35.2349 238.778 37.322C239.057 39.4602 239.017 41.6272 239.284 43.757C239.583 46.1456 240 48.5924 240 51" stroke="black" stroke-width="3.5" stroke-linecap="round"/>
<path d="M240 43H245" stroke="black" stroke-width="3.5" stroke-linecap="round"/>
<path d="M252 33C254.312 33.0936 256.627 33 258.943 33C259.189 33 259.341 33.012 259.525 33.163C260.065 33.6044 260.595 34.3023 260.954 34.9004C261.229 35.3584 261.432 35.8693 261.613 36.3707C261.957 37.3271 262.404 38.2487 262.577 39.2594C262.622 39.5236 262.659 39.8371 262.549 40.0848C262.467 40.2699 262.171 40.2819 262.001 40.3067C261.35 40.402 260.72 40.5273 260.059 40.5529C259.079 40.591 258.102 40.5927 257.122 40.6188C256.705 40.6299 256.282 40.7169 255.894 40.872C255.407 41.0667 255.019 41.2981 254.719 41.7389C254.172 42.5408 254.066 43.4799 254.06 44.423C254.05 45.8828 254.152 47.2429 254.545 48.6537C254.897 49.9131 255.503 51.0992 255.995 52.3019C256.148 52.6771 256.407 52.9572 256.786 53.1134C257.36 53.3503 258.105 53.317 258.714 53.3977C259.602 53.5156 260.501 53.5989 261.398 53.5989C261.535 53.5989 262.17 53.6488 262.286 53.5226C262.359 53.4427 262.526 53.086 262.549 52.9746C262.591 52.7753 262.791 52.5601 262.861 52.3504" stroke="black" stroke-width="3.5" stroke-linecap="round"/>
<path d="M269.103 37.0574C268.763 41.8188 268.604 46.6378 268.604 51.4141" stroke="black" stroke-width="3.5" stroke-linecap="round"/>
<path d="M269.915 45.8586C270.675 45.8586 271.463 46.1083 272.224 46.1083" stroke="black" stroke-width="3.5" stroke-linecap="round"/>
<path d="M276.906 33.8738C276.669 36.2434 276.843 38.6946 276.843 41.0834C276.843 41.7308 276.74 42.3756 276.705 43.0219C276.673 43.6033 276.718 44.2998 276.531 44.8598" stroke="black" stroke-width="3.5" stroke-linecap="round"/>
<path d="M276.781 50.353C276.635 50.3712 276.609 50.7197 276.469 50.79" stroke="black" stroke-width="3.5" stroke-linecap="round"/>
<path d="M282.898 37.3071C282.638 38.1441 282.716 39.1544 282.649 40.019C282.576 40.9505 282.562 41.8889 282.461 42.8175C282.41 43.2882 282.337 43.7685 282.271 44.2358C282.177 44.8885 281.962 45.5887 281.962 46.2333" stroke="black" stroke-width="3.5" stroke-linecap="round"/>
<path d="M282.087 51.4141C282.005 51.4141 281.995 51.4105 281.962 51.4765" stroke="black" stroke-width="3.5" stroke-linecap="round"/>
</svg>
