<svg width="287" height="57" viewBox="0 0 287 57" fill="none" xmlns="http://www.w3.org/2000/svg">
<path d="M43 17C46.347 17 49.6794 17.3504 53.0362 17.3504C53.8193 17.3504 55.3216 17.1756 56.0247 17.623C56.3466 17.8279 56.1415 19.1793 56.1415 19.4434C56.1415 23.4767 56.1415 27.51 56.1415 31.5433" stroke="white" stroke-width="8" stroke-linecap="round"/>
<path d="M43.2168 37.9814C47.9448 37.6437 52.9215 36.7549 57.5849 36.7549" stroke="white" stroke-width="8" stroke-linecap="round"/>
<path d="M50.576 43.4131C50.576 44.3691 50.4952 45.3624 50.6734 46.3043C50.834 47.1535 51.2586 47.9302 51.4424 48.7574C51.5934 49.4367 54.8763 49.0202 55.4627 49.0202C56.5183 49.0202 57.9353 49.5101 57.9353 48.1149C57.9353 47.0149 57.9353 45.9149 57.9353 44.8149C57.9353 44.2911 58.2 44.0466 57.9742 43.5105C57.9129 43.3648 58.0248 42.9409 57.8282 42.8972C57.2542 42.7697 56.5311 42.8875 55.9495 42.8875C54.2167 42.8875 52.484 42.8875 50.7513 42.8875" stroke="white" stroke-width="8" stroke-linecap="round"/>
<path d="M8.01465 4.4591C10.6437 4.4591 13.2678 4.22955 15.9001 4.22955C16.563 4.22955 17.1527 4 17.8087 4" stroke="white" stroke-width="8" stroke-linecap="round"/>
<path d="M6.86694 10.4274C9.56446 10.0903 12.3075 9.95237 15.0202 9.7813C16.6827 9.67646 18.3293 9.44683 19.9895 9.35196C20.6911 9.31187 21.392 9.24446 22.0937 9.20318C22.4235 9.18378 23.0207 9.12223 23.3179 8.97363" stroke="white" stroke-width="8" stroke-linecap="round"/>
<path d="M14.9777 14.6357C14.5316 14.9073 14.0092 15.0553 13.5282 15.2521C12.7485 15.5711 11.9888 15.9594 11.2539 16.3701C9.73576 17.2185 8.35269 18.3251 6.99452 19.4053C6.01999 20.1803 4.9233 21.1058 4.47799 22.3044C3.94375 23.7423 3.87237 25.1734 4.18893 26.6658C4.66697 28.9194 6.16457 31.0841 8.39732 31.8179C11.6364 32.8824 15.3246 32.7277 18.5145 31.5713C20.3967 30.889 22.3265 29.9699 23.6198 28.4044C24.2123 27.6871 24.4233 26.8589 24.623 25.9729C24.8348 25.033 24.9214 24.1204 24.538 23.2098C24.2533 22.5336 23.7656 21.9928 23.2882 21.4499C22.6776 20.7555 22.0866 20.041 21.4816 19.3415C20.9162 18.6878 20.2677 17.6743 19.4156 17.3903" stroke="white" stroke-width="8" stroke-linecap="round"/>
<path d="M15.8914 37.2422C16.0402 38.3734 16.2579 39.4911 16.4357 40.6171" stroke="white" stroke-width="8" stroke-linecap="round"/>
<path d="M8.70605 42.6852C11.1974 42.3921 13.6705 41.8796 16.1696 41.5965C18.1492 41.3723 20.2912 41.2726 22.2058 40.7256" stroke="white" stroke-width="8" stroke-linecap="round"/>
<path d="M31.0242 21.0205C31.3437 25.1746 31.1236 29.3432 31.5685 33.5041C31.6964 34.7004 31.7863 35.9701 31.7863 37.1754C31.7863 37.4702 31.8951 37.7233 31.8951 38.004" stroke="white" stroke-width="8" stroke-linecap="round"/>
<path d="M31.7863 29.4032C34.1916 29.4032 36.5646 28.75 38.9716 28.75" stroke="white" stroke-width="8" stroke-linecap="round"/>
<path d="M27.825 43.7819C25.6424 44.7324 23.0488 46.3327 23.4266 49.1148C23.8495 52.229 28.4059 53.2016 30.6909 51.5695C32.2698 50.4416 32.6755 47.9424 31.725 46.2739C31.0482 45.0858 29.2241 43.9866 27.9372 43.5576" stroke="white" stroke-width="8" stroke-linecap="round"/>
<path d="M80 18C80.8219 18 81.6496 18.1664 82.4574 18.2922C83.6944 18.4847 84.9447 18.6456 86.1718 18.8889C87.3624 19.1249 88.4768 19.5531 89.6131 19.9506C89.816 20.0216 90.0784 20.125 90.2979 20.1481C90.6332 20.1835 91 20.5828 91 20.8724C91 21.2606 90.8844 21.5396 90.7226 21.9012C90.3054 22.8342 89.8296 23.7365 89.2403 24.5844C87.8021 26.654 86.3635 28.6806 85.0796 30.8477C84.4274 31.9487 83.8039 33.0672 83.1682 34.177C82.9287 34.5952 82.7592 35.0222 82.6351 35.4815C82.5792 35.6887 82.4086 35.8058 82.3404 36" stroke="white" stroke-width="8" stroke-linecap="round"/>
<path d="M85 33C85.3375 33.0345 85.6879 33.6282 85.9111 33.8252C87.1833 34.9477 88.6688 35.8183 89.9022 36.9869C90.1214 37.1946 90.4032 37.5726 90.68 37.7222C90.7897 37.7815 90.9482 37.9048 91 38" stroke="white" stroke-width="8" stroke-linecap="round"/>
<path d="M92.5029 22C90.0055 22 97.4921 22.2557 99.9888 22.3162C100.92 22.3388 101.993 22.2082 102.91 22.4119C103.006 22.4333 103.021 22.4271 102.975 22.4826C102.854 22.6291 102.817 22.8618 102.739 23.0318C102.417 23.7357 101.976 24.3954 101.588 25.0622C100.725 26.5438 99.7068 27.8983 98.7683 29.3267C97.3151 31.5386 95.9903 33.8963 94.765 36.2457C94.4139 36.9189 94.1073 37.6029 93.7845 38.2885C93.7001 38.4677 93.5499 38.914 93.3817 39" stroke="white" stroke-width="8" stroke-linecap="round"/>
<path d="M98 33C98.3639 33.5382 98.9489 33.9538 99.4135 34.3818C99.8997 34.8298 100.418 35.234 100.885 35.7071C101.226 36.0523 101.6 36.778 102 37" stroke="white" stroke-width="8" stroke-linecap="round"/>
<path d="M107 22C107 23.6526 107.074 25.2728 107.309 26.9194C107.86 30.7892 107.889 34.6307 107.889 38.514C107.889 39.6835 108 40.8337 108 42" stroke="white" stroke-width="8" stroke-linecap="round"/>
<path d="M119.487 18C117.89 19.0881 116.446 20.3853 115.546 22.1631C114.926 23.3879 114.304 24.5691 114.122 25.9619C113.837 28.1406 113.964 30.5762 115.463 32.2672C116.953 33.9479 119.109 34.5697 121.226 34.7997C123.138 35.0075 125.071 35.0749 126.988 34.8994C127.883 34.8175 128.868 34.6002 129.625 34.0712C131.298 32.9032 132.477 31.1235 133.496 29.353C134.091 28.3205 134.225 27.5242 133.538 26.5516C132.178 24.6295 130.359 23.2152 128.686 21.6253C128.158 21.1238 127.513 20.686 126.922 20.2637C126.473 19.9428 125.999 19.4984 125.523 19.2489" stroke="white" stroke-width="8" stroke-linecap="round"/>
<path d="M126 36C126 37.8752 126 39.7473 126 41.6186C126 42.7522 126 43.8853 126 45" stroke="white" stroke-width="8" stroke-linecap="round"/>
<path d="M121 47C121.433 46.7906 121.935 46.7774 122.393 46.7068C124.062 46.4493 125.736 46.2235 127.419 46.1457C129.422 46.0529 131.431 46.0497 133.436 46.0041C133.961 45.9922 134.48 46.0022 135 46.09" stroke="white" stroke-width="8" stroke-linecap="round"/>
<path d="M143 34C146.143 34 149.273 34 152.421 34C153.2 34 153.968 34 154.747 34C155.831 34 156.916 34 158 34" stroke="white" stroke-width="8" stroke-linecap="round"/>
<path d="M149 39C150.3 39 151.6 39 152.9 39C153.537 39 154.133 39.0586 154.731 39.3136C155.192 39.5099 155.771 39.6043 155.871 40.2283C155.984 40.9226 155.764 41.8463 155.122 42.136C154.294 42.5092 153.364 42.1126 152.509 42.3102C152.02 42.4233 151.286 42.5605 151.052 43.116C150.823 43.6614 150.936 44.4537 150.948 45.0542C150.957 45.5083 151.065 45.9606 151.087 46.4132C151.097 46.6075 151.168 46.8858 151.369 46.914C152.166 47.0264 153.019 46.9128 153.823 46.9576C154.881 47.0166 155.941 46.9968 157 46.9968" stroke="white" stroke-width="8" stroke-linecap="round"/>
<path d="M144 15.642C144.212 15.4765 144.721 15.5523 144.978 15.5154C145.681 15.4147 146.373 15.3708 147.072 15.2341C147.701 15.1111 148.372 15.0152 149.014 15.0091C149.233 15.007 149.515 14.9514 149.669 15.1427C149.992 15.5439 150.263 15.8776 150.525 16.3242C150.777 16.7534 150.962 17.2238 151.201 17.6533C151.624 18.4104 151.64 19.2623 151.64 20.1077C151.64 20.5625 151.631 20.968 151.147 21.029C150.069 21.165 148.98 21.1863 147.896 21.3068C147.523 21.3481 147.168 21.4084 146.799 21.4791C146.286 21.577 145.963 21.504 145.799 22.0276C145.237 23.8177 145.103 26.036 145.716 27.833C145.937 28.4802 146.264 28.9969 147.058 28.9969C148.139 28.9969 149.221 29.0039 150.302 28.9969C151.203 28.9911 152.099 28.8703 153 28.8703" stroke="white" stroke-width="8" stroke-linecap="round"/>
<path d="M191 37.6667C192.885 37.4592 194.837 37.4117 196.709 37.0952C197.02 37.0426 197.318 37 197.632 37C198.29 37 197.9 37.4016 197.723 37.9735C196.966 40.4143 195.924 42.7719 194.977 45.1376C194.73 45.7566 194.38 46.3694 194.18 47" stroke="white" stroke-width="8" stroke-linecap="round"/>
<path d="M197 42C197.272 42.0825 197.573 42.4084 197.821 42.5667C198.511 43.0087 199.191 43.4719 199.876 43.9238C200.28 44.1904 200.784 44.5185 201 45" stroke="white" stroke-width="8" stroke-linecap="round"/>
<path d="M198 17C198.101 19.1357 198.259 21.2389 198.56 23.3483C198.75 24.6808 198.918 26.0131 199.074 27.3511C199.181 28.2666 199.316 29.1398 199.593 30.015C199.792 30.6439 199.744 31.418 200 32" stroke="white" stroke-width="8" stroke-linecap="round"/>
<path d="M199 26C200.668 26 202.332 25 204 25" stroke="white" stroke-width="8" stroke-linecap="round"/>
<path d="M175 11C176.294 11 177.569 11 178.877 11C179.583 11 180.293 11 181 11" stroke="white" stroke-width="8" stroke-linecap="round"/>
<path d="M172 18.7062C172.225 18.5979 172.478 18.5555 172.717 18.4914C173.47 18.2896 174.208 18.0376 174.957 17.8213C176.589 17.3497 178.246 16.9974 179.918 16.7002C181.808 16.3643 183.82 16 185.746 16C186.338 16 186.921 16.0773 187.508 16.0773C187.569 16.0773 188.059 16.0289 187.994 16.1375C187.744 16.558 187.58 16.9972 187.388 17.4476C187.07 18.1952 186.691 18.9155 186.386 19.6684C185.674 21.4264 185.092 23.2326 184.346 24.9777C183.864 26.1055 183.709 27.3313 183.327 28.4871C183.052 29.3159 182.898 30.24 182.521 31" stroke="white" stroke-width="8" stroke-linecap="round"/>
<path d="M185 25C185.778 25 186.611 25.5048 187.295 25.8889C188.07 26.3237 188.778 26.8877 189.439 27.5284C189.939 28.0131 190.418 28.6593 191 29" stroke="white" stroke-width="8" stroke-linecap="round"/>
<path d="M218.015 15C216.283 15.2097 214.579 15.288 213.199 16.4056C212.473 16.9938 212.004 17.6773 211.421 18.3769C210.815 19.1053 210.173 19.918 210.068 20.8843C209.701 24.2829 210.847 27.6182 212.75 30.4255C214.358 32.7974 217.205 33.5754 219.965 33.9156C220.814 34.0202 221.727 34.0221 222.579 33.9514C223.627 33.8644 224.776 33.814 225.803 33.6059C226.91 33.3816 228.095 32.8893 228.976 32.1884C231.237 30.3907 232.51 27.6034 231.806 24.7556C231.308 22.7436 230.88 20.9726 229.419 19.4013C228.562 18.4787 227.593 17.3931 226.473 16.7689C225.734 16.3571 224.627 15.8576 223.773 15.8576" stroke="white" stroke-width="8" stroke-linecap="round"/>
<path d="M238 15C238 17.1037 238.505 19.2349 238.778 21.322C239.057 23.4602 239.017 25.6272 239.284 27.757C239.583 30.1456 240 32.5924 240 35" stroke="white" stroke-width="8" stroke-linecap="round"/>
<path d="M240 27H245" stroke="white" stroke-width="8" stroke-linecap="round"/>
<path d="M252 17C254.312 17.0936 256.627 17 258.943 17C259.189 17 259.341 17.012 259.525 17.163C260.065 17.6044 260.595 18.3023 260.954 18.9004C261.229 19.3584 261.432 19.8693 261.613 20.3707C261.957 21.3271 262.404 22.2487 262.577 23.2594C262.622 23.5236 262.659 23.8371 262.549 24.0848C262.467 24.2699 262.171 24.2819 262.001 24.3067C261.35 24.402 260.72 24.5273 260.059 24.5529C259.079 24.591 258.102 24.5927 257.122 24.6188C256.705 24.6299 256.282 24.7169 255.894 24.872C255.407 25.0667 255.019 25.2981 254.719 25.7389C254.172 26.5408 254.066 27.4799 254.06 28.423C254.05 29.8828 254.152 31.2429 254.545 32.6537C254.897 33.9131 255.503 35.0992 255.995 36.3019C256.148 36.6771 256.407 36.9572 256.786 37.1134C257.36 37.3503 258.105 37.317 258.714 37.3977C259.602 37.5156 260.501 37.5989 261.398 37.5989C261.535 37.5989 262.17 37.6488 262.286 37.5226C262.359 37.4427 262.526 37.086 262.549 36.9746C262.591 36.7753 262.791 36.5601 262.861 36.3504" stroke="white" stroke-width="8" stroke-linecap="round"/>
<path d="M269.103 21.0576C268.763 25.8191 268.604 30.638 268.604 35.4144" stroke="white" stroke-width="8" stroke-linecap="round"/>
<path d="M269.915 29.8584C270.675 29.8584 271.463 30.1081 272.224 30.1081" stroke="white" stroke-width="8" stroke-linecap="round"/>
<path d="M276.906 17.874C276.669 20.2436 276.843 22.6949 276.843 25.0836C276.843 25.7311 276.74 26.3758 276.705 27.0221C276.673 27.6036 276.718 28.3001 276.531 28.8601" stroke="white" stroke-width="8" stroke-linecap="round"/>
<path d="M276.781 34.3535C276.635 34.3717 276.609 34.7202 276.469 34.7905" stroke="white" stroke-width="8" stroke-linecap="round"/>
<path d="M282.898 21.3071C282.638 22.1441 282.716 23.1544 282.649 24.019C282.576 24.9505 282.562 25.8889 282.461 26.8175C282.41 27.2882 282.337 27.7685 282.271 28.2358C282.177 28.8885 281.962 29.5887 281.962 30.2333" stroke="white" stroke-width="8" stroke-linecap="round"/>
<path d="M282.087 35.4141C282.005 35.4141 281.995 35.4105 281.962 35.4765" stroke="white" stroke-width="8" stroke-linecap="round"/>
<path d="M43 17C46.347 17 49.6794 17.3504 53.0362 17.3504C53.8193 17.3504 55.3216 17.1756 56.0247 17.623C56.3466 17.8279 56.1415 19.1793 56.1415 19.4434C56.1415 23.4767 56.1415 27.51 56.1415 31.5433" stroke="#FEBE31" stroke-width="3.5" stroke-linecap="round"/>
<path d="M43.2168 37.9814C47.9448 37.6437 52.9215 36.7549 57.5849 36.7549" stroke="#FEBE31" stroke-width="3.5" stroke-linecap="round"/>
<path d="M50.576 43.4131C50.576 44.3691 50.4952 45.3624 50.6734 46.3043C50.834 47.1535 51.2586 47.9302 51.4424 48.7574C51.5934 49.4367 54.8763 49.0202 55.4627 49.0202C56.5183 49.0202 57.9353 49.5101 57.9353 48.1149C57.9353 47.0149 57.9353 45.9149 57.9353 44.8149C57.9353 44.2911 58.2 44.0466 57.9742 43.5105C57.9129 43.3648 58.0248 42.9409 57.8282 42.8972C57.2542 42.7697 56.5311 42.8875 55.9495 42.8875C54.2167 42.8875 52.484 42.8875 50.7513 42.8875" stroke="#FEBE31" stroke-width="3.5" stroke-linecap="round"/>
<path d="M8.01465 4.4591C10.6437 4.4591 13.2678 4.22955 15.9001 4.22955C16.563 4.22955 17.1527 4 17.8087 4" stroke="#FEBE31" stroke-width="3.5" stroke-linecap="round"/>
<path d="M6.86694 10.4274C9.56446 10.0903 12.3075 9.95237 15.0202 9.7813C16.6827 9.67646 18.3293 9.44683 19.9895 9.35196C20.6911 9.31187 21.392 9.24446 22.0937 9.20318C22.4235 9.18378 23.0207 9.12223 23.3179 8.97363" stroke="#FEBE31" stroke-width="3.5" stroke-linecap="round"/>
<path d="M14.9777 14.6357C14.5316 14.9073 14.0092 15.0553 13.5282 15.2521C12.7485 15.5711 11.9888 15.9594 11.2539 16.3701C9.73576 17.2185 8.35269 18.3251 6.99452 19.4053C6.01999 20.1803 4.9233 21.1058 4.47799 22.3044C3.94375 23.7423 3.87237 25.1734 4.18893 26.6658C4.66697 28.9194 6.16457 31.0841 8.39732 31.8179C11.6364 32.8824 15.3246 32.7277 18.5145 31.5713C20.3967 30.889 22.3265 29.9699 23.6198 28.4044C24.2123 27.6871 24.4233 26.8589 24.623 25.9729C24.8348 25.033 24.9214 24.1204 24.538 23.2098C24.2533 22.5336 23.7656 21.9928 23.2882 21.4499C22.6776 20.7555 22.0866 20.041 21.4816 19.3415C20.9162 18.6878 20.2677 17.6743 19.4156 17.3903" stroke="#FEBE31" stroke-width="3.5" stroke-linecap="round"/>
<path d="M15.8914 37.2422C16.0402 38.3734 16.2579 39.4911 16.4357 40.6171" stroke="#FEBE31" stroke-width="3.5" stroke-linecap="round"/>
<path d="M8.70605 42.6852C11.1974 42.3921 13.6705 41.8796 16.1696 41.5965C18.1492 41.3723 20.2912 41.2726 22.2058 40.7256" stroke="#FEBE31" stroke-width="3.5" stroke-linecap="round"/>
<path d="M31.0242 21.0205C31.3437 25.1746 31.1236 29.3432 31.5685 33.5041C31.6964 34.7004 31.7863 35.9701 31.7863 37.1754C31.7863 37.4702 31.8951 37.7233 31.8951 38.004" stroke="#FEBE31" stroke-width="3.5" stroke-linecap="round"/>
<path d="M31.7863 29.4032C34.1916 29.4032 36.5646 28.75 38.9716 28.75" stroke="#FEBE31" stroke-width="3.5" stroke-linecap="round"/>
<path d="M27.825 43.7819C25.6424 44.7324 23.0488 46.3327 23.4266 49.1148C23.8495 52.229 28.4059 53.2016 30.6909 51.5695C32.2698 50.4416 32.6755 47.9424 31.725 46.2739C31.0482 45.0858 29.2241 43.9866 27.9372 43.5576" stroke="#FEBE31" stroke-width="3.5" stroke-linecap="round"/>
<path d="M80 18C80.8219 18 81.6496 18.1664 82.4574 18.2922C83.6944 18.4847 84.9447 18.6456 86.1718 18.8889C87.3624 19.1249 88.4768 19.5531 89.6131 19.9506C89.816 20.0216 90.0784 20.125 90.2979 20.1481C90.6332 20.1835 91 20.5828 91 20.8724C91 21.2606 90.8844 21.5396 90.7226 21.9012C90.3054 22.8342 89.8296 23.7365 89.2403 24.5844C87.8021 26.654 86.3635 28.6806 85.0796 30.8477C84.4274 31.9487 83.8039 33.0672 83.1682 34.177C82.9287 34.5952 82.7592 35.0222 82.6351 35.4815C82.5792 35.6887 82.4086 35.8058 82.3404 36" stroke="black" stroke-width="3.5" stroke-linecap="round"/>
<path d="M85 33C85.3375 33.0345 85.6879 33.6282 85.9111 33.8252C87.1833 34.9477 88.6688 35.8183 89.9022 36.9869C90.1214 37.1946 90.4032 37.5726 90.68 37.7222C90.7897 37.7815 90.9482 37.9048 91 38" stroke="black" stroke-width="3.5" stroke-linecap="round"/>
<path d="M92.5029 22C90.0055 22 97.4921 22.2557 99.9888 22.3162C100.92 22.3388 101.993 22.2082 102.91 22.4119C103.006 22.4333 103.021 22.4271 102.975 22.4826C102.854 22.6291 102.817 22.8618 102.739 23.0318C102.417 23.7357 101.976 24.3954 101.588 25.0622C100.725 26.5438 99.7068 27.8983 98.7683 29.3267C97.3151 31.5386 95.9903 33.8963 94.765 36.2457C94.4139 36.9189 94.1073 37.6029 93.7845 38.2885C93.7001 38.4677 93.5499 38.914 93.3817 39" stroke="black" stroke-width="3.5" stroke-linecap="round"/>
<path d="M98 33C98.3639 33.5382 98.9489 33.9538 99.4135 34.3818C99.8997 34.8298 100.418 35.234 100.885 35.7071C101.226 36.0523 101.6 36.778 102 37" stroke="black" stroke-width="3.5" stroke-linecap="round"/>
<path d="M107 22C107 23.6526 107.074 25.2728 107.309 26.9194C107.86 30.7892 107.889 34.6307 107.889 38.514C107.889 39.6835 108 40.8337 108 42" stroke="black" stroke-width="3.5" stroke-linecap="round"/>
<path d="M119.487 18C117.89 19.0881 116.446 20.3853 115.546 22.1631C114.926 23.3879 114.304 24.5691 114.122 25.9619C113.837 28.1406 113.964 30.5762 115.463 32.2672C116.953 33.9479 119.109 34.5697 121.226 34.7997C123.138 35.0075 125.071 35.0749 126.988 34.8994C127.883 34.8175 128.868 34.6002 129.625 34.0712C131.298 32.9032 132.477 31.1235 133.496 29.353C134.091 28.3205 134.225 27.5242 133.538 26.5516C132.178 24.6295 130.359 23.2152 128.686 21.6253C128.158 21.1238 127.513 20.686 126.922 20.2637C126.473 19.9428 125.999 19.4984 125.523 19.2489" stroke="black" stroke-width="3.5" stroke-linecap="round"/>
<path d="M126 36C126 37.8752 126 39.7473 126 41.6186C126 42.7522 126 43.8853 126 45" stroke="black" stroke-width="3.5" stroke-linecap="round"/>
<path d="M121 47C121.433 46.7906 121.935 46.7774 122.393 46.7068C124.062 46.4493 125.736 46.2235 127.419 46.1457C129.422 46.0529 131.431 46.0497 133.436 46.0041C133.961 45.9922 134.48 46.0022 135 46.09" stroke="black" stroke-width="3.5" stroke-linecap="round"/>
<path d="M143 34C146.143 34 149.273 34 152.421 34C153.2 34 153.968 34 154.747 34C155.831 34 156.916 34 158 34" stroke="black" stroke-width="3.5" stroke-linecap="round"/>
<path d="M149 39C150.3 39 151.6 39 152.9 39C153.537 39 154.133 39.0586 154.731 39.3136C155.192 39.5099 155.771 39.6043 155.871 40.2283C155.984 40.9226 155.764 41.8463 155.122 42.136C154.294 42.5092 153.364 42.1126 152.509 42.3102C152.02 42.4233 151.286 42.5605 151.052 43.116C150.823 43.6614 150.936 44.4537 150.948 45.0542C150.957 45.5083 151.065 45.9606 151.087 46.4132C151.097 46.6075 151.168 46.8858 151.369 46.914C152.166 47.0264 153.019 46.9128 153.823 46.9576C154.881 47.0166 155.941 46.9968 157 46.9968" stroke="black" stroke-width="3.5" stroke-linecap="round"/>
<path d="M144 15.642C144.212 15.4765 144.721 15.5523 144.978 15.5154C145.681 15.4147 146.373 15.3708 147.072 15.2341C147.701 15.1111 148.372 15.0152 149.014 15.0091C149.233 15.007 149.515 14.9514 149.669 15.1427C149.992 15.5439 150.263 15.8776 150.525 16.3242C150.777 16.7534 150.962 17.2238 151.201 17.6533C151.624 18.4104 151.64 19.2623 151.64 20.1077C151.64 20.5625 151.631 20.968 151.147 21.029C150.069 21.165 148.98 21.1863 147.896 21.3068C147.523 21.3481 147.168 21.4084 146.799 21.4791C146.286 21.577 145.963 21.504 145.799 22.0276C145.237 23.8177 145.103 26.036 145.716 27.833C145.937 28.4802 146.264 28.9969 147.058 28.9969C148.139 28.9969 149.221 29.0039 150.302 28.9969C151.203 28.9911 152.099 28.8703 153 28.8703" stroke="black" stroke-width="3.5" stroke-linecap="round"/>
<path d="M191 37.6667C192.885 37.4592 194.837 37.4117 196.709 37.0952C197.02 37.0426 197.318 37 197.632 37C198.29 37 197.9 37.4016 197.723 37.9735C196.966 40.4143 195.924 42.7719 194.977 45.1376C194.73 45.7566 194.38 46.3694 194.18 47" stroke="black" stroke-width="3.5" stroke-linecap="round"/>
<path d="M197 42C197.272 42.0825 197.573 42.4084 197.821 42.5667C198.511 43.0087 199.191 43.4719 199.876 43.9238C200.28 44.1904 200.784 44.5185 201 45" stroke="black" stroke-width="3.5" stroke-linecap="round"/>
<path d="M198 17C198.101 19.1357 198.259 21.2389 198.56 23.3483C198.75 24.6808 198.918 26.0131 199.074 27.3511C199.181 28.2666 199.316 29.1398 199.593 30.015C199.792 30.6439 199.744 31.418 200 32" stroke="black" stroke-width="3.5" stroke-linecap="round"/>
<path d="M199 26C200.668 26 202.332 25 204 25" stroke="black" stroke-width="3.5" stroke-linecap="round"/>
<path d="M175 11C176.294 11 177.569 11 178.877 11C179.583 11 180.293 11 181 11" stroke="black" stroke-width="3.5" stroke-linecap="round"/>
<path d="M172 18.7062C172.225 18.5979 172.478 18.5555 172.717 18.4914C173.47 18.2896 174.208 18.0376 174.957 17.8213C176.589 17.3497 178.246 16.9974 179.918 16.7002C181.808 16.3643 183.82 16 185.746 16C186.338 16 186.921 16.0773 187.508 16.0773C187.569 16.0773 188.059 16.0289 187.994 16.1375C187.744 16.558 187.58 16.9972 187.388 17.4476C187.07 18.1952 186.691 18.9155 186.386 19.6684C185.674 21.4264 185.092 23.2326 184.346 24.9777C183.864 26.1055 183.709 27.3313 183.327 28.4871C183.052 29.3159 182.898 30.24 182.521 31" stroke="black" stroke-width="3.5" stroke-linecap="round"/>
<path d="M185 25C185.778 25 186.611 25.5048 187.295 25.8889C188.07 26.3237 188.778 26.8877 189.439 27.5284C189.939 28.0131 190.418 28.6593 191 29" stroke="black" stroke-width="3.5" stroke-linecap="round"/>
<path d="M218.015 15C216.283 15.2097 214.579 15.288 213.199 16.4056C212.473 16.9938 212.004 17.6773 211.421 18.3769C210.815 19.1053 210.173 19.918 210.068 20.8843C209.701 24.2829 210.847 27.6182 212.75 30.4255C214.358 32.7974 217.205 33.5754 219.965 33.9156C220.814 34.0202 221.727 34.0221 222.579 33.9514C223.627 33.8644 224.776 33.814 225.803 33.6059C226.91 33.3816 228.095 32.8893 228.976 32.1884C231.237 30.3907 232.51 27.6034 231.806 24.7556C231.308 22.7436 230.88 20.9726 229.419 19.4013C228.562 18.4787 227.593 17.3931 226.473 16.7689C225.734 16.3571 224.627 15.8576 223.773 15.8576" stroke="black" stroke-width="3.5" stroke-linecap="round"/>
<path d="M238 15C238 17.1037 238.505 19.2349 238.778 21.322C239.057 23.4602 239.017 25.6272 239.284 27.757C239.583 30.1456 240 32.5924 240 35" stroke="black" stroke-width="3.5" stroke-linecap="round"/>
<path d="M240 27H245" stroke="black" stroke-width="3.5" stroke-linecap="round"/>
<path d="M252 17C254.312 17.0936 256.627 17 258.943 17C259.189 17 259.341 17.012 259.525 17.163C260.065 17.6044 260.595 18.3023 260.954 18.9004C261.229 19.3584 261.432 19.8693 261.613 20.3707C261.957 21.3271 262.404 22.2487 262.577 23.2594C262.622 23.5236 262.659 23.8371 262.549 24.0848C262.467 24.2699 262.171 24.2819 262.001 24.3067C261.35 24.402 260.72 24.5273 260.059 24.5529C259.079 24.591 258.102 24.5927 257.122 24.6188C256.705 24.6299 256.282 24.7169 255.894 24.872C255.407 25.0667 255.019 25.2981 254.719 25.7389C254.172 26.5408 254.066 27.4799 254.06 28.423C254.05 29.8828 254.152 31.2429 254.545 32.6537C254.897 33.9131 255.503 35.0992 255.995 36.3019C256.148 36.6771 256.407 36.9572 256.786 37.1134C257.36 37.3503 258.105 37.317 258.714 37.3977C259.602 37.5156 260.501 37.5989 261.398 37.5989C261.535 37.5989 262.17 37.6488 262.286 37.5226C262.359 37.4427 262.526 37.086 262.549 36.9746C262.591 36.7753 262.791 36.5601 262.861 36.3504" stroke="black" stroke-width="3.5" stroke-linecap="round"/>
<path d="M269.103 21.0576C268.763 25.8191 268.604 30.638 268.604 35.4144" stroke="black" stroke-width="3.5" stroke-linecap="round"/>
<path d="M269.915 29.8584C270.675 29.8584 271.463 30.1081 272.224 30.1081" stroke="black" stroke-width="3.5" stroke-linecap="round"/>
<path d="M276.906 17.874C276.669 20.2436 276.843 22.6949 276.843 25.0836C276.843 25.7311 276.74 26.3758 276.705 27.0221C276.673 27.6036 276.718 28.3001 276.531 28.8601" stroke="black" stroke-width="3.5" stroke-linecap="round"/>
<path d="M276.781 34.3535C276.635 34.3717 276.609 34.7202 276.469 34.7905" stroke="black" stroke-width="3.5" stroke-linecap="round"/>
<path d="M282.898 21.3071C282.638 22.1441 282.716 23.1544 282.649 24.019C282.576 24.9505 282.562 25.8889 282.461 26.8175C282.41 27.2882 282.337 27.7685 282.271 28.2358C282.177 28.8885 281.962 29.5887 281.962 30.2333" stroke="black" stroke-width="3.5" stroke-linecap="round"/>
<path d="M282.087 35.4141C282.005 35.4141 281.995 35.4105 281.962 35.4765" stroke="black" stroke-width="3.5" stroke-linecap="round"/>
</svg>
