<svg width="51" height="33" viewBox="0 0 51 33" fill="none" xmlns="http://www.w3.org/2000/svg">
<path d="M3.67065 3.91883C4.39378 3.62127 5.25444 3.56722 6.00808 3.34426C6.58593 3.1733 7.1619 2.97842 7.77078 2.96708C8.16998 2.95965 8.56996 2.96708 8.96928 2.96708C9.14874 2.96708 9.72623 2.84636 9.72623 3.01291C9.72623 4.78983 9.09642 6.29637 8.33849 7.88094C7.8917 8.81502 7.70106 9.8556 7.30119 10.775C7.26272 10.8634 7.19747 11.0563 7.20307 11.1521C7.20995 11.2697 8.97849 11.2882 9.19006 11.3108C10.5657 11.4573 11.9501 11.3161 13.3217 11.4694" stroke="#489B6D" stroke-width="2" stroke-linecap="round"/>
<path d="M14.9618 2.33252C16.3114 2.33252 17.6179 2.66072 18.9568 2.7097C19.5436 2.73116 20.1557 2.84012 20.7335 2.84012C21.5785 2.84012 21.2591 3.83688 21.1085 4.4017C20.8129 5.50988 20.0629 6.52214 19.4895 7.50018C19.0869 8.18681 18.8462 8.99545 18.5713 9.74208C18.503 9.92762 18.5458 9.91536 18.7605 10.0593C19.4169 10.4995 20.2862 10.7831 21.0384 11.0111C21.6608 11.1998 22.2783 11.3363 22.9167 11.4552C23.018 11.4741 23.183 11.5115 23.2251 11.5962" stroke="#489B6D" stroke-width="2" stroke-linecap="round"/>
<path d="M32.1193 1V1.06308" stroke="#489B6D" stroke-width="2" stroke-linecap="round"/>
<path d="M31.4254 4.48975C31.2029 4.51771 30.7845 5.67762 30.7105 5.85745C30.4035 6.60244 30.1538 7.37381 30.0061 8.16633C29.8351 9.08357 29.5961 10.0246 29.5961 10.9617" stroke="#489B6D" stroke-width="2" stroke-linecap="round"/>
<path d="M39.3658 5.6555C39.8676 5.56372 40.4117 5.41211 40.9233 5.41211C41.153 5.41211 41.9636 5.71459 42.1998 5.7674C42.3913 5.81021 42.7731 5.96148 42.9146 6.07793C43.1415 6.26462 43.4998 6.27856 43.7545 6.44162C44.1509 6.69536 44.3584 6.98598 44.6529 7.34803C44.897 7.6482 45.0161 8.30578 45.0283 8.67409C45.0385 8.98136 45.1434 9.3055 45.1757 9.61407C45.2094 9.93559 45.1785 10.2781 45.1785 10.6016C45.1785 11.8965 44.4377 13.0527 43.2762 13.6202C42.7605 13.8722 42.2055 13.8797 41.6408 13.9251C40.8565 13.9883 39.9596 14.0849 39.1878 13.872C38.773 13.7576 38.3464 13.7069 37.9835 13.4635C37.6109 13.2136 37.2371 12.984 36.9183 12.6634C36.3976 12.1397 36.046 11.6272 35.9171 10.8814C35.8224 10.3339 35.9437 9.84211 35.9671 9.30074C36.0035 8.45903 36.3859 7.84188 36.9016 7.21935C37.1836 6.87901 37.6149 6.63777 37.9696 6.38007C38.1012 6.28451 38.2815 6.16619 38.4313 6.10591C38.5684 6.05074 38.7564 5.9081 38.8707 5.81496C38.98 5.72599 39.2225 5.68167 39.3586 5.65681L39.3658 5.6555Z" fill="#FEBE31" stroke="#489B6D" stroke-width="2" stroke-linecap="round"/>
<path d="M39.9358 9.61835C40.5634 9.88892 41.3731 10.021 42.0483 10.0827C42.5439 10.128 43.0388 10.118 43.5361 10.118C44.5816 10.118 45.6832 10.2285 46.6899 9.89091C46.9827 9.79273 47.3046 9.7038 47.5931 9.62087C47.8182 9.5562 48.2708 9.34028 48.381 9.11865" stroke="#489B6D" stroke-width="2" stroke-linecap="round"/>
<path d="M8.35702 19.6416C8.06175 19.4054 7.55389 19.464 7.20233 19.464C6.09532 19.464 5.30423 19.678 4.32054 20.1251C3.6538 20.4281 3.16171 21.0089 2.65265 21.5264C1.97951 22.2107 1.453 23.0851 1.16241 23.9983C0.579339 25.8306 1.65407 27.9715 2.9882 29.1988C3.96513 30.0975 5.18092 30.8254 6.53616 30.9257C7.19369 30.9744 8.01443 31.1506 8.62348 30.8123C9.34484 30.4115 9.72318 29.5946 10.0249 28.8781C10.3049 28.2131 10.1525 27.5916 10.1335 26.9242C10.1176 26.3677 10.0048 25.5323 9.68935 25.0592" stroke="#489B6D" stroke-width="2" stroke-linecap="round"/>
<path d="M6.31425 25.9481C5.5925 25.9481 7.78869 25.823 8.43424 25.4797C9.13572 25.1066 9.71097 25.1497 10.3084 25.6976C10.7423 26.0954 11.4021 26.9966 11.5681 27.6148C11.6803 28.0324 12.0491 28.2762 12.2133 28.6714C12.3011 28.8827 12.3996 29.0896 12.4899 29.2815" stroke="#489B6D" stroke-width="2" stroke-linecap="round"/>
<path d="M19.7489 21.769C19.4411 21.769 19.1334 21.769 18.8256 21.769C18.3954 21.769 18.0569 22.1432 17.691 22.3887C17.1696 22.7385 16.7029 23.7803 16.4674 24.4059C16.153 25.2412 15.9877 26.2435 15.9502 27.1547C15.892 28.5675 15.9778 29.2507 17.1904 29.6531C18.198 29.9875 19.2148 29.9289 20.1382 29.3763C21.2272 28.7245 21.3618 27.8162 21.6288 26.5153C21.8027 25.6679 21.8686 24.7918 21.5009 24.0169C21.2531 23.4948 20.7283 23.247 20.5053 22.7183C20.4324 22.5454 20.4142 22.4993 20.5387 22.6787C20.8982 23.1969 21.2823 23.6982 21.6566 24.2015C22.617 25.4931 23.6088 26.7505 24.5543 28.0579" stroke="#489B6D" stroke-width="2" stroke-linecap="round"/>
<path d="M28.0012 22.0564C28.0012 24.4334 28.9979 26.7337 28.9979 29.1172C28.9979 29.9327 28.9093 27.4882 28.9093 26.6726C28.9093 25.1341 29.2985 23.6726 30.349 22.6533C30.6965 22.3162 31.1493 21.9993 31.5893 21.8533C32.2122 21.6465 32.1675 21.8089 32.3922 22.4692C33.0102 24.285 33.0991 26.142 32.7632 28.025C32.596 28.9625 32.9553 27.5566 33.0069 27.3266C33.2322 26.3216 33.411 25.2998 33.8762 24.3994C34.4155 23.3559 34.7611 23.0888 35.7533 22.8819C36.5776 22.71 36.8815 24.85 37.0214 25.4916C37.2783 26.6701 37.1709 27.9373 37.1709 29.1426" stroke="#489B6D" stroke-width="2" stroke-linecap="round"/>
<path d="M42.1495 25.7717C41.0481 25.7717 44.348 25.5667 45.424 25.335C45.8125 25.2513 46.197 25.1216 46.5909 25.0642C46.8422 25.0276 47.8543 25.0844 47.8155 24.741C47.6982 23.7018 47.1208 22.3762 46.4622 21.566C46.3576 21.4372 45.8172 21.3127 45.6503 21.2908C45.2449 21.2376 44.7132 21.1171 44.3103 21.2559C43.1282 21.6631 41.985 22.4768 41.4485 23.6142C40.9252 24.7236 41.3755 26.2814 41.8656 27.3265C42.4069 28.481 43.6204 28.745 44.7052 29.1346C45.5771 29.4477 46.4986 29.5596 47.4029 29.7198C48.0121 29.8277 48.6394 29.7726 49.2575 29.8595" stroke="#489B6D" stroke-width="2" stroke-linecap="round"/>
</svg>
