<svg width="38" height="32" viewBox="0 0 38 32" fill="none" xmlns="http://www.w3.org/2000/svg">
<path d="M14.9416 6.94592C12.047 10.4626 8.42716 13.1847 5.17204 16.241C4.0279 17.3153 6.42048 18.7749 7.07496 19.4372C9.04801 21.4335 11.3674 22.9068 13.6942 24.289C14.0641 24.5088 14.7505 24.6141 14.9416 25.054" stroke="white" stroke-width="8" stroke-linecap="round"/>
<path d="M5.27222 16.1886C14.558 16.1886 23.8624 16.3772 33.1332 16.3772" stroke="white" stroke-width="8" stroke-linecap="round"/>
<path d="M14.9416 6.94592C12.047 10.4626 8.42716 13.1847 5.17204 16.241C4.0279 17.3153 6.42048 18.7749 7.07496 19.4372C9.04801 21.4335 11.3674 22.9068 13.6942 24.289C14.0641 24.5088 14.7505 24.6141 14.9416 25.054" stroke="black" stroke-width="3" stroke-linecap="round"/>
<path d="M5.27222 16.1886C14.558 16.1886 23.8624 16.3772 33.1332 16.3772" stroke="black" stroke-width="3" stroke-linecap="round"/>
</svg>
