<svg width="55" height="22" viewBox="0 0 55 22" fill="none" xmlns="http://www.w3.org/2000/svg">
<path d="M9.95809 1.72925C11.5932 1.69208 14.0155 1.65407 15.6513 1.65407C16.7795 1.65407 17.9096 1.58814 19.034 1.5156C20.3055 1.43357 21.6106 1.51164 22.8836 1.51164C24.1659 1.51164 25.4435 1.44043 26.7292 1.44043C29.9809 1.44043 33.2319 1.48987 36.4816 1.5789C39.2326 1.65427 42.0226 1.66875 44.6357 2.63526C46.4858 3.31952 48.3613 3.90303 50.0085 5.00117C50.9551 5.63226 51.9846 6.40982 52.6118 7.36708C53.3073 8.42859 53.3821 9.8471 53.1815 11.0505C53.0459 11.864 52.6656 12.6858 52.3902 13.4599C52.2596 13.8272 52.1021 14.1492 51.9155 14.4886C51.6444 14.9815 51.3987 15.481 51.1203 15.9683C50.7634 16.5928 50.2688 17.343 49.6603 17.7486C49.2024 18.0539 48.6696 18.2164 48.1965 18.4924C47.6444 18.8145 46.9121 19.0579 46.2974 19.2283C44.8748 19.6227 43.4239 19.8606 41.9612 20.0631C40.1719 20.3109 38.3583 20.2411 36.5568 20.2411C34.9588 20.2411 33.3596 20.2221 31.7617 20.2411C30.0172 20.2619 28.2692 20.3716 26.5234 20.3836C25.5083 20.3905 24.5065 20.6117 23.4968 20.7001C22.6192 20.7769 21.7303 20.7396 20.85 20.7396C17.4521 20.7396 14.1614 20.3402 10.8404 19.616C8.30368 19.0629 5.74602 18.2158 3.5448 16.807C2.48459 16.1285 1.81672 15.0333 1.76838 13.7764C1.65416 10.8066 1.66275 7.85901 2.83265 5.08821C3.50052 3.50642 5.47022 2.78585 6.9275 2.19214C7.24625 2.06228 7.60611 2.04422 7.94429 1.99432C8.62044 1.89456 9.26937 1.7449 9.95809 1.72925Z" fill="#66BE8B" stroke="#489B6D" stroke-width="2" stroke-linecap="round"/>
<path d="M21.909 13.1409C23.2956 13.1409 24.6932 13.1463 25.7989 12.1634C26.0518 11.9385 26.7028 10.8607 26.4884 10.4971C26.202 10.0113 24.9009 10.0517 24.4714 10.0416C23.9373 10.0291 23.2157 10.1122 22.7374 10.4026C22.1385 10.7663 21.8001 11.168 21.7289 11.9356C21.6569 12.7131 22.1321 13.6008 22.6294 14.1185C23.2268 14.7403 24.2371 15.4404 25.1043 15.4404C26.0964 15.4404 27.0415 15.0405 28.0217 15.0405" stroke="#489B6D" stroke-width="2" stroke-linecap="round"/>
<path d="M29.8217 10.9404H34.3217" stroke="#489B6D" stroke-width="2" stroke-linecap="round"/>
<path d="M32.5217 8.24048C32.5029 8.57958 32.4041 8.93656 32.3417 9.27048C32.1679 10.2009 32.1066 11.1439 31.9817 12.0805C31.8364 13.1701 31.6217 14.3426 31.6217 15.4405" stroke="#489B6D" stroke-width="2" stroke-linecap="round"/>
<path d="M38.4458 10.9404C37.8164 11.0019 37.2365 12.1706 37.133 12.6759C37.003 13.3111 36.8827 14.3195 37.4143 14.8389C37.877 15.2909 38.6357 15.5034 39.2845 15.4242C39.7187 15.3711 40.5741 14.6222 40.7483 14.2332C41.0389 13.5843 41.4228 12.7137 40.9567 12.0397C40.797 11.8088 40.5748 11.5565 40.3212 11.4188C40.1812 11.3429 39.9542 11.2938 39.8523 11.1695C39.6835 10.9633 39.8716 11.2288 40.0451 11.3527C40.5276 11.6971 40.9926 12.051 41.4672 12.4062C41.9513 12.7684 42.4245 13.1383 42.9362 13.4597C43.0899 13.5561 43.2193 13.6302 43.3217 13.7803" stroke="#489B6D" stroke-width="2" stroke-linecap="round"/>
<path d="M12.9738 6.44043C12.9354 7.12336 12.7347 7.78117 12.7275 8.48097C12.7144 9.74646 12.7275 11.0127 12.7275 12.2783C12.7275 13.1657 13.0217 15.8278 13.0217 14.9404C13.0217 13.8437 12.8802 12.655 13.5281 11.731C14.1557 10.8358 15.5416 10.9404 16.5184 10.9404C17.5439 10.9404 18.9647 11.3184 19.0092 12.5485C19.0297 13.115 19.0692 13.5833 18.7081 14.0418C18.1068 14.8051 16.9377 14.8162 16.0531 15.0148C15.258 15.1932 14.4057 15.4404 13.5897 15.4404" stroke="#489B6D" stroke-width="2" stroke-linecap="round"/>
</svg>
