<svg width="32" height="32" viewBox="0 0 32 32" fill="none" xmlns="http://www.w3.org/2000/svg">
<path d="M6.43945 7C8.12973 7.46288 9.96498 9.66989 11.1102 10.8882C11.7532 11.5722 12.9749 12.2527 13.403 13.067C13.7046 13.6408 14.3283 14.1134 14.7813 14.6133C15.5543 15.4663 16.2277 16.3911 16.9898 17.2428C18.2342 18.6334 19.6053 19.7328 20.9754 21.0023C22.0794 22.0252 23.3104 22.9356 24.4754 23.8851C24.8284 24.1729 25.2502 24.8313 25.561 25" stroke="white" stroke-width="8" stroke-linecap="round"/>
<path d="M25.0898 7C23.5524 8.1809 22.2406 9.57186 20.7826 10.8197C19.2186 12.1584 17.3721 13.6379 16.3188 15.256C15.2526 16.8939 13.7426 18.077 12.0899 19.3465C9.935 21.0017 7.74472 23.0008 6.58838 24.5009" stroke="white" stroke-width="8" stroke-linecap="round"/>
<path d="M6.43945 7C8.12973 7.46288 9.96498 9.66989 11.1102 10.8882C11.7532 11.5722 12.9749 12.2527 13.403 13.067C13.7046 13.6408 14.3283 14.1134 14.7813 14.6133C15.5543 15.4663 16.2277 16.3911 16.9898 17.2428C18.2342 18.6334 19.6053 19.7328 20.9754 21.0023C22.0794 22.0252 23.3104 22.9356 24.4754 23.8851C24.8284 24.1729 25.2502 24.8313 25.561 25" stroke="black" stroke-width="3" stroke-linecap="round"/>
<path d="M25.0898 7C23.5524 8.1809 22.2406 9.57186 20.7826 10.8197C19.2186 12.1584 17.3721 13.6379 16.3188 15.256C15.2526 16.8939 13.7426 18.077 12.0899 19.3465C9.935 21.0017 7.74472 23.0008 6.58838 24.5009" stroke="black" stroke-width="3" stroke-linecap="round"/>
</svg>
