<svg width="27" height="32" viewBox="0 0 27 32" fill="none" xmlns="http://www.w3.org/2000/svg">
<path d="M22.6751 13.9973C22.0094 13.0074 21.4337 11.9797 20.7618 11C18.0659 11 13.2394 12.3628 10.721 13.3337C9.5596 13.7815 8.51678 14.2514 7.56378 15.131C6.41118 16.1949 5.7163 17.3982 4.85279 18.6537C4.26802 19.504 3.6337 20.8005 3.69252 21.8502C3.74063 22.7086 4.29889 23.4778 4.39537 24.3387C4.47243 25.0262 4.94275 25.7335 5.29904 26.3075C5.41578 26.4955 5.53843 26.678 5.70067 26.8273C6.11779 27.2113 6.77047 27.887 7.35739 28.0163C7.77046 28.1073 8.18879 28.3071 8.56786 28.4145C8.7991 28.48 9.58367 28.6032 9.71696 28.7684C9.9764 29.0899 10.704 28.9942 11.0111 29.2606C11.3322 29.5391 11.9475 29.6032 12.3499 29.7362C13.5928 30.1469 14.8972 29.97 16.1877 29.9131C17.9245 29.8366 19.9897 29.4132 21.6097 28.8292C22.9624 28.3416 23.8858 27.4229 24.7725 26.3241C25.3628 25.5926 25.1578 24.8156 25.4998 23.9437C25.4998 22.2917 24.4865 17.7774 24.2705 17.0279C24.1799 16.7138 23.8308 16.0193 23.6234 15.7725C23.2005 15.2695 23.0384 14.5376 22.6751 13.9973Z" fill="#FFAF00" stroke="black" stroke-width="3" stroke-linecap="round"/>
<path d="M11.394 4.88757C12.0487 4.88757 12.8637 4.88894 13.4503 5.21956C14.1539 5.21956 16.866 6.49125 17.4851 6.80135C18.8619 7.49106 20.6351 8.20366 21.4321 9.6232C22.5235 11.5673 23.6156 13.0723 24.0634 15.3157C24.2668 16.3346 23.9757 17.311 23.9757 18.3328C23.9757 19.569 23.7328 20.8766 23.0986 21.9553C21.9546 23.901 20.499 25.8627 18.1478 26.0954C15.9988 26.308 13.6084 26.1517 11.4817 25.7829C9.35491 25.4141 4.63133 25.1304 3.46101 22.7853C2.91517 21.6915 2.33344 20.9146 1.96018 19.7096C1.45409 18.0758 1.41314 16.3226 1.60933 14.6322C1.87882 12.3103 2.42186 10.1983 4.32838 8.63702C5.80445 7.4282 7.50838 6.49245 9.20122 5.62965C9.89839 5.27432 10.5979 4.88757 11.394 4.88757Z" fill="#FEBE31" stroke="black" stroke-width="3" stroke-linecap="round"/>
<path d="M9.48914 13.0118C9.91466 12.8733 10.4718 12.8991 10.918 12.8898C11.744 12.8726 12.5717 12.8863 13.398 12.8863C13.8207 12.8863 14.2525 12.8641 14.6749 12.8863C14.8888 12.8976 14.7851 13.5824 14.7606 13.6877C14.5898 14.4215 13.9213 15.0892 13.3279 15.583C12.3809 16.371 11.3628 17.1124 10.3456 17.8267C10.1145 17.9891 9.77297 18.1771 9.61372 18.4051C9.51256 18.5499 9.48725 18.5196 9.79281 18.5932C10.4594 18.7538 11.1604 18.8125 11.8407 18.9068C12.9895 19.066 14.1296 19.2704 15.2784 19.4294C15.5609 19.4685 15.8587 19.5339 16.1466 19.5339" stroke="black" stroke-width="3" stroke-linecap="round"/>
<path d="M14.7046 26.567C14.7046 26.8579 14.7319 27.3589 14.9399 27.5669" stroke="black" stroke-width="3" stroke-linecap="round"/>
<path d="M20.3511 25.2731C20.4794 25.6296 20.6433 25.9734 20.7628 26.3318" stroke="black" stroke-width="3" stroke-linecap="round"/>
</svg>
