<svg width="19" height="19" viewBox="0 0 19 19" fill="none" xmlns="http://www.w3.org/2000/svg">
<path d="M8.43059 1.02173C8.92229 1.02173 9.53439 1.02275 9.97498 1.27106C10.5034 1.27106 12.5403 2.22615 13.0052 2.45905C14.0392 2.97705 15.371 3.51223 15.9696 4.57836C16.7893 6.03845 17.6095 7.16875 17.9458 8.85366C18.0986 9.61892 17.8799 10.3522 17.8799 11.1196C17.8799 12.048 17.6975 13.0301 17.2212 13.8403C16.362 15.3016 15.2688 16.7749 13.5029 16.9496C11.889 17.1093 10.0937 16.9919 8.49647 16.7149C6.89916 16.4379 3.35156 16.2248 2.47261 14.4636C2.06266 13.6422 1.62576 13.0587 1.34543 12.1536C0.965334 10.9266 0.934584 9.60991 1.08193 8.34033C1.28432 6.59645 1.69217 5.01032 3.12404 3.8377C4.23262 2.92984 5.51234 2.22705 6.78373 1.57906C7.30733 1.31219 7.83266 1.02173 8.43059 1.02173Z" fill="#FEBE31" stroke="black" stroke-width="2" stroke-linecap="round"/>
<path d="M7 7.12347C7.31959 7.01947 7.73803 7.03886 8.0731 7.03189C8.69347 7.01898 9.31513 7.02927 9.93567 7.02927C10.2532 7.02927 10.5774 7.01257 10.8947 7.02927C11.0553 7.03773 10.9775 7.55206 10.9591 7.6311C10.8308 8.18224 10.3287 8.6837 9.88304 9.05456C9.17184 9.64635 8.40718 10.2032 7.64327 10.7397C7.46968 10.8616 7.21317 11.0028 7.09357 11.1741C7.01759 11.2828 6.99859 11.2601 7.22807 11.3154C7.72868 11.436 8.2552 11.48 8.76608 11.5509C9.6289 11.6704 10.4852 11.824 11.348 11.9434C11.5601 11.9727 11.7838 12.0219 12 12.0219" stroke="black" stroke-width="2" stroke-linecap="round"/>
</svg>
