<svg width="49" height="49" viewBox="0 0 49 49" fill="none" xmlns="http://www.w3.org/2000/svg">
<g clip-path="url(#clip0_694_3918)">
<path fill-rule="evenodd" clip-rule="evenodd" d="M24.5 44C29.6717 44 34.6316 41.9455 38.2886 38.2886C41.9455 34.6316 44 29.6717 44 24.5C44 19.3283 41.9455 14.3684 38.2886 10.7114C34.6316 7.05446 29.6717 5 24.5 5C19.3283 5 14.3684 7.05446 10.7114 10.7114C7.05446 14.3684 5 19.3283 5 24.5C5 29.6717 7.05446 34.6316 10.7114 38.2886C14.3684 41.9455 19.3283 44 24.5 44ZM24.5 48.5C30.8652 48.5 36.9697 45.9714 41.4706 41.4706C45.9714 36.9697 48.5 30.8652 48.5 24.5C48.5 18.1348 45.9714 12.0303 41.4706 7.52944C36.9697 3.02856 30.8652 0.5 24.5 0.5C18.1348 0.5 12.0303 3.02856 7.52944 7.52944C3.02856 12.0303 0.5 18.1348 0.5 24.5C0.5 30.8652 3.02856 36.9697 7.52944 41.4706C12.0303 45.9714 18.1348 48.5 24.5 48.5ZM27.5 33.5C27.5 34.2957 27.1839 35.0587 26.6213 35.6213C26.0587 36.1839 25.2956 36.5 24.5 36.5C23.7044 36.5 22.9413 36.1839 22.3787 35.6213C21.8161 35.0587 21.5 34.2957 21.5 33.5C21.5 32.7043 21.8161 31.9413 22.3787 31.3787C22.9413 30.8161 23.7044 30.5 24.5 30.5C25.2956 30.5 26.0587 30.8161 26.6213 31.3787C27.1839 31.9413 27.5 32.7043 27.5 33.5ZM26.75 14.75C26.75 14.1533 26.5129 13.581 26.091 13.159C25.669 12.7371 25.0967 12.5 24.5 12.5C23.9033 12.5 23.331 12.7371 22.909 13.159C22.4871 13.581 22.25 14.1533 22.25 14.75V25.25C22.25 25.8467 22.4871 26.419 22.909 26.841C23.331 27.2629 23.9033 27.5 24.5 27.5C25.0967 27.5 25.669 27.2629 26.091 26.841C26.5129 26.419 26.75 25.8467 26.75 25.25V14.75Z" fill="#489B6D"/>
</g>
<defs>
<clipPath id="clip0_694_3918">
<rect width="48" height="48" fill="white" transform="translate(0.5 0.5)"/>
</clipPath>
</defs>
</svg>
