<svg width="30" height="24" viewBox="0 0 30 24" fill="none" xmlns="http://www.w3.org/2000/svg">
<path d="M6.29265 4.45291C1.81248 9.16888 4.91715 14.5726 7.02952 16.685C8.75828 18.7426 14.2144 21.7116 22.209 17.1271C30.462 12.1164 22.6511 4.45293 21.9143 3.71604C19.7315 1.53313 11.8929 -1.44205 6.29265 4.45291Z" fill="white" stroke="black" stroke-width="0.967105" stroke-linejoin="round"/>
<path d="M9.3358 7.59866C9.27374 7.59866 9.27062 7.5796 9.21201 7.63821C9.18666 7.66356 9.18567 7.74254 9.21201 7.76888C9.30806 7.86492 9.36675 7.68464 9.36675 7.61414" stroke="black" stroke-width="0.967105" stroke-linecap="round"/>
<path d="M19.8702 8.10942C19.8182 8.10942 19.7651 8.09166 19.7651 8.16208C19.7651 8.24554 19.8777 8.40217 19.9564 8.40217C20.0912 8.40217 20.0909 8.22094 19.9754 8.22094" stroke="black" stroke-width="0.967105" stroke-linecap="round"/>
<path d="M13.7887 10.3069C13.9915 10.1717 13.9336 10.2186 14.1622 10.1658C14.5281 10.0439 14.8174 10.0495 15.2002 10.0593C15.4644 10.0661 15.7334 10.1267 15.9817 10.2149C16.194 10.2904 16.4084 10.3722 16.5929 10.5046C16.9072 10.7303 17.1067 11.1161 17.1809 11.4915C17.2618 11.9009 17.2113 12.2472 16.8955 12.5412C16.7474 12.679 16.5017 12.7654 16.3109 12.8171C16.1717 12.8548 16.0446 12.8985 15.9 12.91C15.5525 12.9374 15.2009 12.9 14.8547 12.8687C14.5894 12.8447 14.3059 12.7974 14.0552 12.7045C13.9322 12.6589 13.7848 12.606 13.6855 12.518C13.5272 12.3776 13.3901 12.1751 13.3227 11.9729C13.2597 11.7838 13.2628 11.5345 13.2849 11.3402C13.3074 11.1427 13.3649 10.9432 13.4293 10.7557C13.4914 10.5752 13.6318 10.4115 13.7887 10.3069Z" fill="#FEBE31" stroke="black" stroke-width="0.967105" stroke-linecap="round"/>
<path d="M12.1985 11.3589C12.5549 11.3589 12.9209 11.3875 13.2765 11.4122C13.7403 11.4443 14.2037 11.4392 14.6674 11.4638C14.9057 11.4764 15.1474 11.4672 15.3861 11.4672" stroke="black" stroke-width="0.967105" stroke-linecap="round"/>
<path d="M12.2829 18.6924C12.6619 18.2581 13.1349 18.0127 13.7053 17.9937C13.9488 17.9937 14.1849 17.8882 14.4172 17.8882C14.5582 17.8882 14.7394 17.9388 14.8655 17.9995C15.3789 18.2467 15.8861 18.4866 16.3274 18.8477C16.4241 18.9267 16.5204 19.0127 16.6189 19.0894C16.7303 19.176 16.7889 19.2759 16.8826 19.3794C17.2127 19.7442 17.4254 20.275 17.5345 20.7476C17.5913 20.9937 17.5867 21.2431 17.5814 21.4947C17.5768 21.7113 17.4849 21.9379 17.4246 22.1437C17.3719 22.3238 17.3325 22.4941 17.2445 22.6608C17.0488 23.0311 16.6944 23.2255 16.2835 23.2731C15.8045 23.3286 15.3393 23.3727 14.8538 23.3727C14.4278 23.3727 14.1294 23.3681 13.7287 23.2028C13.244 23.0028 12.7884 22.8427 12.3986 22.4996C12.2097 22.3335 12.0937 22.0999 11.9914 21.8756C11.8263 21.5137 11.6973 21.1341 11.6647 20.7359C11.6013 19.9609 11.7673 19.2832 12.2829 18.6924Z" fill="#FEBE31" stroke="black" stroke-width="0.967105" stroke-linecap="round"/>
<path d="M13.9563 19.7381C14.0984 19.7133 14.4689 19.3188 14.5098 19.5659C14.6352 20.3255 14.6806 21.0898 14.8405 21.8428" stroke="black" stroke-width="0.967105" stroke-linecap="round"/>
<path d="M13.9563 21.8433C14.4584 21.8433 14.934 21.8433 15.43 21.8433" stroke="black" stroke-width="0.967105" stroke-linecap="round"/>
<path d="M19.6273 17.6355C20.3543 17.5427 21.3617 17.2879 22.0936 17.2422C22.1374 17.3299 22.2849 17.4552 22.3485 17.5259C22.407 17.5908 22.4609 17.6994 22.5278 17.7529C22.6131 17.8211 22.7326 18.051 22.6503 18.1424C22.543 18.2617 22.3669 18.4059 22.226 18.4842C22.1167 18.5449 22.0228 18.6186 21.9126 18.6763C21.5699 18.8558 21.2026 18.9395 20.8344 19.0426C20.6914 19.0827 20.5605 19.1485 20.4127 19.1806C20.2165 19.2233 20.0123 19.235 19.8181 19.2851C19.4498 19.3802 19.0415 19.378 18.6638 19.378H17.8874C17.6129 19.378 17.3422 19.3043 17.0749 19.2632C16.9462 19.2434 16.8511 19.1677 16.7873 19.0529C16.7184 18.9289 16.6196 18.849 16.6196 18.6944C16.6196 18.5829 16.6165 18.4947 16.6945 18.4081C16.7807 18.3123 16.9716 18.2464 17.0956 18.2172C17.2992 18.1693 17.4939 18.0988 17.6927 18.0367C18.018 17.935 18.3773 17.8681 18.7116 17.8045C19.0149 17.7468 19.3214 17.6746 19.6273 17.6355Z" fill="#FF6C6C" stroke="black" stroke-width="0.967105" stroke-linecap="round"/>
<path d="M11.3447 18.9082C11.5021 19.0188 11.6639 19.1145 11.7909 19.2615C11.6765 19.3432 11.5052 19.534 11.3963 19.5917C11.3549 19.6136 11.2382 19.7029 11.2105 19.7374C11.156 19.8056 10.953 19.8131 10.8739 19.8303C10.6996 19.8682 10.5245 19.9187 10.3516 19.9631C10.2148 19.9983 10.1396 19.9949 9.99821 19.976C9.64301 19.9287 9.24779 19.8239 8.92646 19.6678C8.31979 19.3731 7.80748 19.0025 7.28078 18.5715C7.06455 18.3946 6.87281 18.1133 6.73524 17.8738C6.54404 17.541 6.61437 17.1131 6.83583 16.8111C7.03779 16.5357 7.34718 16.724 7.61224 16.7956C7.849 16.8596 8.07941 16.9766 8.30352 17.0742C8.63877 17.2202 8.97335 17.3903 9.28629 17.5798C9.75787 17.8652 10.2218 18.1647 10.6869 18.4606C10.9098 18.6025 11.1286 18.7562 11.3447 18.9082Z" fill="#FF6C6C"/>
<path d="M11.7909 19.2615L12.072 19.655C12.1826 19.576 12.2549 19.454 12.271 19.319C12.2872 19.184 12.2457 19.0484 12.1569 18.9455L11.7909 19.2615ZM11.3447 18.9082L11.0665 19.3037L11.0665 19.3037L11.3447 18.9082ZM10.6869 18.4606L10.9465 18.0527L10.9465 18.0527L10.6869 18.4606ZM9.28629 17.5798L9.53667 17.1661L9.53667 17.1661L9.28629 17.5798ZM8.30352 17.0742L8.49659 16.6309L8.49659 16.6309L8.30352 17.0742ZM7.61224 16.7956L7.48608 17.2624L7.48608 17.2624L7.61224 16.7956ZM6.83583 16.8111L7.22577 17.097L6.83583 16.8111ZM6.73524 17.8738L7.15453 17.6329L7.15453 17.6329L6.73524 17.8738ZM7.28078 18.5715L6.97458 18.9458L6.97458 18.9458L7.28078 18.5715ZM8.92646 19.6678L9.13772 19.2328L9.13772 19.2328L8.92646 19.6678ZM9.99821 19.976L9.9343 20.4554L9.9343 20.4554L9.99821 19.976ZM10.3516 19.9631L10.2312 19.4948L10.2312 19.4948L10.3516 19.9631ZM10.8739 19.8303L10.9766 20.3028L10.9766 20.3028L10.8739 19.8303ZM11.2105 19.7374L11.5881 20.0395L11.5881 20.0395L11.2105 19.7374ZM11.3963 19.5917L11.6225 20.0191L11.6225 20.0191L11.3963 19.5917ZM12.1569 18.9455C11.9788 18.7393 11.7385 18.5939 11.6228 18.5126L11.0665 19.3037C11.2656 19.4437 11.349 19.4897 11.4249 19.5776L12.1569 18.9455ZM11.6228 18.5126C11.4082 18.3617 11.1804 18.2015 10.9465 18.0527L10.4273 18.8686C10.6392 19.0034 10.8489 19.1507 11.0665 19.3037L11.6228 18.5126ZM10.9465 18.0527C10.4851 17.7591 10.0143 17.4552 9.53667 17.1661L9.0359 17.9934C9.50143 18.2752 9.95858 18.5703 10.4273 18.8686L10.9465 18.0527ZM9.53667 17.1661C9.2034 16.9644 8.84943 16.7845 8.49659 16.6309L8.11046 17.5175C8.42811 17.6559 8.74329 17.8163 9.0359 17.9934L9.53667 17.1661ZM8.49659 16.6309C8.30975 16.5495 8.02079 16.4051 7.7384 16.3288L7.48608 17.2624C7.6772 17.3141 7.84906 17.4037 8.11046 17.5175L8.49659 16.6309ZM7.7384 16.3288C7.6912 16.316 7.64781 16.2998 7.56206 16.2709C7.48978 16.2465 7.38718 16.2133 7.27637 16.1957C7.16339 16.1777 7.0145 16.171 6.85592 16.2224C6.68899 16.2766 6.55065 16.3823 6.44589 16.5251L7.22577 17.097C7.22579 17.097 7.2242 17.0992 7.22068 17.1028C7.21713 17.1064 7.21195 17.1112 7.20502 17.1163C7.1903 17.1273 7.17269 17.1364 7.15422 17.1424C7.11874 17.1539 7.10162 17.1471 7.12437 17.1508C7.14929 17.1547 7.18635 17.1648 7.25295 17.1873C7.30607 17.2052 7.40075 17.2394 7.48608 17.2624L7.7384 16.3288ZM6.44589 16.5251C6.13906 16.9435 6.00802 17.5787 6.31594 18.1147L7.15453 17.6329C7.08006 17.5033 7.08968 17.2826 7.22577 17.097L6.44589 16.5251ZM6.31594 18.1147C6.46097 18.3671 6.68816 18.7114 6.97458 18.9458L7.58699 18.1973C7.44094 18.0778 7.28466 17.8595 7.15453 17.6329L6.31594 18.1147ZM6.97458 18.9458C7.51466 19.3877 8.06019 19.7846 8.71519 20.1028L9.13772 19.2328C8.57938 18.9616 8.1003 18.6173 7.58699 18.1973L6.97458 18.9458ZM8.71519 20.1028C9.09289 20.2862 9.54015 20.4028 9.9343 20.4554L10.0621 19.4967C9.74586 19.4546 9.40269 19.3615 9.13772 19.2328L8.71519 20.1028ZM9.9343 20.4554C10.1106 20.4789 10.2535 20.4876 10.472 20.4315L10.2312 19.4948C10.1894 19.5056 10.174 19.5062 10.1659 19.5064C10.1521 19.5067 10.1292 19.5057 10.0621 19.4967L9.9343 20.4554ZM10.472 20.4315C10.6638 20.3821 10.8137 20.3382 10.9766 20.3028L10.7712 19.3578C10.5855 19.3982 10.3852 19.4552 10.2312 19.4948L10.472 20.4315ZM10.9766 20.3028C10.9729 20.3036 10.9774 20.3027 11.0169 20.2973C11.0464 20.2933 11.0925 20.2872 11.1399 20.2784C11.1854 20.2699 11.2503 20.2558 11.317 20.2306C11.3732 20.2094 11.4935 20.1578 11.5881 20.0395L10.8329 19.4354C10.8696 19.3895 10.9072 19.3627 10.9292 19.3491C10.9517 19.3352 10.9688 19.3283 10.9751 19.326C10.9821 19.3233 10.9847 19.3228 10.9813 19.3237C10.9782 19.3245 10.9723 19.3258 10.963 19.3276C10.9429 19.3313 10.92 19.3345 10.8875 19.3389C10.8731 19.3409 10.8546 19.3434 10.8371 19.346C10.8203 19.3485 10.7964 19.3523 10.7712 19.3578L10.9766 20.3028ZM11.5881 20.0395C11.5803 20.0493 11.5739 20.0563 11.5705 20.06C11.5668 20.064 11.5641 20.0666 11.563 20.0678C11.5608 20.0698 11.561 20.0696 11.5642 20.0667C11.5707 20.061 11.5815 20.0521 11.595 20.0416C11.6082 20.0313 11.6208 20.0221 11.6303 20.0155C11.635 20.0122 11.6375 20.0106 11.6379 20.0103C11.6381 20.0102 11.6371 20.0109 11.635 20.0121C11.6331 20.0132 11.6288 20.0158 11.6225 20.0191L11.17 19.1643C11.1085 19.1969 11.0398 19.2483 11.0015 19.278C10.971 19.3017 10.8883 19.3662 10.8329 19.4354L11.5881 20.0395ZM11.6225 20.0191C11.6932 19.9817 11.7541 19.9344 11.7949 19.9008C11.8392 19.8643 11.8828 19.8247 11.919 19.7914C12.0064 19.711 12.0464 19.6733 12.072 19.655L11.5098 18.8681C11.4591 18.9043 11.411 18.9459 11.3739 18.9791C11.3367 19.0124 11.2949 19.0515 11.2641 19.0799C11.2295 19.1117 11.2027 19.1357 11.1807 19.1538C11.1552 19.1747 11.1538 19.1729 11.17 19.1643L11.6225 20.0191Z" fill="black"/>
</svg>
