<svg width="180" height="35" viewBox="0 0 180 35" fill="none" xmlns="http://www.w3.org/2000/svg">
<path d="M5.82251 6.72656C6.50614 6.72656 7.19458 6.86499 7.86655 6.96959C8.89546 7.12975 9.93543 7.26358 10.9561 7.46592C11.9464 7.66225 12.8733 8.01842 13.8184 8.34904C13.9872 8.40809 14.2055 8.49409 14.388 8.51334C14.667 8.54277 14.972 8.87484 14.972 9.11578C14.972 9.43867 14.8759 9.67069 14.7413 9.97151C14.3943 10.7475 13.9985 11.498 13.5084 12.2033C12.3121 13.9247 11.1155 15.6104 10.0476 17.413C9.50509 18.3287 8.9865 19.2591 8.45778 20.1822C8.25851 20.5301 8.11752 20.8852 8.01436 21.2672C7.96781 21.4396 7.82593 21.537 7.76922 21.6985" stroke="white" stroke-width="6.65421" stroke-linecap="round"/>
<path d="M9.98145 19.2031C10.2621 19.2318 10.5536 19.7256 10.7393 19.8895C11.7975 20.8232 13.033 21.5474 14.059 22.5194C14.2413 22.6921 14.4757 23.0065 14.7059 23.131C14.7972 23.1803 14.929 23.2828 14.9721 23.362" stroke="white" stroke-width="6.65421" stroke-linecap="round"/>
<path d="M16.2223 10.0537C14.145 10.0537 20.3722 10.2664 22.4489 10.3167C23.223 10.3355 24.1163 10.2268 24.8786 10.3963C24.9587 10.4141 24.9708 10.409 24.9327 10.4551C24.8324 10.577 24.8012 10.7705 24.7365 10.912C24.4685 11.4974 24.1019 12.0462 23.7788 12.6007C23.0609 13.8331 22.2142 14.9598 21.4337 16.1479C20.225 17.9877 19.123 19.9487 18.1038 21.903C17.8118 22.4629 17.5568 23.0318 17.2883 23.6021C17.2181 23.7512 17.0931 24.1224 16.9532 24.1939" stroke="white" stroke-width="6.65421" stroke-linecap="round"/>
<path d="M20.7944 19.2031C21.0971 19.6508 21.5837 19.9965 21.9701 20.3525C22.3745 20.7251 22.8056 21.0613 23.1943 21.4548C23.478 21.742 23.7885 22.3456 24.1215 22.5302" stroke="white" stroke-width="6.65421" stroke-linecap="round"/>
<path d="M28.2805 10.0537C28.2805 11.4283 28.3421 12.7759 28.5372 14.1456C28.9959 17.3643 29.0199 20.5597 29.0199 23.7896C29.0199 24.7624 29.1123 25.7191 29.1123 26.6892" stroke="white" stroke-width="6.65421" stroke-linecap="round"/>
<path d="M38.6668 6.72656C37.3386 7.63158 36.137 8.7106 35.3886 10.1893C34.8731 11.208 34.3556 12.1906 34.2041 13.349C33.9671 15.1612 34.073 17.1872 35.3198 18.5936C36.559 19.9916 38.3525 20.5088 40.113 20.7001C41.7037 20.873 43.3115 20.9291 44.9062 20.7831C45.6507 20.715 46.4695 20.5342 47.0997 20.0942C48.4907 19.1227 49.4713 17.6424 50.3192 16.1697C50.8138 15.3109 50.9257 14.6486 50.3537 13.8396C49.2231 12.2408 47.7099 11.0644 46.318 9.74203C45.8789 9.32489 45.3426 8.96073 44.8511 8.60942C44.4777 8.34254 44.0835 7.97291 43.6872 7.76538" stroke="white" stroke-width="6.65421" stroke-linecap="round"/>
<path d="M44.0842 21.6982C44.0842 23.258 44.0842 24.8152 44.0842 26.3717C44.0842 27.3146 44.0842 28.2571 44.0842 29.1842" stroke="white" stroke-width="6.65421" stroke-linecap="round"/>
<path d="M39.9253 30.8479C40.2851 30.6738 40.7034 30.6627 41.0841 30.604C42.472 30.3899 43.8646 30.2021 45.2643 30.1373C46.9304 30.0601 48.6019 30.0575 50.2692 30.0195C50.7059 30.0096 51.1377 30.0179 51.5702 30.091" stroke="white" stroke-width="6.65421" stroke-linecap="round"/>
<path d="M5.82251 6.72656C6.50614 6.72656 7.19458 6.86499 7.86655 6.96959C8.89546 7.12975 9.93543 7.26358 10.9561 7.46592C11.9464 7.66225 12.8733 8.01842 13.8184 8.34904C13.9872 8.40809 14.2055 8.49409 14.388 8.51334C14.667 8.54277 14.972 8.87484 14.972 9.11578C14.972 9.43867 14.8759 9.67069 14.7413 9.97151C14.3943 10.7475 13.9985 11.498 13.5084 12.2033C12.3121 13.9247 11.1155 15.6104 10.0476 17.413C9.50509 18.3287 8.9865 19.2591 8.45778 20.1822C8.25851 20.5301 8.11752 20.8852 8.01436 21.2672C7.96781 21.4396 7.82593 21.537 7.76922 21.6985" stroke="#FF8181" stroke-width="2.91122" stroke-linecap="round"/>
<path d="M9.98145 19.2031C10.2621 19.2318 10.5536 19.7256 10.7393 19.8895C11.7975 20.8232 13.033 21.5474 14.059 22.5194C14.2413 22.6921 14.4757 23.0065 14.7059 23.131C14.7972 23.1803 14.929 23.2828 14.9721 23.362" stroke="#FF8181" stroke-width="2.91122" stroke-linecap="round"/>
<path d="M16.2223 10.0537C14.145 10.0537 20.3722 10.2664 22.4489 10.3167C23.223 10.3355 24.1163 10.2268 24.8786 10.3963C24.9587 10.4141 24.9708 10.409 24.9327 10.4551C24.8324 10.577 24.8012 10.7705 24.7365 10.912C24.4685 11.4974 24.1019 12.0462 23.7788 12.6007C23.0609 13.8331 22.2142 14.9598 21.4337 16.1479C20.225 17.9877 19.123 19.9487 18.1038 21.903C17.8118 22.4629 17.5568 23.0318 17.2883 23.6021C17.2181 23.7512 17.0931 24.1224 16.9532 24.1939" stroke="#FF8181" stroke-width="2.91122" stroke-linecap="round"/>
<path d="M20.7944 19.2031C21.0971 19.6508 21.5837 19.9965 21.9701 20.3525C22.3745 20.7251 22.8056 21.0613 23.1943 21.4548C23.478 21.742 23.7885 22.3456 24.1215 22.5302" stroke="#FF8181" stroke-width="2.91122" stroke-linecap="round"/>
<path d="M28.2805 10.0537C28.2805 11.4283 28.3421 12.7759 28.5372 14.1456C28.9959 17.3643 29.0199 20.5597 29.0199 23.7896C29.0199 24.7624 29.1123 25.7191 29.1123 26.6892" stroke="#FF8181" stroke-width="2.91122" stroke-linecap="round"/>
<path d="M38.6668 6.72656C37.3386 7.63158 36.137 8.7106 35.3886 10.1893C34.8731 11.208 34.3556 12.1906 34.2041 13.349C33.9671 15.1612 34.073 17.1872 35.3198 18.5936C36.559 19.9916 38.3525 20.5088 40.113 20.7001C41.7037 20.873 43.3115 20.9291 44.9062 20.7831C45.6507 20.715 46.4695 20.5342 47.0997 20.0942C48.4907 19.1227 49.4713 17.6424 50.3192 16.1697C50.8138 15.3109 50.9257 14.6486 50.3537 13.8396C49.2231 12.2408 47.7099 11.0644 46.318 9.74203C45.8789 9.32489 45.3426 8.96073 44.8511 8.60942C44.4777 8.34254 44.0835 7.97291 43.6872 7.76538" stroke="#FF8181" stroke-width="2.91122" stroke-linecap="round"/>
<path d="M44.0842 21.6982C44.0842 23.258 44.0842 24.8152 44.0842 26.3717C44.0842 27.3146 44.0842 28.2571 44.0842 29.1842" stroke="#FF8181" stroke-width="2.91122" stroke-linecap="round"/>
<path d="M39.9253 30.8479C40.2851 30.6738 40.7034 30.6627 41.0841 30.604C42.472 30.3899 43.8646 30.2021 45.2643 30.1373C46.9304 30.0601 48.6019 30.0575 50.2692 30.0195C50.7059 30.0096 51.1377 30.0179 51.5702 30.091" stroke="#FF8181" stroke-width="2.91122" stroke-linecap="round"/>
<path d="M55.0012 12.0033C56.396 11.5257 60.3934 10.4441 61.1313 12.5348C61.6696 14.0598 61.2369 15.9082 60.9225 17.4312C60.5142 19.4097 59.6955 21.2462 58.9298 23.1058" stroke="white" stroke-width="6.65421" stroke-linecap="round"/>
<path d="M62.3459 16.2736C64.1418 16.2736 65.9637 16.2002 67.641 15.5903" stroke="white" stroke-width="6.65421" stroke-linecap="round"/>
<path d="M68.3242 11.4907C68.7719 14.0589 69.1354 16.6227 69.1783 19.234C69.1845 19.6135 69.1783 20.7523 69.1783 20.3727" stroke="white" stroke-width="6.65421" stroke-linecap="round"/>
<path d="M71.9111 8.07471C73.5145 9.92469 73.2832 13.848 73.4484 16.1216C73.6644 19.0954 73.5597 22.0655 73.6192 25.0416C73.6415 26.1561 73.79 27.2676 73.79 28.4008" stroke="white" stroke-width="6.65421" stroke-linecap="round"/>
<path d="M81.4763 5.00003C81.2715 5.51197 80.3026 5.87081 79.9485 6.36649C79.1564 7.47545 79.2269 8.81115 79.3887 10.1053C79.5547 11.434 80.6087 12.5058 81.6376 13.2652C83.0749 14.3261 84.4717 14.3512 86.2399 14.1952C89.1246 13.9406 90.5003 11.0526 89.9787 8.44465C89.5145 6.12343 87.5102 5.17016 85.5757 4.146" stroke="white" stroke-width="6.65421" stroke-linecap="round"/>
<path d="M94.4578 3.97559C94.9624 9.0221 95.1927 14.1251 95.8242 19.1774" stroke="white" stroke-width="6.65421" stroke-linecap="round"/>
<path d="M84.3801 23.1059C84.4014 24.8303 84.0389 27.3387 85.0633 28.8753C85.7435 29.8957 88.3221 29.8266 89.3525 29.9002C90.4929 29.9817 91.6945 30.0784 92.8256 30.109C94.4784 30.1536 94.4577 28.8617 94.4577 27.433C94.4577 26.5751 94.8998 24.523 94.2679 23.846C93.2679 22.7746 92.7751 21.9579 91.1744 21.6065C89.003 21.1299 86.6031 21.3978 84.3801 21.3978" stroke="white" stroke-width="6.65421" stroke-linecap="round"/>
<path d="M55.0012 12.0033C56.396 11.5257 60.3934 10.4441 61.1313 12.5348C61.6696 14.0598 61.2369 15.9082 60.9225 17.4312C60.5142 19.4097 59.6955 21.2462 58.9298 23.1058" stroke="black" stroke-width="2.91122" stroke-linecap="round"/>
<path d="M62.3459 16.2736C64.1418 16.2736 65.9637 16.2002 67.641 15.5903" stroke="black" stroke-width="2.91122" stroke-linecap="round"/>
<path d="M68.3242 11.4907C68.7719 14.0589 69.1354 16.6227 69.1783 19.234C69.1845 19.6135 69.1783 20.7523 69.1783 20.3727" stroke="black" stroke-width="2.91122" stroke-linecap="round"/>
<path d="M71.9111 8.07471C73.5145 9.92469 73.2832 13.848 73.4484 16.1216C73.6644 19.0954 73.5597 22.0655 73.6192 25.0416C73.6415 26.1561 73.79 27.2676 73.79 28.4008" stroke="black" stroke-width="2.91122" stroke-linecap="round"/>
<path d="M81.4763 5.00003C81.2715 5.51197 80.3026 5.87081 79.9485 6.36649C79.1564 7.47545 79.2269 8.81115 79.3887 10.1053C79.5547 11.434 80.6087 12.5058 81.6376 13.2652C83.0749 14.3261 84.4717 14.3512 86.2399 14.1952C89.1246 13.9406 90.5003 11.0526 89.9787 8.44465C89.5145 6.12343 87.5102 5.17016 85.5757 4.146" stroke="black" stroke-width="2.91122" stroke-linecap="round"/>
<path d="M94.4578 3.97559C94.9624 9.0221 95.1927 14.1251 95.8242 19.1774" stroke="black" stroke-width="2.91122" stroke-linecap="round"/>
<path d="M84.3801 23.1059C84.4014 24.8303 84.0389 27.3387 85.0633 28.8753C85.7435 29.8957 88.3221 29.8266 89.3525 29.9002C90.4929 29.9817 91.6945 30.0784 92.8256 30.109C94.4784 30.1536 94.4577 28.8617 94.4577 27.433C94.4577 26.5751 94.8998 24.523 94.2679 23.846C93.2679 22.7746 92.7751 21.9579 91.1744 21.6065C89.003 21.1299 86.6031 21.3978 84.3801 21.3978" stroke="black" stroke-width="2.91122" stroke-linecap="round"/>
<path d="M113.829 10.5534C113.584 9.57197 111.907 11.8642 111.843 11.9565C110.717 13.5607 110.142 15.0917 110.37 17.0687C110.788 20.6859 115.087 21.8175 117.913 19.861C119.751 18.5889 120.692 15.6932 120.303 13.5541C120.136 12.6338 118.827 11.3036 117.83 11.3036" stroke="white" stroke-width="6.65421" stroke-linecap="round"/>
<path d="M123.831 6.30225C124.111 9.79502 125.113 13.2125 125.318 16.7212C125.5 19.8504 125.918 22.9393 126.082 26.0566" stroke="white" stroke-width="6.65421" stroke-linecap="round"/>
<path d="M131.833 4.30176C131.833 8.52835 132.07 12.955 133.028 17.0824C133.506 19.1406 135.26 19.8393 137.334 19.1384C139.336 18.4622 139.324 17.2908 139.335 15.3598C139.35 12.7677 139.512 10.1181 139.085 7.55248" stroke="white" stroke-width="6.65421" stroke-linecap="round"/>
<path d="M134.084 13.3038C135.952 13.0962 137.756 12.525 139.641 12.3591C140.706 12.2654 141.632 12.2295 142.669 11.9285C143.794 11.6018 145.43 11.4073 146.336 10.8032" stroke="white" stroke-width="6.65421" stroke-linecap="round"/>
<path d="M147.837 5.30225C148.315 7.54445 148.337 9.74251 148.337 12.026C148.337 12.6379 148.174 13.3913 148.587 13.8041" stroke="white" stroke-width="6.65421" stroke-linecap="round"/>
<path d="M153.088 4.30176C154.043 6.1052 153.716 9.07255 153.782 11.0255C153.843 12.7848 153.838 14.5445 153.838 16.3044" stroke="white" stroke-width="6.65421" stroke-linecap="round"/>
<path d="M146.336 19.0552C145.851 21.6223 145.586 24.125 145.586 26.7374C145.586 27.2111 145.44 27.8097 145.947 28.0572C148.512 29.3081 151.882 29.2337 154.588 28.5573" stroke="white" stroke-width="6.65421" stroke-linecap="round"/>
<path d="M160.34 4.30192C162.678 4.17199 165.036 4.1469 167.369 3.92684C167.829 3.88343 168.387 3.96045 168.591 3.55176" stroke="white" stroke-width="6.65421" stroke-linecap="round"/>
<path d="M161.59 8.80273C163.568 9.73007 166.677 8.80273 168.841 8.80273" stroke="white" stroke-width="6.65421" stroke-linecap="round"/>
<path d="M160.34 4.30176C159.438 7.07884 159.339 9.60958 159.339 12.5258C159.339 13.4833 158.967 15.2443 159.978 15.8877C160.511 16.2264 161.47 16.2431 162.034 16.3044C164.018 16.5201 166.001 16.5545 167.994 16.5545C169.443 16.5545 170.893 16.5545 172.342 16.5545" stroke="white" stroke-width="6.65421" stroke-linecap="round"/>
<path d="M158.589 24.5566C162.518 24.6294 166.414 25.3068 170.342 25.3068" stroke="white" stroke-width="6.65421" stroke-linecap="round"/>
<path d="M113.829 10.5534C113.584 9.57197 111.907 11.8642 111.843 11.9565C110.717 13.5607 110.142 15.0917 110.37 17.0687C110.788 20.6859 115.087 21.8175 117.913 19.861C119.751 18.5889 120.692 15.6932 120.303 13.5541C120.136 12.6338 118.827 11.3036 117.83 11.3036" stroke="black" stroke-width="2.91122" stroke-linecap="round"/>
<path d="M123.831 6.30225C124.111 9.79502 125.113 13.2125 125.318 16.7212C125.5 19.8504 125.918 22.9393 126.082 26.0566" stroke="black" stroke-width="2.91122" stroke-linecap="round"/>
<path d="M131.833 4.30176C131.833 8.52835 132.07 12.955 133.028 17.0824C133.506 19.1406 135.26 19.8393 137.334 19.1384C139.336 18.4622 139.324 17.2908 139.335 15.3598C139.35 12.7677 139.512 10.1181 139.085 7.55248" stroke="black" stroke-width="2.91122" stroke-linecap="round"/>
<path d="M134.084 13.3038C135.952 13.0962 137.756 12.525 139.641 12.3591C140.706 12.2654 141.632 12.2295 142.669 11.9285C143.794 11.6018 145.43 11.4073 146.336 10.8032" stroke="black" stroke-width="2.91122" stroke-linecap="round"/>
<path d="M147.837 5.30225C148.315 7.54445 148.337 9.74251 148.337 12.026C148.337 12.6379 148.174 13.3913 148.587 13.8041" stroke="black" stroke-width="2.91122" stroke-linecap="round"/>
<path d="M153.088 4.30176C154.043 6.1052 153.716 9.07255 153.782 11.0255C153.843 12.7848 153.838 14.5445 153.838 16.3044" stroke="black" stroke-width="2.91122" stroke-linecap="round"/>
<path d="M146.336 19.0552C145.851 21.6223 145.586 24.125 145.586 26.7374C145.586 27.2111 145.44 27.8097 145.947 28.0572C148.512 29.3081 151.882 29.2337 154.588 28.5573" stroke="black" stroke-width="2.91122" stroke-linecap="round"/>
<path d="M160.34 4.30192C162.678 4.17199 165.036 4.1469 167.369 3.92684C167.829 3.88343 168.387 3.96045 168.591 3.55176" stroke="black" stroke-width="2.91122" stroke-linecap="round"/>
<path d="M161.59 8.80273C163.568 9.73007 166.677 8.80273 168.841 8.80273" stroke="black" stroke-width="2.91122" stroke-linecap="round"/>
<path d="M160.34 4.30176C159.438 7.07884 159.339 9.60958 159.339 12.5258C159.339 13.4833 158.967 15.2443 159.978 15.8877C160.511 16.2264 161.47 16.2431 162.034 16.3044C164.018 16.5201 166.001 16.5545 167.994 16.5545C169.443 16.5545 170.893 16.5545 172.342 16.5545" stroke="black" stroke-width="2.91122" stroke-linecap="round"/>
<path d="M158.589 24.5566C162.518 24.6294 166.414 25.3068 170.342 25.3068" stroke="black" stroke-width="2.91122" stroke-linecap="round"/>
</svg>
