<svg width="67" height="71" viewBox="0 0 67 71" fill="none" xmlns="http://www.w3.org/2000/svg">
<path d="M51.2176 65.7924C51.3258 65.7076 52.3839 65.2467 52.4914 65.1622C52.9387 65.0504 53.295 64.7329 53.7561 64.6446C54.2578 64.5486 54.7987 64.723 55.2774 64.8382C55.886 64.9846 56.5226 65.5176 56.7222 66.1164C56.7835 66.3004 56.8339 66.4964 56.8662 66.688C56.9263 67.0449 56.9792 67.6222 56.8235 67.9595C56.7414 68.1374 56.683 68.3074 56.5016 68.4029C56.1427 68.5918 55.7744 68.72 55.3832 68.8282C54.3904 69.1028 53.225 69.076 52.2281 68.8057C52.0606 68.7603 51.9067 68.7066 51.7555 68.6234C51.4548 68.458 51.4206 68.2612 51.3346 67.8988C51.196 67.3138 51.0469 66.6645 51.0848 66.0579C51.0961 65.8774 51.1096 65.877 51.2176 65.7924Z" fill="#FEBE31" stroke="black" stroke-width="2" stroke-linecap="round"/>
<path d="M20.6185 65.8081C21.1133 65.4877 21.5367 64.9997 23.6903 64.7167C24.5646 64.7167 25.182 64.9285 25.727 65.5966C25.9963 65.9267 26.1812 66.2403 26.2626 66.6633C26.3603 67.1714 26.1146 67.7558 25.8103 68.1463C25.6204 68.39 25.4227 68.5387 25.1576 68.6864C24.7294 68.9251 24.3483 68.8657 23.8704 68.8395C22.7751 68.7794 21.6341 68.5712 20.6185 68.1396C20.371 68.0344 20.0514 67.9191 19.8781 67.6985C19.6578 67.4181 19.6801 67.1349 19.6801 66.8028C19.6801 66.22 20.1249 66.1278 20.6185 65.8081Z" fill="#FEBE31" stroke="black" stroke-width="2" stroke-linecap="round"/>
<path d="M13.4798 18.8144C13.4798 21.1719 13.3189 23.639 13.5286 26.0127C13.0192 25.9828 11.4213 25.082 11.0053 25.602C10.6409 26.0575 9.83161 26.1226 9.49319 26.7619C8.72624 28.2106 8.72269 29.4473 9.61348 31.0062C10.7576 33.0084 11.5825 35.2021 12.6206 37.2782C13.5775 39.192 14.5231 40.9697 15.0607 43.0004C15.4635 44.5223 16.054 46.0146 16.4182 47.5626C16.6506 48.5503 16.9269 49.6411 17.2258 50.6127C17.7288 52.2474 18.5197 54.0832 18.7466 55.785C18.8443 56.5176 19.126 57.2264 19.3222 57.933C19.501 58.5767 19.7152 59.5545 20.0611 60.0981C20.6184 60.9739 20.9261 62.1545 21.4014 63.1052C21.7419 63.7861 22.2773 64.7655 22.4411 65.5023C22.5804 66.1295 23.4301 66.4877 23.9618 66.0092C25.1497 64.9402 26.9627 64.2284 28.0515 63.1396C31.0574 60.1337 35.9691 60.4761 39.9941 60.4761C41.6689 60.4761 43.2984 61.0387 44.943 61.258C46.2209 61.4284 48.4316 61.6449 49.3936 62.6069C50.2626 63.4759 51.4916 64.3761 52.1086 65.425C52.7117 66.4504 53.8345 65.3972 54.4198 64.9095C55.2333 64.2316 55.7 62.6649 55.7 61.636C55.7 59.6139 55.5453 57.6581 55.5453 55.6132C55.5453 55.3779 55.5469 55.143 55.5501 54.9086C55.6076 55.3683 57.4646 55.0434 57.6331 54.9086C58.1214 54.5179 58.3423 53.9489 58.6384 53.4308C59.1176 52.5922 58.8942 51.6582 59.1797 50.8017C59.5344 49.7376 59.4116 48.3042 59.4116 47.1674C59.4116 45.4503 59.257 43.7618 59.257 42.0724C59.257 40.829 58.7989 38.8393 58.4062 37.6612C58.6712 37.4048 58.952 37.1594 59.257 37.1235C59.5399 37.0902 60.6548 36.3284 60.7949 36.1183C61.0733 35.7007 61.6538 35.4448 61.972 35.0357C62.3676 34.527 62.8646 34.0485 63.3123 33.6009C64.3272 31.7182 65.9912 29.341 64.3272 21.0206C63.2336 15.553 59.8104 10.3086 52.2032 4.8552C47.2547 1.30774 35.1326 1.04814 30.7923 2.56723C27.739 3.63587 24.4797 4.81235 21.7967 6.65693C20.9532 7.23681 20.2186 7.92162 19.391 8.51276C18.709 8.99986 18.0253 9.67536 17.4922 10.3085C16.702 11.2467 15.698 11.9943 15.0435 13.0578C13.9945 14.7624 13.4798 16.8014 13.4798 18.8144Z" fill="white"/>
<path d="M19.9752 38.0514C18.8626 37.435 17.6789 36.9391 16.9681 35.8519C16.7295 35.487 16.3975 35.1708 16.1862 34.7951C15.9661 34.4038 15.8218 33.8271 15.559 33.4892C14.3057 31.8778 14.1062 29.6573 13.7547 27.7241C13.2312 24.8447 13.4798 21.7448 13.4798 18.8144C13.4798 16.8014 13.9945 14.7624 15.0435 13.0578C15.698 11.9943 16.702 11.2467 17.4922 10.3085C18.0253 9.67536 18.709 8.99986 19.391 8.51277C20.2186 7.92162 20.9532 7.23681 21.7967 6.65693C24.4797 4.81235 27.739 3.63587 30.7923 2.56723C35.1326 1.04814 47.2547 1.30774 52.2032 4.8552C59.8104 10.3086 63.2336 15.553 64.3272 21.0206C65.9912 29.341 64.3272 31.7182 63.3123 33.6009C62.8646 34.0485 62.3676 34.527 61.972 35.0357C61.6538 35.4448 61.0733 35.7007 60.7949 36.1183C60.6548 36.3284 59.5399 37.0902 59.257 37.1235C58.7008 37.1889 58.225 37.9513 57.7792 38.2061C57.1585 38.5607 56.5828 38.9063 56.0093 39.2886M13.5286 26.0127C13.0192 25.9828 11.4213 25.082 11.0053 25.602C10.6409 26.0575 9.83161 26.1226 9.49319 26.7619C8.72624 28.2106 8.72269 29.4473 9.61348 31.0062C10.7576 33.0084 11.5825 35.2021 12.6206 37.2782C13.5775 39.192 14.5231 40.9697 15.0607 43.0004C15.4635 44.5223 16.054 46.0146 16.4182 47.5626C16.6506 48.5503 16.9269 49.6411 17.2258 50.6127C17.7288 52.2474 18.5197 54.0832 18.7466 55.785C18.8443 56.5176 19.126 57.2264 19.3222 57.933C19.501 58.5767 19.7152 59.5545 20.0611 60.0981C20.6184 60.9739 20.9261 62.1545 21.4014 63.1052C21.7419 63.7861 22.2773 64.7655 22.4411 65.5023C22.5804 66.1295 23.4301 66.4877 23.9618 66.0092C25.1497 64.9402 26.9627 64.2284 28.0515 63.1396C31.0574 60.1337 35.9691 60.4761 39.9941 60.4761C41.6689 60.4761 43.2984 61.0387 44.943 61.258C46.2209 61.4284 48.4316 61.6449 49.3936 62.6069C50.2626 63.4759 51.4916 64.3761 52.1086 65.425C52.7117 66.4504 53.8345 65.3972 54.4198 64.9095C55.2333 64.2316 55.7 62.6649 55.7 61.636C55.7 59.6139 55.5453 57.6581 55.5453 55.6132C55.5453 52.5483 55.8184 49.5584 56.3186 46.5574M55.5501 54.9086C55.6076 55.3683 57.4646 55.0434 57.6331 54.9086C58.1214 54.5179 58.3423 53.9489 58.6384 53.4308C59.1176 52.5922 58.8942 51.6582 59.1797 50.8017C59.5344 49.7376 59.4116 48.3042 59.4116 47.1674C59.4116 45.4503 59.257 43.7618 59.257 42.0724C59.257 40.829 58.7989 38.8393 58.4062 37.6612" stroke="black" stroke-width="2" stroke-linecap="round"/>
<path d="M16.7017 3.29993C16.8302 3.41559 17.0162 3.48288 17.1641 3.56866C17.7727 3.92183 18.3813 4.2683 18.9387 4.6993C19.4399 5.08678 19.8864 5.5183 20.3623 5.93162C20.6509 6.18223 20.9243 6.43075 21.1346 6.75236C21.3313 7.0531 21.6037 7.27105 21.8198 7.54889C21.9025 7.65523 21.9655 7.7793 22.0619 7.87573" stroke="black" stroke-width="2" stroke-linecap="round"/>
<path d="M56.0533 7.65784C56.4377 7.18064 56.97 6.76654 57.4382 6.37952C57.9652 5.94381 58.5532 5.49732 59.1475 5.15446C59.4952 4.95386 59.8911 4.74824 60.2805 4.65088" stroke="black" stroke-width="2" stroke-linecap="round"/>
<path d="M60.3678 12.4079C60.5789 12.2203 60.9248 12.1953 61.1861 12.1465C62.0501 11.9851 62.9569 11.9873 63.8348 11.9721C64.0391 11.9686 64.3846 11.9481 64.5514 12.0593" stroke="black" stroke-width="2" stroke-linecap="round"/>
<path d="M29.2687 8.81152C29.3149 9.04285 29.6412 9.30691 29.7885 9.47525C29.9315 9.63867 30.0685 9.81592 30.2016 9.98704C30.3261 10.1471 30.4087 10.3259 30.5881 10.4455C30.8579 10.6254 31.0548 11.0295 31.2839 11.2585" stroke="black" stroke-width="2" stroke-linecap="round"/>
<path d="M52.4911 9.5791C51.988 10.0543 51.5672 10.6376 51.129 11.1731C51.0232 11.3025 51.0048 11.4492 50.8838 11.5703C50.7651 11.6889 50.6418 12.0631 50.5239 12.1221" stroke="black" stroke-width="2" stroke-linecap="round"/>
<path d="M52.1554 14.0413C52.1511 14.1146 51.9538 14.8402 52.2354 14.6337C52.3471 14.5518 52.7575 14.2943 52.4436 14.1373" stroke="black" stroke-width="2" stroke-linecap="round"/>
<path d="M28.6449 12.9377C28.1799 12.9958 28.6876 13.8512 29.0874 13.5241C29.221 13.4148 29.2721 13.3105 29.2686 13.1349C29.2636 12.878 29.1898 12.9034 29.0394 12.7831C28.9287 12.6945 28.5978 12.9848 28.501 13.0816" stroke="black" stroke-width="2" stroke-linecap="round"/>
<path d="M37.7338 20.274C38.2281 19.9516 39.0769 19.4032 39.6705 19.3537C40.0006 19.2437 40.2714 19.2031 40.6201 19.2031C41.3107 19.2031 41.9656 19.2166 42.6446 19.3453C43.073 19.4266 43.5106 19.6163 43.8494 19.8891C44.0881 20.0815 44.2241 20.3935 44.3973 20.6379C44.5647 20.874 44.7177 21.1264 44.8094 21.4013C44.9775 21.9057 45.3197 22.6298 45.0729 23.1728C44.982 23.3729 44.9046 23.5661 44.7696 23.7396C44.5332 24.0436 43.9513 24.3482 43.5607 24.4361C42.8331 24.5998 42.0459 24.74 41.3521 25.0133C40.8498 25.2112 40.336 25.2691 39.8002 25.2643C39.3714 25.2605 38.8575 25.1502 38.4491 25.0301C37.8963 24.8675 37.3712 24.6679 36.8302 24.4737C36.2375 24.261 36.1345 23.6976 36.0961 23.0829C36.0548 22.4224 36.3315 21.6719 36.6985 21.1399C36.9466 20.7801 37.3723 20.5097 37.7338 20.274Z" fill="#FEBE31" stroke="black" stroke-width="2" stroke-linecap="round"/>
<path d="M39.6328 22.2526C41.4369 22.2526 43.24 22.2857 45.0436 22.3258C45.688 22.3401 46.2981 22.4075 46.9364 22.4784" stroke="black" stroke-width="2" stroke-linecap="round"/>
<path d="M23.0453 47.494C22.9431 47.8347 22.7378 48.1647 22.5946 48.4902C22.241 49.2937 21.9151 50.1084 21.5687 50.9147C21.4821 51.1164 21.2756 51.4058 21.2756 51.6345" stroke="black" stroke-width="2" stroke-linecap="round"/>
<path d="M23.9802 49.8649C23.7133 50.1318 23.6896 50.5568 23.5981 50.9074C23.4034 51.6531 23.1653 52.3899 22.9785 53.1372" stroke="black" stroke-width="2" stroke-linecap="round"/>
<path d="M24.6815 52.8365C24.5135 53.1935 24.3325 53.5892 24.2474 53.9718" stroke="black" stroke-width="2" stroke-linecap="round"/>
<path d="M27.4194 54.8398C27.253 55.0247 27.1301 55.3516 27.0187 55.5744" stroke="black" stroke-width="2" stroke-linecap="round"/>
<path d="M49.0345 52.9889C48.9214 53.0963 48.8033 53.1989 48.6896 53.3058C48.1479 53.8144 47.6882 54.3766 47.2119 54.9462C47.1487 55.0218 47.0492 55.0841 46.9974 55.1617" stroke="black" stroke-width="2" stroke-linecap="round"/>
<path d="M50.2955 53.8037C49.9249 54.1743 49.5437 54.5435 49.1509 54.8901" stroke="black" stroke-width="2" stroke-linecap="round"/>
<path d="M52.1385 54.3275C51.8811 54.5592 51.5583 54.7448 51.258 54.9117C50.9017 55.1096 50.4516 55.2512 50.1791 55.5691" stroke="black" stroke-width="2" stroke-linecap="round"/>
<path d="M54.9609 43.7142C54.8649 43.7718 54.7475 43.8558 54.7115 43.9636" stroke="black" stroke-width="2" stroke-linecap="round"/>
<path d="M53.2528 45.4932C53.1083 45.5253 52.8925 45.8784 52.812 45.9735C52.6543 46.1598 52.5319 46.392 52.3633 46.5605" stroke="black" stroke-width="2" stroke-linecap="round"/>
<path d="M55.8433 28.1115C55.8364 28.1667 55.7422 28.2227 55.712 28.2512C55.3841 28.5616 55.0842 28.9008 54.7679 29.2229C54.1635 29.8383 53.5446 30.4401 52.9283 31.0434C52.5355 31.4278 51.9882 31.8544 51.6517 32.303" stroke="black" stroke-width="2" stroke-linecap="round"/>
<path d="M56.7579 30.0549C56.4354 30.3188 56.1234 30.5823 55.8306 30.889C55.4653 31.2718 55.1402 31.6919 54.7383 32.0364" stroke="black" stroke-width="2" stroke-linecap="round"/>
<path d="M57.5961 31.8079C57.1826 32.0146 56.8896 32.4381 56.5673 32.7605" stroke="black" stroke-width="2" stroke-linecap="round"/>
<path d="M59.4253 24.1868C59.2345 24.6399 59.2347 25.2278 59.2347 25.711" stroke="black" stroke-width="2" stroke-linecap="round"/>
<path d="M60.7589 25.7109C60.5378 25.9762 60.4994 26.4536 60.3778 26.7779" stroke="black" stroke-width="2" stroke-linecap="round"/>
<path d="M23.7699 24.2295C22.8861 24.9774 22.0927 25.8196 21.2926 26.653" stroke="black" stroke-width="2" stroke-linecap="round"/>
<path d="M24.82 25.4681C24.6545 25.6199 24.4592 25.7452 24.28 25.8795C23.6154 26.378 22.9606 26.883 22.3158 27.4069" stroke="black" stroke-width="2" stroke-linecap="round"/>
<path d="M24.8199 27.5146C24.6643 27.5492 24.5171 27.8898 24.437 28.0038C24.2426 28.2804 23.9748 28.5318 23.8236 28.8341" stroke="black" stroke-width="2" stroke-linecap="round"/>
<path d="M26.1933 31.3652C26.1933 31.5393 26.1283 31.703 26.1124 31.8774" stroke="black" stroke-width="2" stroke-linecap="round"/>
<path d="M18.8604 15.9124C18.5695 16.2275 18.3258 16.5986 18.0656 16.9369C17.8439 17.225 17.5984 17.51 17.3964 17.813" stroke="black" stroke-width="2" stroke-linecap="round"/>
<path d="M20.2729 17.4532C20.0992 17.6361 19.9342 17.8383 19.7735 18.0326C19.6596 18.1703 19.4573 18.359 19.3997 18.532" stroke="black" stroke-width="2" stroke-linecap="round"/>
<path d="M5.53664 31.2272C5.53664 32.5778 5.47134 33.6954 6.20609 34.7975" stroke="black" stroke-width="2" stroke-linecap="round"/>
<path d="M1.96631 32.938C1.96631 33.6836 2.31157 34.3485 2.71013 34.9463" stroke="black" stroke-width="2" stroke-linecap="round"/>
</svg>
