<svg width="185" height="37" viewBox="0 0 185 37" fill="none" xmlns="http://www.w3.org/2000/svg">
<path d="M23.4694 7.95518C21.997 6.70688 20.0195 6.41223 18.1614 6.41223C11.8952 6.41223 7.47036 8.38623 3.72574 13.6984C3.02871 14.6872 2.02975 16.0504 1.73171 17.27C1.11513 19.7931 2.03722 22.9521 2.54617 25.3562C3.01634 27.577 3.09501 31.3632 5.18615 32.8137C7.4063 34.3538 9.31842 34.8524 11.8984 34.6424C16.1031 34.3002 21.3045 35.0085 23.8485 30.9708C25.3739 28.5499 25.2387 26.156 25.2387 23.3846" stroke="black" stroke-width="3" stroke-linecap="round"/>
<path d="M16.1206 24.5332C18.6681 24.5332 22.1089 24.8539 24.46 23.8101C25.5347 23.3329 26.8223 25.5178 27.0082 26.2977C27.3172 27.5941 28.0047 28.8553 28.1085 30.2027C28.1479 30.7143 28.4979 32.6679 28.8903 32.8639" stroke="black" stroke-width="3" stroke-linecap="round"/>
<path d="M45.5195 18.9062C43.713 18.9062 41.8658 18.7818 40.0681 18.9381C36.2347 19.2714 33.7237 23.2894 33.501 26.7963C33.281 30.2618 33.2558 31.0222 36.2426 31.5941C38.8324 32.09 42.1692 33.9881 44.2921 31.8651C46.9026 29.2547 46.954 27.0863 46.954 23.6243C46.954 22.8699 46.954 22.1154 46.954 21.3609C46.954 20.2014 47.8089 21.7147 48.1336 22.0941C51.3013 25.7954 54.4514 29.5097 57.5698 33.2519" stroke="black" stroke-width="3" stroke-linecap="round"/>
<path d="M61.6381 20.0537C61.6381 21.7372 62.2023 23.4454 62.6423 25.0587C63.1023 26.7457 63.1996 28.3964 63.503 30.0956C63.5397 30.3013 63.9334 32.0179 63.9334 30.9564C63.9334 28.6842 64.3213 26.5351 64.7303 24.2936C65.0731 22.4155 65.0927 20.4723 66.7069 19.2886C68.0889 18.2751 68.2489 18.1957 69.1137 19.6552C70.4103 21.8431 70.9237 24.058 71.409 26.5252C71.6709 27.8565 71.807 29.3128 72.1901 30.6057C72.5145 31.7008 72.2413 30.174 72.1901 29.7768C71.7889 26.6677 71.4451 21.4418 73.529 18.7626C74.3927 17.6521 77.3345 21.2185 78.0559 22.1896C79.2855 23.8449 79.7521 25.9628 80.6381 27.8003C80.952 28.4514 81.4351 29.0699 81.4351 29.8087" stroke="black" stroke-width="3" stroke-linecap="round"/>
<path d="M84.8779 24.9314C88.411 24.9314 91.9289 24.6692 95.4618 24.6445C97.2723 24.6318 99.0792 24.5265 100.881 24.3575C101.722 24.2787 100.539 22.6444 100.371 22.3651C98.1466 18.6573 93.4209 16.2697 89.3091 18.6193C88.3747 19.1532 87.7471 20.572 87.7471 21.6319C87.7471 22.9352 87.9762 24.2014 88.1774 25.4893C88.2736 26.1048 88.1463 28.3941 88.9585 28.725C91.2752 29.6689 93.4985 30.7979 96.0675 30.9406C97.0674 30.9961 98.6352 31.2531 99.5105 30.6696" stroke="black" stroke-width="3" stroke-linecap="round"/>
<path d="M128.673 1.97827C125.774 4.39382 124.402 6.86071 122.951 10.4263C120.878 15.5174 119.486 21.4132 122.058 26.5572C123.395 29.2315 125.527 31.4883 128.657 31.2275C130.832 31.0462 134.234 30.0047 136.101 28.8046C139.748 26.4601 139.862 19.3628 139.862 15.7501C139.862 12.1221 139.322 7.54722 136.133 5.42123" stroke="black" stroke-width="3" stroke-linecap="round"/>
<path d="M145.314 17.7585C145.314 20.0361 146.94 22.8141 147.864 24.8676C148.314 25.8674 148.34 27.0432 149.187 26.3659C149.547 26.0784 149.733 25.3173 149.968 24.9314C150.702 23.7254 151.478 22.5438 152.295 21.3928C152.999 20.4007 153.542 19.3307 154.208 18.3324" stroke="black" stroke-width="3" stroke-linecap="round"/>
<path d="M159.946 22.6363C162.329 22.7852 167.174 24.139 168.538 21.2973C170.36 17.5004 164.404 16.564 161.955 16.9139C160.772 17.0829 159.925 18.3952 159.596 19.4164C158.844 21.7461 161.08 23.8794 162.465 25.5054C163.229 26.4021 165.738 28.7064 166.896 27.8644C167.871 27.1554 170.837 27.8943 171.997 28.0876" stroke="black" stroke-width="3" stroke-linecap="round"/>
<path d="M177.448 18.0455C177.559 19.0398 178.226 19.8639 178.596 20.7552C179.176 22.1549 179.17 24.1885 179.17 25.7284C179.17 26.1851 178.941 27.3717 179.233 27.7367C179.632 28.2343 178.845 25.8489 178.739 25.3617C178.372 23.6722 178.375 21.8003 179.313 20.3408C180.093 19.1282 182.021 17.7585 183.473 17.7585" stroke="black" stroke-width="3" stroke-linecap="round"/>
</svg>
