<svg width="62" height="66" viewBox="0 0 62 66" fill="none" xmlns="http://www.w3.org/2000/svg">
<path d="M1 8.37243V12.6407C1.42513 19.1077 2.53048 32.8179 3.5508 35.922C4.57112 39.0262 6.95186 40.3196 8.0147 40.5783C17.4739 40.449 38.5605 40.2679 47.2332 40.5783C55.9059 40.8887 57.8615 38.1208 57.7553 36.6981C60.9438 26.6095 62.538 11.8646 60.3061 6.43232C59.0307 3.32814 52.5474 1 49.784 1C39.0494 1.25868 16.1773 1.93125 10.5655 2.55209C4.95374 3.17293 1.6377 5.65627 1 8.37243Z" fill="#FF8181" stroke="black" stroke-width="1.25722"/>
<path d="M1.62866 14.5152V17.9726C2.04773 23.211 3.13732 34.3164 4.1431 36.8309C5.14887 39.3453 7.49568 40.393 8.54336 40.6025C17.8677 40.4978 38.6538 40.3511 47.2028 40.6025C55.7519 40.854 56.9463 38.7167 57.5749 37.4595C60.7179 29.2876 62.2895 17.344 60.0893 12.9437C58.8321 10.4293 52.4412 8.54346 49.7173 8.54346C39.1357 8.75299 16.5896 9.29779 11.0578 9.80068C5.52604 10.3036 2.25727 12.3151 1.62866 14.5152Z" fill="#353575" stroke="black" stroke-width="1.25722"/>
<path d="M6.36844 65.3825C3.0822 64.7232 1.83932 59.0644 1.62866 56.3174H60.7179C60.7179 63.7892 57.5581 65.4741 55.9782 65.3825C40.8109 65.6572 9.65469 66.0418 6.36844 65.3825Z" fill="#FF8181" stroke="black" stroke-width="1.25722"/>
<path d="M1.80154 57.2409L1.72254 55.0115C2.02177 51.6249 2.85721 44.4411 3.80517 42.7988C4.75312 41.1566 7.07513 40.4324 8.11764 40.2756C17.441 40.1499 38.2227 39.8139 46.7629 39.4746C55.3031 39.1354 56.5459 40.4888 57.203 41.2865C60.5316 46.491 62.3754 54.1601 60.2767 57.0431C59.0773 58.6906 52.7319 60.0391 50.0089 60.0955C39.4265 60.1796 16.8762 60.2954 11.3349 60.0857C5.79372 59.8761 2.48019 58.6467 1.80154 57.2409Z" fill="#FFB9B9" stroke="black" stroke-width="1.25722"/>
<path d="M1.62866 14.5152V17.9726C2.04773 23.211 3.13732 34.3164 4.1431 36.8309C5.14887 39.3453 7.49568 40.393 8.54336 40.6025C17.8677 40.4978 38.6538 40.3511 47.2028 40.6025C55.7519 40.854 56.9463 38.7167 57.5749 37.4595C60.7179 29.2876 62.2895 17.344 60.0893 12.9437C58.8321 10.4293 52.4412 8.54346 49.7173 8.54346C39.1357 8.75299 16.5896 9.29779 11.0578 9.80068C5.52604 10.3036 2.25727 12.3151 1.62866 14.5152Z" fill="#D83F3F" stroke="black" stroke-width="1.25722"/>
<path d="M7.73624 22.3726C7.9513 21.6587 7.47865 21.1709 7.42655 20.5884C7.42238 20.5419 7.4699 20.5117 7.50971 20.5361C8.18731 20.9528 9.67518 22.574 10.8364 22.574C11.5079 22.6869 11.8019 22.8701 11.7827 23.0332C11.7539 23.2783 11.0987 23.5829 10.9243 23.716C10.1226 24.3276 10.3304 25.536 10.4132 26.4151C10.4405 26.7051 10.4469 27.0789 10.5969 27.3414C10.6135 27.3706 10.6642 27.4502 10.5969 27.3893C10.2357 27.0626 9.94187 26.5199 9.62207 26.1443C9.01346 25.4295 8.46318 24.9047 7.49046 24.9218C7.03292 24.9298 6.57987 25.0188 6.12492 25.0575C6.03297 25.0654 6.00314 25.0806 6.05305 25.0216C6.2673 24.7684 6.50229 24.5373 6.70787 24.275C7.0889 23.7887 7.55567 22.9721 7.73624 22.3726Z" fill="#FFEC3F" stroke="black" stroke-width="1.00577" stroke-linecap="round"/>
<path d="M9.62198 45.6309C9.83704 44.917 9.3644 44.4292 9.31229 43.8467C9.30812 43.8002 9.35564 43.77 9.39545 43.7944C10.0731 44.2111 11.5609 45.8323 12.7222 45.8323C13.3936 45.9452 13.6877 46.1284 13.6685 46.2915C13.6396 46.5366 12.9844 46.8412 12.81 46.9743C12.0083 47.5859 12.2161 48.7943 12.2989 49.6734C12.3263 49.9634 12.3326 50.3372 12.4826 50.5997C12.4993 50.6289 12.5499 50.7085 12.4826 50.6476C12.1214 50.3209 11.8276 49.7782 11.5078 49.4026C10.8992 48.6878 10.3489 48.163 9.37621 48.1801C8.91866 48.1881 8.46561 48.2771 8.01067 48.3158C7.91872 48.3237 7.88888 48.3389 7.93879 48.2799C8.15304 48.0267 8.38803 47.7956 8.59362 47.5333C8.97464 47.047 9.44142 46.2304 9.62198 45.6309Z" fill="#FFEC3F" stroke="black" stroke-width="1.00577" stroke-linecap="round"/>
<path d="M53.4503 50.6598C53.2352 49.9458 53.7079 49.458 53.76 48.8755C53.7641 48.829 53.7166 48.7988 53.6768 48.8233C52.9992 49.2399 51.5113 50.8611 50.3501 50.8611C49.6786 50.9741 49.3846 51.1572 49.4038 51.3203C49.4326 51.5654 50.0878 51.87 50.2622 52.0031C51.064 52.6147 50.8562 53.8231 50.7733 54.7022C50.746 54.9922 50.7397 55.366 50.5897 55.6285C50.573 55.6577 50.5224 55.7373 50.5897 55.6765C50.9508 55.3497 51.2446 54.807 51.5645 54.4314C52.1731 53.7166 52.7233 53.1918 53.6961 53.2089C54.1536 53.2169 54.6067 53.3059 55.0616 53.3447C55.1535 53.3525 55.1834 53.3677 55.1335 53.3087C54.9192 53.0555 54.6842 52.8244 54.4786 52.5621C54.0976 52.0758 53.6308 51.2592 53.4503 50.6598Z" fill="#FFEC3F" stroke="black" stroke-width="1.00577" stroke-linecap="round"/>
<path d="M55.0122 25.1706C54.8503 24.5961 55.1983 24.2009 55.247 23.7346C55.2519 23.6873 55.203 23.6579 55.1638 23.6847C54.6362 24.0466 53.5174 25.3351 52.6416 25.3351C52.1282 25.4273 51.9034 25.577 51.918 25.7102C51.9401 25.9105 52.4411 26.1593 52.5745 26.268C53.1875 26.7677 53.0286 27.755 52.9653 28.4732C52.9444 28.7101 52.9395 29.0155 52.8248 29.23C52.8121 29.2538 52.7734 29.3188 52.8248 29.2691C53.101 29.0021 53.3257 28.5588 53.5702 28.2519C54.0356 27.668 54.4564 27.2392 55.2001 27.2532C55.55 27.2597 55.8964 27.3324 56.2443 27.3641C56.3146 27.3705 56.3374 27.3829 56.2993 27.3347C56.1354 27.1279 55.9558 26.9391 55.7986 26.7247C55.5072 26.3274 55.1503 25.6603 55.0122 25.1706Z" fill="#FFEC3F" stroke="black" stroke-width="1.00577" stroke-linecap="round"/>
<path d="M19.2383 42.5947C16.9333 41.2327 13.015 36.3086 15.7809 27.508C18.5468 18.7075 28.2483 17.5551 32.7534 18.0789C39.0394 19.3361 46.5199 19.9018 47.5257 29.7081C47.9005 33.3626 47.2269 36.4025 46.8249 38.9694L46.5744 42.2803C47.8316 42.5946 49.0888 43.2232 49.0888 45.4234C48.7745 48.5664 46.0974 49.8453 42.8027 51.0808C38.44 51.4775 30.8591 51.0808 25.2016 50.7665C21.4382 50.7665 18.0907 48.6048 17.9734 48.5666C17.9731 48.5665 17.9729 48.5665 17.9726 48.5664C16.0868 46.9949 17.344 44.3182 19.2383 42.5947Z" fill="white"/>
<path d="M18.9185 43.1358C19.2173 43.3125 19.6028 43.2133 19.7794 42.9144C19.9561 42.6156 19.8569 42.2301 19.558 42.0535L18.9185 43.1358ZM32.7534 18.0789L32.8766 17.4625L32.8515 17.4575L32.826 17.4545L32.7534 18.0789ZM47.5257 29.7081L46.9003 29.7723L47.5257 29.7081ZM19.558 42.0535C17.5167 40.8472 13.698 36.2319 16.3806 27.6965L15.1812 27.3196C12.332 36.3853 16.35 41.6181 18.9185 43.1358L19.558 42.0535ZM16.3806 27.6965C17.694 23.5174 20.6448 21.1513 23.8467 19.8811C27.0668 18.6038 30.5108 18.451 32.6808 18.7033L32.826 17.4545C30.4909 17.183 26.8316 17.3445 23.3831 18.7125C19.9166 20.0877 16.6336 22.6982 15.1812 27.3196L16.3806 27.6965ZM32.6301 18.6953C35.8411 19.3375 39.1451 19.7743 41.8175 21.2388C43.1323 21.9594 44.2742 22.922 45.1497 24.2727C46.0265 25.6255 46.657 27.3997 46.9003 29.7723L48.151 29.644C47.8915 27.1134 47.2097 25.1395 46.2047 23.5889C45.1983 22.0363 43.8885 20.9402 42.4217 20.1363C39.531 18.5522 35.9517 18.0775 32.8766 17.4625L32.6301 18.6953ZM46.9003 29.7723C47.5262 35.8746 46.9539 39.071 45.7741 40.9659C44.6048 42.8439 42.7745 43.5666 40.3775 44.5254L40.8444 45.6927C43.1621 44.7657 45.4177 43.9168 46.8414 41.6304C48.2546 39.3606 48.7823 35.7995 48.151 29.644L46.9003 29.7723Z" fill="black"/>
<path d="M18.6095 49.1943L18.3461 49.7651H18.3461L18.6095 49.1943ZM22.3812 43.5368C22.034 43.5368 21.7526 43.8183 21.7526 44.1655C21.7526 44.5126 22.034 44.7941 22.3812 44.7941V43.5368ZM18.1345 42.1822C17.4164 43.0108 16.5224 44.3835 16.2553 45.8013C16.1197 46.521 16.1387 47.2916 16.4675 48.0094C16.8003 48.7359 17.4179 49.3367 18.3461 49.7651L18.873 48.6236C18.1668 48.2976 17.7969 47.8927 17.6105 47.4857C17.42 47.07 17.388 46.5795 17.4908 46.0341C17.7003 44.9218 18.4407 43.7486 19.0846 43.0056L18.1345 42.1822ZM18.3461 49.7651C22.5967 51.7269 28.0959 52.0294 34.1705 50.4309L33.8505 49.215C27.9815 50.7595 22.7943 50.4334 18.873 48.6236L18.3461 49.7651ZM34.1705 50.4309C37.3709 49.5886 40.2301 46.77 42.1434 44.0994C43.1091 42.7514 43.862 41.4024 44.316 40.2931C44.5421 39.7409 44.7033 39.2258 44.7726 38.7873C44.8073 38.5679 44.8223 38.3479 44.8018 38.1414C44.7818 37.9391 44.7232 37.7049 44.5711 37.5022L43.5653 38.2565C43.5312 38.2109 43.5438 38.1953 43.5507 38.2654C43.5573 38.3313 43.5551 38.4376 43.5308 38.5909C43.4823 38.8975 43.3587 39.3132 43.1525 39.8168C42.7423 40.8192 42.0415 42.0828 41.1214 43.3672C39.263 45.9611 36.6219 48.4857 33.8505 49.215L34.1705 50.4309ZM44.5711 37.5022C43.9782 36.7116 42.9256 36.1507 41.7502 36.1507C40.5462 36.1507 39.2686 36.7355 38.2222 38.1308L39.2279 38.8851C40.0673 37.766 40.9899 37.4079 41.7502 37.4079C42.5392 37.4079 43.2154 37.7899 43.5653 38.2565L44.5711 37.5022ZM38.2222 38.1308C37.3646 39.2742 35.58 40.5572 33.5985 41.6062C31.6217 42.6528 29.5823 43.3964 28.2836 43.5407L28.4224 44.7902C29.9524 44.6202 32.1562 43.7923 34.1867 42.7173C36.2126 41.6448 38.1996 40.2562 39.2279 38.8851L38.2222 38.1308ZM28.2836 43.5407C25.4914 43.8509 22.8114 43.5368 22.3812 43.5368V44.7941C22.3793 44.7941 22.3824 44.794 22.3929 44.7945C22.4027 44.7948 22.4158 44.7955 22.4329 44.7965C22.4673 44.7985 22.5118 44.8014 22.5677 44.8054C22.6748 44.813 22.8306 44.8246 23.0056 44.8368C23.3632 44.8616 23.8422 44.8915 24.4018 44.9115C25.5182 44.9514 26.966 44.952 28.4224 44.7902L28.2836 43.5407Z" fill="black"/>
<path d="M46.2684 41.9657L46.3573 41.3434L46.0755 41.3031L45.8593 41.4884L46.2684 41.9657ZM20.487 40.3941L21.1034 40.2709L20.487 40.3941ZM26.9349 44.7757C27.2717 44.8599 27.613 44.6551 27.6972 44.3183C27.7814 43.9815 27.5766 43.6402 27.2398 43.556L26.9349 44.7757ZM29.8525 51.3907C32.6049 51.7083 36.8477 51.9318 40.6401 51.5648C42.534 51.3815 44.3489 51.048 45.8187 50.4872C47.2716 49.9329 48.5035 49.1116 49.0445 47.8751L47.8926 47.3712C47.5535 48.1464 46.7084 48.8022 45.3706 49.3126C44.0496 49.8166 42.36 50.1352 40.519 50.3134C36.8414 50.6693 32.6922 50.4528 29.9966 50.1418L29.8525 51.3907ZM49.0445 47.8751C49.9801 45.7364 49.8432 44.1347 49.1025 43.0171C48.3871 41.9376 47.2074 41.4648 46.3573 41.3434L46.1795 42.588C46.7962 42.6761 47.5966 43.0205 48.0546 43.7116C48.4873 44.3645 48.7171 45.4868 47.8926 47.3712L49.0445 47.8751ZM22.3813 36.9368C21.3568 36.9368 20.613 37.4408 20.1963 38.17C19.7972 38.8683 19.7144 39.7361 19.8706 40.5174L21.1034 40.2709C20.9941 39.7244 21.0684 39.1778 21.2879 38.7937C21.4897 38.4406 21.8257 38.194 22.3813 38.194V36.9368ZM19.8706 40.5174C19.9382 40.8552 20.1201 41.1512 20.3278 41.3986C20.5386 41.6498 20.8055 41.8859 21.0962 42.1046C21.6773 42.5418 22.415 42.955 23.1586 43.3167C24.6429 44.0388 26.2557 44.6059 26.9349 44.7757L27.2398 43.556C26.6618 43.4115 25.1316 42.8785 23.7086 42.1862C22.9985 41.8407 22.3415 41.4682 21.852 41.0999C21.6074 40.9159 21.42 40.7443 21.2908 40.5904C21.1584 40.4326 21.1144 40.3259 21.1034 40.2709L19.8706 40.5174ZM33.9213 41.6963C31.5864 40.7623 29.2407 39.5976 27.2116 38.6463C26.2047 38.1743 25.2714 37.7529 24.471 37.4492C23.6917 37.1534 22.9588 36.9368 22.3813 36.9368V38.194C22.708 38.194 23.2513 38.331 24.0249 38.6246C24.7774 38.9101 25.6737 39.3138 26.678 39.7847C28.6714 40.7192 31.0746 41.9117 33.4544 42.8636L33.9213 41.6963ZM45.8593 41.4884C44.8372 42.3645 42.7879 43.749 40.8771 44.1813L41.1545 45.4076C43.3537 44.91 45.5879 43.3769 46.6775 42.443L45.8593 41.4884Z" fill="black"/>
<path d="M13.5723 12.6289L16.0867 21.7437" stroke="black" stroke-width="1.25722" stroke-linecap="round"/>
<path d="M48.7743 11.6865L47.5171 23.0015" stroke="black" stroke-width="1.25722" stroke-linecap="round"/>
<path d="M50.0315 31.4873L52.5459 36.8305" stroke="black" stroke-width="1.25722" stroke-linecap="round"/>
<path d="M35.083 30.4028C35.2071 30.2787 35.3269 30.1352 35.4696 30.0315C35.6066 29.9318 35.7779 29.8676 35.9285 29.7923C36.3115 29.6008 36.7377 29.5923 37.1593 29.6031C37.8069 29.6197 38.5891 29.9191 39.013 30.4278" stroke="black" stroke-width="1.06864" stroke-linecap="round"/>
<path d="M23.6299 30.1168C23.7899 29.856 24.0266 29.7766 24.2545 29.5854C24.5069 29.3734 24.9942 29.3318 25.3052 29.2973C25.8094 29.2412 26.2235 29.4339 26.6113 29.7441" stroke="black" stroke-width="1.06864" stroke-linecap="round"/>
<path d="M28.2004 33.4569C28.2869 33.3032 28.7271 33.0736 28.8862 33.0288C29.0206 33.0288 29.1543 33.0002 29.2886 32.9895C29.6074 32.964 29.9309 32.9625 30.2505 32.9625C30.9373 32.9625 31.6627 32.897 32.3436 32.9969C32.7185 33.0518 33.0631 33.1986 33.395 33.3796C33.6798 33.535 33.999 33.774 34.1618 34.0642C34.2778 34.271 34.2925 34.5813 34.2599 34.809C34.2075 35.1763 34.0113 35.5905 33.7397 35.8457C33.0308 36.5118 32.0169 36.428 31.1179 36.3744C30.3605 36.3294 29.5253 36.379 28.8163 36.0518C28.2025 35.7685 27.9251 35.1279 27.9366 34.4789C27.9425 34.1486 28.0383 33.745 28.2004 33.4569Z" fill="#FEBE31" stroke="black" stroke-width="1.06864" stroke-linecap="round"/>
<path d="M26.7043 32.8804C26.8442 32.9914 26.9531 33.1318 27.0839 33.253C27.2674 33.4232 27.4708 33.5683 27.6619 33.7292C28.2676 34.2393 29.0302 34.4736 29.7944 34.6506C30.0625 34.7127 30.3272 34.8191 30.6036 34.8334C30.9335 34.8506 31.2671 34.8369 31.5974 34.8369C31.923 34.8369 32.2236 34.8204 32.5429 34.7748" stroke="black" stroke-width="1.06864" stroke-linecap="round"/>
</svg>
