<svg width="57" height="66" viewBox="0 0 57 66" fill="none" xmlns="http://www.w3.org/2000/svg">
<path d="M6.99053 62.5954C3.63815 60.5002 2.97466 54.3891 3.06196 51.5954C3.06196 53.6906 8.12546 54.7383 10.6572 55.0002C19.1255 55.0875 37.6334 55.2097 43.9191 55.0002C50.2048 54.7906 52.9985 52.4684 53.6096 51.3335C53.6969 51.5954 53.7667 53.1144 53.3477 57.0954C52.8239 62.0716 50.9833 61.8097 48.3715 62.5954C46.1283 63.2702 19.9112 63.0319 6.99053 62.5954Z" fill="#FF6868" stroke="black" stroke-width="1.1"/>
<path d="M4.3641 36.9289C5.41171 33.9955 10.3879 33.2622 12.745 33.2622H41.5546C44.6974 33.2622 46.7054 33.6114 47.3165 33.786C52.2927 37.1908 52.0308 41.3813 53.6022 47.4051C55.1736 53.4289 50.7212 53.6908 48.626 54.4765C47.2113 55.007 40.7689 55.5241 37.626 55.5241C28.1101 55.5241 8.50219 55.3146 6.19743 54.4765C3.89267 53.6384 2.79267 52.032 2.53076 51.3336C2.70536 47.7543 3.31648 39.8622 4.3641 36.9289Z" fill="#FF9999" stroke="black" stroke-width="1.1"/>
<path d="M6.5 5.50041C3.35726 7.17683 2.70546 12.5718 3.05466 14.4052C4.88797 11.7861 10.6499 9.16708 11.9594 8.64327C13.2689 8.11946 40.2451 8.38136 44.1737 8.64327C47.3166 8.85279 51.0705 10.3893 52.5547 11.5242C52.2928 9.16708 51.1231 6.80994 50.0754 5.50041C49.0278 4.19089 45 2.61946 43.004 2.61946C41.7469 2.61946 18.0676 2.38067 14 3.0003C11.0676 3.447 9.64286 3.82392 6.5 5.50041Z" fill="#FF6868" stroke="black" stroke-width="1.1"/>
<path d="M5.59627 29.3337C6.22484 33.1051 8.47722 33.8734 9.52484 33.7861H47.5011C48.8106 33.7861 49.5963 32.7384 51.4296 28.2861C53.263 23.8337 53.7868 14.9289 52.4773 11.7861C51.1677 8.64321 45.4058 8.1194 45.1439 8.1194C44.882 8.1194 39.382 7.07178 31.0011 7.07178C24.2963 7.07178 15.9852 7.94479 12.6677 8.3813C11.6201 8.3813 8.63437 8.95749 5.07246 11.2623C0.620081 14.1432 4.81056 24.6194 5.59627 29.3337Z" fill="#D63838" stroke="black" stroke-width="1.1"/>
<path d="M11 11L14 22" stroke="black" stroke-width="1.1" stroke-linecap="round"/>
<path d="M43.7307 11C43.6474 13.0864 43.3307 17.837 42.7307 20.1481C42.1307 22.4593 41.814 23.679 41.7307 24" stroke="black" stroke-width="1.1" stroke-linecap="round"/>
<path d="M42.864 25.9287C43.6497 26.6271 45.3783 28.3906 46.0069 29.8573" stroke="black" stroke-width="1.1" stroke-linecap="round"/>
<path d="M16.2663 38.516C15.2187 37.9922 13.1235 36.2112 13.1235 33.2779C13.1235 29.6112 12.0759 26.2065 16.2663 22.2779C20.4568 18.3493 25.1711 18.3493 25.6949 18.3493C26.2187 18.3493 33.0583 18.0912 35.1235 19.6589C37.1023 21.161 40.8854 23.5875 41.1473 29.6113C41.3568 34.4303 40.0123 37.2065 39.3139 37.9922C38.8472 38.4201 41.1232 38.8301 41.1473 40.3335C41.5547 43.2144 39.9833 44.524 37.888 45.0478C36.7966 45.1041 32.9118 45.8335 29.769 45.0478C28.7561 45.0751 25.7844 45.5393 23.2214 45.57C23.1336 45.571 23.0462 45.5716 22.9595 45.5716C18.2452 45.5716 16.2663 44.3882 15.6261 43.2144C14.0547 40.3335 16.7941 39.1464 16.2663 38.516Z" fill="white"/>
<path d="M22.9595 45.5716C18.2452 45.5716 16.2663 44.3882 15.6261 43.2144C14.0547 40.3335 16.7941 39.1464 16.2663 38.516C15.2187 37.9922 13.1235 36.2112 13.1235 33.2779C13.1235 29.6112 12.0759 26.2065 16.2663 22.2779C20.4568 18.3493 25.1711 18.3493 25.6949 18.3493C26.2187 18.3493 33.0583 18.0912 35.1235 19.6589C37.1023 21.161 40.8854 23.5875 41.1473 29.6113C41.3568 34.4303 40.0123 37.2065 39.3139 37.9922C38.8472 38.4201 41.1232 38.8301 41.1473 40.3335C41.5547 43.2144 39.9833 44.524 37.888 45.0478C36.7966 45.1041 32.9118 45.8335 29.769 45.0478C28.7214 45.076 25.5785 45.5716 22.9595 45.5716ZM22.9595 45.5716L23.2214 45.57" stroke="black"/>
<path d="M20.0784 39.8097C18.9435 38.7621 17.0927 36.1431 18.7689 35.0955C20.8641 33.7859 22.4356 35.4884 23.2213 35.8812C23.7451 36.1431 27.1498 38.2383 28.4594 38.2383" stroke="black" stroke-linecap="round"/>
<path d="M18.7688 40.0718C21.1259 39.8972 26.2069 39.3909 27.6736 38.7623C29.5069 37.9766 32.1259 36.667 32.9117 35.8813C33.6974 35.0956 35.7926 33.2623 37.1021 34.3099C38.1498 35.148 35.618 39.0242 34.2212 40.8575C33.2609 42.167 30.5545 44.4194 27.6736 45.2051" stroke="black" stroke-linecap="round"/>
<path d="M34.4832 40.8574C35.6181 40.6828 38.6736 39.1288 39.7212 37.4526" stroke="black" stroke-linecap="round"/>
<path d="M20.8506 29.9917C20.9631 30.0366 21.0673 30.0852 21.1869 30.1216C21.3249 30.1636 21.4951 30.2144 21.6428 30.2097C21.6867 30.2083 21.7311 30.2188 21.7748 30.2199C21.8416 30.2216 21.9147 30.2025 21.9803 30.1941C22.0974 30.1792 22.2263 30.1748 22.3368 30.1398C22.4495 30.104 22.5562 30.0704 22.6516 30.0032C22.7509 29.9332 22.8503 29.8602 22.9418 29.7808" stroke="black" stroke-width="0.785714" stroke-linecap="round"/>
<path d="M31.2451 30.0332C31.2668 30.057 31.2988 30.0676 31.3267 30.0836C31.4245 30.1398 31.5216 30.1982 31.6246 30.2466C31.7661 30.3131 31.9283 30.345 32.0663 30.4142C32.1082 30.4352 32.1759 30.4291 32.2218 30.4328C32.2527 30.4354 32.2824 30.4527 32.3145 30.4444C32.3446 30.4366 32.3835 30.431 32.415 30.4325C32.4477 30.434 32.4758 30.4298 32.5079 30.427C32.5358 30.4246 32.5868 30.4305 32.6114 30.4183C32.637 30.4056 32.6726 30.4206 32.7007 30.4132C32.7585 30.398 32.832 30.4018 32.8919 30.3988C33.0306 30.3917 33.1572 30.3335 33.2716 30.2528C33.3009 30.2321 33.346 30.2098 33.3636 30.1784" stroke="black" stroke-width="0.785714" stroke-linecap="round"/>
<path d="M29.5095 32.3744C29.5095 32.3147 29.5297 32.0591 29.488 32.0435C29.488 31.967 29.5022 31.8927 29.4689 31.8177C29.4189 31.7052 29.3767 31.599 29.2885 31.5059C29.1455 31.355 28.9926 31.2215 28.8268 31.0926C28.7179 31.0079 28.5761 30.9686 28.4517 30.9146C28.3233 30.8588 28.1826 30.8424 28.0473 30.8094C27.8933 30.772 27.714 30.764 27.5551 30.764C27.432 30.764 27.297 30.7492 27.1758 30.7694C27.0465 30.791 26.9069 30.7752 26.7756 30.7849C26.7218 30.7889 26.6658 30.7963 26.6125 30.7963C26.5363 30.7963 26.4496 30.8216 26.3742 30.8339C26.2583 30.8529 26.1352 30.8772 26.0176 30.8823C25.8695 30.8887 25.7201 30.9679 25.5827 31.0137C25.4482 31.0585 25.2964 31.0902 25.1765 31.1672C25.1142 31.2073 25.0586 31.2474 24.9991 31.2915C24.954 31.3249 24.8932 31.3634 24.8593 31.4086C24.826 31.453 24.7826 31.4975 24.7464 31.5382C24.7271 31.56 24.7126 31.5864 24.6927 31.6075C24.678 31.623 24.6413 31.679 24.6389 31.6995C24.6355 31.7289 24.6185 31.7593 24.6174 31.7938C24.6136 31.9135 24.6067 32.0319 24.6067 32.1522C24.6067 32.235 24.6209 32.3079 24.6395 32.3888C24.6715 32.5272 24.7169 32.6628 24.7566 32.7991C24.7796 32.8781 24.8056 32.9698 24.839 33.044C24.9141 33.2109 25.0533 33.3709 25.2195 33.4496C25.4011 33.5356 25.5668 33.6327 25.7637 33.6838C25.84 33.7036 25.9107 33.7333 25.9883 33.7477C26.0272 33.7549 26.0929 33.7535 26.1275 33.7692C26.183 33.7944 26.2871 33.7746 26.3473 33.7746H26.5826H27.119C27.2423 33.7746 27.37 33.7846 27.4918 33.7638C27.5762 33.7494 27.6617 33.7395 27.7468 33.731C27.8919 33.7165 28.0431 33.6872 28.1841 33.6509C28.3688 33.6034 28.565 33.5777 28.727 33.4735C28.9133 33.3538 29.1355 33.2485 29.2623 33.0584C29.3234 32.9667 29.3713 32.8556 29.4014 32.7502C29.4246 32.6691 29.478 32.592 29.4874 32.507C29.4925 32.4616 29.5095 32.4205 29.5095 32.3744Z" fill="#F7B443" stroke="black" stroke-width="0.785714" stroke-linecap="round"/>
<path d="M30.8792 31.9531C30.7234 31.9531 30.5673 31.9676 30.4111 31.9676C30.3261 31.9676 30.2426 31.9651 30.1585 31.9789C29.9575 32.0117 29.751 31.9821 29.5489 31.9821C29.1046 31.9821 28.6657 32.0429 28.2243 32.0681C27.6216 32.1026 27.0295 32.1843 26.4284 32.2571C26.2171 32.2827 26.002 32.344 25.7979 32.344" stroke="black" stroke-width="0.785714" stroke-linecap="round"/>
<path d="M10.6499 22.0483C10.6358 22.1048 10.6181 22.1668 10.5968 22.2335C10.4208 23.2268 11.9233 24.2565 12.7451 24.6674C11.9594 24.6674 10.6499 27.5483 10.6499 27.0245C10.6499 26.6055 9.07844 25.4531 8.29272 24.9293C9.64083 24.3515 10.3546 22.9919 10.5968 22.2335C10.6078 22.1716 10.6253 22.1098 10.6499 22.0483Z" fill="#FFBF1E"/>
<path d="M8.82667 37.4287C8.82667 37.4634 8.82567 37.5007 8.82352 37.5401C8.94316 37.9226 10.1784 38.6798 10.8453 39.0436C10.0379 39.3666 9.56684 40.524 9.43227 41.0623C9.43227 40.2548 8.22107 39.6492 7.61548 39.4474C8.52199 39.1452 8.79243 38.1127 8.82352 37.5401C8.81039 37.4981 8.8107 37.4607 8.82667 37.4287Z" fill="#FFBF1E"/>
<path d="M44.3918 42.2148C44.4067 42.2596 44.42 42.3081 44.4311 42.36C44.8193 43.6932 45.8721 44.7138 46.3662 45.0667C45.4886 45.0667 44.6843 45.9442 44.3918 46.383C44.3918 45.8565 42.9293 45.2861 42.198 45.0667C44.3245 44.4124 44.5833 43.0721 44.4311 42.36C44.4171 42.312 44.404 42.2636 44.3918 42.2148Z" fill="#FFBF1E"/>
<path d="M44.3057 38.5028C45.0474 38.2061 45.2328 37.1429 45.2328 36.6484C45.2328 37.3902 46.0982 37.9465 46.5309 38.1319C45.6408 38.2803 45.4183 39.0591 45.4183 39.43C45.4183 38.8366 44.6765 38.5646 44.3057 38.5028Z" fill="#FFBF1E"/>
<path d="M10.3495 22.2537C10.1732 22.2322 10.4428 21.7354 10.3358 22.1931C10.2766 22.4458 10.2219 22.7033 10.1565 22.9542C10.0429 23.3902 9.763 23.6506 9.49477 23.9982C9.28356 24.2718 8.96876 24.5064 8.64689 24.6448C8.47229 24.7198 8.25804 24.7289 8.1161 24.8603C8.05398 24.9178 7.93963 25.0354 7.84381 25.0354C7.46635 25.0354 8.61936 25.0936 8.95019 25.2712C9.47334 25.5519 9.87814 26.0448 10.1496 26.5576C10.3138 26.8677 10.5815 27.1906 10.6839 27.5242C10.7685 27.7997 10.7218 27.8839 10.7218 27.5141C10.7218 26.9293 10.7785 26.3522 11.1009 25.8403C11.3503 25.4444 11.7626 25.1772 12.1487 24.9209C12.1749 24.9035 12.4879 24.6837 12.483 24.6818C11.8703 24.4424 11.3815 24.1593 11.2801 23.4661" stroke="black" stroke-linecap="round"/>
<path d="M8.71642 37.186C8.6301 37.1968 8.50388 38.223 8.48274 38.3031C8.33308 38.8707 7.95784 39.4265 7.3628 39.5712C6.8304 39.7007 7.22433 39.6687 7.50814 39.7223C8.26124 39.8644 8.71283 40.4948 9.04413 41.1329C9.10137 41.2431 9.36385 42.064 9.3861 41.6857C9.42716 40.9877 9.77248 40.2168 10.2952 39.7451C10.4037 39.6471 11.1375 39.4295 10.8423 39.3262C10.3064 39.1386 9.77659 38.7074 9.8962 38.1093" stroke="black" stroke-linecap="round"/>
<path d="M44.1973 42.4624C44.1973 43.0309 44.0711 43.5162 43.8071 44.0232C43.5737 44.4717 42.9727 45.0693 42.4816 45.2249C42.3671 45.2611 42.0988 45.3921 41.9799 45.3921C41.912 45.3921 42.1082 45.3456 42.175 45.3332C42.6091 45.2529 43.0024 45.3547 43.3487 45.6336C43.764 45.968 44.2305 46.4653 44.4389 46.9653C44.5097 47.1354 44.5229 47.2416 44.4884 47.0087C44.3662 46.184 45.0006 45.4897 45.5785 44.9957C45.9366 44.6896 46.0497 44.8612 45.6095 44.5993C45.0727 44.2799 44.3645 43.5104 44.3645 42.8526" stroke="black" stroke-linecap="round"/>
<path d="M45.0833 36.8726C45.0833 37.3985 44.6654 38.1143 44.2351 38.4066C44.1867 38.4394 43.8555 38.5527 44.0519 38.4982C44.4031 38.4006 44.7581 38.6631 44.921 38.9563C44.9765 39.0563 45.1716 39.8626 45.2482 39.616C45.3921 39.1523 45.4679 38.6866 45.8005 38.3071C45.9056 38.1872 46.0337 38.0661 46.167 37.9773C46.1891 37.9625 46.3487 37.9138 46.3267 37.883C46.2433 37.7662 46.1099 37.7058 46.0257 37.5794" stroke="black" stroke-linecap="round"/>
</svg>
