<svg width="360" height="584" viewBox="0 0 360 584" fill="none" xmlns="http://www.w3.org/2000/svg">
<path d="M45.3663 250C44.211 250.578 43.4247 251.413 42.4893 252.29C42.0141 252.736 41.5586 253.681 41 253.96" stroke="#489B6D" stroke-width="4" stroke-linecap="round"/>
<path d="M45.3663 514C44.211 514.578 43.4247 515.413 42.4893 516.29C42.0141 516.736 41.5586 517.681 41 517.96" stroke="#489B6D" stroke-width="4" stroke-linecap="round"/>
<path d="M51.0527 251.828C50.5214 252.278 49.9861 252.564 49.5239 253.103C49.1303 253.562 48.7831 254.032 48.5142 254.57" stroke="#489B6D" stroke-width="4" stroke-linecap="round"/>
<path d="M51.0527 515.828C50.5214 516.278 49.9861 516.564 49.5239 517.103C49.1303 517.562 48.7831 518.032 48.5142 518.57" stroke="#489B6D" stroke-width="4" stroke-linecap="round"/>
<path d="M308.539 226C308.007 226.45 307.472 226.736 307.01 227.275C306.616 227.734 306.269 228.204 306 228.742" stroke="#489B6D" stroke-width="4" stroke-linecap="round"/>
<path d="M308.539 490C308.007 490.45 307.472 490.736 307.01 491.275C306.616 491.734 306.269 492.204 306 492.742" stroke="#489B6D" stroke-width="4" stroke-linecap="round"/>
<path d="M60.496 252.336C59.8541 252.575 59.3422 253.006 58.7698 253.374C58.461 253.572 58.2155 253.871 57.856 253.961" stroke="#489B6D" stroke-width="4" stroke-linecap="round"/>
<path d="M60.496 516.336C59.8541 516.575 59.3422 517.006 58.7698 517.374C58.461 517.572 58.2155 517.871 57.856 517.961" stroke="#489B6D" stroke-width="4" stroke-linecap="round"/>
<path d="M65.5732 253.249C65.5334 253.567 65.167 253.807 65.167 254.163" stroke="#489B6D" stroke-width="4" stroke-linecap="round"/>
<path d="M65.5732 517.249C65.5334 517.567 65.167 517.807 65.167 518.163" stroke="#489B6D" stroke-width="4" stroke-linecap="round"/>
<path d="M83.2086 87C81.0705 89.4232 79.0608 91.9621 77 94.4503" stroke="#489B6D" stroke-width="4" stroke-linecap="round"/>
<path d="M83.2086 351C81.0705 353.423 79.0608 355.962 77 358.45" stroke="#489B6D" stroke-width="4" stroke-linecap="round"/>
<path d="M88.9737 90.3701C88.4774 91.2291 88.1409 92.1902 87.8009 93.1196C87.6037 93.6588 87.4155 94.4369 87.1111 94.8935" stroke="#489B6D" stroke-width="4" stroke-linecap="round"/>
<path d="M88.9737 354.37C88.4774 355.229 88.1409 356.19 87.8009 357.12C87.6037 357.659 87.4155 358.437 87.1111 358.894" stroke="#489B6D" stroke-width="4" stroke-linecap="round"/>
<path d="M94.2067 91.3457C94.1441 92.0963 93.7632 92.7933 93.7632 93.5631" stroke="#489B6D" stroke-width="4" stroke-linecap="round"/>
<path d="M94.2067 355.346C94.1441 356.096 93.7632 356.793 93.7632 357.563" stroke="#489B6D" stroke-width="4" stroke-linecap="round"/>
<path d="M103.608 90.2812C103.51 90.3919 103.431 90.4887 103.431 90.636" stroke="#489B6D" stroke-width="4" stroke-linecap="round"/>
<path d="M103.608 354.281C103.51 354.392 103.431 354.489 103.431 354.636" stroke="#489B6D" stroke-width="4" stroke-linecap="round"/>
<path d="M299.776 225C299.447 225.051 299.09 225.102 298.794 225.266C296.758 226.394 294.89 227.979 293 229.318" stroke="#489B6D" stroke-width="4" stroke-linecap="round"/>
<path d="M299.776 489C299.447 489.051 299.09 489.102 298.794 489.266C296.758 490.394 294.89 491.979 293 493.318" stroke="#489B6D" stroke-width="4" stroke-linecap="round"/>
<path d="M318.841 226.062C318.827 226.181 318.774 226.267 318.774 226.395" stroke="#489B6D" stroke-width="4" stroke-linecap="round"/>
<path d="M318.841 490.062C318.827 490.181 318.774 490.267 318.774 490.395" stroke="#489B6D" stroke-width="4" stroke-linecap="round"/>
<path d="M237.04 65C236.184 65.8182 234.706 67.2175 233.82 68.1035C233.358 68.5654 232.856 69.0391 232.533 69.6164C232.344 69.9532 232.203 70.2909 232.105 70.6626C232.048 70.8781 232 71.0043 232 71.2304" stroke="#489B6D" stroke-width="4" stroke-linecap="round"/>
<path d="M237.04 329C236.184 329.818 234.706 331.217 233.82 332.104C233.358 332.565 232.856 333.039 232.533 333.616C232.344 333.953 232.203 334.291 232.105 334.663C232.048 334.878 232 335.004 232 335.23" stroke="#489B6D" stroke-width="4" stroke-linecap="round"/>
<path d="M243.621 67.4502C242.733 67.6761 241.996 68.585 241.365 69.2159C241.042 69.5392 240.586 69.9279 240.471 70.3904" stroke="#489B6D" stroke-width="4" stroke-linecap="round"/>
<path d="M243.621 331.45C242.733 331.676 241.996 332.585 241.365 333.216C241.042 333.539 240.586 333.928 240.471 334.39" stroke="#489B6D" stroke-width="4" stroke-linecap="round"/>
<path d="M255.032 68.29C254.17 68.5396 253.401 69.2417 253.001 70.0402" stroke="#489B6D" stroke-width="4" stroke-linecap="round"/>
<path d="M255.032 332.29C254.17 332.54 253.401 333.242 253.001 334.04" stroke="#489B6D" stroke-width="4" stroke-linecap="round"/>
<path d="M169.202 161C168.282 161.772 167.291 162.458 166.386 163.248C165.864 163.705 165.122 164.285 165 165.018" stroke="#489B6D" stroke-width="4" stroke-linecap="round"/>
<path d="M169.202 425C168.282 425.772 167.291 426.458 166.386 427.248C165.864 427.705 165.122 428.285 165 429.018" stroke="#489B6D" stroke-width="4" stroke-linecap="round"/>
<path d="M175.358 163.728C174.988 163.991 174.657 164.306 174.342 164.631C174.048 164.934 173.676 165.182 173.441 165.534" stroke="#489B6D" stroke-width="4" stroke-linecap="round"/>
<path d="M175.358 427.728C174.988 427.991 174.657 428.306 174.342 428.631C174.048 428.934 173.676 429.182 173.441 429.534" stroke="#489B6D" stroke-width="4" stroke-linecap="round"/>
<path d="M180.665 164.87C180.665 165.239 180.591 165.606 180.591 165.976" stroke="#489B6D" stroke-width="4" stroke-linecap="round"/>
<path d="M180.665 428.87C180.665 429.239 180.591 429.606 180.591 429.976" stroke="#489B6D" stroke-width="4" stroke-linecap="round"/>
<path d="M187.115 164.944C187.115 165.084 187.079 165.214 187.079 165.35" stroke="#489B6D" stroke-width="4" stroke-linecap="round"/>
<path d="M187.115 428.944C187.115 429.084 187.079 429.214 187.079 429.35" stroke="#489B6D" stroke-width="4" stroke-linecap="round"/>
</svg>
