<svg width="420" height="98" viewBox="0 0 420 98" fill="none" xmlns="http://www.w3.org/2000/svg">
<path d="M67.2021 23.2588C66.5207 23.3827 65.5552 24.2427 66.5926 23.335C66.783 23.1684 66.0719 23.8501 65.983 23.9446C65.5306 24.4252 66.395 24.0255 66.5164 23.9446" stroke="#957F5D" stroke-width="2.5" stroke-linecap="round"/>
<path d="M104.919 27.3738C104.531 28.5865 104.384 29.5038 105.624 28.5739C106.267 28.0915 107.638 25.1449 106.615 26.0404C106.279 26.334 104.153 28.7835 104.653 29.3549C105.11 29.8771 105.605 27.9683 105.605 27.7167" stroke="#957F5D" stroke-width="2.5" stroke-linecap="round"/>
<path d="M133.379 59.2617C133.379 59.6001 133.678 61.6396 133.722 60.5571C133.748 59.8925 133.379 58.6595 133.379 59.9475" stroke="#957F5D" stroke-width="2.5" stroke-linecap="round"/>
<path d="M195.098 26.345C194.503 27.0149 194.129 29.2629 195.27 27.8689C195.445 27.655 196.913 25.4908 196.736 25.4687C196.262 25.4094 195.883 26.7327 195.784 27.0308" stroke="#957F5D" stroke-width="2.5" stroke-linecap="round"/>
<path d="M274.99 63.7196C275.548 64.3119 277.562 67.3619 276.971 64.8245C276.839 64.2558 274.647 60.9198 274.647 62.691" stroke="#957F5D" stroke-width="2.5" stroke-linecap="round"/>
<path d="M302.764 24.9736C302.232 25.5726 302.398 26.1998 302.764 26.8405C302.974 27.2085 303.833 26.1538 304.136 26.0023" stroke="#957F5D" stroke-width="2.5" stroke-linecap="round"/>
<path d="M352.14 2C351.765 2.42106 351.644 2.78081 352.14 3.02866" stroke="#957F5D" stroke-width="2.5" stroke-linecap="round"/>
<path d="M379.913 77.0918C379.597 77.1313 379.686 77.2031 379.57 77.4347" stroke="#957F5D" stroke-width="2.5" stroke-linecap="round"/>
<path d="M175.897 95.9502C175.799 94.9766 173.125 90.1797 175.897 91.9117C177.221 92.7393 177.679 93.9616 176.24 94.9215" stroke="#957F5D" stroke-width="2.5" stroke-linecap="round"/>
<path d="M98.4045 57.8903C98.4045 56.1 98.9882 57.0658 98.4045 58.2332" stroke="#957F5D" stroke-width="2.5" stroke-linecap="round"/>
<path d="M115.647 32.9189C116.255 32.9189 116.366 35.1644 115.647 32.9189" stroke="#DEB883" stroke-width="2.5" stroke-linecap="round"/>
<path d="M189.118 18.5547C189.062 19.0592 188.882 20.5667 188.882 20.0591C188.882 19.4947 188.971 18.8344 188.411 18.5547" stroke="#DEB883" stroke-width="2.5" stroke-linecap="round"/>
<path d="M187.704 71.3027C187.655 71.6978 187.204 73.2275 187.704 72.1008C188.229 70.92 187.469 71.7909 187.469 72.4801" stroke="#DEB883" stroke-width="2.5" stroke-linecap="round"/>
<path d="M41.7064 89.4348C41.6274 90.0676 41.657 89.9357 42.426 90.2721C43.0655 90.5519 43.3035 91.1243 43.9435 90.6122C44.2888 90.336 44.0471 89.2501 43.5903 89.1993C42.7248 89.1032 41.8817 88.9639 41 88.9639" stroke="#DEB883" stroke-width="2.5" stroke-linecap="round"/>
<path d="M279.778 26.5618C279.323 26.6186 279.403 27.6524 280.131 27.4906C280.888 27.3224 280.834 26.6163 280.484 26.0908" stroke="#DEB883" stroke-width="2.5" stroke-linecap="round"/>
<path d="M340.767 23.5C340.747 23.7161 340.39 25.3556 340.649 25.1484C340.969 24.8928 341.112 24.5836 341.238 24.2064" stroke="#DEB883" stroke-width="2.5" stroke-linecap="round"/>
<path d="M358.664 71.5387C358.706 71.7888 359.135 70.0663 359.135 70.3613" stroke="#DEB883" stroke-width="2.5" stroke-linecap="round"/>
</svg>
