<svg width="27" height="28" viewBox="0 0 27 28" fill="none" xmlns="http://www.w3.org/2000/svg">
<path d="M7.18318 7.00292C8.70656 5.2824 12.3997 2.9563 14.2866 2.02173C14.2866 2.02173 14.8832 2.61948 15.0474 2.6664C15.4959 2.79455 16.1389 3.36089 16.5049 3.65543C17.9568 4.824 19.5572 5.83512 20.7173 7.35529C21.52 8.4071 22.5307 9.34097 23.2519 10.4505C23.8801 11.417 24.5944 12.3271 25.242 13.2815C25.3369 13.4213 26.1835 14.7508 25.8026 14.779C25.4613 14.8043 25.066 14.8224 24.7295 14.8871C24.0748 15.013 23.3668 14.8956 22.7034 14.9392C22.3182 14.9645 21.9585 15.0673 21.5702 15.0673C21.3286 15.0673 21.3499 15.6677 21.3499 15.8601C21.3499 17.4481 21.1337 19.0287 21.1337 20.6171C21.1337 21.7162 20.9575 22.8015 20.9215 23.9005C20.9032 24.4588 20.8577 25.0037 20.7894 25.5582C20.7708 25.7084 20.7943 26.1086 20.6292 26.1829C20.2391 26.3585 19.6908 26.311 19.2598 26.311C17.7708 26.311 16.2655 26.3781 14.7871 26.1669C12.6155 25.8566 10.35 25.8786 8.1602 25.8786C7.6708 25.8786 7.72775 25.6701 7.72775 25.2299C7.72775 23.4468 7.39509 21.6983 6.97496 19.9684C6.71287 18.8892 6.57455 17.7665 6.57455 16.657C6.57455 16.2185 6.56854 15.7901 6.6306 15.3556C6.64647 15.2446 6.7108 14.8953 6.6306 14.795C6.54591 14.6892 6.2751 14.7126 6.17813 14.7069C5.64321 14.6755 5.10811 14.6497 4.57246 14.6349C3.72344 14.6113 2.86447 14.6217 2.0178 14.5468C1.87123 14.5338 1.63271 14.5257 1.50526 14.4347C1.44289 14.3901 1.95469 13.7833 1.99377 13.7379C2.27258 13.4145 2.48111 13.0473 2.6905 12.6768C3.86252 10.6033 5.61401 8.77515 7.18318 7.00292Z" stroke="black" stroke-width="2" stroke-linecap="round"/>
</svg>
