<svg width="334" height="162" viewBox="0 0 334 162" fill="none" xmlns="http://www.w3.org/2000/svg">
<path d="M106.813 69.3435C109.611 78.8435 115.185 86.2372 117.075 87.4972C117.075 90.4292 116.888 95.0299 115.599 97.609C114.908 98.9893 114.412 101.316 113.134 102.338C112.366 102.952 111.604 104.233 110.544 104.365C109.518 104.493 108.727 107.321 109.318 108.081C110.477 109.571 113.171 109.094 114.935 109.094C116.805 109.094 118.509 109.199 120.203 108.369C121.807 107.582 123.6 107.458 125.182 106.667C126.237 106.14 127.267 105.152 128.197 104.403C130.687 102.397 133.352 99.8192 135.992 98.0594C138.186 100.497 140.989 102.675 142.86 105.378C144.158 107.252 146.138 109.5 148.265 110.445C150.974 111.649 153.466 113.505 156.66 112.522C157.878 112.148 159.1 111.829 160.088 110.896C160.943 110.088 162.409 108.467 163.406 107.968H193.593C194.604 107.968 196.426 107.702 197.021 108.744C197.469 109.528 198.268 110.435 198.961 111.021C200.565 112.379 203.167 112.578 205.141 112.71C205.959 112.764 206.49 112.858 207.268 112.685C207.747 112.578 208.14 112.141 208.619 112.034C209.526 111.833 209.926 110.912 210.759 110.495C211.572 110.089 212.342 109.484 213.049 108.929L213.061 108.919C214.517 107.774 217.518 107.637 218.416 106.066C218.861 105.286 219.295 104.38 219.767 103.614C220.223 102.872 219.992 101.59 219.992 100.712C219.992 99.4175 218.311 99.8609 217.34 99.8609C216.777 99.8609 215.736 99.4873 214.736 99.1741C215.395 98.4422 215.612 96.9358 216.051 96.1452C217.331 93.8414 216.839 90.2206 216.839 87.6501C216.839 84.7955 215.766 81.7365 214.012 79.4803C213.266 78.5215 212.266 77.6257 211.66 76.5652C211.216 75.7887 209.359 75.0562 209.236 74.0796C210.581 71.3212 210.468 67.3579 210.468 64.6025C210.468 59.7816 206.692 45.8187 202.736 39.6742C201.765 38.5082 191.736 24.0908 174.236 18.6741C153.236 12.1742 135.476 18.7208 132.491 20.0475C130.611 20.8828 128.487 21.8984 126.828 23.0969C112.236 31.6741 107.251 42.6127 106.813 45.2413C104.111 55.3435 104.698 59.3435 106.813 69.3435Z" fill="white"/>
<path d="M121.165 89.6511C119.247 89.6511 118.487 88.4391 117.075 87.4972M117.075 87.4972C115.185 86.2372 109.611 78.8435 106.813 69.3435C104.698 59.3435 104.111 55.3435 106.813 45.2413C107.251 42.6127 112.236 31.6741 126.828 23.0969C128.487 21.8984 130.611 20.8828 132.491 20.0475C135.476 18.7208 153.236 12.1742 174.236 18.6741C191.736 24.0908 201.765 38.5082 202.736 39.6742C206.692 45.8187 210.468 59.7816 210.468 64.6025C210.468 67.8867 210.629 72.8868 208.29 75.5174C206.291 77.7662 205.026 81.2638 202.191 82.6811M117.075 87.4972C117.075 90.4292 116.888 95.0299 115.599 97.609C114.908 98.9893 114.412 101.316 113.134 102.338C112.366 102.952 111.604 104.233 110.544 104.365C109.518 104.493 108.727 107.321 109.318 108.081C110.477 109.571 113.171 109.094 114.935 109.094C116.805 109.094 118.509 109.199 120.203 108.369C121.807 107.582 123.6 107.458 125.182 106.667C126.237 106.14 127.267 105.152 128.197 104.403C130.687 102.397 133.352 99.8192 135.992 98.0594C138.186 100.497 140.989 102.675 142.86 105.378C144.158 107.252 146.138 109.5 148.265 110.445C150.974 111.649 153.466 113.505 156.66 112.522C157.878 112.148 159.1 111.829 160.088 110.896C160.943 110.088 162.409 108.467 163.406 107.968H193.593C194.604 107.968 196.426 107.702 197.021 108.744C197.469 109.528 198.268 110.435 198.961 111.021C200.565 112.379 203.167 112.578 205.141 112.71C205.959 112.764 206.49 112.858 207.268 112.685C207.747 112.578 208.14 112.141 208.619 112.034C209.526 111.833 209.926 110.912 210.759 110.495C211.572 110.089 212.342 109.484 213.049 108.929L213.061 108.919C214.517 107.774 217.518 107.637 218.416 106.066C218.861 105.286 219.295 104.38 219.767 103.614C220.223 102.872 219.992 101.59 219.992 100.712C219.992 99.4175 218.311 99.8609 217.34 99.8609C216.777 99.8609 215.736 99.4873 214.736 99.1741M209.236 74.0796C209.359 75.0562 211.216 75.7886 211.66 76.5652C212.266 77.6257 213.266 78.5215 214.012 79.4803C215.766 81.7365 216.839 84.7955 216.839 87.6501C216.839 90.2206 217.331 93.8414 216.051 96.1452C215.612 96.9358 215.395 98.4422 214.736 99.1741M214.736 99.1741C214.06 99.9261 213.094 100.511 212.786 101.437" stroke="black" stroke-width="3" stroke-linecap="round"/>
<path d="M167.43 77.0035C167.248 81.0115 167.736 87.1582 167.736 91.1742C167.414 89.7378 162.527 92.2569 162.22 93.4273C162.226 93.5113 162.231 93.5937 162.236 93.6742C162.2 93.6018 162.196 93.5187 162.22 93.4273C161.974 89.6163 161.666 82.2936 161.796 78.6387C161.831 77.6509 162.874 77.5245 163.636 77.3229C164.278 77.153 165.131 76.8886 165.769 76.8886C166.244 76.8886 167.034 76.7399 167.43 77.0035Z" fill="#81685A" stroke="black" stroke-width="3" stroke-linecap="round"/>
<path d="M177.669 70.8284C177.975 69.1445 177.681 67.6631 177.681 65.932C177.38 65.7813 176.758 61.9138 176.495 61.389C175.96 60.3192 175.243 59.1397 174.451 58.2593C172.583 56.1834 170.196 54.3082 167.236 53.6741C160.236 52.1742 153.736 54.674 151.105 61.0608C149.736 69.174 152.675 71.7878 152.909 73.0747C153.334 75.41 154.042 76.3255 156.216 77.1761C157.873 77.8248 159.985 79.5612 161.781 79.5612C165.449 79.5612 169.63 79.813 172.596 77.4916C174.806 75.7616 177.139 73.7428 177.669 70.8284Z" fill="#9EDCDD" stroke="black" stroke-width="3" stroke-linecap="round"/>
<path d="M158.915 64.8901C158.967 64.6069 159.175 64.2908 159.281 64.0282C159.325 63.9026 159.371 63.802 159.423 63.6852C159.505 63.4986 159.706 63.2986 159.854 63.1684C160.017 63.0243 160.106 62.8626 160.295 62.7453C161.391 62.0654 162.802 62.1818 164.048 62.1818C164.504 62.1818 165.041 62.1608 165.475 62.351C165.841 62.5118 166.187 62.7426 166.544 62.9257C167.276 63.3021 168.045 64.0282 168.527 64.6986C168.985 65.8283 168.631 67.1623 168.045 68.182C167.702 68.7789 167.388 69.3497 166.915 69.8614C166.384 70.4352 165.716 70.8397 164.951 71.0196C164.315 71.1693 163.774 71.2122 163.118 71.1398C162.171 71.0354 161.196 70.8863 160.302 70.5407C159.688 70.3036 159.233 70.0247 158.946 69.4159C158.667 68.8251 158.747 68.0439 158.747 67.4114C158.747 66.5577 158.76 65.7317 158.915 64.8901Z" fill="black" stroke="black" stroke-width="3" stroke-linecap="round"/>
<path d="M125.063 68.6238C124.837 68.6238 124.123 69.1722 124.37 69.3963C124.521 69.5338 124.985 69.653 125.186 69.7123C125.372 69.767 125.496 69.82 125.696 69.8089C125.839 69.801 126.462 69.6399 126.547 69.5543C126.945 69.1568 125.404 68.7028 125.142 68.7028" stroke="black" stroke-width="3" stroke-linecap="round"/>
<path d="M142.781 78.1757C143.615 77.4036 144.652 76.1653 145.883 76.1197C147.025 75.8342 148.947 76.2936 150.09 76.3151C151.106 76.3343 152.189 76.9445 153.094 77.3576C154.17 77.8491 154.923 78.483 155.689 79.41C156.047 79.8431 156.173 80.3335 156.294 80.876C156.458 81.6173 156.299 82.6831 156.08 83.3881C155.835 84.1794 155.657 85.0153 155.15 85.6975C154.691 86.3153 154.186 86.9739 153.546 87.4168C152.889 87.8719 151.787 88.0293 151.002 88.0431C149.328 88.0724 147.621 88.1263 145.956 87.9453C145.084 87.8505 144.374 87.5479 143.683 87.0006C142.967 86.4343 142.137 85.5303 141.844 84.6514C141.472 83.5356 141.388 82.413 141.388 81.238C141.388 80.6421 141.396 80.0205 141.677 79.4788C141.952 78.9509 142.355 78.5706 142.781 78.1757Z" fill="#FEBE31" stroke="black" stroke-width="3" stroke-linecap="round"/>
<path d="M135.915 83.6125C137.413 83.6125 138.904 83.254 140.396 83.142C141.604 83.0513 142.83 82.9362 144.041 82.8995C144.641 82.8813 145.234 82.905 145.833 82.8452C146.686 82.7599 147.563 82.5701 148.424 82.5701" stroke="black" stroke-width="3" stroke-linecap="round"/>
<path d="M178.812 89.3058C178.189 89.3624 177.558 89.9626 177.043 90.2767C176.31 90.7238 175.659 91.2437 174.909 91.6628C174.193 92.0633 173.396 92.4101 172.578 92.4101C171.47 92.4101 170.503 92.1925 169.442 91.9566C168.468 91.7401 167.535 91.2582 166.561 91.056C165.69 90.8752 164.943 90.4537 164.21 91.1454C163.75 91.5803 163.526 92.0502 163.24 92.5826C163.058 92.919 163.028 93.3622 162.888 93.7195C162.754 94.0624 162.527 94.3655 162.428 94.7224C161.914 96.5731 162.473 97.8747 163.757 99.3724C164.42 100.146 165.62 100.871 166.484 101.378C167.31 101.863 168.272 102.608 169.225 102.815C170.64 103.123 172.003 103.236 173.447 103.218C174.636 103.203 175.79 102.794 176.922 102.477C178.27 102.099 181.259 101.741 181.802 100.113" stroke="black" stroke-width="3" stroke-linecap="round"/>
<path d="M171.886 61.7471C172.096 62.0621 172.37 62.3229 172.566 62.6472C172.72 62.9023 172.86 63.1494 172.973 63.4252C173.427 64.5277 173.481 65.6653 173.554 66.8405C173.614 67.8072 173.554 68.7683 173.389 69.7201C173.305 70.2023 173.135 70.6997 172.839 71.0948" stroke="white" stroke-width="3" stroke-linecap="round"/>
<path d="M170.53 73.9908C170.451 73.9908 170.441 74.035 170.383 74.0642" stroke="white" stroke-width="3" stroke-linecap="round"/>
<path d="M164.284 64.7777C164.252 64.6826 164.24 64.3299 164.371 64.3154C164.615 64.1011 164.919 64.0709 165.076 64.1036C165.221 64.1341 165.505 64.2253 165.617 64.3317C166.093 64.7826 166.195 65.5755 166.123 66.189C166.11 66.2922 165.936 66.8448 165.764 66.7633C165.642 66.7053 165.54 66.5073 165.467 66.4008C165.357 66.2411 165.215 66.1061 165.104 65.9487C164.939 65.7153 164.783 65.4905 164.599 65.2685C164.481 65.1252 164.343 64.9554 164.284 64.7777Z" fill="white" stroke="white" stroke-width="3" stroke-linecap="round"/>
<path d="M160.962 67.3191C160.944 67.4629 160.82 67.6162 160.815 67.7794C160.81 67.9838 160.828 68.151 160.88 68.3455C160.958 68.6318 161.068 68.7487 161.365 68.7487C161.766 68.7487 161.395 68.1987 161.329 68.0685C161.227 67.8713 161.097 67.6999 160.999 67.5024" stroke="white" stroke-width="3" stroke-linecap="round"/>
<path d="M219.342 94.8349C219.017 94.6722 217.893 94.5502 217.559 94.3992C217.028 94.5762 216.434 94.5841 216.089 95.1023C215.437 96.0792 215.465 97.4555 215.465 98.581V99.7224C215.465 100.636 215.46 101.663 215.697 102.555C215.97 103.578 216.558 104.394 217.193 105.219C217.591 105.736 218.192 106.089 218.651 106.548C219.207 107.104 219.957 107.5 220.711 107.744C221.146 107.885 221.545 107.784 221.967 107.626C222.901 107.275 223.437 106.627 223.91 105.764C224.716 104.292 224.279 102.353 223.833 100.861C223.352 99.2512 222.372 97.6938 221.211 96.4888C220.632 95.8869 220.092 95.2097 219.342 94.8349Z" fill="#FEBE31" stroke="black" stroke-width="3" stroke-linecap="round"/>
<path d="M105.275 107.407C105.571 107.407 105.783 107.497 106.041 107.647C106.975 108.189 107.871 108.897 108.673 109.617C109.272 110.154 109.854 110.839 110.519 111.283" stroke="#489B6D" stroke-width="3" stroke-linecap="round"/>
<path d="M111.83 107.35C111.972 107.388 112.116 107.532 112.235 107.612C112.715 107.936 113.129 108.373 113.489 108.822C113.871 109.298 114.091 109.856 114.281 110.428" stroke="#489B6D" stroke-width="3" stroke-linecap="round"/>
<path d="M117.188 107.122C117.243 107.784 117.67 108.399 117.783 109.063C117.879 109.623 117.986 110.199 117.986 110.77" stroke="#489B6D" stroke-width="3" stroke-linecap="round"/>
<path d="M143.876 110.534C143.933 110.741 144.277 110.916 144.432 111.03C144.911 111.381 145.38 111.742 145.834 112.125C146.362 112.568 147.01 113.075 147.275 113.738" stroke="#489B6D" stroke-width="3" stroke-linecap="round"/>
<path d="M150.916 110.242C150.76 111.49 151.013 112.732 151.013 113.98" stroke="#489B6D" stroke-width="3" stroke-linecap="round"/>
<path d="M155.236 110.582C154.919 111.612 154.993 112.723 154.993 113.786" stroke="#489B6D" stroke-width="3" stroke-linecap="round"/>
<path d="M160.091 111.213C159.799 111.304 159.521 111.55 159.282 111.731C158.833 112.071 158.421 112.433 158.068 112.874C157.877 113.114 157.706 113.391 157.599 113.678C157.554 113.799 157.54 113.923 157.469 114.029" stroke="#489B6D" stroke-width="3" stroke-linecap="round"/>
<path d="M197.636 114.18C197.859 113.786 198.181 113.461 198.473 113.118C198.924 112.587 199.357 112.042 199.833 111.532C200.233 111.105 200.599 110.791 201.097 110.5" stroke="#489B6D" stroke-width="3" stroke-linecap="round"/>
<path d="M202.14 114.235C202.167 114.1 202.328 113.955 202.409 113.857C202.749 113.445 203.132 113.07 203.525 112.71C204.765 111.574 206.097 110.617 207.523 109.731" stroke="#489B6D" stroke-width="3" stroke-linecap="round"/>
<path d="M207.798 114.235C207.879 114.217 207.919 114.12 207.975 114.064C208.189 113.85 208.457 113.685 208.719 113.539C209.821 112.926 210.943 112.491 212.137 112.093" stroke="#489B6D" stroke-width="3" stroke-linecap="round"/>
<path d="M212.137 115.444C212.363 115.423 212.583 115.285 212.802 115.227C213.111 115.145 213.412 115.114 213.73 115.114" stroke="#489B6D" stroke-width="3" stroke-linecap="round"/>
<path d="M2.01404 67.871C3.42766 68.5778 5.56178 69.6134 5.56178 71.4187" stroke="#489B6D" stroke-width="3" stroke-linecap="round"/>
<path d="M7.33569 67.4275C8.27141 68.4802 8.95094 70.2145 9.55303 71.4187" stroke="#489B6D" stroke-width="3" stroke-linecap="round"/>
<path d="M16.6485 67.871C16.5107 69.2495 15.3181 70.1099 15.3181 71.4187" stroke="#489B6D" stroke-width="3" stroke-linecap="round"/>
<path d="M21.5266 70.0883C20.985 70.156 21.1134 70.7383 20.6396 70.9752" stroke="#489B6D" stroke-width="3" stroke-linecap="round"/>
<path d="M279.316 130.426C280.591 130.71 281.134 132.906 281.778 133.873" stroke="#489B6D" stroke-width="3" stroke-linecap="round"/>
<path d="M286.209 128.949V132.396" stroke="#489B6D" stroke-width="3" stroke-linecap="round"/>
<path d="M294.24 131.196C293.627 131.273 292.978 133.131 292.856 133.619" stroke="#489B6D" stroke-width="3" stroke-linecap="round"/>
<path d="M301.853 133.273C301.833 133.432 301.797 133.387 301.68 133.446" stroke="#489B6D" stroke-width="3" stroke-linecap="round"/>
<path d="M251.503 1.5C252.342 2.57538 253.119 3.68725 253.87 4.81432" stroke="#489B6D" stroke-width="3" stroke-linecap="round"/>
<path d="M256.764 2.4469C256.764 3.28833 256.896 3.6569 257.238 4.3408" stroke="#489B6D" stroke-width="3" stroke-linecap="round"/>
<path d="M260.972 2.4469C260.972 3.10439 260.856 3.33208 260.499 3.86732" stroke="#489B6D" stroke-width="3" stroke-linecap="round"/>
<path d="M321.437 56.5101C321.359 57.2919 320.398 60.1754 319.864 60.4423" stroke="#489B6D" stroke-width="3" stroke-linecap="round"/>
<path d="M326.19 56.9034C326.19 57.7119 325.796 58.1275 325.796 58.8695" stroke="#489B6D" stroke-width="3" stroke-linecap="round"/>
<path d="M314 58.083C314.48 58.143 314.366 58.6594 314.786 58.8694" stroke="#489B6D" stroke-width="3" stroke-linecap="round"/>
<path d="M332.481 58.8695C332.202 58.9044 331.939 59.1406 331.695 59.2627" stroke="#489B6D" stroke-width="3" stroke-linecap="round"/>
<circle cx="85" cy="143.844" r="13.75" fill="#FFC8B7" stroke="#1E1E1E" stroke-width="2.5"/>
<path d="M78.0973 143.251C78.15 142.57 78.4275 142.136 78.8221 141.598C79.2527 141.215 79.8376 141.32 80.1182 141.352C80.4931 141.395 81.0807 141.787 80.9816 142.224C80.8489 142.809 80.4676 143.287 80.0085 143.677C79.6692 143.966 79.0657 144.348 78.582 144.211C78.232 144.111 78.0736 143.558 78.0973 143.251Z" fill="#FEBE31" stroke="#1E1E1E" stroke-width="2.5" stroke-linecap="round"/>
<path d="M77.7538 145.5C78.3125 144.578 78.8907 143.67 79.4804 142.765" stroke="#1E1E1E" stroke-width="2.5" stroke-linecap="round"/>
<path d="M82.3376 135.771C82.4718 135.859 82.91 135.619 82.7649 135.552C82.7013 135.522 82.4999 135.643 82.4554 135.678" stroke="#1E1E1E" stroke-width="2.5" stroke-linecap="round"/>
<path d="M75.008 142.636C74.9789 142.681 74.6572 143.093 74.77 143.166C74.8155 143.196 75.0415 142.769 75.0488 142.706" stroke="#1E1E1E" stroke-width="2.5" stroke-linecap="round"/>
<path d="M84.4829 135.382C84.5452 135.414 84.696 135.393 84.7641 135.38C85.1101 135.319 85.4411 135.206 85.7837 135.123C86.0147 135.067 86.2477 134.963 86.4844 134.933C86.678 134.909 86.8569 134.838 87.0489 134.809C87.3828 134.758 87.7384 134.742 88.08 134.74C88.5052 134.738 88.9493 134.73 89.3741 134.787C89.8181 134.847 90.2758 134.849 90.7102 134.979C90.9866 135.061 91.2647 135.137 91.5271 135.26C91.6412 135.314 91.7733 135.358 91.8801 135.425C91.9165 135.447 92.041 135.529 92.0766 135.509" stroke="#61C5FD" stroke-width="2.5" stroke-linecap="round"/>
<circle cx="52" cy="131.844" r="11.75" fill="#FFB7E7" stroke="#1E1E1E" stroke-width="2.5"/>
<path d="M56.7047 126.061C56.9223 126.166 57.0855 126.245 57.2945 126.347" stroke="black" stroke-width="2.5" stroke-linecap="round"/>
<path d="M51.2384 124.408C50.9975 124.387 50.8169 124.371 50.5854 124.351" stroke="black" stroke-width="2.5" stroke-linecap="round"/>
<path d="M53.1761 126.744C53.2767 126.724 53.3997 126.688 53.4998 126.712C53.6321 126.742 53.7583 126.819 53.8809 126.881C53.9514 126.916 54.0022 126.959 54.0583 127.014C54.0976 127.053 54.1075 127.127 54.1324 127.175C54.1636 127.235 54.1656 127.329 54.1731 127.397C54.1841 127.497 54.1678 127.591 54.1671 127.691C54.1665 127.787 54.1168 127.881 54.068 127.954C54.0192 128.027 53.9642 128.052 53.8897 128.085C53.6399 128.196 53.4042 128.082 53.1614 127.99C53.0785 127.959 52.9944 127.915 52.9217 127.862C52.8354 127.799 52.7344 127.764 52.6481 127.699C52.5611 127.633 52.488 127.612 52.4876 127.485C52.4867 127.196 52.6812 127.02 52.8717 126.859C52.9458 126.796 53.0861 126.761 53.1761 126.744Z" fill="#FEBE31" stroke="#1E1E1E" stroke-width="2.5" stroke-linecap="round"/>
<path d="M51.9299 127.046C52.0185 127.067 52.1236 127.091 52.2148 127.112C52.3418 127.142 52.4689 127.171 52.5959 127.201C52.7865 127.245 52.9832 127.29 53.1722 127.334C53.3132 127.367 53.4562 127.4 53.5916 127.431" stroke="#1E1E1E" stroke-width="2.5" stroke-linecap="round"/>
<path d="M41 139.844C42.2365 142.316 44.0745 144.572 45.2613 146.946" stroke="#489B6D" stroke-width="3" stroke-linecap="round"/>
<path d="M44.7878 140.791C44.9358 142.122 46.4465 143.042 47.1552 144.105" stroke="#489B6D" stroke-width="3" stroke-linecap="round"/>
<path d="M49.9961 142.684C50.3701 143.105 50.6321 143.638 50.943 144.105" stroke="#489B6D" stroke-width="3" stroke-linecap="round"/>
<path d="M57.5717 142.684C57.6603 143.482 58.2656 144.293 58.5186 145.052" stroke="#489B6D" stroke-width="3" stroke-linecap="round"/>
<path d="M78.8282 159.08C78.8282 157.128 77.2565 155.756 75.7034 154.868" stroke="#489B6D" stroke-width="3" stroke-linecap="round"/>
<path d="M84.3987 159.895C84.3987 158.035 85.0355 156.612 85.8932 155.004" stroke="#489B6D" stroke-width="3" stroke-linecap="round"/>
<path d="M87.6594 158.944C87.7347 158.455 88.0568 158.024 88.3538 157.646C89.1732 156.603 90.067 155.612 90.9202 154.596" stroke="#489B6D" stroke-width="3" stroke-linecap="round"/>
</svg>
