<svg width="16" height="16" viewBox="0 0 16 16" fill="none" xmlns="http://www.w3.org/2000/svg">
<path d="M8 11.3335C8.18889 11.3335 8.34733 11.2695 8.47533 11.1415C8.60333 11.0135 8.66711 10.8553 8.66667 10.6668V8.00016C8.66667 7.81127 8.60267 7.65305 8.47467 7.5255C8.34667 7.39794 8.18844 7.33394 8 7.3335C7.81111 7.3335 7.65289 7.3975 7.52533 7.5255C7.39778 7.6535 7.33378 7.81172 7.33333 8.00016V10.6668C7.33333 10.8557 7.39733 11.0142 7.52533 11.1422C7.65333 11.2702 7.81155 11.3339 8 11.3335ZM8 6.00016C8.18889 6.00016 8.34733 5.93616 8.47533 5.80816C8.60333 5.68016 8.66711 5.52194 8.66667 5.3335C8.66667 5.14461 8.60267 4.98639 8.47467 4.85883C8.34667 4.73127 8.18844 4.66727 8 4.66683C7.81111 4.66683 7.65289 4.73083 7.52533 4.85883C7.39778 4.98683 7.33378 5.14505 7.33333 5.3335C7.33333 5.52239 7.39733 5.68083 7.52533 5.80883C7.65333 5.93683 7.81155 6.00061 8 6.00016ZM8 14.6668C7.07778 14.6668 6.21111 14.4917 5.4 14.1415C4.58889 13.7913 3.88333 13.3164 3.28333 12.7168C2.68333 12.1168 2.20844 11.4113 1.85867 10.6002C1.50889 9.78905 1.33378 8.92239 1.33333 8.00016C1.33333 7.07794 1.50844 6.21127 1.85867 5.40016C2.20889 4.58905 2.68378 3.8835 3.28333 3.2835C3.88333 2.6835 4.58889 2.20861 5.4 1.85883C6.21111 1.50905 7.07778 1.33394 8 1.3335C8.92222 1.3335 9.78889 1.50861 10.6 1.85883C11.4111 2.20905 12.1167 2.68394 12.7167 3.2835C13.3167 3.8835 13.7918 4.58905 14.142 5.40016C14.4922 6.21127 14.6671 7.07794 14.6667 8.00016C14.6667 8.92239 14.4916 9.78905 14.1413 10.6002C13.7911 11.4113 13.3162 12.1168 12.7167 12.7168C12.1167 13.3168 11.4111 13.7919 10.6 14.1422C9.78889 14.4924 8.92222 14.6673 8 14.6668Z" fill="#489B6D"/>
</svg>
