<svg width="24" height="24" viewBox="0 0 24 24" fill="none" xmlns="http://www.w3.org/2000/svg">
<path d="M12.008 6.72749C9.08764 6.72749 6.73202 9.08311 6.73202 12.0035C6.73202 14.9239 9.08764 17.2795 12.008 17.2795C14.9285 17.2795 17.2841 14.9239 17.2841 12.0035C17.2841 9.08311 14.9285 6.72749 12.008 6.72749ZM12.008 15.4336C10.1208 15.4336 8.57794 13.8954 8.57794 12.0035C8.57794 10.1117 10.1162 8.57341 12.008 8.57341C13.8999 8.57341 15.4381 10.1117 15.4381 12.0035C15.4381 13.8954 13.8953 15.4336 12.008 15.4336ZM18.7305 6.51168C18.7305 7.19586 18.1795 7.74229 17.4999 7.74229C16.8157 7.74229 16.2693 7.19127 16.2693 6.51168C16.2693 5.83209 16.8203 5.28106 17.4999 5.28106C18.1795 5.28106 18.7305 5.83209 18.7305 6.51168ZM22.2249 7.76066C22.1468 6.11219 21.7703 4.65198 20.5626 3.44892C19.3596 2.24586 17.8994 1.86933 16.2509 1.78668C14.5519 1.69025 9.45958 1.69025 7.7606 1.78668C6.11672 1.86474 4.65651 2.24127 3.44886 3.44433C2.24121 4.64739 1.86927 6.10759 1.78662 7.75606C1.69019 9.45504 1.69019 14.5474 1.78662 16.2464C1.86468 17.8948 2.24121 19.355 3.44886 20.5581C4.65651 21.7612 6.11213 22.1377 7.7606 22.2204C9.45958 22.3168 14.5519 22.3168 16.2509 22.2204C17.8994 22.1423 19.3596 21.7658 20.5626 20.5581C21.7657 19.355 22.1422 17.8948 22.2249 16.2464C22.3213 14.5474 22.3213 9.45964 22.2249 7.76066ZM20.03 18.0693C19.6718 18.9693 18.9785 19.6627 18.0739 20.0255C16.7193 20.5627 13.505 20.4387 12.008 20.4387C10.5111 20.4387 7.29223 20.5581 5.94223 20.0255C5.04223 19.6673 4.34886 18.9739 3.98611 18.0693C3.44886 16.7147 3.57284 13.5005 3.57284 12.0035C3.57284 10.5066 3.45345 7.2877 3.98611 5.9377C4.34427 5.0377 5.03764 4.34433 5.94223 3.98157C7.29682 3.44433 10.5111 3.56831 12.008 3.56831C13.505 3.56831 16.7239 3.44892 18.0739 3.98157C18.9739 4.33974 19.6672 5.03311 20.03 5.9377C20.5672 7.29229 20.4432 10.5066 20.4432 12.0035C20.4432 13.5005 20.5672 16.7193 20.03 18.0693Z" fill="white"/>
</svg>
