<svg width="22" height="24" viewBox="0 0 22 24" fill="none" xmlns="http://www.w3.org/2000/svg">
<path d="M13.9523 12.1195C15.228 12.2252 16.4625 12.6416 17.7108 12.9306C18.0394 13.135 19.0295 14.1535 19.3097 14.4184C19.5114 14.6091 19.667 15.0842 19.779 15.3535C19.9882 15.8567 20.1704 16.3618 20.3417 16.8827C20.4938 17.3451 20.6064 17.8337 20.7176 18.3163C20.847 18.8784 21 19.4522 21 20.0444C21 20.2445 20.913 20.1797 20.811 20.0909C20.5898 19.8983 20.3084 19.7653 20.0739 19.5898C19.6878 19.3009 19.2927 18.9882 18.8529 18.8459C18.4128 18.7035 17.9792 18.69 17.5281 18.6961C17.1936 18.7005 17.1426 19.2521 17.0588 19.5717C16.8524 20.359 16.7209 21.1802 16.5749 21.9869C16.5277 22.248 16.4344 22.5284 16.4047 22.7877C16.3838 22.9693 16.3333 22.7758 16.3112 22.6895C16.2542 22.4667 16.2547 22.2091 16.2136 21.9792C16.2045 21.9283 16.152 21.8942 16.1389 21.8371C16.0973 21.656 15.9094 21.4295 15.8336 21.2559C15.7979 21.174 15.77 21.087 15.7298 21.0105C15.3458 20.2799 14.8508 19.5357 14.3219 18.9647C13.8112 18.4133 13.2933 17.8923 12.6483 17.6034C12.3144 17.4539 11.9995 17.4714 11.6557 17.544C11.1017 17.661 10.5788 17.7362 10.0401 17.9625C9.53109 18.1763 9.1384 18.5573 8.70287 18.9285C8.25866 19.3072 7.91773 19.8397 7.5151 20.2769C6.98127 20.8567 6.46624 21.5129 5.98056 22.1548C5.88096 22.2865 5.45315 23.1384 5.30153 22.8084C5.07585 22.3171 4.96183 21.7772 4.76164 21.2792C4.60038 20.878 4.34855 20.6347 4.10546 20.3234C3.98165 20.1649 3.94525 20.1806 3.75245 20.1839C3.41864 20.1896 3.06751 20.2314 2.73911 20.3027C2.31548 20.3948 1.89118 20.4825 1.46829 20.5791C1.38217 20.5988 0.959546 20.7942 1.00315 20.6721C1.05936 20.5148 1.1982 20.371 1.2814 20.233C1.42469 19.9953 1.5771 19.7562 1.70916 19.5097C2.09633 18.7873 2.54696 18.1437 2.98414 17.4639C3.53131 16.6131 4.08463 15.794 4.76579 15.1055C5.12478 14.7427 5.44768 14.3824 5.8705 14.1291C6.3983 13.813 6.93563 13.5604 7.48603 13.3129C8.51646 12.8495 9.61434 12.5371 10.688 12.2615C11.7635 11.9854 12.8618 12.029 13.9523 12.1195Z" fill="#FF6C6C" stroke="black" stroke-width="2" stroke-linecap="round"/>
<path d="M2.30398 5.26528C3.3951 3.02849 5.50869 1.93544 7.74998 1.21245C9.10624 0.760356 11.0403 1.13897 12.3868 1.34613C14.1543 1.61805 15.7525 2.10126 17.2488 3.14036C19.0882 4.4177 20.9217 6.32895 20.9217 8.69189C20.9217 9.75117 20.9625 10.7606 20.6965 11.7948C20.3577 13.1125 19.355 13.6014 18.4168 14.4827C17.5374 15.3087 16.6009 16.1021 15.6868 16.889C15.2995 17.2224 14.9615 17.5345 14.4625 17.6771C13.5123 17.9486 12.5469 18.057 11.5495 18.057H8.12993C7.02359 18.057 6.13677 17.689 5.11845 17.3253C2.7053 16.4634 1.29077 13.5717 1.29077 11.1405C1.29077 9.1369 1.41116 7.09557 2.30398 5.26528Z" fill="#FEBE31" stroke="black" stroke-width="2" stroke-linecap="round"/>
<path d="M12.2695 4.02986C12.5929 3.91073 12.9281 4.10918 13.213 4.23327C13.6196 4.41034 14.0496 4.55569 14.4465 4.74831C14.8956 4.96625 15.3152 5.13373 15.706 5.45812C15.9602 5.66913 16.2597 5.87499 16.4678 6.13329C16.7326 6.46213 17.0826 6.74281 17.2252 7.15472C17.3185 7.42436 17.4892 7.63611 17.4892 7.92511" stroke="white" stroke-width="2" stroke-linecap="round"/>
<path d="M17.8787 10.496V10.8856" stroke="white" stroke-width="2" stroke-linecap="round"/>
<path d="M7 7.4445C7.05333 6.00462 9.04919 5.82818 10.0803 6.11689C10.5781 6.25627 10.9933 6.72901 11.3491 7.0848C11.9737 7.70949 12.1343 8.38864 12.1208 9.25606C12.1081 10.0653 11.7485 10.8814 11.2183 11.4796C10.8644 11.8789 10.4805 12.2684 10.0313 12.5587C9.54499 12.8729 8.8888 13.2083 8.32434 13.3337C8.16709 13.3686 7.50156 13.6629 7.64091 13.713C8.6555 14.0783 9.73678 14.2927 10.7735 14.5861C11.3355 14.7451 11.8982 14.8825 12.4739 14.9785" stroke="black" stroke-width="2" stroke-linecap="round"/>
</svg>
