<svg width="30" height="24" viewBox="0 0 30 24" fill="none" xmlns="http://www.w3.org/2000/svg">
<path d="M17.9523 12.1195C19.228 12.2253 20.4625 12.6417 21.7108 12.9306C22.0394 13.135 23.0295 14.1536 23.3097 14.4185C23.5114 14.6091 23.667 15.0842 23.779 15.3535C23.9882 15.8568 24.1704 16.3619 24.3417 16.8827C24.4938 17.3451 24.6064 17.8337 24.7176 18.3164C24.847 18.8784 25 19.4522 25 20.0445C25 20.2446 24.913 20.1797 24.811 20.091C24.5898 19.8983 24.3084 19.7653 24.0739 19.5898C23.6878 19.3009 23.2927 18.9882 22.8529 18.8459C22.4128 18.7035 21.9792 18.6901 21.5281 18.6961C21.1936 18.7006 21.1426 19.2521 21.0588 19.5718C20.8524 20.3591 20.7209 21.1802 20.5749 21.987C20.5277 22.2481 20.4344 22.5284 20.4047 22.7877C20.3838 22.9693 20.3333 22.7758 20.3112 22.6896C20.2542 22.4667 20.2547 22.2091 20.2136 21.9792C20.2045 21.9283 20.152 21.8943 20.1389 21.8371C20.0973 21.656 19.9094 21.4295 19.8336 21.2559C19.7979 21.1741 19.77 21.087 19.7298 21.0106C19.3458 20.2799 18.8508 19.5358 18.3219 18.9647C17.8112 18.4133 17.2933 17.8923 16.6483 17.6034C16.3144 17.4539 15.9995 17.4714 15.6557 17.544C15.1017 17.661 14.5788 17.7362 14.0401 17.9625C13.5311 18.1763 13.1384 18.5573 12.7029 18.9286C12.2587 19.3072 11.9177 19.8397 11.5151 20.2769C10.9813 20.8567 10.4662 21.5129 9.98056 22.1549C9.88096 22.2865 9.45315 23.1385 9.30153 22.8084C9.07585 22.3171 8.96183 21.7772 8.76164 21.2792C8.60038 20.878 8.34855 20.6347 8.10546 20.3234C7.98165 20.1649 7.94525 20.1807 7.75245 20.184C7.41864 20.1896 7.06751 20.2315 6.73911 20.3028C6.31548 20.3948 5.89118 20.4825 5.46829 20.5792C5.38217 20.5988 4.95955 20.7942 5.00315 20.6722C5.05936 20.5148 5.1982 20.371 5.2814 20.233C5.42469 19.9954 5.5771 19.7562 5.70916 19.5098C6.09633 18.7873 6.54696 18.1437 6.98414 17.4639C7.53131 16.6131 8.08463 15.794 8.76579 15.1056C9.12478 14.7427 9.44768 14.3824 9.8705 14.1291C10.3983 13.813 10.9356 13.5604 11.486 13.3129C12.5165 12.8495 13.6143 12.5372 14.688 12.2616C15.7635 11.9855 16.8618 12.029 17.9523 12.1195Z" fill="#FF6C6C" stroke="black" stroke-width="2" stroke-linecap="round"/>
<path d="M6.30398 5.26528C7.3951 3.02849 9.50869 1.93544 11.75 1.21245C13.1062 0.760356 15.0403 1.13897 16.3868 1.34613C18.1543 1.61805 19.7525 2.10126 21.2488 3.14036C23.0882 4.4177 24.9217 6.32895 24.9217 8.69189C24.9217 9.75117 24.9625 10.7606 24.6965 11.7948C24.3577 13.1125 23.355 13.6014 22.4168 14.4827C21.5374 15.3087 20.6009 16.1021 19.6868 16.889C19.2995 17.2224 18.9615 17.5345 18.4625 17.6771C17.5123 17.9486 16.5469 18.057 15.5495 18.057H12.1299C11.0236 18.057 10.1368 17.689 9.11845 17.3253C6.7053 16.4634 5.29077 13.5717 5.29077 11.1405C5.29077 9.1369 5.41116 7.09557 6.30398 5.26528Z" fill="#D88F4B" stroke="black" stroke-width="2" stroke-linecap="round"/>
<path d="M16.2695 4.02986C16.5929 3.91073 16.9281 4.10918 17.213 4.23327C17.6196 4.41034 18.0496 4.55569 18.4465 4.74831C18.8956 4.96625 19.3152 5.13373 19.706 5.45812C19.9602 5.66913 20.2597 5.87499 20.4678 6.13329C20.7326 6.46213 21.0826 6.74281 21.2252 7.15472C21.3185 7.42436 21.4892 7.63611 21.4892 7.92511" stroke="white" stroke-width="2" stroke-linecap="round"/>
<path d="M21.8787 10.496V10.8856" stroke="white" stroke-width="2" stroke-linecap="round"/>
<path d="M19.668 12.6527C18.6089 12.6066 17.5663 12.389 16.5097 12.3135C14.7245 12.186 12.9339 11.9495 11.1389 12.0646C11.1233 12.0656 10.5327 12.1373 10.5476 12.0552C10.5843 11.8534 10.7626 11.5724 10.8495 11.3862C11.4861 10.0219 12.3305 8.72783 13.3264 7.59615C13.6097 7.27421 13.8747 6.9252 14.2039 6.64708C14.3214 6.54779 14.6786 6.18033 14.8387 6.18033C14.8687 6.18033 14.8413 6.30049 14.8387 6.31102C14.8005 6.46356 14.793 6.61388 14.8076 6.77155C14.8898 7.66205 15.2584 8.51072 15.3677 9.40405C15.4721 10.2575 15.5897 11.1052 15.6664 11.9619C15.714 12.4938 15.8375 13.0301 15.8593 13.5613C15.8791 14.0425 15.9713 14.5257 15.9713 15.0051" stroke="black" stroke-width="2" stroke-linecap="round"/>
</svg>
