<svg width="30" height="24" viewBox="0 0 30 24" fill="none" xmlns="http://www.w3.org/2000/svg">
<path d="M17.9523 12.1195C19.228 12.2252 20.4625 12.6416 21.7108 12.9306C22.0394 13.135 23.0295 14.1535 23.3097 14.4184C23.5114 14.6091 23.667 15.0842 23.779 15.3535C23.9882 15.8567 24.1704 16.3618 24.3417 16.8827C24.4938 17.3451 24.6064 17.8337 24.7176 18.3163C24.847 18.8784 25 19.4522 25 20.0444C25 20.2445 24.913 20.1797 24.811 20.0909C24.5898 19.8983 24.3084 19.7653 24.0739 19.5898C23.6878 19.3009 23.2927 18.9882 22.8529 18.8459C22.4128 18.7035 21.9792 18.69 21.5281 18.6961C21.1936 18.7005 21.1426 19.2521 21.0588 19.5717C20.8524 20.359 20.7209 21.1802 20.5749 21.9869C20.5277 22.248 20.4344 22.5284 20.4047 22.7877C20.3838 22.9693 20.3333 22.7758 20.3112 22.6895C20.2542 22.4667 20.2547 22.2091 20.2136 21.9792C20.2045 21.9283 20.152 21.8942 20.1389 21.8371C20.0973 21.656 19.9094 21.4295 19.8336 21.2559C19.7979 21.174 19.77 21.087 19.7298 21.0105C19.3458 20.2799 18.8508 19.5357 18.3219 18.9647C17.8112 18.4133 17.2933 17.8923 16.6483 17.6034C16.3144 17.4539 15.9995 17.4714 15.6557 17.544C15.1017 17.661 14.5788 17.7362 14.0401 17.9625C13.5311 18.1763 13.1384 18.5573 12.7029 18.9285C12.2587 19.3072 11.9177 19.8397 11.5151 20.2769C10.9813 20.8567 10.4662 21.5129 9.98056 22.1548C9.88096 22.2865 9.45315 23.1384 9.30153 22.8084C9.07585 22.3171 8.96183 21.7772 8.76164 21.2792C8.60038 20.878 8.34855 20.6347 8.10546 20.3234C7.98165 20.1649 7.94525 20.1806 7.75245 20.1839C7.41864 20.1896 7.06751 20.2314 6.73911 20.3027C6.31548 20.3948 5.89118 20.4825 5.46829 20.5791C5.38217 20.5988 4.95955 20.7942 5.00315 20.6721C5.05936 20.5148 5.1982 20.371 5.2814 20.233C5.42469 19.9953 5.5771 19.7562 5.70916 19.5097C6.09633 18.7873 6.54696 18.1437 6.98414 17.4639C7.53131 16.6131 8.08463 15.794 8.76579 15.1055C9.12478 14.7427 9.44768 14.3824 9.8705 14.1291C10.3983 13.813 10.9356 13.5604 11.486 13.3129C12.5165 12.8495 13.6143 12.5371 14.688 12.2615C15.7635 11.9854 16.8618 12.029 17.9523 12.1195Z" fill="#FF6C6C" stroke="black" stroke-width="2" stroke-linecap="round"/>
<path d="M6.30398 5.26528C7.3951 3.02849 9.50869 1.93544 11.75 1.21245C13.1062 0.760356 15.0403 1.13897 16.3868 1.34613C18.1543 1.61805 19.7525 2.10126 21.2488 3.14036C23.0882 4.4177 24.9217 6.32895 24.9217 8.69189C24.9217 9.75117 24.9625 10.7606 24.6965 11.7948C24.3577 13.1125 23.355 13.6014 22.4168 14.4827C21.5374 15.3087 20.6009 16.1021 19.6868 16.889C19.2995 17.2224 18.9615 17.5345 18.4625 17.6771C17.5123 17.9486 16.5469 18.057 15.5495 18.057H12.1299C11.0236 18.057 10.1368 17.689 9.11845 17.3253C6.7053 16.4634 5.29077 13.5717 5.29077 11.1405C5.29077 9.1369 5.41116 7.09557 6.30398 5.26528Z" fill="#FEBE31" stroke="black" stroke-width="2" stroke-linecap="round"/>
<path d="M16.2695 4.02986C16.5929 3.91073 16.9281 4.10918 17.213 4.23327C17.6196 4.41034 18.0496 4.55569 18.4465 4.74831C18.8956 4.96625 19.3152 5.13373 19.706 5.45812C19.9602 5.66913 20.2597 5.87499 20.4678 6.13329C20.7326 6.46213 21.0826 6.74281 21.2252 7.15472C21.3185 7.42436 21.4892 7.63611 21.4892 7.92511" stroke="white" stroke-width="2" stroke-linecap="round"/>
<path d="M21.8787 10.496V10.8856" stroke="white" stroke-width="2" stroke-linecap="round"/>
<path d="M11 7.4445C11.0533 6.00462 13.0492 5.82818 14.0803 6.11689C14.5781 6.25627 14.9933 6.72901 15.3491 7.0848C15.9737 7.70949 16.1343 8.38864 16.1208 9.25606C16.1081 10.0653 15.7485 10.8814 15.2183 11.4796C14.8644 11.8789 14.4805 12.2684 14.0313 12.5587C13.545 12.8729 12.8888 13.2083 12.3243 13.3337C12.1671 13.3686 11.5016 13.6629 11.6409 13.713C12.6555 14.0783 13.7368 14.2927 14.7735 14.5861C15.3355 14.7451 15.8982 14.8825 16.4739 14.9785" stroke="black" stroke-width="2" stroke-linecap="round"/>
</svg>
