<svg width="22" height="24" viewBox="0 0 22 24" fill="none" xmlns="http://www.w3.org/2000/svg">
<path d="M13.9523 12.1195C15.228 12.2253 16.4625 12.6417 17.7108 12.9306C18.0394 13.135 19.0295 14.1536 19.3097 14.4185C19.5114 14.6092 19.667 15.0843 19.779 15.3536C19.9882 15.8568 20.1704 16.3619 20.3417 16.8828C20.4938 17.3452 20.6064 17.8337 20.7176 18.3164C20.847 18.8784 21 19.4522 21 20.0445C21 20.2446 20.913 20.1798 20.811 20.091C20.5898 19.8983 20.3084 19.7653 20.0739 19.5899C19.6878 19.301 19.2927 18.9882 18.8529 18.8459C18.4128 18.7035 17.9792 18.6901 17.5281 18.6961C17.1936 18.7006 17.1426 19.2521 17.0588 19.5718C16.8524 20.3591 16.7209 21.1802 16.5749 21.987C16.5277 22.2481 16.4344 22.5285 16.4047 22.7878C16.3838 22.9694 16.3333 22.7758 16.3112 22.6896C16.2542 22.4668 16.2547 22.2091 16.2136 21.9792C16.2045 21.9283 16.152 21.8943 16.1389 21.8372C16.0973 21.656 15.9094 21.4295 15.8336 21.256C15.7979 21.1741 15.77 21.087 15.7298 21.0106C15.3458 20.2799 14.8508 19.5358 14.3219 18.9648C13.8112 18.4134 13.2933 17.8924 12.6483 17.6035C12.3144 17.454 11.9995 17.4714 11.6557 17.544C11.1017 17.6611 10.5788 17.7363 10.0401 17.9625C9.53109 18.1763 9.1384 18.5574 8.70287 18.9286C8.25866 19.3072 7.91773 19.8397 7.5151 20.277C6.98127 20.8567 6.46624 21.513 5.98056 22.1549C5.88096 22.2865 5.45315 23.1385 5.30153 22.8084C5.07585 22.3171 4.96183 21.7773 4.76164 21.2792C4.60038 20.878 4.34855 20.6348 4.10546 20.3235C3.98165 20.1649 3.94525 20.1807 3.75245 20.184C3.41864 20.1897 3.06751 20.2315 2.73911 20.3028C2.31548 20.3948 1.89118 20.4826 1.46829 20.5792C1.38217 20.5989 0.959546 20.7942 1.00315 20.6722C1.05936 20.5148 1.1982 20.3711 1.2814 20.2331C1.42469 19.9954 1.5771 19.7562 1.70916 19.5098C2.09633 18.7874 2.54696 18.1438 2.98414 17.464C3.53131 16.6131 4.08463 15.7941 4.76579 15.1056C5.12478 14.7428 5.44768 14.3824 5.8705 14.1292C6.3983 13.8131 6.93563 13.5604 7.48603 13.3129C8.51646 12.8495 9.61434 12.5372 10.688 12.2616C11.7635 11.9855 12.8618 12.0291 13.9523 12.1195Z" fill="#FF6C6C" stroke="black" stroke-width="2" stroke-linecap="round"/>
<path d="M2.30398 5.26528C3.3951 3.02849 5.50869 1.93544 7.74998 1.21245C9.10624 0.760356 11.0403 1.13897 12.3868 1.34613C14.1543 1.61805 15.7525 2.10126 17.2488 3.14036C19.0882 4.4177 20.9217 6.32895 20.9217 8.69189C20.9217 9.75117 20.9625 10.7606 20.6965 11.7948C20.3577 13.1125 19.355 13.6014 18.4168 14.4827C17.5374 15.3087 16.6009 16.1021 15.6868 16.889C15.2995 17.2224 14.9615 17.5345 14.4625 17.6771C13.5123 17.9486 12.5469 18.057 11.5495 18.057H8.12993C7.02359 18.057 6.13677 17.689 5.11845 17.3253C2.7053 16.4634 1.29077 13.5717 1.29077 11.1405C1.29077 9.1369 1.41116 7.09557 2.30398 5.26528Z" fill="#D88F4B" stroke="black" stroke-width="2" stroke-linecap="round"/>
<path d="M12.2695 4.02986C12.5929 3.91073 12.9281 4.10918 13.213 4.23327C13.6196 4.41034 14.0496 4.55569 14.4465 4.74831C14.8956 4.96625 15.3152 5.13373 15.706 5.45812C15.9602 5.66913 16.2597 5.87499 16.4678 6.13329C16.7326 6.46213 17.0826 6.74281 17.2252 7.15472C17.3185 7.42436 17.4892 7.63611 17.4892 7.92511" stroke="white" stroke-width="2" stroke-linecap="round"/>
<path d="M17.8787 10.496V10.8855" stroke="white" stroke-width="2" stroke-linecap="round"/>
<path d="M5.56063 8.84167C5.39099 8.79926 5.43277 8.09516 5.43277 7.97269C5.43277 7.46233 5.74039 7.01005 6.17626 6.75802C6.76782 6.41596 7.573 6.16778 8.24334 6.01216C8.86344 5.86821 9.5712 5.73108 10.1968 5.90088C10.775 6.05784 11.3059 6.32215 11.769 6.70356C12.1903 7.05051 12.2851 7.62849 12.3278 8.14081C12.4097 9.12418 11.7182 9.91788 10.8053 10.2032C10.7275 10.2275 10.6513 10.2505 10.5756 10.2813C10.5303 10.2997 10.4037 10.2988 10.4383 10.3334C10.4483 10.3434 10.4667 10.3323 10.4809 10.3334C10.6294 10.3451 10.8692 10.375 10.9876 10.3902C11.5532 10.4629 12.1346 10.5198 12.6877 10.6649C13.1156 10.7771 13.5906 10.9349 13.8526 11.316C14.1511 11.7501 14.3108 12.1032 14.2528 12.6538C14.1462 13.6664 12.9055 13.8852 12.1218 13.9798C11.6388 14.0381 11.0926 14.0995 10.604 14.0319C10.2826 13.9874 9.89882 13.9729 9.60956 13.8282" stroke="black" stroke-width="2" stroke-linecap="round"/>
</svg>
