<svg width="20" height="24" viewBox="0 0 20 24" fill="none" xmlns="http://www.w3.org/2000/svg">
<path d="M1.82205 7.21589C1.69799 5.97529 1.30287 4.89144 1.62129 3.61774C1.85076 2.69986 4.09944 2.44983 4.55541 2.35143C7.48579 1.71907 10.5606 1.12752 13.5662 1.02336C14.8054 0.980419 15.3672 1.79215 16.1375 2.6294C17.3154 3.90983 18.1631 5.05896 18.3303 6.81438C18.4926 8.51806 18.4244 9.76023 17.9751 11.4318C17.4987 13.2044 16.6239 14.5602 15.2958 15.8329C13.9439 17.1285 12.4993 18.5086 10.6862 19.1222C8.43473 19.8843 5.35043 18.6103 3.90682 16.8058" stroke="black" stroke-width="2" stroke-linecap="round"/>
<path d="M6.96465 14.165C6.0624 15.0673 5.05937 15.8567 3.97648 16.4583C3.5156 16.7143 4.31379 18.1121 4.43204 18.5199C4.67598 19.361 5.05164 20.1566 5.26595 21.0062C5.35625 21.3641 5.41003 21.7576 5.57481 22.0872" stroke="black" stroke-width="2" stroke-linecap="round"/>
</svg>
