<svg width="287" height="73" viewBox="0 0 287 73" fill="none" xmlns="http://www.w3.org/2000/svg">
<path d="M43 33C46.347 33 49.6794 33.3504 53.0362 33.3504C53.8193 33.3504 55.3216 33.1756 56.0247 33.623C56.3466 33.8279 56.1415 35.1793 56.1415 35.4434C56.1415 39.4767 56.1415 43.51 56.1415 47.5433" stroke="white" stroke-width="8" stroke-linecap="round"/>
<path d="M43.2168 53.9814C47.9448 53.6437 52.9215 52.7549 57.5849 52.7549" stroke="white" stroke-width="8" stroke-linecap="round"/>
<path d="M50.576 59.4131C50.576 60.3691 50.4952 61.3624 50.6734 62.3043C50.834 63.1535 51.2586 63.9302 51.4424 64.7574C51.5934 65.4367 54.8763 65.0202 55.4627 65.0202C56.5183 65.0202 57.9353 65.5101 57.9353 64.1149C57.9353 63.0149 57.9353 61.9149 57.9353 60.8149C57.9353 60.2911 58.2 60.0466 57.9742 59.5105C57.9129 59.3648 58.0248 58.9409 57.8282 58.8972C57.2542 58.7697 56.5311 58.8875 55.9495 58.8875C54.2167 58.8875 52.484 58.8875 50.7513 58.8875" stroke="white" stroke-width="8" stroke-linecap="round"/>
<path d="M8.01465 20.4591C10.6437 20.4591 13.2678 20.2295 15.9001 20.2295C16.563 20.2295 17.1527 20 17.8087 20" stroke="white" stroke-width="8" stroke-linecap="round"/>
<path d="M6.86694 26.4274C9.56446 26.0903 12.3075 25.9524 15.0202 25.7813C16.6827 25.6765 18.3293 25.4468 19.9895 25.352C20.6911 25.3119 21.392 25.2445 22.0937 25.2032C22.4235 25.1838 23.0207 25.1222 23.3179 24.9736" stroke="white" stroke-width="8" stroke-linecap="round"/>
<path d="M14.9777 30.6357C14.5316 30.9073 14.0092 31.0553 13.5282 31.2521C12.7485 31.5711 11.9888 31.9594 11.2539 32.3701C9.73576 33.2185 8.35269 34.3251 6.99452 35.4053C6.01999 36.1803 4.9233 37.1058 4.47799 38.3044C3.94375 39.7423 3.87237 41.1734 4.18893 42.6658C4.66697 44.9194 6.16457 47.0841 8.39732 47.8179C11.6364 48.8824 15.3246 48.7277 18.5145 47.5713C20.3967 46.889 22.3265 45.9699 23.6198 44.4044C24.2123 43.6871 24.4233 42.8589 24.623 41.9729C24.8348 41.033 24.9214 40.1204 24.538 39.2098C24.2533 38.5336 23.7656 37.9928 23.2882 37.4499C22.6776 36.7555 22.0866 36.041 21.4816 35.3415C20.9162 34.6878 20.2677 33.6743 19.4156 33.3903" stroke="white" stroke-width="8" stroke-linecap="round"/>
<path d="M15.8914 53.2422C16.0402 54.3734 16.2579 55.4911 16.4357 56.6171" stroke="white" stroke-width="8" stroke-linecap="round"/>
<path d="M8.70605 58.6852C11.1974 58.3921 13.6705 57.8796 16.1696 57.5965C18.1492 57.3723 20.2912 57.2726 22.2058 56.7256" stroke="white" stroke-width="8" stroke-linecap="round"/>
<path d="M31.0242 37.0205C31.3437 41.1746 31.1236 45.3432 31.5685 49.5041C31.6964 50.7004 31.7863 51.9701 31.7863 53.1754C31.7863 53.4702 31.8951 53.7233 31.8951 54.004" stroke="white" stroke-width="8" stroke-linecap="round"/>
<path d="M31.7863 45.4032C34.1916 45.4032 36.5646 44.75 38.9716 44.75" stroke="white" stroke-width="8" stroke-linecap="round"/>
<path d="M27.825 59.7819C25.6424 60.7324 23.0488 62.3327 23.4266 65.1148C23.8495 68.229 28.4059 69.2016 30.6909 67.5695C32.2698 66.4416 32.6755 63.9424 31.725 62.2739C31.0482 61.0858 29.2241 59.9866 27.9372 59.5576" stroke="white" stroke-width="8" stroke-linecap="round"/>
<path d="M80 34C80.8219 34 81.6496 34.1664 82.4574 34.2922C83.6944 34.4847 84.9447 34.6456 86.1718 34.8889C87.3624 35.1249 88.4768 35.5531 89.6131 35.9506C89.816 36.0216 90.0784 36.125 90.2979 36.1481C90.6332 36.1835 91 36.5828 91 36.8724C91 37.2606 90.8844 37.5396 90.7226 37.9012C90.3054 38.8342 89.8296 39.7365 89.2403 40.5844C87.8021 42.654 86.3635 44.6806 85.0796 46.8477C84.4274 47.9487 83.8039 49.0672 83.1682 50.177C82.9287 50.5952 82.7592 51.0222 82.6351 51.4815C82.5792 51.6887 82.4086 51.8058 82.3404 52" stroke="white" stroke-width="8" stroke-linecap="round"/>
<path d="M85 49C85.3375 49.0345 85.6879 49.6282 85.9111 49.8252C87.1833 50.9477 88.6688 51.8183 89.9022 52.9869C90.1214 53.1946 90.4032 53.5726 90.68 53.7222C90.7897 53.7815 90.9482 53.9048 91 54" stroke="white" stroke-width="8" stroke-linecap="round"/>
<path d="M92.5029 38C90.0055 38 97.4921 38.2557 99.9888 38.3162C100.92 38.3388 101.993 38.2082 102.91 38.4119C103.006 38.4333 103.021 38.4271 102.975 38.4826C102.854 38.6291 102.817 38.8618 102.739 39.0318C102.417 39.7357 101.976 40.3954 101.588 41.0622C100.725 42.5438 99.7068 43.8983 98.7683 45.3267C97.3151 47.5386 95.9903 49.8963 94.765 52.2457C94.4139 52.9189 94.1073 53.6029 93.7845 54.2885C93.7001 54.4677 93.5499 54.914 93.3817 55" stroke="white" stroke-width="8" stroke-linecap="round"/>
<path d="M98 49C98.3639 49.5382 98.9489 49.9538 99.4135 50.3818C99.8997 50.8298 100.418 51.234 100.885 51.7071C101.226 52.0523 101.6 52.778 102 53" stroke="white" stroke-width="8" stroke-linecap="round"/>
<path d="M107 38C107 39.6526 107.074 41.2728 107.309 42.9194C107.86 46.7892 107.889 50.6307 107.889 54.514C107.889 55.6835 108 56.8337 108 58" stroke="white" stroke-width="8" stroke-linecap="round"/>
<path d="M119.487 34C117.89 35.0881 116.446 36.3853 115.546 38.1631C114.926 39.3879 114.304 40.5691 114.122 41.9619C113.837 44.1406 113.964 46.5762 115.463 48.2672C116.953 49.9479 119.109 50.5697 121.226 50.7997C123.138 51.0075 125.071 51.0749 126.988 50.8994C127.883 50.8175 128.868 50.6002 129.625 50.0712C131.298 48.9032 132.477 47.1235 133.496 45.353C134.091 44.3205 134.225 43.5242 133.538 42.5516C132.178 40.6295 130.359 39.2152 128.686 37.6253C128.158 37.1238 127.513 36.686 126.922 36.2637C126.473 35.9428 125.999 35.4984 125.523 35.2489" stroke="white" stroke-width="8" stroke-linecap="round"/>
<path d="M126 52C126 53.8752 126 55.7473 126 57.6186C126 58.7522 126 59.8853 126 61" stroke="white" stroke-width="8" stroke-linecap="round"/>
<path d="M121 63C121.433 62.7906 121.935 62.7774 122.393 62.7068C124.062 62.4493 125.736 62.2235 127.419 62.1457C129.422 62.0529 131.431 62.0497 133.436 62.0041C133.961 61.9922 134.48 62.0022 135 62.09" stroke="white" stroke-width="8" stroke-linecap="round"/>
<path d="M143 50C146.143 50 149.273 50 152.421 50C153.2 50 153.968 50 154.747 50C155.831 50 156.916 50 158 50" stroke="white" stroke-width="8" stroke-linecap="round"/>
<path d="M149 55C150.3 55 151.6 55 152.9 55C153.537 55 154.133 55.0586 154.731 55.3136C155.192 55.5099 155.771 55.6043 155.871 56.2283C155.984 56.9226 155.764 57.8463 155.122 58.136C154.294 58.5092 153.364 58.1126 152.509 58.3102C152.02 58.4233 151.286 58.5605 151.052 59.116C150.823 59.6614 150.936 60.4537 150.948 61.0542C150.957 61.5083 151.065 61.9606 151.087 62.4132C151.097 62.6075 151.168 62.8858 151.369 62.914C152.166 63.0264 153.019 62.9128 153.823 62.9576C154.881 63.0166 155.941 62.9968 157 62.9968" stroke="white" stroke-width="8" stroke-linecap="round"/>
<path d="M144 31.642C144.212 31.4765 144.721 31.5523 144.978 31.5154C145.681 31.4147 146.373 31.3708 147.072 31.2341C147.701 31.1111 148.372 31.0152 149.014 31.0091C149.233 31.007 149.515 30.9514 149.669 31.1427C149.992 31.5439 150.263 31.8776 150.525 32.3242C150.777 32.7534 150.962 33.2238 151.201 33.6533C151.624 34.4104 151.64 35.2623 151.64 36.1077C151.64 36.5625 151.631 36.968 151.147 37.029C150.069 37.165 148.98 37.1863 147.896 37.3068C147.523 37.3481 147.168 37.4084 146.799 37.4791C146.286 37.577 145.963 37.504 145.799 38.0276C145.237 39.8177 145.103 42.036 145.716 43.833C145.937 44.4802 146.264 44.9969 147.058 44.9969C148.139 44.9969 149.221 45.0039 150.302 44.9969C151.203 44.9911 152.099 44.8703 153 44.8703" stroke="white" stroke-width="8" stroke-linecap="round"/>
<path d="M191 53.6667C192.885 53.4592 194.837 53.4117 196.709 53.0952C197.02 53.0426 197.318 53 197.632 53C198.29 53 197.9 53.4016 197.723 53.9735C196.966 56.4143 195.924 58.7719 194.977 61.1376C194.73 61.7566 194.38 62.3694 194.18 63" stroke="white" stroke-width="8" stroke-linecap="round"/>
<path d="M197 58C197.272 58.0825 197.573 58.4084 197.821 58.5667C198.511 59.0087 199.191 59.4719 199.876 59.9238C200.28 60.1904 200.784 60.5185 201 61" stroke="white" stroke-width="8" stroke-linecap="round"/>
<path d="M198 33C198.101 35.1357 198.259 37.2389 198.56 39.3483C198.75 40.6808 198.918 42.0131 199.074 43.3511C199.181 44.2666 199.316 45.1398 199.593 46.015C199.792 46.6439 199.744 47.418 200 48" stroke="white" stroke-width="8" stroke-linecap="round"/>
<path d="M199 42C200.668 42 202.332 41 204 41" stroke="white" stroke-width="8" stroke-linecap="round"/>
<path d="M175 27C176.294 27 177.569 27 178.877 27C179.583 27 180.293 27 181 27" stroke="white" stroke-width="8" stroke-linecap="round"/>
<path d="M172 34.7062C172.225 34.5979 172.478 34.5555 172.717 34.4914C173.47 34.2896 174.208 34.0376 174.957 33.8213C176.589 33.3497 178.246 32.9974 179.918 32.7002C181.808 32.3643 183.82 32 185.746 32C186.338 32 186.921 32.0773 187.508 32.0773C187.569 32.0773 188.059 32.0289 187.994 32.1375C187.744 32.558 187.58 32.9972 187.388 33.4476C187.07 34.1952 186.691 34.9155 186.386 35.6684C185.674 37.4264 185.092 39.2326 184.346 40.9777C183.864 42.1055 183.709 43.3313 183.327 44.4871C183.052 45.3159 182.898 46.24 182.521 47" stroke="white" stroke-width="8" stroke-linecap="round"/>
<path d="M185 41C185.778 41 186.611 41.5048 187.295 41.8889C188.07 42.3237 188.778 42.8877 189.439 43.5284C189.939 44.0131 190.418 44.6593 191 45" stroke="white" stroke-width="8" stroke-linecap="round"/>
<path d="M218.015 31C216.283 31.2097 214.579 31.288 213.199 32.4056C212.473 32.9938 212.004 33.6773 211.421 34.3769C210.815 35.1053 210.173 35.918 210.068 36.8843C209.701 40.2829 210.847 43.6182 212.75 46.4255C214.358 48.7974 217.205 49.5754 219.965 49.9156C220.814 50.0202 221.727 50.0221 222.579 49.9514C223.627 49.8644 224.776 49.814 225.803 49.6059C226.91 49.3816 228.095 48.8893 228.976 48.1884C231.237 46.3907 232.51 43.6034 231.806 40.7556C231.308 38.7436 230.88 36.9726 229.419 35.4013C228.562 34.4787 227.593 33.3931 226.473 32.7689C225.734 32.3571 224.627 31.8576 223.773 31.8576" stroke="white" stroke-width="8" stroke-linecap="round"/>
<path d="M238 31C238 33.1037 238.505 35.2349 238.778 37.322C239.057 39.4602 239.017 41.6272 239.284 43.757C239.583 46.1456 240 48.5924 240 51" stroke="white" stroke-width="8" stroke-linecap="round"/>
<path d="M240 43H245" stroke="white" stroke-width="8" stroke-linecap="round"/>
<path d="M252 33C254.312 33.0936 256.627 33 258.943 33C259.189 33 259.341 33.012 259.525 33.163C260.065 33.6044 260.595 34.3023 260.954 34.9004C261.229 35.3584 261.432 35.8693 261.613 36.3707C261.957 37.3271 262.404 38.2487 262.577 39.2594C262.622 39.5236 262.659 39.8371 262.549 40.0848C262.467 40.2699 262.171 40.2819 262.001 40.3067C261.35 40.402 260.72 40.5273 260.059 40.5529C259.079 40.591 258.102 40.5927 257.122 40.6188C256.705 40.6299 256.282 40.7169 255.894 40.872C255.407 41.0667 255.019 41.2981 254.719 41.7389C254.172 42.5408 254.066 43.4799 254.06 44.423C254.05 45.8828 254.152 47.2429 254.545 48.6537C254.897 49.9131 255.503 51.0992 255.995 52.3019C256.148 52.6771 256.407 52.9572 256.786 53.1134C257.36 53.3503 258.105 53.317 258.714 53.3977C259.602 53.5156 260.501 53.5989 261.398 53.5989C261.535 53.5989 262.17 53.6488 262.286 53.5226C262.359 53.4427 262.526 53.086 262.549 52.9746C262.591 52.7753 262.791 52.5601 262.861 52.3504" stroke="white" stroke-width="8" stroke-linecap="round"/>
<path d="M269.103 37.0576C268.763 41.8191 268.604 46.638 268.604 51.4144" stroke="white" stroke-width="8" stroke-linecap="round"/>
<path d="M269.915 45.8584C270.675 45.8584 271.463 46.1081 272.224 46.1081" stroke="white" stroke-width="8" stroke-linecap="round"/>
<path d="M276.906 33.874C276.669 36.2436 276.843 38.6949 276.843 41.0836C276.843 41.7311 276.74 42.3758 276.705 43.0221C276.673 43.6036 276.718 44.3001 276.531 44.8601" stroke="white" stroke-width="8" stroke-linecap="round"/>
<path d="M276.781 50.3535C276.635 50.3717 276.609 50.7202 276.469 50.7905" stroke="white" stroke-width="8" stroke-linecap="round"/>
<path d="M282.898 37.3071C282.638 38.1441 282.716 39.1544 282.649 40.019C282.576 40.9505 282.562 41.8889 282.461 42.8175C282.41 43.2882 282.337 43.7685 282.271 44.2358C282.177 44.8885 281.962 45.5887 281.962 46.2333" stroke="white" stroke-width="8" stroke-linecap="round"/>
<path d="M282.087 51.4141C282.005 51.4141 281.995 51.4105 281.962 51.4765" stroke="white" stroke-width="8" stroke-linecap="round"/>
<path d="M43 33C46.347 33 49.6794 33.3504 53.0362 33.3504C53.8193 33.3504 55.3216 33.1756 56.0247 33.623C56.3466 33.8279 56.1415 35.1793 56.1415 35.4434C56.1415 39.4767 56.1415 43.51 56.1415 47.5433" stroke="#FEBE31" stroke-width="3.5" stroke-linecap="round"/>
<path d="M43.2168 53.9814C47.9448 53.6437 52.9215 52.7549 57.5849 52.7549" stroke="#FEBE31" stroke-width="3.5" stroke-linecap="round"/>
<path d="M50.576 59.4131C50.576 60.3691 50.4952 61.3624 50.6734 62.3043C50.834 63.1535 51.2586 63.9302 51.4424 64.7574C51.5934 65.4367 54.8763 65.0202 55.4627 65.0202C56.5183 65.0202 57.9353 65.5101 57.9353 64.1149C57.9353 63.0149 57.9353 61.9149 57.9353 60.8149C57.9353 60.2911 58.2 60.0466 57.9742 59.5105C57.9129 59.3648 58.0248 58.9409 57.8282 58.8972C57.2542 58.7697 56.5311 58.8875 55.9495 58.8875C54.2167 58.8875 52.484 58.8875 50.7513 58.8875" stroke="#FEBE31" stroke-width="3.5" stroke-linecap="round"/>
<path d="M8.01465 20.4591C10.6437 20.4591 13.2678 20.2295 15.9001 20.2295C16.563 20.2295 17.1527 20 17.8087 20" stroke="#FEBE31" stroke-width="3.5" stroke-linecap="round"/>
<path d="M6.86694 26.4274C9.56446 26.0903 12.3075 25.9524 15.0202 25.7813C16.6827 25.6765 18.3293 25.4468 19.9895 25.352C20.6911 25.3119 21.392 25.2445 22.0937 25.2032C22.4235 25.1838 23.0207 25.1222 23.3179 24.9736" stroke="#FEBE31" stroke-width="3.5" stroke-linecap="round"/>
<path d="M14.9777 30.6357C14.5316 30.9073 14.0092 31.0553 13.5282 31.2521C12.7485 31.5711 11.9888 31.9594 11.2539 32.3701C9.73576 33.2185 8.35269 34.3251 6.99452 35.4053C6.01999 36.1803 4.9233 37.1058 4.47799 38.3044C3.94375 39.7423 3.87237 41.1734 4.18893 42.6658C4.66697 44.9194 6.16457 47.0841 8.39732 47.8179C11.6364 48.8824 15.3246 48.7277 18.5145 47.5713C20.3967 46.889 22.3265 45.9699 23.6198 44.4044C24.2123 43.6871 24.4233 42.8589 24.623 41.9729C24.8348 41.033 24.9214 40.1204 24.538 39.2098C24.2533 38.5336 23.7656 37.9928 23.2882 37.4499C22.6776 36.7555 22.0866 36.041 21.4816 35.3415C20.9162 34.6878 20.2677 33.6743 19.4156 33.3903" stroke="#FEBE31" stroke-width="3.5" stroke-linecap="round"/>
<path d="M15.8914 53.2422C16.0402 54.3734 16.2579 55.4911 16.4357 56.6171" stroke="#FEBE31" stroke-width="3.5" stroke-linecap="round"/>
<path d="M8.70605 58.6852C11.1974 58.3921 13.6705 57.8796 16.1696 57.5965C18.1492 57.3723 20.2912 57.2726 22.2058 56.7256" stroke="#FEBE31" stroke-width="3.5" stroke-linecap="round"/>
<path d="M31.0242 37.0205C31.3437 41.1746 31.1236 45.3432 31.5685 49.5041C31.6964 50.7004 31.7863 51.9701 31.7863 53.1754C31.7863 53.4702 31.8951 53.7233 31.8951 54.004" stroke="#FEBE31" stroke-width="3.5" stroke-linecap="round"/>
<path d="M31.7863 45.4032C34.1916 45.4032 36.5646 44.75 38.9716 44.75" stroke="#FEBE31" stroke-width="3.5" stroke-linecap="round"/>
<path d="M27.825 59.7819C25.6424 60.7324 23.0488 62.3327 23.4266 65.1148C23.8495 68.229 28.4059 69.2016 30.6909 67.5695C32.2698 66.4416 32.6755 63.9424 31.725 62.2739C31.0482 61.0858 29.2241 59.9866 27.9372 59.5576" stroke="#FEBE31" stroke-width="3.5" stroke-linecap="round"/>
<path d="M80 34C80.8219 34 81.6496 34.1664 82.4574 34.2922C83.6944 34.4847 84.9447 34.6456 86.1718 34.8889C87.3624 35.1249 88.4768 35.5531 89.6131 35.9506C89.816 36.0216 90.0784 36.125 90.2979 36.1481C90.6332 36.1835 91 36.5828 91 36.8724C91 37.2606 90.8844 37.5396 90.7226 37.9012C90.3054 38.8342 89.8296 39.7365 89.2403 40.5844C87.8021 42.654 86.3635 44.6806 85.0796 46.8477C84.4274 47.9487 83.8039 49.0672 83.1682 50.177C82.9287 50.5952 82.7592 51.0222 82.6351 51.4815C82.5792 51.6887 82.4086 51.8058 82.3404 52" stroke="black" stroke-width="3.5" stroke-linecap="round"/>
<path d="M85 49C85.3375 49.0345 85.6879 49.6282 85.9111 49.8252C87.1833 50.9477 88.6688 51.8183 89.9022 52.9869C90.1214 53.1946 90.4032 53.5726 90.68 53.7222C90.7897 53.7815 90.9482 53.9048 91 54" stroke="black" stroke-width="3.5" stroke-linecap="round"/>
<path d="M92.5029 38C90.0055 38 97.4921 38.2557 99.9888 38.3162C100.92 38.3388 101.993 38.2082 102.91 38.4119C103.006 38.4333 103.021 38.4271 102.975 38.4826C102.854 38.6291 102.817 38.8618 102.739 39.0318C102.417 39.7357 101.976 40.3954 101.588 41.0622C100.725 42.5438 99.7068 43.8983 98.7683 45.3267C97.3151 47.5386 95.9903 49.8963 94.765 52.2457C94.4139 52.9189 94.1073 53.6029 93.7845 54.2885C93.7001 54.4677 93.5499 54.914 93.3817 55" stroke="black" stroke-width="3.5" stroke-linecap="round"/>
<path d="M98 49C98.3639 49.5382 98.9489 49.9538 99.4135 50.3818C99.8997 50.8298 100.418 51.234 100.885 51.7071C101.226 52.0523 101.6 52.778 102 53" stroke="black" stroke-width="3.5" stroke-linecap="round"/>
<path d="M107 38C107 39.6526 107.074 41.2728 107.309 42.9194C107.86 46.7892 107.889 50.6307 107.889 54.514C107.889 55.6835 108 56.8337 108 58" stroke="black" stroke-width="3.5" stroke-linecap="round"/>
<path d="M119.487 34C117.89 35.0881 116.446 36.3853 115.546 38.1631C114.926 39.3879 114.304 40.5691 114.122 41.9619C113.837 44.1406 113.964 46.5762 115.463 48.2672C116.953 49.9479 119.109 50.5697 121.226 50.7997C123.138 51.0075 125.071 51.0749 126.988 50.8994C127.883 50.8175 128.868 50.6002 129.625 50.0712C131.298 48.9032 132.477 47.1235 133.496 45.353C134.091 44.3205 134.225 43.5242 133.538 42.5516C132.178 40.6295 130.359 39.2152 128.686 37.6253C128.158 37.1238 127.513 36.686 126.922 36.2637C126.473 35.9428 125.999 35.4984 125.523 35.2489" stroke="black" stroke-width="3.5" stroke-linecap="round"/>
<path d="M126 52C126 53.8752 126 55.7473 126 57.6186C126 58.7522 126 59.8853 126 61" stroke="black" stroke-width="3.5" stroke-linecap="round"/>
<path d="M121 63C121.433 62.7906 121.935 62.7774 122.393 62.7068C124.062 62.4493 125.736 62.2235 127.419 62.1457C129.422 62.0529 131.431 62.0497 133.436 62.0041C133.961 61.9922 134.48 62.0022 135 62.09" stroke="black" stroke-width="3.5" stroke-linecap="round"/>
<path d="M143 50C146.143 50 149.273 50 152.421 50C153.2 50 153.968 50 154.747 50C155.831 50 156.916 50 158 50" stroke="black" stroke-width="3.5" stroke-linecap="round"/>
<path d="M149 55C150.3 55 151.6 55 152.9 55C153.537 55 154.133 55.0586 154.731 55.3136C155.192 55.5099 155.771 55.6043 155.871 56.2283C155.984 56.9226 155.764 57.8463 155.122 58.136C154.294 58.5092 153.364 58.1126 152.509 58.3102C152.02 58.4233 151.286 58.5605 151.052 59.116C150.823 59.6614 150.936 60.4537 150.948 61.0542C150.957 61.5083 151.065 61.9606 151.087 62.4132C151.097 62.6075 151.168 62.8858 151.369 62.914C152.166 63.0264 153.019 62.9128 153.823 62.9576C154.881 63.0166 155.941 62.9968 157 62.9968" stroke="black" stroke-width="3.5" stroke-linecap="round"/>
<path d="M144 31.642C144.212 31.4765 144.721 31.5523 144.978 31.5154C145.681 31.4147 146.373 31.3708 147.072 31.2341C147.701 31.1111 148.372 31.0152 149.014 31.0091C149.233 31.007 149.515 30.9514 149.669 31.1427C149.992 31.5439 150.263 31.8776 150.525 32.3242C150.777 32.7534 150.962 33.2238 151.201 33.6533C151.624 34.4104 151.64 35.2623 151.64 36.1077C151.64 36.5625 151.631 36.968 151.147 37.029C150.069 37.165 148.98 37.1863 147.896 37.3068C147.523 37.3481 147.168 37.4084 146.799 37.4791C146.286 37.577 145.963 37.504 145.799 38.0276C145.237 39.8177 145.103 42.036 145.716 43.833C145.937 44.4802 146.264 44.9969 147.058 44.9969C148.139 44.9969 149.221 45.0039 150.302 44.9969C151.203 44.9911 152.099 44.8703 153 44.8703" stroke="black" stroke-width="3.5" stroke-linecap="round"/>
<path d="M191 53.6667C192.885 53.4592 194.837 53.4117 196.709 53.0952C197.02 53.0426 197.318 53 197.632 53C198.29 53 197.9 53.4016 197.723 53.9735C196.966 56.4143 195.924 58.7719 194.977 61.1376C194.73 61.7566 194.38 62.3694 194.18 63" stroke="black" stroke-width="3.5" stroke-linecap="round"/>
<path d="M197 58C197.272 58.0825 197.573 58.4084 197.821 58.5667C198.511 59.0087 199.191 59.4719 199.876 59.9238C200.28 60.1904 200.784 60.5185 201 61" stroke="black" stroke-width="3.5" stroke-linecap="round"/>
<path d="M198 33C198.101 35.1357 198.259 37.2389 198.56 39.3483C198.75 40.6808 198.918 42.0131 199.074 43.3511C199.181 44.2666 199.316 45.1398 199.593 46.015C199.792 46.6439 199.744 47.418 200 48" stroke="black" stroke-width="3.5" stroke-linecap="round"/>
<path d="M199 42C200.668 42 202.332 41 204 41" stroke="black" stroke-width="3.5" stroke-linecap="round"/>
<path d="M175 27C176.294 27 177.569 27 178.877 27C179.583 27 180.293 27 181 27" stroke="black" stroke-width="3.5" stroke-linecap="round"/>
<path d="M172 34.7062C172.225 34.5979 172.478 34.5555 172.717 34.4914C173.47 34.2896 174.208 34.0376 174.957 33.8213C176.589 33.3497 178.246 32.9974 179.918 32.7002C181.808 32.3643 183.82 32 185.746 32C186.338 32 186.921 32.0773 187.508 32.0773C187.569 32.0773 188.059 32.0289 187.994 32.1375C187.744 32.558 187.58 32.9972 187.388 33.4476C187.07 34.1952 186.691 34.9155 186.386 35.6684C185.674 37.4264 185.092 39.2326 184.346 40.9777C183.864 42.1055 183.709 43.3313 183.327 44.4871C183.052 45.3159 182.898 46.24 182.521 47" stroke="black" stroke-width="3.5" stroke-linecap="round"/>
<path d="M185 41C185.778 41 186.611 41.5048 187.295 41.8889C188.07 42.3237 188.778 42.8877 189.439 43.5284C189.939 44.0131 190.418 44.6593 191 45" stroke="black" stroke-width="3.5" stroke-linecap="round"/>
<path d="M218.015 31C216.283 31.2097 214.579 31.288 213.199 32.4056C212.473 32.9938 212.004 33.6773 211.421 34.3769C210.815 35.1053 210.173 35.918 210.068 36.8843C209.701 40.2829 210.847 43.6182 212.75 46.4255C214.358 48.7974 217.205 49.5754 219.965 49.9156C220.814 50.0202 221.727 50.0221 222.579 49.9514C223.627 49.8644 224.776 49.814 225.803 49.6059C226.91 49.3816 228.095 48.8893 228.976 48.1884C231.237 46.3907 232.51 43.6034 231.806 40.7556C231.308 38.7436 230.88 36.9726 229.419 35.4013C228.562 34.4787 227.593 33.3931 226.473 32.7689C225.734 32.3571 224.627 31.8576 223.773 31.8576" stroke="black" stroke-width="3.5" stroke-linecap="round"/>
<path d="M238 31C238 33.1037 238.505 35.2349 238.778 37.322C239.057 39.4602 239.017 41.6272 239.284 43.757C239.583 46.1456 240 48.5924 240 51" stroke="black" stroke-width="3.5" stroke-linecap="round"/>
<path d="M240 43H245" stroke="black" stroke-width="3.5" stroke-linecap="round"/>
<path d="M252 33C254.312 33.0936 256.627 33 258.943 33C259.189 33 259.341 33.012 259.525 33.163C260.065 33.6044 260.595 34.3023 260.954 34.9004C261.229 35.3584 261.432 35.8693 261.613 36.3707C261.957 37.3271 262.404 38.2487 262.577 39.2594C262.622 39.5236 262.659 39.8371 262.549 40.0848C262.467 40.2699 262.171 40.2819 262.001 40.3067C261.35 40.402 260.72 40.5273 260.059 40.5529C259.079 40.591 258.102 40.5927 257.122 40.6188C256.705 40.6299 256.282 40.7169 255.894 40.872C255.407 41.0667 255.019 41.2981 254.719 41.7389C254.172 42.5408 254.066 43.4799 254.06 44.423C254.05 45.8828 254.152 47.2429 254.545 48.6537C254.897 49.9131 255.503 51.0992 255.995 52.3019C256.148 52.6771 256.407 52.9572 256.786 53.1134C257.36 53.3503 258.105 53.317 258.714 53.3977C259.602 53.5156 260.501 53.5989 261.398 53.5989C261.535 53.5989 262.17 53.6488 262.286 53.5226C262.359 53.4427 262.526 53.086 262.549 52.9746C262.591 52.7753 262.791 52.5601 262.861 52.3504" stroke="black" stroke-width="3.5" stroke-linecap="round"/>
<path d="M269.103 37.0576C268.763 41.8191 268.604 46.638 268.604 51.4144" stroke="black" stroke-width="3.5" stroke-linecap="round"/>
<path d="M269.915 45.8584C270.675 45.8584 271.463 46.1081 272.224 46.1081" stroke="black" stroke-width="3.5" stroke-linecap="round"/>
<path d="M276.906 33.874C276.669 36.2436 276.843 38.6949 276.843 41.0836C276.843 41.7311 276.74 42.3758 276.705 43.0221C276.673 43.6036 276.718 44.3001 276.531 44.8601" stroke="black" stroke-width="3.5" stroke-linecap="round"/>
<path d="M276.781 50.3535C276.635 50.3717 276.609 50.7202 276.469 50.7905" stroke="black" stroke-width="3.5" stroke-linecap="round"/>
<path d="M282.898 37.3071C282.638 38.1441 282.716 39.1544 282.649 40.019C282.576 40.9505 282.562 41.8889 282.461 42.8175C282.41 43.2882 282.337 43.7685 282.271 44.2358C282.177 44.8885 281.962 45.5887 281.962 46.2333" stroke="black" stroke-width="3.5" stroke-linecap="round"/>
<path d="M282.087 51.4141C282.005 51.4141 281.995 51.4105 281.962 51.4765" stroke="black" stroke-width="3.5" stroke-linecap="round"/>
<path d="M239.786 1.28882C241.531 1.25165 244.115 1.21364 245.86 1.21364C247.064 1.21364 248.269 1.14771 249.469 1.07517C250.825 0.993139 252.217 1.07121 253.575 1.07121C254.943 1.07121 256.306 1 257.678 1C261.147 1 264.615 1.04944 268.081 1.13847C271.016 1.21384 273.992 1.22832 276.78 2.19483C278.754 2.87909 280.755 3.4626 282.512 4.56074C283.522 5.19183 284.62 5.96939 285.289 6.92665C286.031 7.98816 286.111 9.40667 285.897 10.61C285.752 11.4236 285.346 12.2454 285.053 13.0195C284.913 13.3867 284.745 13.7088 284.546 14.0481C284.257 14.5411 283.995 15.0406 283.698 15.5278C283.317 16.1523 282.789 16.9026 282.14 17.3082C281.652 17.6135 281.083 17.776 280.579 18.052C279.99 18.3741 279.209 18.6175 278.553 18.7879C277.035 19.1823 275.487 19.4201 273.927 19.6227C272.018 19.8704 270.083 19.8007 268.162 19.8007C266.457 19.8007 264.751 19.7817 263.046 19.8007C261.185 19.8215 259.321 19.9312 257.458 19.9431C256.375 19.9501 255.306 20.1713 254.229 20.2597C253.293 20.3364 252.345 20.2992 251.406 20.2992C247.781 20.2992 244.271 19.8997 240.728 19.1756C238.022 18.6225 235.293 17.7754 232.945 16.3666C231.814 15.688 231.101 14.5929 231.05 13.336C230.928 10.3662 230.937 7.41858 232.185 4.64778C232.898 3.06599 234.999 2.34542 236.554 1.75171C236.894 1.62185 237.277 1.60379 237.638 1.55389C238.36 1.45413 239.052 1.30447 239.786 1.28882Z" fill="#66BE8B" stroke="#489B6D" stroke-width="2" stroke-linecap="round"/>
<path d="M237 9.47679C237 9.66223 237.248 9.73749 237.383 9.79475C238.038 10.0723 238.713 10.2938 239.413 10.3985C240.171 10.512 240.961 10.5906 241.712 10.3871C242.022 10.3031 242.263 10.0752 242.479 9.83837C243.106 9.1527 242.686 8.0245 242.054 7.51848C241.687 7.22391 241.264 7.0339 240.802 7.00193C240.642 6.99084 240.47 7.02885 240.32 7.08343C240.075 7.17249 239.822 7.24594 239.582 7.34859C239.072 7.56619 238.591 7.9708 238.356 8.50452C238.23 8.79202 238.195 9.12223 238.157 9.43317C238.116 9.7663 238.078 10.0956 238.078 10.4318C238.078 10.9582 238.115 11.5029 238.326 11.9884C238.575 12.5644 238.927 13.0369 239.426 13.3934C239.954 13.771 240.619 13.8871 241.242 13.9559C241.511 13.9856 241.887 14.0608 242.133 13.9031C242.356 13.76 242.571 13.63 242.815 13.5266C242.891 13.4942 242.936 13.468 243 13.4232" stroke="#489B6D" stroke-width="2" stroke-linecap="round"/>
<path d="M246 8C246.277 9.22245 246.66 10.4372 247.181 11.557C247.255 11.7168 247.379 11.8052 247.473 11.9534C247.659 12.2459 247.851 12.4851 248.076 12.7376C248.136 12.8056 248.246 13.0202 248.352 12.9985C248.521 12.9639 248.703 12.6367 248.802 12.5089C249.306 11.8608 249.805 11.2269 250.247 10.5204C250.524 10.0766 250.722 9.57011 250.837 9.04339C250.873 8.87969 250.953 8.73649 251 8.57929" stroke="#489B6D" stroke-width="2" stroke-linecap="round"/>
<path d="M254 11.7338C254.877 11.7338 255.757 11.5611 256.621 11.4121C257.234 11.3063 257.869 11.2011 258.462 10.9893C258.735 10.8916 259.096 10.7295 259.162 10.3707C259.311 9.56363 258.695 8.81859 258.124 8.46358C257.691 8.19355 257.223 8.02704 256.728 8.00195C256.335 7.98207 256.053 8.11401 255.748 8.39208C255.191 8.90135 254.779 9.74371 254.819 10.5619C254.871 11.6141 255.506 12.5665 256.18 13.2539C256.635 13.7189 257.33 13.7087 257.909 13.7762C258.605 13.8574 259.299 14 260 14" stroke="#489B6D" stroke-width="2" stroke-linecap="round"/>
<path d="M263 9.14119C263 10.5413 263.247 11.9294 263.247 13.3261C263.247 13.3808 263.219 13.7472 263.269 13.634C263.396 13.3457 263.525 13.0656 263.622 12.7663C263.784 12.2593 263.912 11.7351 264.116 11.2409C264.308 10.7741 264.528 10.221 264.894 9.84411C265.264 9.46361 265.77 9.09694 266.337 9.018C267.02 8.92294 267.834 9.21232 268.275 9.69737C268.532 9.98039 268.776 10.3075 268.873 10.6702C269.008 11.1758 268.99 11.7361 268.998 12.2536C269.006 12.712 268.985 13.1715 268.947 13.6286C268.942 13.6999 268.97 13.9652 268.894 14" stroke="#489B6D" stroke-width="2" stroke-linecap="round"/>
<path d="M272 8.7959C272.308 8.7959 272.622 8.7959 272.929 8.7959C273.686 8.7959 274.411 8.7959 275.162 8.7959C275.899 8.7959 276.648 8.7959 277.388 8.7959" stroke="#489B6D" stroke-width="2" stroke-linecap="round"/>
<path d="M274.869 7C274.843 8.68717 274.826 10.376 274.772 12.063C274.754 12.6319 274.73 13.1997 274.73 13.7689C274.73 13.8095 274.673 14.0084 274.702 14.035C274.781 14.1066 275.074 14.078 275.169 14.078C275.496 14.078 275.825 14.0703 276.152 14.0859C276.562 14.1054 276.984 14.1837 277.388 14.1837" stroke="#489B6D" stroke-width="2" stroke-linecap="round"/>
</svg>
