<svg width="87" height="56" viewBox="0 0 87 56" fill="none" xmlns="http://www.w3.org/2000/svg">
<path d="M6.14868 7.05083C7.4074 6.5359 8.90551 6.44237 10.2173 6.05654C11.2232 5.7607 12.2258 5.42347 13.2856 5.40385C13.9805 5.39098 14.6767 5.40385 15.3718 5.40385C15.6842 5.40385 16.6894 5.19495 16.6894 5.48315C16.6894 8.55807 15.5931 11.1651 14.2738 13.9072C13.4961 15.5236 13.1642 17.3243 12.4682 18.9152C12.4012 19.0683 12.2877 19.4021 12.2974 19.5679C12.3094 19.7713 15.3878 19.8034 15.7561 19.8424C18.1507 20.0959 20.5604 19.8516 22.9479 20.1169" stroke="#489B6D" stroke-width="3" stroke-linecap="round"/>
<path d="M25.8027 4.30591C28.152 4.30591 30.4261 4.87385 32.7567 4.9586C33.7781 4.99575 34.8435 5.1843 35.8493 5.1843C37.3202 5.1843 36.7642 6.90917 36.502 7.88657C35.9875 9.80425 34.682 11.5559 33.6838 13.2484C32.9831 14.4366 32.5642 15.8359 32.0857 17.128C31.9667 17.449 32.0413 17.4278 32.4151 17.677C33.5575 18.4386 35.0707 18.9294 36.38 19.3239C37.4634 19.6504 38.5383 19.8867 39.6496 20.0925C39.8258 20.1252 40.1131 20.1899 40.1864 20.3365" stroke="#489B6D" stroke-width="3" stroke-linecap="round"/>
<path d="M55.668 2V2.1098" stroke="#489B6D" stroke-width="3" stroke-linecap="round"/>
<path d="M54.4603 8.03906C54.0731 8.08746 53.3449 10.0947 53.2159 10.4058C52.6816 11.695 52.247 13.0299 51.9898 14.4013C51.6922 15.9886 51.2761 17.617 51.2761 19.2385" stroke="#489B6D" stroke-width="3" stroke-linecap="round"/>
<path d="M68.2818 10.0561C69.1553 9.89724 70.1024 9.63489 70.9928 9.63489C71.3927 9.63489 72.8037 10.1583 73.2149 10.2497C73.5483 10.3238 74.2128 10.5856 74.4591 10.7871C74.8539 11.1101 75.4777 11.1343 75.9211 11.4164C76.6111 11.8555 76.9722 12.3584 77.4848 12.985C77.9098 13.5044 78.1171 14.6423 78.1384 15.2797C78.1561 15.8114 78.3387 16.3723 78.3949 16.9063C78.4535 17.4627 78.3998 18.0553 78.3998 18.6152C78.3998 20.8559 77.1103 22.8567 75.0884 23.8388C74.1908 24.2748 73.2247 24.2878 72.2419 24.3665C70.8766 24.4757 69.3154 24.6429 67.972 24.2745C67.25 24.0765 66.5074 23.9888 65.8758 23.5677C65.2271 23.1352 64.5764 22.7379 64.0216 22.1831C63.1153 21.2768 62.5033 20.39 62.2788 19.0993C62.114 18.152 62.3252 17.3009 62.3659 16.3641C62.4293 14.9075 63.0948 13.8396 63.9926 12.7623C64.4833 12.1733 65.2341 11.7559 65.8516 11.3099C66.0805 11.1445 66.3944 10.9398 66.6552 10.8355C66.8939 10.74 67.221 10.4932 67.4201 10.332C67.6103 10.1781 68.0325 10.1014 68.2694 10.0583L68.2818 10.0561Z" fill="#FEBE31" stroke="#489B6D" stroke-width="3" stroke-linecap="round"/>
<path d="M69.2739 16.914C70.3664 17.3822 71.7758 17.6108 72.9511 17.7176C73.8138 17.796 74.6752 17.7787 75.5409 17.7787C77.3607 17.7787 79.2782 17.9698 81.0305 17.3857C81.5403 17.2158 82.1005 17.0619 82.6028 16.9184C82.9945 16.8065 83.7823 16.4328 83.9741 16.0493" stroke="#489B6D" stroke-width="3" stroke-linecap="round"/>
<path d="M14.3061 34.2589C13.7921 33.8502 12.9081 33.9516 12.2961 33.9516C10.3692 33.9516 8.9922 34.322 7.27992 35.0957C6.11936 35.6201 5.2628 36.625 4.3767 37.5205C3.20499 38.7047 2.28852 40.2179 1.7827 41.7982C0.767773 44.969 2.63851 48.6737 4.96078 50.7975C6.66127 52.3526 8.77755 53.6122 11.1366 53.7859C12.2811 53.8702 13.7097 54.175 14.7699 53.5895C16.0255 52.8961 16.6841 51.4824 17.2093 50.2425C17.6967 49.0917 17.4314 48.0163 17.3982 46.8614C17.3706 45.8983 17.1743 44.4527 16.6252 43.6339" stroke="#489B6D" stroke-width="3" stroke-linecap="round"/>
<path d="M10.7504 45.1721C9.49406 45.1721 13.3169 44.9557 14.4405 44.3616C15.6616 43.716 16.6629 43.7906 17.7029 44.7386C18.4581 45.427 19.6065 46.9866 19.8956 48.0563C20.0909 48.779 20.7329 49.2008 21.0187 49.8848C21.1715 50.2504 21.343 50.6083 21.5 50.9404" stroke="#489B6D" stroke-width="3" stroke-linecap="round"/>
<path d="M34.1354 37.9404C33.5997 37.9404 33.064 37.9404 32.5283 37.9404C31.7794 37.9404 31.1903 38.5879 30.5533 39.0127C29.6457 39.6181 28.8333 41.4208 28.4234 42.5034C27.8761 43.9489 27.5884 45.6834 27.5231 47.2603C27.4219 49.705 27.5713 50.8873 29.682 51.5837C31.4359 52.1623 33.2058 52.0608 34.8131 51.1045C36.7086 49.9767 36.9429 48.405 37.4077 46.1537C37.7104 44.6873 37.8251 43.1713 37.185 41.8303C36.7537 40.9268 35.8403 40.498 35.452 39.5831C35.3251 39.2839 35.2934 39.2041 35.5101 39.5146C36.1359 40.4114 36.8046 41.2788 37.4561 42.1498C39.1278 44.3848 40.8542 46.5607 42.5 48.8231" stroke="#489B6D" stroke-width="3" stroke-linecap="round"/>
<path d="M48.5 38.4378C48.5 42.551 50.2349 46.5317 50.2349 50.6562C50.2349 52.0675 50.0807 47.8372 50.0807 46.4259C50.0807 43.7635 50.7581 41.2345 52.5867 39.4706C53.1915 38.8872 53.9797 38.3389 54.7457 38.0862C55.8299 37.7284 55.7521 38.0093 56.1433 39.152C57.2189 42.2943 57.3737 45.5077 56.789 48.7663C56.498 50.3886 57.1234 47.9556 57.2131 47.5576C57.6054 45.8185 57.9165 44.0502 58.7264 42.4923C59.665 40.6865 60.2666 40.2242 61.9938 39.8662C63.4286 39.5688 63.9575 43.2719 64.201 44.3822C64.6482 46.4215 64.4612 48.6145 64.4612 50.7001" stroke="#489B6D" stroke-width="3" stroke-linecap="round"/>
<path d="M73.1274 44.8665C71.2101 44.8665 76.9541 44.5117 78.8271 44.1108C79.5034 43.966 80.1726 43.7416 80.8583 43.6422C81.2957 43.5788 83.0574 43.6771 82.9899 43.083C82.7858 41.2846 81.7806 38.9907 80.6344 37.5886C80.4522 37.3658 79.5116 37.1504 79.221 37.1125C78.5155 37.0204 77.5899 36.8118 76.8886 37.052C74.831 37.7567 72.841 39.1648 71.9071 41.1331C70.9963 43.0528 71.7801 45.7485 72.6331 47.557C73.5754 49.5549 75.6877 50.0117 77.576 50.6859C79.0936 51.2277 80.6976 51.4213 82.2717 51.6986C83.3322 51.8854 84.424 51.79 85.5 51.9404" stroke="#489B6D" stroke-width="3" stroke-linecap="round"/>
</svg>
